<?xml version="1.0" encoding="UTF-8" standalone="no"?>
<!DOCTYPE svg PUBLIC "-//W3C//DTD SVG 1.1//EN"
 "http://www.w3.org/Graphics/SVG/1.1/DTD/svg11.dtd">
<!-- Generated by graphviz version 7.0.3 (20221126.0506)
 -->
<!-- Title: new_petri_net Pages: 1 -->
<svg width="1330pt" height="206pt"
 viewBox="0.00 0.00 1330.00 206.00" xmlns="http://www.w3.org/2000/svg" xmlns:xlink="http://www.w3.org/1999/xlink">
<g id="graph0" class="graph" transform="scale(1 1) rotate(0) translate(4 202)">
<title>new_petri_net</title>
<polygon fill="white" stroke="none" points="-4,4 -4,-202 1326,-202 1326,4 -4,4"/>
<!-- 1322045611584 -->
<g id="node1" class="node">
<title>1322045611584</title>
<polygon fill="white" stroke="black" points="324,-117 270,-117 270,-81 324,-81 324,-117"/>
<text text-anchor="middle" x="297" y="-95.9" font-family="Times New Roman,serif" font-size="12.00">a</text>
</g>
<!-- 1322045610576 -->
<g id="node15" class="node">
<title>1322045610576</title>
<ellipse fill="white" stroke="black" cx="387" cy="-99" rx="27" ry="27"/>
</g>
<!-- 1322045611584&#45;&gt;1322045610576 -->
<g id="edge1" class="edge">
<title>1322045611584&#45;&gt;1322045610576</title>
<path fill="none" stroke="black" d="M324.4,-99C331.89,-99 340.18,-99 348.2,-99"/>
<polygon fill="black" stroke="black" points="348.1,-102.5 358.1,-99 348.1,-95.5 348.1,-102.5"/>
</g>
<!-- 1322045614416 -->
<g id="node20" class="node">
<title>1322045614416</title>
<ellipse fill="white" stroke="black" cx="387" cy="-27" rx="27" ry="27"/>
</g>
<!-- 1322045611584&#45;&gt;1322045614416 -->
<g id="edge2" class="edge">
<title>1322045611584&#45;&gt;1322045614416</title>
<path fill="none" stroke="black" d="M320.21,-80.83C331.32,-71.74 344.92,-60.61 356.87,-50.84"/>
<polygon fill="black" stroke="black" points="358.92,-53.68 364.44,-44.64 354.48,-48.26 358.92,-53.68"/>
</g>
<!-- 1322045610384 -->
<g id="node21" class="node">
<title>1322045610384</title>
<ellipse fill="white" stroke="black" cx="387" cy="-171" rx="27" ry="27"/>
</g>
<!-- 1322045611584&#45;&gt;1322045610384 -->
<g id="edge3" class="edge">
<title>1322045611584&#45;&gt;1322045610384</title>
<path fill="none" stroke="black" d="M320.21,-117.17C331.32,-126.26 344.92,-137.39 356.87,-147.16"/>
<polygon fill="black" stroke="black" points="354.48,-149.74 364.44,-153.36 358.92,-144.32 354.48,-149.74"/>
</g>
<!-- 1322045611872 -->
<g id="node2" class="node">
<title>1322045611872</title>
<polygon fill="white" stroke="black" points="1044,-172 990,-172 990,-136 1044,-136 1044,-172"/>
<text text-anchor="middle" x="1017" y="-150.9" font-family="Times New Roman,serif" font-size="12.00">d</text>
</g>
<!-- 1322045613264 -->
<g id="node19" class="node">
<title>1322045613264</title>
<ellipse fill="white" stroke="black" cx="1107" cy="-154" rx="27" ry="27"/>
</g>
<!-- 1322045611872&#45;&gt;1322045613264 -->
<g id="edge6" class="edge">
<title>1322045611872&#45;&gt;1322045613264</title>
<path fill="none" stroke="black" d="M1044.4,-154C1051.89,-154 1060.18,-154 1068.2,-154"/>
<polygon fill="black" stroke="black" points="1068.1,-157.5 1078.1,-154 1068.1,-150.5 1068.1,-157.5"/>
</g>
<!-- 1322045613408 -->
<g id="node3" class="node">
<title>1322045613408</title>
<polygon fill="white" stroke="black" points="504,-188 450,-188 450,-152 504,-152 504,-188"/>
<text text-anchor="middle" x="477" y="-166.9" font-family="Times New Roman,serif" font-size="12.00">e</text>
</g>
<!-- 1322045612784 -->
<g id="node14" class="node">
<title>1322045612784</title>
<ellipse fill="white" stroke="black" cx="657" cy="-166" rx="27" ry="27"/>
</g>
<!-- 1322045613408&#45;&gt;1322045612784 -->
<g id="edge7" class="edge">
<title>1322045613408&#45;&gt;1322045612784</title>
<path fill="none" stroke="black" d="M504.26,-169.41C534.37,-168.73 583.96,-167.62 618.21,-166.85"/>
<polygon fill="black" stroke="black" points="618.2,-170.35 628.11,-166.63 618.04,-163.35 618.2,-170.35"/>
</g>
<!-- 1322045606112 -->
<g id="node4" class="node">
<title>1322045606112</title>
<polygon fill="black" stroke="black" points="1224,-100 1170,-100 1170,-64 1224,-64 1224,-100"/>
</g>
<!-- 1322045612304 -->
<g id="node26" class="node">
<title>1322045612304</title>
<ellipse fill="white" stroke="black" cx="1291" cy="-82" rx="27" ry="27"/>
<ellipse fill="none" stroke="black" cx="1291" cy="-82" rx="31" ry="31"/>
<text text-anchor="start" x="1281" y="-73.9" font-family="Times New Roman,serif" font-size="32.00">â– </text>
</g>
<!-- 1322045606112&#45;&gt;1322045612304 -->
<g id="edge8" class="edge">
<title>1322045606112&#45;&gt;1322045612304</title>
<path fill="none" stroke="black" d="M1224.12,-82C1231.63,-82 1240.01,-82 1248.22,-82"/>
<polygon fill="black" stroke="black" points="1248.08,-85.5 1258.08,-82 1248.08,-78.5 1248.08,-85.5"/>
</g>
<!-- 1322045606304 -->
<g id="node5" class="node">
<title>1322045606304</title>
<polygon fill="white" stroke="black" points="1044,-100 990,-100 990,-64 1044,-64 1044,-100"/>
<text text-anchor="middle" x="1017" y="-78.9" font-family="Times New Roman,serif" font-size="12.00">f</text>
</g>
<!-- 1322045604528 -->
<g id="node25" class="node">
<title>1322045604528</title>
<ellipse fill="white" stroke="black" cx="1107" cy="-82" rx="27" ry="27"/>
</g>
<!-- 1322045606304&#45;&gt;1322045604528 -->
<g id="edge9" class="edge">
<title>1322045606304&#45;&gt;1322045604528</title>
<path fill="none" stroke="black" d="M1044.4,-82C1051.89,-82 1060.18,-82 1068.2,-82"/>
<polygon fill="black" stroke="black" points="1068.1,-85.5 1078.1,-82 1068.1,-78.5 1068.1,-85.5"/>
</g>
<!-- 1322045605920 -->
<g id="node6" class="node">
<title>1322045605920</title>
<polygon fill="black" stroke="black" points="144,-117 90,-117 90,-81 144,-81 144,-117"/>
</g>
<!-- 1322045613216 -->
<g id="node16" class="node">
<title>1322045613216</title>
<ellipse fill="white" stroke="black" cx="207" cy="-99" rx="27" ry="27"/>
</g>
<!-- 1322045605920&#45;&gt;1322045613216 -->
<g id="edge26" class="edge">
<title>1322045605920&#45;&gt;1322045613216</title>
<path fill="none" stroke="black" d="M144.4,-99C151.89,-99 160.18,-99 168.2,-99"/>
<polygon fill="black" stroke="black" points="168.1,-102.5 178.1,-99 168.1,-95.5 168.1,-102.5"/>
</g>
<!-- 1322045606016 -->
<g id="node7" class="node">
<title>1322045606016</title>
<polygon fill="white" stroke="black" points="684,-45 630,-45 630,-9 684,-9 684,-45"/>
<text text-anchor="middle" x="657" y="-23.9" font-family="Times New Roman,serif" font-size="12.00">h</text>
</g>
<!-- 1322045612880 -->
<g id="node13" class="node">
<title>1322045612880</title>
<ellipse fill="white" stroke="black" cx="837" cy="-27" rx="27" ry="27"/>
</g>
<!-- 1322045606016&#45;&gt;1322045612880 -->
<g id="edge11" class="edge">
<title>1322045606016&#45;&gt;1322045612880</title>
<path fill="none" stroke="black" d="M684.26,-27C714.37,-27 763.96,-27 798.21,-27"/>
<polygon fill="black" stroke="black" points="798.11,-30.5 808.11,-27 798.11,-23.5 798.11,-30.5"/>
</g>
<!-- 1322045605248 -->
<g id="node8" class="node">
<title>1322045605248</title>
<polygon fill="white" stroke="black" points="504,-45 450,-45 450,-9 504,-9 504,-45"/>
<text text-anchor="middle" x="477" y="-23.9" font-family="Times New Roman,serif" font-size="12.00">g</text>
</g>
<!-- 1322045614272 -->
<g id="node17" class="node">
<title>1322045614272</title>
<ellipse fill="white" stroke="black" cx="567" cy="-27" rx="27" ry="27"/>
</g>
<!-- 1322045605248&#45;&gt;1322045614272 -->
<g id="edge10" class="edge">
<title>1322045605248&#45;&gt;1322045614272</title>
<path fill="none" stroke="black" d="M504.4,-27C511.89,-27 520.18,-27 528.2,-27"/>
<polygon fill="black" stroke="black" points="528.1,-30.5 538.1,-27 528.1,-23.5 528.1,-30.5"/>
</g>
<!-- 1322045606160 -->
<g id="node9" class="node">
<title>1322045606160</title>
<polygon fill="black" stroke="black" points="864,-149 810,-149 810,-113 864,-113 864,-149"/>
</g>
<!-- 1322045611824 -->
<g id="node22" class="node">
<title>1322045611824</title>
<ellipse fill="white" stroke="black" cx="927" cy="-82" rx="27" ry="27"/>
</g>
<!-- 1322045606160&#45;&gt;1322045611824 -->
<g id="edge27" class="edge">
<title>1322045606160&#45;&gt;1322045611824</title>
<path fill="none" stroke="black" d="M864.4,-116.3C873.4,-111.29 883.57,-105.62 893.02,-100.36"/>
<polygon fill="black" stroke="black" points="894.54,-103.52 901.58,-95.6 891.14,-97.41 894.54,-103.52"/>
</g>
<!-- 1322045610192 -->
<g id="node24" class="node">
<title>1322045610192</title>
<ellipse fill="white" stroke="black" cx="927" cy="-154" rx="27" ry="27"/>
</g>
<!-- 1322045606160&#45;&gt;1322045610192 -->
<g id="edge28" class="edge">
<title>1322045606160&#45;&gt;1322045610192</title>
<path fill="none" stroke="black" d="M864.4,-137.9C872.27,-139.96 881.03,-142.25 889.43,-144.44"/>
<polygon fill="black" stroke="black" points="888.5,-147.82 899.06,-146.96 890.27,-141.04 888.5,-147.82"/>
</g>
<!-- 1322045614320 -->
<g id="node10" class="node">
<title>1322045614320</title>
<polygon fill="white" stroke="black" points="504,-118 450,-118 450,-82 504,-82 504,-118"/>
<text text-anchor="middle" x="477" y="-96.9" font-family="Times New Roman,serif" font-size="12.00">b</text>
</g>
<!-- 1322045611632 -->
<g id="node23" class="node">
<title>1322045611632</title>
<ellipse fill="white" stroke="black" cx="567" cy="-100" rx="27" ry="27"/>
</g>
<!-- 1322045614320&#45;&gt;1322045611632 -->
<g id="edge4" class="edge">
<title>1322045614320&#45;&gt;1322045611632</title>
<path fill="none" stroke="black" d="M504.4,-100C511.89,-100 520.18,-100 528.2,-100"/>
<polygon fill="black" stroke="black" points="528.1,-103.5 538.1,-100 528.1,-96.5 528.1,-103.5"/>
</g>
<!-- 1322045604720 -->
<g id="node11" class="node">
<title>1322045604720</title>
<polygon fill="white" stroke="black" points="684,-120 630,-120 630,-84 684,-84 684,-120"/>
<text text-anchor="middle" x="657" y="-98.9" font-family="Times New Roman,serif" font-size="12.00">c</text>
</g>
<!-- 1322045612736 -->
<g id="node18" class="node">
<title>1322045612736</title>
<ellipse fill="white" stroke="black" cx="747" cy="-104" rx="27" ry="27"/>
</g>
<!-- 1322045604720&#45;&gt;1322045612736 -->
<g id="edge5" class="edge">
<title>1322045604720&#45;&gt;1322045612736</title>
<path fill="none" stroke="black" d="M684.4,-102.6C691.89,-102.77 700.18,-102.96 708.2,-103.14"/>
<polygon fill="black" stroke="black" points="708.03,-106.64 718.1,-103.37 708.18,-99.64 708.03,-106.64"/>
</g>
<!-- 1322045606880 -->
<g id="node12" class="node">
<title>1322045606880</title>
<ellipse fill="white" stroke="black" cx="27" cy="-99" rx="27" ry="27"/>
<text text-anchor="start" x="16" y="-90.3" font-family="Times New Roman,serif" font-size="34.00">â—</text>
</g>
<!-- 1322045606880&#45;&gt;1322045605920 -->
<g id="edge25" class="edge">
<title>1322045606880&#45;&gt;1322045605920</title>
<path fill="none" stroke="black" d="M54.4,-99C61.89,-99 70.18,-99 78.2,-99"/>
<polygon fill="black" stroke="black" points="78.1,-102.5 88.1,-99 78.1,-95.5 78.1,-102.5"/>
</g>
<!-- 1322045612880&#45;&gt;1322045606112 -->
<g id="edge12" class="edge">
<title>1322045612880&#45;&gt;1322045606112</title>
<path fill="none" stroke="black" d="M864.04,-24.75C916.47,-21.06 1037.93,-16.8 1134,-46 1143.06,-48.75 1152.21,-53.05 1160.6,-57.73"/>
<polygon fill="black" stroke="black" points="1158.7,-60.67 1169.09,-62.77 1162.28,-54.66 1158.7,-60.67"/>
</g>
<!-- 1322045612784&#45;&gt;1322045606160 -->
<g id="edge13" class="edge">
<title>1322045612784&#45;&gt;1322045606160</title>
<path fill="none" stroke="black" d="M683.88,-160.91C714.03,-154.98 764.08,-145.14 798.49,-138.38"/>
<polygon fill="black" stroke="black" points="798.88,-141.87 808.02,-136.5 797.53,-135 798.88,-141.87"/>
</g>
<!-- 1322045610576&#45;&gt;1322045614320 -->
<g id="edge14" class="edge">
<title>1322045610576&#45;&gt;1322045614320</title>
<path fill="none" stroke="black" d="M414.4,-99.3C421.89,-99.39 430.18,-99.48 438.2,-99.57"/>
<polygon fill="black" stroke="black" points="438.06,-103.07 448.1,-99.68 438.14,-96.07 438.06,-103.07"/>
</g>
<!-- 1322045613216&#45;&gt;1322045611584 -->
<g id="edge15" class="edge">
<title>1322045613216&#45;&gt;1322045611584</title>
<path fill="none" stroke="black" d="M234.4,-99C241.89,-99 250.18,-99 258.2,-99"/>
<polygon fill="black" stroke="black" points="258.1,-102.5 268.1,-99 258.1,-95.5 258.1,-102.5"/>
</g>
<!-- 1322045614272&#45;&gt;1322045606016 -->
<g id="edge16" class="edge">
<title>1322045614272&#45;&gt;1322045606016</title>
<path fill="none" stroke="black" d="M594.4,-27C601.89,-27 610.18,-27 618.2,-27"/>
<polygon fill="black" stroke="black" points="618.1,-30.5 628.1,-27 618.1,-23.5 618.1,-30.5"/>
</g>
<!-- 1322045612736&#45;&gt;1322045606160 -->
<g id="edge17" class="edge">
<title>1322045612736&#45;&gt;1322045606160</title>
<path fill="none" stroke="black" d="M772.98,-111.66C781.06,-114.14 790.19,-116.94 798.95,-119.63"/>
<polygon fill="black" stroke="black" points="797.69,-122.91 808.28,-122.5 799.75,-116.22 797.69,-122.91"/>
</g>
<!-- 1322045613264&#45;&gt;1322045606112 -->
<g id="edge18" class="edge">
<title>1322045613264&#45;&gt;1322045606112</title>
<path fill="none" stroke="black" d="M1128.41,-137.3C1139.17,-128.5 1152.61,-117.5 1164.66,-107.64"/>
<polygon fill="black" stroke="black" points="1166.84,-110.38 1172.37,-101.34 1162.41,-104.96 1166.84,-110.38"/>
</g>
<!-- 1322045614416&#45;&gt;1322045605248 -->
<g id="edge19" class="edge">
<title>1322045614416&#45;&gt;1322045605248</title>
<path fill="none" stroke="black" d="M414.4,-27C421.89,-27 430.18,-27 438.2,-27"/>
<polygon fill="black" stroke="black" points="438.1,-30.5 448.1,-27 438.1,-23.5 438.1,-30.5"/>
</g>
<!-- 1322045610384&#45;&gt;1322045613408 -->
<g id="edge20" class="edge">
<title>1322045610384&#45;&gt;1322045613408</title>
<path fill="none" stroke="black" d="M414.4,-170.7C421.89,-170.61 430.18,-170.52 438.2,-170.43"/>
<polygon fill="black" stroke="black" points="438.14,-173.93 448.1,-170.32 438.06,-166.93 438.14,-173.93"/>
</g>
<!-- 1322045611824&#45;&gt;1322045606304 -->
<g id="edge21" class="edge">
<title>1322045611824&#45;&gt;1322045606304</title>
<path fill="none" stroke="black" d="M954.4,-82C961.89,-82 970.18,-82 978.2,-82"/>
<polygon fill="black" stroke="black" points="978.1,-85.5 988.1,-82 978.1,-78.5 978.1,-85.5"/>
</g>
<!-- 1322045611632&#45;&gt;1322045604720 -->
<g id="edge22" class="edge">
<title>1322045611632&#45;&gt;1322045604720</title>
<path fill="none" stroke="black" d="M594.4,-100.6C601.89,-100.77 610.18,-100.96 618.2,-101.14"/>
<polygon fill="black" stroke="black" points="618.03,-104.64 628.1,-101.37 618.18,-97.64 618.03,-104.64"/>
</g>
<!-- 1322045610192&#45;&gt;1322045611872 -->
<g id="edge23" class="edge">
<title>1322045610192&#45;&gt;1322045611872</title>
<path fill="none" stroke="black" d="M954.4,-154C961.89,-154 970.18,-154 978.2,-154"/>
<polygon fill="black" stroke="black" points="978.1,-157.5 988.1,-154 978.1,-150.5 978.1,-157.5"/>
</g>
<!-- 1322045604528&#45;&gt;1322045606112 -->
<g id="edge24" class="edge">
<title>1322045604528&#45;&gt;1322045606112</title>
<path fill="none" stroke="black" d="M1134.4,-82C1141.89,-82 1150.18,-82 1158.2,-82"/>
<polygon fill="black" stroke="black" points="1158.1,-85.5 1168.1,-82 1158.1,-78.5 1158.1,-85.5"/>
</g>
</g>
</svg>
