<?xml version="1.0" encoding="UTF-8" standalone="no"?>
<!DOCTYPE svg PUBLIC "-//W3C//DTD SVG 1.1//EN"
 "http://www.w3.org/Graphics/SVG/1.1/DTD/svg11.dtd">
<!-- Generated by graphviz version 7.0.3 (20221126.0506)
 -->
<!-- Title: new_petri_net Pages: 1 -->
<svg width="1330pt" height="256pt"
 viewBox="0.00 0.00 1330.00 256.00" xmlns="http://www.w3.org/2000/svg" xmlns:xlink="http://www.w3.org/1999/xlink">
<g id="graph0" class="graph" transform="scale(1 1) rotate(0) translate(4 252)">
<title>new_petri_net</title>
<polygon fill="white" stroke="none" points="-4,4 -4,-252 1326,-252 1326,4 -4,4"/>
<!-- 2391557490240 -->
<g id="node1" class="node">
<title>2391557490240</title>
<polygon fill="white" stroke="black" points="684,-95 630,-95 630,-59 684,-59 684,-95"/>
<text text-anchor="middle" x="657" y="-73.9" font-family="Times New Roman,serif" font-size="12.00">c</text>
</g>
<!-- 2391557489136 -->
<g id="node12" class="node">
<title>2391557489136</title>
<ellipse fill="white" stroke="black" cx="747" cy="-99" rx="27" ry="27"/>
</g>
<!-- 2391557490240&#45;&gt;2391557489136 -->
<g id="edge5" class="edge">
<title>2391557490240&#45;&gt;2391557489136</title>
<path fill="none" stroke="black" d="M684.4,-83.6C692.27,-85.57 701.03,-87.76 709.43,-89.86"/>
<polygon fill="black" stroke="black" points="708.5,-93.23 719.05,-92.26 710.2,-86.44 708.5,-93.23"/>
</g>
<!-- 2391557489376 -->
<g id="node17" class="node">
<title>2391557489376</title>
<ellipse fill="white" stroke="black" cx="747" cy="-27" rx="27" ry="27"/>
</g>
<!-- 2391557490240&#45;&gt;2391557489376 -->
<g id="edge6" class="edge">
<title>2391557490240&#45;&gt;2391557489376</title>
<path fill="none" stroke="black" d="M684.4,-62C693.4,-56.89 703.57,-51.11 713.02,-45.74"/>
<polygon fill="black" stroke="black" points="714.62,-48.86 721.58,-40.87 711.16,-42.77 714.62,-48.86"/>
</g>
<!-- 2391557501664 -->
<g id="node2" class="node">
<title>2391557501664</title>
<polygon fill="white" stroke="black" points="504,-95 450,-95 450,-59 504,-59 504,-95"/>
<text text-anchor="middle" x="477" y="-73.9" font-family="Times New Roman,serif" font-size="12.00">b</text>
</g>
<!-- 2391557501808 -->
<g id="node13" class="node">
<title>2391557501808</title>
<ellipse fill="white" stroke="black" cx="567" cy="-77" rx="27" ry="27"/>
</g>
<!-- 2391557501664&#45;&gt;2391557501808 -->
<g id="edge4" class="edge">
<title>2391557501664&#45;&gt;2391557501808</title>
<path fill="none" stroke="black" d="M504.4,-77C511.89,-77 520.18,-77 528.2,-77"/>
<polygon fill="black" stroke="black" points="528.1,-80.5 538.1,-77 528.1,-73.5 528.1,-80.5"/>
</g>
<!-- 2391557501472 -->
<g id="node3" class="node">
<title>2391557501472</title>
<polygon fill="black" stroke="black" points="144,-167 90,-167 90,-131 144,-131 144,-167"/>
</g>
<!-- 2391557500368 -->
<g id="node14" class="node">
<title>2391557500368</title>
<ellipse fill="white" stroke="black" cx="207" cy="-149" rx="27" ry="27"/>
</g>
<!-- 2391557501472&#45;&gt;2391557500368 -->
<g id="edge26" class="edge">
<title>2391557501472&#45;&gt;2391557500368</title>
<path fill="none" stroke="black" d="M144.4,-149C151.89,-149 160.18,-149 168.2,-149"/>
<polygon fill="black" stroke="black" points="168.1,-152.5 178.1,-149 168.1,-145.5 168.1,-152.5"/>
</g>
<!-- 2391557499744 -->
<g id="node4" class="node">
<title>2391557499744</title>
<polygon fill="black" stroke="black" points="1224,-163 1170,-163 1170,-127 1224,-127 1224,-163"/>
</g>
<!-- 2391557488896 -->
<g id="node24" class="node">
<title>2391557488896</title>
<ellipse fill="white" stroke="black" cx="1291" cy="-145" rx="27" ry="27"/>
<ellipse fill="none" stroke="black" cx="1291" cy="-145" rx="31" ry="31"/>
<text text-anchor="start" x="1281" y="-136.9" font-family="Times New Roman,serif" font-size="32.00">â– </text>
</g>
<!-- 2391557499744&#45;&gt;2391557488896 -->
<g id="edge9" class="edge">
<title>2391557499744&#45;&gt;2391557488896</title>
<path fill="none" stroke="black" d="M1224.12,-145C1231.63,-145 1240.01,-145 1248.22,-145"/>
<polygon fill="black" stroke="black" points="1248.08,-148.5 1258.08,-145 1248.08,-141.5 1248.08,-148.5"/>
</g>
<!-- 2391557500032 -->
<g id="node5" class="node">
<title>2391557500032</title>
<polygon fill="white" stroke="black" points="504,-238 450,-238 450,-202 504,-202 504,-238"/>
<text text-anchor="middle" x="477" y="-216.9" font-family="Times New Roman,serif" font-size="12.00">g</text>
</g>
<!-- 2391557501424 -->
<g id="node20" class="node">
<title>2391557501424</title>
<ellipse fill="white" stroke="black" cx="657" cy="-211" rx="27" ry="27"/>
</g>
<!-- 2391557500032&#45;&gt;2391557501424 -->
<g id="edge11" class="edge">
<title>2391557500032&#45;&gt;2391557501424</title>
<path fill="none" stroke="black" d="M504.26,-218.67C534.37,-217.15 583.96,-214.64 618.21,-212.91"/>
<polygon fill="black" stroke="black" points="618.31,-216.41 628.12,-212.41 617.95,-209.42 618.31,-216.41"/>
</g>
<!-- 2391557489520 -->
<g id="node6" class="node">
<title>2391557489520</title>
<polygon fill="white" stroke="black" points="324,-167 270,-167 270,-131 324,-131 324,-167"/>
<text text-anchor="middle" x="297" y="-145.9" font-family="Times New Roman,serif" font-size="12.00">a</text>
</g>
<!-- 2391557502096 -->
<g id="node18" class="node">
<title>2391557502096</title>
<ellipse fill="white" stroke="black" cx="387" cy="-221" rx="27" ry="27"/>
</g>
<!-- 2391557489520&#45;&gt;2391557502096 -->
<g id="edge1" class="edge">
<title>2391557489520&#45;&gt;2391557502096</title>
<path fill="none" stroke="black" d="M320.21,-167.17C331.32,-176.26 344.92,-187.39 356.87,-197.16"/>
<polygon fill="black" stroke="black" points="354.48,-199.74 364.44,-203.36 358.92,-194.32 354.48,-199.74"/>
</g>
<!-- 2391557503440 -->
<g id="node22" class="node">
<title>2391557503440</title>
<ellipse fill="white" stroke="black" cx="387" cy="-149" rx="27" ry="27"/>
</g>
<!-- 2391557489520&#45;&gt;2391557503440 -->
<g id="edge2" class="edge">
<title>2391557489520&#45;&gt;2391557503440</title>
<path fill="none" stroke="black" d="M324.4,-149C331.89,-149 340.18,-149 348.2,-149"/>
<polygon fill="black" stroke="black" points="348.1,-152.5 358.1,-149 348.1,-145.5 348.1,-152.5"/>
</g>
<!-- 2391557500464 -->
<g id="node23" class="node">
<title>2391557500464</title>
<ellipse fill="white" stroke="black" cx="387" cy="-77" rx="27" ry="27"/>
</g>
<!-- 2391557489520&#45;&gt;2391557500464 -->
<g id="edge3" class="edge">
<title>2391557489520&#45;&gt;2391557500464</title>
<path fill="none" stroke="black" d="M320.21,-130.83C331.32,-121.74 344.92,-110.61 356.87,-100.84"/>
<polygon fill="black" stroke="black" points="358.92,-103.68 364.44,-94.64 354.48,-98.26 358.92,-103.68"/>
</g>
<!-- 2391557489040 -->
<g id="node7" class="node">
<title>2391557489040</title>
<polygon fill="white" stroke="black" points="504,-168 450,-168 450,-132 504,-132 504,-168"/>
<text text-anchor="middle" x="477" y="-146.9" font-family="Times New Roman,serif" font-size="12.00">e</text>
</g>
<!-- 2391557499888 -->
<g id="node19" class="node">
<title>2391557499888</title>
<ellipse fill="white" stroke="black" cx="567" cy="-150" rx="27" ry="27"/>
</g>
<!-- 2391557489040&#45;&gt;2391557499888 -->
<g id="edge8" class="edge">
<title>2391557489040&#45;&gt;2391557499888</title>
<path fill="none" stroke="black" d="M504.4,-150C511.89,-150 520.18,-150 528.2,-150"/>
<polygon fill="black" stroke="black" points="528.1,-153.5 538.1,-150 528.1,-146.5 528.1,-153.5"/>
</g>
<!-- 2391557501616 -->
<g id="node8" class="node">
<title>2391557501616</title>
<polygon fill="white" stroke="black" points="864,-50 810,-50 810,-14 864,-14 864,-50"/>
<text text-anchor="middle" x="837" y="-28.9" font-family="Times New Roman,serif" font-size="12.00">d</text>
</g>
<!-- 2391557489424 -->
<g id="node16" class="node">
<title>2391557489424</title>
<ellipse fill="white" stroke="black" cx="927" cy="-59" rx="27" ry="27"/>
</g>
<!-- 2391557501616&#45;&gt;2391557489424 -->
<g id="edge7" class="edge">
<title>2391557501616&#45;&gt;2391557489424</title>
<path fill="none" stroke="black" d="M864.4,-40.1C872.43,-42.56 881.39,-45.31 889.94,-47.94"/>
<polygon fill="black" stroke="black" points="888.79,-51.24 899.38,-50.83 890.84,-44.55 888.79,-51.24"/>
</g>
<!-- 2391557501040 -->
<g id="node9" class="node">
<title>2391557501040</title>
<polygon fill="white" stroke="black" points="1044,-163 990,-163 990,-127 1044,-127 1044,-163"/>
<text text-anchor="middle" x="1017" y="-141.9" font-family="Times New Roman,serif" font-size="12.00">h</text>
</g>
<!-- 2391557500512 -->
<g id="node15" class="node">
<title>2391557500512</title>
<ellipse fill="white" stroke="black" cx="1107" cy="-145" rx="27" ry="27"/>
</g>
<!-- 2391557501040&#45;&gt;2391557500512 -->
<g id="edge12" class="edge">
<title>2391557501040&#45;&gt;2391557500512</title>
<path fill="none" stroke="black" d="M1044.4,-145C1051.89,-145 1060.18,-145 1068.2,-145"/>
<polygon fill="black" stroke="black" points="1068.1,-148.5 1078.1,-145 1068.1,-141.5 1068.1,-148.5"/>
</g>
<!-- 2391557490384 -->
<g id="node10" class="node">
<title>2391557490384</title>
<polygon fill="white" stroke="black" points="864,-163 810,-163 810,-127 864,-127 864,-163"/>
<text text-anchor="middle" x="837" y="-141.9" font-family="Times New Roman,serif" font-size="12.00">f</text>
</g>
<!-- 2391557500080 -->
<g id="node21" class="node">
<title>2391557500080</title>
<ellipse fill="white" stroke="black" cx="927" cy="-145" rx="27" ry="27"/>
</g>
<!-- 2391557490384&#45;&gt;2391557500080 -->
<g id="edge10" class="edge">
<title>2391557490384&#45;&gt;2391557500080</title>
<path fill="none" stroke="black" d="M864.4,-145C871.89,-145 880.18,-145 888.2,-145"/>
<polygon fill="black" stroke="black" points="888.1,-148.5 898.1,-145 888.1,-141.5 888.1,-148.5"/>
</g>
<!-- 2391557500224 -->
<g id="node11" class="node">
<title>2391557500224</title>
<ellipse fill="white" stroke="black" cx="27" cy="-149" rx="27" ry="27"/>
<text text-anchor="start" x="16" y="-140.3" font-family="Times New Roman,serif" font-size="34.00">â—</text>
</g>
<!-- 2391557500224&#45;&gt;2391557501472 -->
<g id="edge25" class="edge">
<title>2391557500224&#45;&gt;2391557501472</title>
<path fill="none" stroke="black" d="M54.4,-149C61.89,-149 70.18,-149 78.2,-149"/>
<polygon fill="black" stroke="black" points="78.1,-152.5 88.1,-149 78.1,-145.5 78.1,-152.5"/>
</g>
<!-- 2391557489136&#45;&gt;2391557490384 -->
<g id="edge13" class="edge">
<title>2391557489136&#45;&gt;2391557490384</title>
<path fill="none" stroke="black" d="M771.12,-111.09C779.8,-115.62 789.88,-120.89 799.48,-125.91"/>
<polygon fill="black" stroke="black" points="797.79,-128.97 808.27,-130.51 801.03,-122.77 797.79,-128.97"/>
</g>
<!-- 2391557501808&#45;&gt;2391557490240 -->
<g id="edge14" class="edge">
<title>2391557501808&#45;&gt;2391557490240</title>
<path fill="none" stroke="black" d="M594.4,-77C601.89,-77 610.18,-77 618.2,-77"/>
<polygon fill="black" stroke="black" points="618.1,-80.5 628.1,-77 618.1,-73.5 618.1,-80.5"/>
</g>
<!-- 2391557500368&#45;&gt;2391557489520 -->
<g id="edge15" class="edge">
<title>2391557500368&#45;&gt;2391557489520</title>
<path fill="none" stroke="black" d="M234.4,-149C241.89,-149 250.18,-149 258.2,-149"/>
<polygon fill="black" stroke="black" points="258.1,-152.5 268.1,-149 258.1,-145.5 258.1,-152.5"/>
</g>
<!-- 2391557500512&#45;&gt;2391557499744 -->
<g id="edge16" class="edge">
<title>2391557500512&#45;&gt;2391557499744</title>
<path fill="none" stroke="black" d="M1134.4,-145C1141.89,-145 1150.18,-145 1158.2,-145"/>
<polygon fill="black" stroke="black" points="1158.1,-148.5 1168.1,-145 1158.1,-141.5 1158.1,-148.5"/>
</g>
<!-- 2391557489424&#45;&gt;2391557501040 -->
<g id="edge17" class="edge">
<title>2391557489424&#45;&gt;2391557501040</title>
<path fill="none" stroke="black" d="M947.09,-77.66C959.4,-89.69 975.59,-105.5 989.18,-118.79"/>
<polygon fill="black" stroke="black" points="986.56,-121.13 996.16,-125.61 991.46,-116.12 986.56,-121.13"/>
</g>
<!-- 2391557489376&#45;&gt;2391557501616 -->
<g id="edge18" class="edge">
<title>2391557489376&#45;&gt;2391557501616</title>
<path fill="none" stroke="black" d="M774.4,-28.5C781.89,-28.93 790.18,-29.4 798.2,-29.85"/>
<polygon fill="black" stroke="black" points="797.92,-33.34 808.1,-30.42 798.32,-26.35 797.92,-33.34"/>
</g>
<!-- 2391557502096&#45;&gt;2391557500032 -->
<g id="edge19" class="edge">
<title>2391557502096&#45;&gt;2391557500032</title>
<path fill="none" stroke="black" d="M414.4,-220.7C421.89,-220.61 430.18,-220.52 438.2,-220.43"/>
<polygon fill="black" stroke="black" points="438.14,-223.93 448.1,-220.32 438.06,-216.93 438.14,-223.93"/>
</g>
<!-- 2391557499888&#45;&gt;2391557490384 -->
<g id="edge20" class="edge">
<title>2391557499888&#45;&gt;2391557490384</title>
<path fill="none" stroke="black" d="M594.18,-149.51C641.92,-148.62 743.23,-146.73 798.36,-145.7"/>
<polygon fill="black" stroke="black" points="798.26,-149.2 808.2,-145.52 798.13,-142.21 798.26,-149.2"/>
</g>
<!-- 2391557501424&#45;&gt;2391557501040 -->
<g id="edge21" class="edge">
<title>2391557501424&#45;&gt;2391557501040</title>
<path fill="none" stroke="black" d="M684.09,-211.99C736.6,-213.21 858.19,-212.07 954,-181 962.92,-178.11 971.96,-173.8 980.28,-169.16"/>
<polygon fill="black" stroke="black" points="981.88,-172.28 988.71,-164.17 978.32,-166.25 981.88,-172.28"/>
</g>
<!-- 2391557500080&#45;&gt;2391557501040 -->
<g id="edge22" class="edge">
<title>2391557500080&#45;&gt;2391557501040</title>
<path fill="none" stroke="black" d="M954.4,-145C961.89,-145 970.18,-145 978.2,-145"/>
<polygon fill="black" stroke="black" points="978.1,-148.5 988.1,-145 978.1,-141.5 978.1,-148.5"/>
</g>
<!-- 2391557503440&#45;&gt;2391557489040 -->
<g id="edge23" class="edge">
<title>2391557503440&#45;&gt;2391557489040</title>
<path fill="none" stroke="black" d="M414.4,-149.3C421.89,-149.39 430.18,-149.48 438.2,-149.57"/>
<polygon fill="black" stroke="black" points="438.06,-153.07 448.1,-149.68 438.14,-146.07 438.06,-153.07"/>
</g>
<!-- 2391557500464&#45;&gt;2391557501664 -->
<g id="edge24" class="edge">
<title>2391557500464&#45;&gt;2391557501664</title>
<path fill="none" stroke="black" d="M414.4,-77C421.89,-77 430.18,-77 438.2,-77"/>
<polygon fill="black" stroke="black" points="438.1,-80.5 448.1,-77 438.1,-73.5 438.1,-80.5"/>
</g>
</g>
</svg>
