<?xml version="1.0" encoding="UTF-8" standalone="no"?>
<!DOCTYPE svg PUBLIC "-//W3C//DTD SVG 1.1//EN"
 "http://www.w3.org/Graphics/SVG/1.1/DTD/svg11.dtd">
<!-- Generated by graphviz version 7.0.3 (20221126.0506)
 -->
<!-- Title: new_petri_net Pages: 1 -->
<svg width="1510pt" height="250pt"
 viewBox="0.00 0.00 1510.00 250.00" xmlns="http://www.w3.org/2000/svg" xmlns:xlink="http://www.w3.org/1999/xlink">
<g id="graph0" class="graph" transform="scale(1 1) rotate(0) translate(4 246)">
<title>new_petri_net</title>
<polygon fill="white" stroke="none" points="-4,4 -4,-246 1506,-246 1506,4 -4,4"/>
<!-- 1739458858240 -->
<g id="node1" class="node">
<title>1739458858240</title>
<polygon fill="white" stroke="black" points="324,-144 270,-144 270,-108 324,-108 324,-144"/>
<text text-anchor="middle" x="297" y="-122.9" font-family="Times New Roman,serif" font-size="12.00">a</text>
</g>
<!-- 1739458861648 -->
<g id="node18" class="node">
<title>1739458861648</title>
<ellipse fill="white" stroke="black" cx="387" cy="-213" rx="27" ry="27"/>
</g>
<!-- 1739458858240&#45;&gt;1739458861648 -->
<g id="edge1" class="edge">
<title>1739458858240&#45;&gt;1739458861648</title>
<path fill="none" stroke="black" d="M316.66,-144.45C328.95,-156.59 345.23,-172.69 358.92,-186.23"/>
<polygon fill="black" stroke="black" points="356.41,-188.67 365.98,-193.21 361.33,-183.69 356.41,-188.67"/>
</g>
<!-- 1739458864624 -->
<g id="node20" class="node">
<title>1739458864624</title>
<ellipse fill="white" stroke="black" cx="387" cy="-99" rx="27" ry="27"/>
</g>
<!-- 1739458858240&#45;&gt;1739458864624 -->
<g id="edge2" class="edge">
<title>1739458858240&#45;&gt;1739458864624</title>
<path fill="none" stroke="black" d="M324.4,-117.9C332.43,-115.44 341.39,-112.69 349.94,-110.06"/>
<polygon fill="black" stroke="black" points="350.84,-113.45 359.38,-107.17 348.79,-106.76 350.84,-113.45"/>
</g>
<!-- 1739458866784 -->
<g id="node22" class="node">
<title>1739458866784</title>
<ellipse fill="white" stroke="black" cx="387" cy="-27" rx="27" ry="27"/>
</g>
<!-- 1739458858240&#45;&gt;1739458866784 -->
<g id="edge3" class="edge">
<title>1739458858240&#45;&gt;1739458866784</title>
<path fill="none" stroke="black" d="M314.14,-107.84C327.24,-93.11 345.93,-72.07 360.97,-55.16"/>
<polygon fill="black" stroke="black" points="363.42,-57.67 367.45,-47.87 358.19,-53.02 363.42,-57.67"/>
</g>
<!-- 1739458860640 -->
<g id="node24" class="node">
<title>1739458860640</title>
<ellipse fill="white" stroke="black" cx="477" cy="-154" rx="27" ry="27"/>
</g>
<!-- 1739458858240&#45;&gt;1739458860640 -->
<g id="edge4" class="edge">
<title>1739458858240&#45;&gt;1739458860640</title>
<path fill="none" stroke="black" d="M324.26,-130.13C354.59,-134.9 404.68,-142.78 438.95,-148.17"/>
<polygon fill="black" stroke="black" points="438,-151.57 448.42,-149.66 439.09,-144.65 438,-151.57"/>
</g>
<!-- 1739458869760 -->
<g id="node2" class="node">
<title>1739458869760</title>
<polygon fill="white" stroke="black" points="1044,-100 990,-100 990,-64 1044,-64 1044,-100"/>
<text text-anchor="middle" x="1017" y="-78.9" font-family="Times New Roman,serif" font-size="12.00">d</text>
</g>
<!-- 1739458860016 -->
<g id="node23" class="node">
<title>1739458860016</title>
<ellipse fill="white" stroke="black" cx="1107" cy="-82" rx="27" ry="27"/>
</g>
<!-- 1739458869760&#45;&gt;1739458860016 -->
<g id="edge7" class="edge">
<title>1739458869760&#45;&gt;1739458860016</title>
<path fill="none" stroke="black" d="M1044.4,-82C1051.89,-82 1060.18,-82 1068.2,-82"/>
<polygon fill="black" stroke="black" points="1068.1,-85.5 1078.1,-82 1068.1,-78.5 1068.1,-85.5"/>
</g>
<!-- 1739458867264 -->
<g id="node3" class="node">
<title>1739458867264</title>
<polygon fill="white" stroke="black" points="1044,-172 990,-172 990,-136 1044,-136 1044,-172"/>
<text text-anchor="middle" x="1017" y="-150.9" font-family="Times New Roman,serif" font-size="12.00">f</text>
</g>
<!-- 1739458864192 -->
<g id="node26" class="node">
<title>1739458864192</title>
<ellipse fill="white" stroke="black" cx="1107" cy="-154" rx="27" ry="27"/>
</g>
<!-- 1739458867264&#45;&gt;1739458864192 -->
<g id="edge10" class="edge">
<title>1739458867264&#45;&gt;1739458864192</title>
<path fill="none" stroke="black" d="M1044.4,-154C1051.89,-154 1060.18,-154 1068.2,-154"/>
<polygon fill="black" stroke="black" points="1068.1,-157.5 1078.1,-154 1068.1,-150.5 1068.1,-157.5"/>
</g>
<!-- 1739458871104 -->
<g id="node4" class="node">
<title>1739458871104</title>
<polygon fill="black" stroke="black" points="864,-140 810,-140 810,-104 864,-104 864,-140"/>
</g>
<!-- 1739458859056 -->
<g id="node13" class="node">
<title>1739458859056</title>
<ellipse fill="white" stroke="black" cx="927" cy="-82" rx="27" ry="27"/>
</g>
<!-- 1739458871104&#45;&gt;1739458859056 -->
<g id="edge29" class="edge">
<title>1739458871104&#45;&gt;1739458859056</title>
<path fill="none" stroke="black" d="M864.4,-110C872.99,-106.1 882.65,-101.71 891.73,-97.58"/>
<polygon fill="black" stroke="black" points="892.98,-100.85 900.64,-93.53 890.09,-94.48 892.98,-100.85"/>
</g>
<!-- 1739458864960 -->
<g id="node14" class="node">
<title>1739458864960</title>
<ellipse fill="white" stroke="black" cx="927" cy="-154" rx="27" ry="27"/>
</g>
<!-- 1739458871104&#45;&gt;1739458864960 -->
<g id="edge30" class="edge">
<title>1739458871104&#45;&gt;1739458864960</title>
<path fill="none" stroke="black" d="M864.4,-131.6C872.59,-134.58 881.75,-137.91 890.45,-141.07"/>
<polygon fill="black" stroke="black" points="889.11,-144.31 899.7,-144.44 891.5,-137.73 889.11,-144.31"/>
</g>
<!-- 1739458863424 -->
<g id="node5" class="node">
<title>1739458863424</title>
<polygon fill="black" stroke="black" points="1404,-100 1350,-100 1350,-64 1404,-64 1404,-100"/>
</g>
<!-- 1739458864576 -->
<g id="node27" class="node">
<title>1739458864576</title>
<ellipse fill="white" stroke="black" cx="1471" cy="-82" rx="27" ry="27"/>
<ellipse fill="none" stroke="black" cx="1471" cy="-82" rx="31" ry="31"/>
<text text-anchor="start" x="1461" y="-73.9" font-family="Times New Roman,serif" font-size="32.00">â– </text>
</g>
<!-- 1739458863424&#45;&gt;1739458864576 -->
<g id="edge9" class="edge">
<title>1739458863424&#45;&gt;1739458864576</title>
<path fill="none" stroke="black" d="M1404.12,-82C1411.63,-82 1420.01,-82 1428.22,-82"/>
<polygon fill="black" stroke="black" points="1428.08,-85.5 1438.08,-82 1428.08,-78.5 1428.08,-85.5"/>
</g>
<!-- 1739458860064 -->
<g id="node6" class="node">
<title>1739458860064</title>
<polygon fill="white" stroke="black" points="504,-45 450,-45 450,-9 504,-9 504,-45"/>
<text text-anchor="middle" x="477" y="-23.9" font-family="Times New Roman,serif" font-size="12.00">g</text>
</g>
<!-- 1739458858432 -->
<g id="node19" class="node">
<title>1739458858432</title>
<ellipse fill="white" stroke="black" cx="657" cy="-27" rx="27" ry="27"/>
</g>
<!-- 1739458860064&#45;&gt;1739458858432 -->
<g id="edge11" class="edge">
<title>1739458860064&#45;&gt;1739458858432</title>
<path fill="none" stroke="black" d="M504.26,-27C534.37,-27 583.96,-27 618.21,-27"/>
<polygon fill="black" stroke="black" points="618.11,-30.5 628.11,-27 618.11,-23.5 618.11,-30.5"/>
</g>
<!-- 1739458868032 -->
<g id="node7" class="node">
<title>1739458868032</title>
<polygon fill="black" stroke="black" points="144,-144 90,-144 90,-108 144,-108 144,-144"/>
</g>
<!-- 1739458868656 -->
<g id="node15" class="node">
<title>1739458868656</title>
<ellipse fill="white" stroke="black" cx="207" cy="-126" rx="27" ry="27"/>
</g>
<!-- 1739458868032&#45;&gt;1739458868656 -->
<g id="edge28" class="edge">
<title>1739458868032&#45;&gt;1739458868656</title>
<path fill="none" stroke="black" d="M144.4,-126C151.89,-126 160.18,-126 168.2,-126"/>
<polygon fill="black" stroke="black" points="168.1,-129.5 178.1,-126 168.1,-122.5 168.1,-129.5"/>
</g>
<!-- 1739458871056 -->
<g id="node8" class="node">
<title>1739458871056</title>
<polygon fill="white" stroke="black" points="1224,-100 1170,-100 1170,-64 1224,-64 1224,-100"/>
<text text-anchor="middle" x="1197" y="-78.9" font-family="Times New Roman,serif" font-size="12.00">h</text>
</g>
<!-- 1739458865728 -->
<g id="node16" class="node">
<title>1739458865728</title>
<ellipse fill="white" stroke="black" cx="1287" cy="-82" rx="27" ry="27"/>
</g>
<!-- 1739458871056&#45;&gt;1739458865728 -->
<g id="edge12" class="edge">
<title>1739458871056&#45;&gt;1739458865728</title>
<path fill="none" stroke="black" d="M1224.4,-82C1231.89,-82 1240.18,-82 1248.2,-82"/>
<polygon fill="black" stroke="black" points="1248.1,-85.5 1258.1,-82 1248.1,-78.5 1248.1,-85.5"/>
</g>
<!-- 1739458864240 -->
<g id="node9" class="node">
<title>1739458864240</title>
<polygon fill="white" stroke="black" points="684,-181 630,-181 630,-145 684,-145 684,-181"/>
<text text-anchor="middle" x="657" y="-159.9" font-family="Times New Roman,serif" font-size="12.00">c</text>
</g>
<!-- 1739458866304 -->
<g id="node21" class="node">
<title>1739458866304</title>
<ellipse fill="white" stroke="black" cx="747" cy="-163" rx="27" ry="27"/>
</g>
<!-- 1739458864240&#45;&gt;1739458866304 -->
<g id="edge6" class="edge">
<title>1739458864240&#45;&gt;1739458866304</title>
<path fill="none" stroke="black" d="M684.4,-163C691.89,-163 700.18,-163 708.2,-163"/>
<polygon fill="black" stroke="black" points="708.1,-166.5 718.1,-163 708.1,-159.5 708.1,-166.5"/>
</g>
<!-- 1739458861840 -->
<g id="node10" class="node">
<title>1739458861840</title>
<polygon fill="white" stroke="black" points="504,-109 450,-109 450,-73 504,-73 504,-109"/>
<text text-anchor="middle" x="477" y="-87.9" font-family="Times New Roman,serif" font-size="12.00">e</text>
</g>
<!-- 1739458859200 -->
<g id="node25" class="node">
<title>1739458859200</title>
<ellipse fill="white" stroke="black" cx="747" cy="-91" rx="27" ry="27"/>
</g>
<!-- 1739458861840&#45;&gt;1739458859200 -->
<g id="edge8" class="edge">
<title>1739458861840&#45;&gt;1739458859200</title>
<path fill="none" stroke="black" d="M504.18,-91C551.92,-91 653.23,-91 708.36,-91"/>
<polygon fill="black" stroke="black" points="708.2,-94.5 718.2,-91 708.2,-87.5 708.2,-94.5"/>
</g>
<!-- 1739458867024 -->
<g id="node11" class="node">
<title>1739458867024</title>
<polygon fill="white" stroke="black" points="504,-235 450,-235 450,-199 504,-199 504,-235"/>
<text text-anchor="middle" x="477" y="-213.9" font-family="Times New Roman,serif" font-size="12.00">b</text>
</g>
<!-- 1739458867072 -->
<g id="node17" class="node">
<title>1739458867072</title>
<ellipse fill="white" stroke="black" cx="567" cy="-215" rx="27" ry="27"/>
</g>
<!-- 1739458867024&#45;&gt;1739458867072 -->
<g id="edge5" class="edge">
<title>1739458867024&#45;&gt;1739458867072</title>
<path fill="none" stroke="black" d="M504.4,-216.4C511.89,-216.23 520.18,-216.04 528.2,-215.86"/>
<polygon fill="black" stroke="black" points="528.18,-219.36 538.1,-215.63 528.03,-212.36 528.18,-219.36"/>
</g>
<!-- 1739458857376 -->
<g id="node12" class="node">
<title>1739458857376</title>
<ellipse fill="white" stroke="black" cx="27" cy="-126" rx="27" ry="27"/>
<text text-anchor="start" x="16" y="-117.3" font-family="Times New Roman,serif" font-size="34.00">â—</text>
</g>
<!-- 1739458857376&#45;&gt;1739458868032 -->
<g id="edge27" class="edge">
<title>1739458857376&#45;&gt;1739458868032</title>
<path fill="none" stroke="black" d="M54.4,-126C61.89,-126 70.18,-126 78.2,-126"/>
<polygon fill="black" stroke="black" points="78.1,-129.5 88.1,-126 78.1,-122.5 78.1,-129.5"/>
</g>
<!-- 1739458859056&#45;&gt;1739458869760 -->
<g id="edge13" class="edge">
<title>1739458859056&#45;&gt;1739458869760</title>
<path fill="none" stroke="black" d="M954.4,-82C961.89,-82 970.18,-82 978.2,-82"/>
<polygon fill="black" stroke="black" points="978.1,-85.5 988.1,-82 978.1,-78.5 978.1,-85.5"/>
</g>
<!-- 1739458864960&#45;&gt;1739458867264 -->
<g id="edge14" class="edge">
<title>1739458864960&#45;&gt;1739458867264</title>
<path fill="none" stroke="black" d="M954.4,-154C961.89,-154 970.18,-154 978.2,-154"/>
<polygon fill="black" stroke="black" points="978.1,-157.5 988.1,-154 978.1,-150.5 978.1,-157.5"/>
</g>
<!-- 1739458868656&#45;&gt;1739458858240 -->
<g id="edge15" class="edge">
<title>1739458868656&#45;&gt;1739458858240</title>
<path fill="none" stroke="black" d="M234.4,-126C241.89,-126 250.18,-126 258.2,-126"/>
<polygon fill="black" stroke="black" points="258.1,-129.5 268.1,-126 258.1,-122.5 258.1,-129.5"/>
</g>
<!-- 1739458865728&#45;&gt;1739458863424 -->
<g id="edge16" class="edge">
<title>1739458865728&#45;&gt;1739458863424</title>
<path fill="none" stroke="black" d="M1314.4,-82C1321.89,-82 1330.18,-82 1338.2,-82"/>
<polygon fill="black" stroke="black" points="1338.1,-85.5 1348.1,-82 1338.1,-78.5 1338.1,-85.5"/>
</g>
<!-- 1739458867072&#45;&gt;1739458864240 -->
<g id="edge17" class="edge">
<title>1739458867072&#45;&gt;1739458864240</title>
<path fill="none" stroke="black" d="M590.66,-201.61C599.6,-196.33 610.09,-190.13 620.01,-184.27"/>
<polygon fill="black" stroke="black" points="621.54,-187.43 628.37,-179.33 617.98,-181.4 621.54,-187.43"/>
</g>
<!-- 1739458861648&#45;&gt;1739458867024 -->
<g id="edge18" class="edge">
<title>1739458861648&#45;&gt;1739458867024</title>
<path fill="none" stroke="black" d="M414.4,-214.2C421.89,-214.54 430.18,-214.92 438.2,-215.28"/>
<polygon fill="black" stroke="black" points="437.96,-218.77 448.1,-215.73 438.27,-211.78 437.96,-218.77"/>
</g>
<!-- 1739458858432&#45;&gt;1739458871056 -->
<g id="edge19" class="edge">
<title>1739458858432&#45;&gt;1739458871056</title>
<path fill="none" stroke="black" d="M684.24,-27C718.96,-27 782.07,-27 836,-27 836,-27 836,-27 1018,-27 1070.24,-27 1084.82,-28.37 1134,-46 1142.75,-49.14 1151.66,-53.5 1159.91,-58.12"/>
<polygon fill="black" stroke="black" points="1157.88,-60.98 1168.27,-63.04 1161.43,-54.95 1157.88,-60.98"/>
</g>
<!-- 1739458864624&#45;&gt;1739458861840 -->
<g id="edge20" class="edge">
<title>1739458864624&#45;&gt;1739458861840</title>
<path fill="none" stroke="black" d="M413.93,-96.64C421.58,-95.95 430.11,-95.17 438.34,-94.42"/>
<polygon fill="black" stroke="black" points="438.5,-97.92 448.14,-93.53 437.87,-90.95 438.5,-97.92"/>
</g>
<!-- 1739458866304&#45;&gt;1739458871104 -->
<g id="edge21" class="edge">
<title>1739458866304&#45;&gt;1739458871104</title>
<path fill="none" stroke="black" d="M772.05,-151.8C780.39,-147.91 789.94,-143.46 799.07,-139.2"/>
<polygon fill="black" stroke="black" points="800.55,-142.38 808.14,-134.98 797.59,-136.03 800.55,-142.38"/>
</g>
<!-- 1739458866784&#45;&gt;1739458860064 -->
<g id="edge22" class="edge">
<title>1739458866784&#45;&gt;1739458860064</title>
<path fill="none" stroke="black" d="M414.4,-27C421.89,-27 430.18,-27 438.2,-27"/>
<polygon fill="black" stroke="black" points="438.1,-30.5 448.1,-27 438.1,-23.5 438.1,-30.5"/>
</g>
<!-- 1739458860016&#45;&gt;1739458871056 -->
<g id="edge23" class="edge">
<title>1739458860016&#45;&gt;1739458871056</title>
<path fill="none" stroke="black" d="M1134.4,-82C1141.89,-82 1150.18,-82 1158.2,-82"/>
<polygon fill="black" stroke="black" points="1158.1,-85.5 1168.1,-82 1158.1,-78.5 1158.1,-85.5"/>
</g>
<!-- 1739458860640&#45;&gt;1739458864240 -->
<g id="edge24" class="edge">
<title>1739458860640&#45;&gt;1739458864240</title>
<path fill="none" stroke="black" d="M504.26,-155.33C534.37,-156.85 583.96,-159.36 618.21,-161.09"/>
<polygon fill="black" stroke="black" points="617.95,-164.58 628.12,-161.59 618.31,-157.59 617.95,-164.58"/>
</g>
<!-- 1739458859200&#45;&gt;1739458871104 -->
<g id="edge25" class="edge">
<title>1739458859200&#45;&gt;1739458871104</title>
<path fill="none" stroke="black" d="M772.98,-99.8C781.06,-102.64 790.19,-105.86 798.95,-108.95"/>
<polygon fill="black" stroke="black" points="797.71,-112.22 808.3,-112.24 800.03,-105.62 797.71,-112.22"/>
</g>
<!-- 1739458864192&#45;&gt;1739458871056 -->
<g id="edge26" class="edge">
<title>1739458864192&#45;&gt;1739458871056</title>
<path fill="none" stroke="black" d="M1128.41,-137.3C1139.17,-128.5 1152.61,-117.5 1164.66,-107.64"/>
<polygon fill="black" stroke="black" points="1166.84,-110.38 1172.37,-101.34 1162.41,-104.96 1166.84,-110.38"/>
</g>
</g>
</svg>
