<?xml version="1.0" encoding="UTF-8" standalone="no"?>
<!DOCTYPE svg PUBLIC "-//W3C//DTD SVG 1.1//EN"
 "http://www.w3.org/Graphics/SVG/1.1/DTD/svg11.dtd">
<!-- Generated by graphviz version 7.0.3 (20221126.0506)
 -->
<!-- Title: new_petri_net Pages: 1 -->
<svg width="1330pt" height="238pt"
 viewBox="0.00 0.00 1330.00 238.00" xmlns="http://www.w3.org/2000/svg" xmlns:xlink="http://www.w3.org/1999/xlink">
<g id="graph0" class="graph" transform="scale(1 1) rotate(0) translate(4 234)">
<title>new_petri_net</title>
<polygon fill="white" stroke="none" points="-4,4 -4,-234 1326,-234 1326,4 -4,4"/>
<!-- 1903638410432 -->
<g id="node1" class="node">
<title>1903638410432</title>
<polygon fill="black" stroke="black" points="1224,-99 1170,-99 1170,-63 1224,-63 1224,-99"/>
</g>
<!-- 1903638401744 -->
<g id="node24" class="node">
<title>1903638401744</title>
<ellipse fill="white" stroke="black" cx="1291" cy="-81" rx="27" ry="27"/>
<ellipse fill="none" stroke="black" cx="1291" cy="-81" rx="31" ry="31"/>
<text text-anchor="start" x="1281" y="-72.9" font-family="Times New Roman,serif" font-size="32.00">â– </text>
</g>
<!-- 1903638410432&#45;&gt;1903638401744 -->
<g id="edge9" class="edge">
<title>1903638410432&#45;&gt;1903638401744</title>
<path fill="none" stroke="black" d="M1224.12,-81C1231.63,-81 1240.01,-81 1248.22,-81"/>
<polygon fill="black" stroke="black" points="1248.08,-84.5 1258.08,-81 1248.08,-77.5 1248.08,-84.5"/>
</g>
<!-- 1903638400832 -->
<g id="node2" class="node">
<title>1903638400832</title>
<polygon fill="white" stroke="black" points="324,-148 270,-148 270,-112 324,-112 324,-148"/>
<text text-anchor="middle" x="297" y="-126.9" font-family="Times New Roman,serif" font-size="12.00">a</text>
</g>
<!-- 1903634385936 -->
<g id="node13" class="node">
<title>1903634385936</title>
<ellipse fill="white" stroke="black" cx="387" cy="-202" rx="27" ry="27"/>
</g>
<!-- 1903638400832&#45;&gt;1903634385936 -->
<g id="edge1" class="edge">
<title>1903638400832&#45;&gt;1903634385936</title>
<path fill="none" stroke="black" d="M320.21,-148.17C331.32,-157.26 344.92,-168.39 356.87,-178.16"/>
<polygon fill="black" stroke="black" points="354.48,-180.74 364.44,-184.36 358.92,-175.32 354.48,-180.74"/>
</g>
<!-- 1903638406400 -->
<g id="node19" class="node">
<title>1903638406400</title>
<ellipse fill="white" stroke="black" cx="387" cy="-130" rx="27" ry="27"/>
</g>
<!-- 1903638400832&#45;&gt;1903638406400 -->
<g id="edge2" class="edge">
<title>1903638400832&#45;&gt;1903638406400</title>
<path fill="none" stroke="black" d="M324.4,-130C331.89,-130 340.18,-130 348.2,-130"/>
<polygon fill="black" stroke="black" points="348.1,-133.5 358.1,-130 348.1,-126.5 348.1,-133.5"/>
</g>
<!-- 1903638402368 -->
<g id="node20" class="node">
<title>1903638402368</title>
<ellipse fill="white" stroke="black" cx="387" cy="-57" rx="27" ry="27"/>
</g>
<!-- 1903638400832&#45;&gt;1903638402368 -->
<g id="edge3" class="edge">
<title>1903638400832&#45;&gt;1903638402368</title>
<path fill="none" stroke="black" d="M320.21,-111.58C331.32,-102.36 344.92,-91.07 356.87,-81.17"/>
<polygon fill="black" stroke="black" points="358.98,-83.96 364.45,-74.88 354.51,-78.57 358.98,-83.96"/>
</g>
<!-- 1903638399488 -->
<g id="node3" class="node">
<title>1903638399488</title>
<polygon fill="white" stroke="black" points="864,-171 810,-171 810,-135 864,-135 864,-171"/>
<text text-anchor="middle" x="837" y="-149.9" font-family="Times New Roman,serif" font-size="12.00">f</text>
</g>
<!-- 1903638409424 -->
<g id="node23" class="node">
<title>1903638409424</title>
<ellipse fill="white" stroke="black" cx="927" cy="-153" rx="27" ry="27"/>
</g>
<!-- 1903638399488&#45;&gt;1903638409424 -->
<g id="edge10" class="edge">
<title>1903638399488&#45;&gt;1903638409424</title>
<path fill="none" stroke="black" d="M864.4,-153C871.89,-153 880.18,-153 888.2,-153"/>
<polygon fill="black" stroke="black" points="888.1,-156.5 898.1,-153 888.1,-149.5 888.1,-156.5"/>
</g>
<!-- 1903638400448 -->
<g id="node4" class="node">
<title>1903638400448</title>
<polygon fill="black" stroke="black" points="144,-148 90,-148 90,-112 144,-112 144,-148"/>
</g>
<!-- 1903638412064 -->
<g id="node14" class="node">
<title>1903638412064</title>
<ellipse fill="white" stroke="black" cx="207" cy="-130" rx="27" ry="27"/>
</g>
<!-- 1903638400448&#45;&gt;1903638412064 -->
<g id="edge26" class="edge">
<title>1903638400448&#45;&gt;1903638412064</title>
<path fill="none" stroke="black" d="M144.4,-130C151.89,-130 160.18,-130 168.2,-130"/>
<polygon fill="black" stroke="black" points="168.1,-133.5 178.1,-130 168.1,-126.5 168.1,-133.5"/>
</g>
<!-- 1903638399200 -->
<g id="node5" class="node">
<title>1903638399200</title>
<polygon fill="white" stroke="black" points="864,-99 810,-99 810,-63 864,-63 864,-99"/>
<text text-anchor="middle" x="837" y="-77.9" font-family="Times New Roman,serif" font-size="12.00">d</text>
</g>
<!-- 1903638406256 -->
<g id="node16" class="node">
<title>1903638406256</title>
<ellipse fill="white" stroke="black" cx="927" cy="-81" rx="27" ry="27"/>
</g>
<!-- 1903638399200&#45;&gt;1903638406256 -->
<g id="edge7" class="edge">
<title>1903638399200&#45;&gt;1903638406256</title>
<path fill="none" stroke="black" d="M864.4,-81C871.89,-81 880.18,-81 888.2,-81"/>
<polygon fill="black" stroke="black" points="888.1,-84.5 898.1,-81 888.1,-77.5 888.1,-84.5"/>
</g>
<!-- 1903638402704 -->
<g id="node6" class="node">
<title>1903638402704</title>
<polygon fill="white" stroke="black" points="684,-148 630,-148 630,-112 684,-112 684,-148"/>
<text text-anchor="middle" x="657" y="-126.9" font-family="Times New Roman,serif" font-size="12.00">c</text>
</g>
<!-- 1903638398528 -->
<g id="node17" class="node">
<title>1903638398528</title>
<ellipse fill="white" stroke="black" cx="747" cy="-81" rx="27" ry="27"/>
</g>
<!-- 1903638402704&#45;&gt;1903638398528 -->
<g id="edge5" class="edge">
<title>1903638402704&#45;&gt;1903638398528</title>
<path fill="none" stroke="black" d="M684.4,-115.3C693.4,-110.29 703.57,-104.62 713.02,-99.36"/>
<polygon fill="black" stroke="black" points="714.54,-102.52 721.58,-94.6 711.14,-96.41 714.54,-102.52"/>
</g>
<!-- 1903638406304 -->
<g id="node22" class="node">
<title>1903638406304</title>
<ellipse fill="white" stroke="black" cx="747" cy="-153" rx="27" ry="27"/>
</g>
<!-- 1903638402704&#45;&gt;1903638406304 -->
<g id="edge6" class="edge">
<title>1903638402704&#45;&gt;1903638406304</title>
<path fill="none" stroke="black" d="M684.4,-136.9C692.27,-138.96 701.03,-141.25 709.43,-143.44"/>
<polygon fill="black" stroke="black" points="708.5,-146.82 719.06,-145.96 710.27,-140.04 708.5,-146.82"/>
</g>
<!-- 1903638397712 -->
<g id="node7" class="node">
<title>1903638397712</title>
<polygon fill="white" stroke="black" points="1044,-99 990,-99 990,-63 1044,-63 1044,-99"/>
<text text-anchor="middle" x="1017" y="-77.9" font-family="Times New Roman,serif" font-size="12.00">h</text>
</g>
<!-- 1903638410480 -->
<g id="node15" class="node">
<title>1903638410480</title>
<ellipse fill="white" stroke="black" cx="1107" cy="-81" rx="27" ry="27"/>
</g>
<!-- 1903638397712&#45;&gt;1903638410480 -->
<g id="edge12" class="edge">
<title>1903638397712&#45;&gt;1903638410480</title>
<path fill="none" stroke="black" d="M1044.4,-81C1051.89,-81 1060.18,-81 1068.2,-81"/>
<polygon fill="black" stroke="black" points="1068.1,-84.5 1078.1,-81 1068.1,-77.5 1068.1,-84.5"/>
</g>
<!-- 1903638397232 -->
<g id="node8" class="node">
<title>1903638397232</title>
<polygon fill="white" stroke="black" points="504,-148 450,-148 450,-112 504,-112 504,-148"/>
<text text-anchor="middle" x="477" y="-126.9" font-family="Times New Roman,serif" font-size="12.00">b</text>
</g>
<!-- 1903635399440 -->
<g id="node18" class="node">
<title>1903635399440</title>
<ellipse fill="white" stroke="black" cx="567" cy="-130" rx="27" ry="27"/>
</g>
<!-- 1903638397232&#45;&gt;1903635399440 -->
<g id="edge4" class="edge">
<title>1903638397232&#45;&gt;1903635399440</title>
<path fill="none" stroke="black" d="M504.4,-130C511.89,-130 520.18,-130 528.2,-130"/>
<polygon fill="black" stroke="black" points="528.1,-133.5 538.1,-130 528.1,-126.5 528.1,-133.5"/>
</g>
<!-- 1903638400976 -->
<g id="node9" class="node">
<title>1903638400976</title>
<polygon fill="white" stroke="black" points="504,-56 450,-56 450,-20 504,-20 504,-56"/>
<text text-anchor="middle" x="477" y="-34.9" font-family="Times New Roman,serif" font-size="12.00">g</text>
</g>
<!-- 1903638406880 -->
<g id="node12" class="node">
<title>1903638406880</title>
<ellipse fill="white" stroke="black" cx="657" cy="-27" rx="27" ry="27"/>
</g>
<!-- 1903638400976&#45;&gt;1903638406880 -->
<g id="edge11" class="edge">
<title>1903638400976&#45;&gt;1903638406880</title>
<path fill="none" stroke="black" d="M504.26,-36.38C534.37,-34.52 583.96,-31.45 618.21,-29.34"/>
<polygon fill="black" stroke="black" points="618.35,-32.83 628.12,-28.72 617.92,-25.85 618.35,-32.83"/>
</g>
<!-- 1903638401264 -->
<g id="node10" class="node">
<title>1903638401264</title>
<polygon fill="white" stroke="black" points="504,-220 450,-220 450,-184 504,-184 504,-220"/>
<text text-anchor="middle" x="477" y="-198.9" font-family="Times New Roman,serif" font-size="12.00">e</text>
</g>
<!-- 1903634395488 -->
<g id="node21" class="node">
<title>1903634395488</title>
<ellipse fill="white" stroke="black" cx="567" cy="-203" rx="27" ry="27"/>
</g>
<!-- 1903638401264&#45;&gt;1903634395488 -->
<g id="edge8" class="edge">
<title>1903638401264&#45;&gt;1903634395488</title>
<path fill="none" stroke="black" d="M504.4,-202.3C511.89,-202.39 520.18,-202.48 528.2,-202.57"/>
<polygon fill="black" stroke="black" points="528.06,-206.07 538.1,-202.68 528.14,-199.07 528.06,-206.07"/>
</g>
<!-- 1903638409136 -->
<g id="node11" class="node">
<title>1903638409136</title>
<ellipse fill="white" stroke="black" cx="27" cy="-130" rx="27" ry="27"/>
<text text-anchor="start" x="16" y="-121.3" font-family="Times New Roman,serif" font-size="34.00">â—</text>
</g>
<!-- 1903638409136&#45;&gt;1903638400448 -->
<g id="edge25" class="edge">
<title>1903638409136&#45;&gt;1903638400448</title>
<path fill="none" stroke="black" d="M54.4,-130C61.89,-130 70.18,-130 78.2,-130"/>
<polygon fill="black" stroke="black" points="78.1,-133.5 88.1,-130 78.1,-126.5 78.1,-133.5"/>
</g>
<!-- 1903638406880&#45;&gt;1903638397712 -->
<g id="edge13" class="edge">
<title>1903638406880&#45;&gt;1903638397712</title>
<path fill="none" stroke="black" d="M684.04,-24.63C736.46,-20.72 857.9,-15.97 954,-45 963.06,-47.74 972.22,-52.03 980.6,-56.71"/>
<polygon fill="black" stroke="black" points="978.71,-59.65 989.09,-61.75 982.29,-53.63 978.71,-59.65"/>
</g>
<!-- 1903634385936&#45;&gt;1903638401264 -->
<g id="edge14" class="edge">
<title>1903634385936&#45;&gt;1903638401264</title>
<path fill="none" stroke="black" d="M414.4,-202C421.89,-202 430.18,-202 438.2,-202"/>
<polygon fill="black" stroke="black" points="438.1,-205.5 448.1,-202 438.1,-198.5 438.1,-205.5"/>
</g>
<!-- 1903638412064&#45;&gt;1903638400832 -->
<g id="edge15" class="edge">
<title>1903638412064&#45;&gt;1903638400832</title>
<path fill="none" stroke="black" d="M234.4,-130C241.89,-130 250.18,-130 258.2,-130"/>
<polygon fill="black" stroke="black" points="258.1,-133.5 268.1,-130 258.1,-126.5 258.1,-133.5"/>
</g>
<!-- 1903638410480&#45;&gt;1903638410432 -->
<g id="edge16" class="edge">
<title>1903638410480&#45;&gt;1903638410432</title>
<path fill="none" stroke="black" d="M1134.4,-81C1141.89,-81 1150.18,-81 1158.2,-81"/>
<polygon fill="black" stroke="black" points="1158.1,-84.5 1168.1,-81 1158.1,-77.5 1158.1,-84.5"/>
</g>
<!-- 1903638406256&#45;&gt;1903638397712 -->
<g id="edge17" class="edge">
<title>1903638406256&#45;&gt;1903638397712</title>
<path fill="none" stroke="black" d="M954.4,-81C961.89,-81 970.18,-81 978.2,-81"/>
<polygon fill="black" stroke="black" points="978.1,-84.5 988.1,-81 978.1,-77.5 978.1,-84.5"/>
</g>
<!-- 1903638398528&#45;&gt;1903638399200 -->
<g id="edge18" class="edge">
<title>1903638398528&#45;&gt;1903638399200</title>
<path fill="none" stroke="black" d="M774.4,-81C781.89,-81 790.18,-81 798.2,-81"/>
<polygon fill="black" stroke="black" points="798.1,-84.5 808.1,-81 798.1,-77.5 798.1,-84.5"/>
</g>
<!-- 1903635399440&#45;&gt;1903638402704 -->
<g id="edge19" class="edge">
<title>1903635399440&#45;&gt;1903638402704</title>
<path fill="none" stroke="black" d="M594.4,-130C601.89,-130 610.18,-130 618.2,-130"/>
<polygon fill="black" stroke="black" points="618.1,-133.5 628.1,-130 618.1,-126.5 618.1,-133.5"/>
</g>
<!-- 1903638406400&#45;&gt;1903638397232 -->
<g id="edge20" class="edge">
<title>1903638406400&#45;&gt;1903638397232</title>
<path fill="none" stroke="black" d="M414.4,-130C421.89,-130 430.18,-130 438.2,-130"/>
<polygon fill="black" stroke="black" points="438.1,-133.5 448.1,-130 438.1,-126.5 438.1,-133.5"/>
</g>
<!-- 1903638402368&#45;&gt;1903638400976 -->
<g id="edge21" class="edge">
<title>1903638402368&#45;&gt;1903638400976</title>
<path fill="none" stroke="black" d="M413.45,-51.5C421.27,-49.82 430.04,-47.92 438.49,-46.1"/>
<polygon fill="black" stroke="black" points="439.17,-49.53 448.21,-44 437.69,-42.69 439.17,-49.53"/>
</g>
<!-- 1903634395488&#45;&gt;1903638399488 -->
<g id="edge22" class="edge">
<title>1903634395488&#45;&gt;1903638399488</title>
<path fill="none" stroke="black" d="M594.38,-204.97C634.24,-207.12 711.79,-208.04 774,-189 783.05,-186.23 792.2,-181.93 800.59,-177.25"/>
<polygon fill="black" stroke="black" points="802.27,-180.32 809.08,-172.2 798.7,-174.3 802.27,-180.32"/>
</g>
<!-- 1903638406304&#45;&gt;1903638399488 -->
<g id="edge23" class="edge">
<title>1903638406304&#45;&gt;1903638399488</title>
<path fill="none" stroke="black" d="M774.4,-153C781.89,-153 790.18,-153 798.2,-153"/>
<polygon fill="black" stroke="black" points="798.1,-156.5 808.1,-153 798.1,-149.5 798.1,-156.5"/>
</g>
<!-- 1903638409424&#45;&gt;1903638397712 -->
<g id="edge24" class="edge">
<title>1903638409424&#45;&gt;1903638397712</title>
<path fill="none" stroke="black" d="M948.41,-136.3C959.17,-127.5 972.61,-116.5 984.66,-106.64"/>
<polygon fill="black" stroke="black" points="986.84,-109.38 992.37,-100.34 982.41,-103.96 986.84,-109.38"/>
</g>
</g>
</svg>
