<?xml version="1.0" encoding="UTF-8" standalone="no"?>
<!DOCTYPE svg PUBLIC "-//W3C//DTD SVG 1.1//EN"
 "http://www.w3.org/Graphics/SVG/1.1/DTD/svg11.dtd">
<!-- Generated by graphviz version 7.0.3 (20221126.0506)
 -->
<!-- Title: new_petri_net Pages: 1 -->
<svg width="1690pt" height="189pt"
 viewBox="0.00 0.00 1690.00 189.00" xmlns="http://www.w3.org/2000/svg" xmlns:xlink="http://www.w3.org/1999/xlink">
<g id="graph0" class="graph" transform="scale(1 1) rotate(0) translate(4 185)">
<title>new_petri_net</title>
<polygon fill="white" stroke="none" points="-4,4 -4,-185 1686,-185 1686,4 -4,4"/>
<!-- 1322040179488 -->
<g id="node1" class="node">
<title>1322040179488</title>
<polygon fill="white" stroke="black" points="1044,-100 990,-100 990,-64 1044,-64 1044,-100"/>
<text text-anchor="middle" x="1017" y="-78.9" font-family="Times New Roman,serif" font-size="12.00">f</text>
</g>
<!-- 1322040176704 -->
<g id="node18" class="node">
<title>1322040176704</title>
<ellipse fill="white" stroke="black" cx="1107" cy="-88" rx="27" ry="27"/>
</g>
<!-- 1322040179488&#45;&gt;1322040176704 -->
<g id="edge8" class="edge">
<title>1322040179488&#45;&gt;1322040176704</title>
<path fill="none" stroke="black" d="M1044.4,-83.8C1051.89,-84.31 1060.18,-84.88 1068.2,-85.42"/>
<polygon fill="black" stroke="black" points="1067.89,-88.91 1078.11,-86.1 1068.37,-81.93 1067.89,-88.91"/>
</g>
<!-- 1322040170224 -->
<g id="node24" class="node">
<title>1322040170224</title>
<ellipse fill="white" stroke="black" cx="1287" cy="-27" rx="27" ry="27"/>
</g>
<!-- 1322040179488&#45;&gt;1322040170224 -->
<g id="edge9" class="edge">
<title>1322040179488&#45;&gt;1322040170224</title>
<path fill="none" stroke="black" d="M1044.39,-66.85C1055.12,-61.33 1067.84,-55.57 1080,-52 1137.22,-35.19 1206.58,-29.67 1248.45,-27.86"/>
<polygon fill="black" stroke="black" points="1248.38,-31.37 1258.24,-27.49 1248.12,-24.37 1248.38,-31.37"/>
</g>
<!-- 1322040177472 -->
<g id="node2" class="node">
<title>1322040177472</title>
<polygon fill="white" stroke="black" points="684,-105 630,-105 630,-69 684,-69 684,-105"/>
<text text-anchor="middle" x="657" y="-83.9" font-family="Times New Roman,serif" font-size="12.00">c</text>
</g>
<!-- 1322040171184 -->
<g id="node20" class="node">
<title>1322040171184</title>
<ellipse fill="white" stroke="black" cx="747" cy="-91" rx="27" ry="27"/>
</g>
<!-- 1322040177472&#45;&gt;1322040171184 -->
<g id="edge4" class="edge">
<title>1322040177472&#45;&gt;1322040171184</title>
<path fill="none" stroke="black" d="M684.4,-88.2C691.89,-88.54 700.18,-88.92 708.2,-89.28"/>
<polygon fill="black" stroke="black" points="707.96,-92.77 718.1,-89.73 708.27,-85.78 707.96,-92.77"/>
</g>
<!-- 1322040178816 -->
<g id="node3" class="node">
<title>1322040178816</title>
<polygon fill="white" stroke="black" points="1404,-117 1350,-117 1350,-81 1404,-81 1404,-117"/>
<text text-anchor="middle" x="1377" y="-95.9" font-family="Times New Roman,serif" font-size="12.00">h</text>
</g>
<!-- 1322040176176 -->
<g id="node16" class="node">
<title>1322040176176</title>
<ellipse fill="white" stroke="black" cx="1467" cy="-99" rx="27" ry="27"/>
</g>
<!-- 1322040178816&#45;&gt;1322040176176 -->
<g id="edge11" class="edge">
<title>1322040178816&#45;&gt;1322040176176</title>
<path fill="none" stroke="black" d="M1404.4,-99C1411.89,-99 1420.18,-99 1428.2,-99"/>
<polygon fill="black" stroke="black" points="1428.1,-102.5 1438.1,-99 1428.1,-95.5 1428.1,-102.5"/>
</g>
<!-- 1322040177088 -->
<g id="node4" class="node">
<title>1322040177088</title>
<polygon fill="white" stroke="black" points="504,-99 450,-99 450,-63 504,-63 504,-99"/>
<text text-anchor="middle" x="477" y="-77.9" font-family="Times New Roman,serif" font-size="12.00">b</text>
</g>
<!-- 1322040179008 -->
<g id="node22" class="node">
<title>1322040179008</title>
<ellipse fill="white" stroke="black" cx="567" cy="-83" rx="27" ry="27"/>
</g>
<!-- 1322040177088&#45;&gt;1322040179008 -->
<g id="edge3" class="edge">
<title>1322040177088&#45;&gt;1322040179008</title>
<path fill="none" stroke="black" d="M504.4,-81.6C511.89,-81.77 520.18,-81.96 528.2,-82.14"/>
<polygon fill="black" stroke="black" points="528.03,-85.64 538.1,-82.37 528.18,-78.64 528.03,-85.64"/>
</g>
<!-- 1322040178624 -->
<g id="node5" class="node">
<title>1322040178624</title>
<polygon fill="black" stroke="black" points="144,-134 90,-134 90,-98 144,-98 144,-134"/>
</g>
<!-- 1322040179152 -->
<g id="node15" class="node">
<title>1322040179152</title>
<ellipse fill="white" stroke="black" cx="207" cy="-116" rx="27" ry="27"/>
</g>
<!-- 1322040178624&#45;&gt;1322040179152 -->
<g id="edge26" class="edge">
<title>1322040178624&#45;&gt;1322040179152</title>
<path fill="none" stroke="black" d="M144.4,-116C151.89,-116 160.18,-116 168.2,-116"/>
<polygon fill="black" stroke="black" points="168.1,-119.5 178.1,-116 168.1,-112.5 168.1,-119.5"/>
</g>
<!-- 1322040177664 -->
<g id="node6" class="node">
<title>1322040177664</title>
<polygon fill="black" stroke="black" points="864,-136 810,-136 810,-100 864,-100 864,-136"/>
</g>
<!-- 1322040169120 -->
<g id="node14" class="node">
<title>1322040169120</title>
<ellipse fill="white" stroke="black" cx="927" cy="-154" rx="27" ry="27"/>
</g>
<!-- 1322040177664&#45;&gt;1322040169120 -->
<g id="edge27" class="edge">
<title>1322040177664&#45;&gt;1322040169120</title>
<path fill="none" stroke="black" d="M864.4,-128.8C872.75,-132.22 882.12,-136.05 890.97,-139.67"/>
<polygon fill="black" stroke="black" points="889.44,-142.83 900.02,-143.37 892.09,-136.35 889.44,-142.83"/>
</g>
<!-- 1322040175648 -->
<g id="node21" class="node">
<title>1322040175648</title>
<ellipse fill="white" stroke="black" cx="927" cy="-82" rx="27" ry="27"/>
</g>
<!-- 1322040177664&#45;&gt;1322040175648 -->
<g id="edge28" class="edge">
<title>1322040177664&#45;&gt;1322040175648</title>
<path fill="none" stroke="black" d="M864.4,-107.2C872.75,-103.78 882.12,-99.95 890.97,-96.33"/>
<polygon fill="black" stroke="black" points="892.09,-99.65 900.02,-92.63 889.44,-93.17 892.09,-99.65"/>
</g>
<!-- 1322040176032 -->
<g id="node7" class="node">
<title>1322040176032</title>
<polygon fill="white" stroke="black" points="1224,-108 1170,-108 1170,-72 1224,-72 1224,-108"/>
<text text-anchor="middle" x="1197" y="-86.9" font-family="Times New Roman,serif" font-size="12.00">g</text>
</g>
<!-- 1322040178768 -->
<g id="node17" class="node">
<title>1322040178768</title>
<ellipse fill="white" stroke="black" cx="1287" cy="-99" rx="27" ry="27"/>
</g>
<!-- 1322040176032&#45;&gt;1322040178768 -->
<g id="edge10" class="edge">
<title>1322040176032&#45;&gt;1322040178768</title>
<path fill="none" stroke="black" d="M1224.4,-92.7C1232.04,-93.48 1240.53,-94.35 1248.7,-95.19"/>
<polygon fill="black" stroke="black" points="1248.11,-98.64 1258.41,-96.18 1248.82,-91.68 1248.11,-98.64"/>
</g>
<!-- 1322040179440 -->
<g id="node8" class="node">
<title>1322040179440</title>
<polygon fill="white" stroke="black" points="504,-169 450,-169 450,-133 504,-133 504,-169"/>
<text text-anchor="middle" x="477" y="-147.9" font-family="Times New Roman,serif" font-size="12.00">e</text>
</g>
<!-- 1322040172336 -->
<g id="node13" class="node">
<title>1322040172336</title>
<ellipse fill="white" stroke="black" cx="657" cy="-150" rx="27" ry="27"/>
</g>
<!-- 1322040179440&#45;&gt;1322040172336 -->
<g id="edge6" class="edge">
<title>1322040179440&#45;&gt;1322040172336</title>
<path fill="none" stroke="black" d="M504.26,-150.85C534.37,-150.68 583.96,-150.4 618.21,-150.21"/>
<polygon fill="black" stroke="black" points="618.13,-153.71 628.11,-150.16 618.09,-146.71 618.13,-153.71"/>
</g>
<!-- 1322040175792 -->
<g id="node9" class="node">
<title>1322040175792</title>
<polygon fill="white" stroke="black" points="324,-134 270,-134 270,-98 324,-98 324,-134"/>
<text text-anchor="middle" x="297" y="-112.9" font-family="Times New Roman,serif" font-size="12.00">a</text>
</g>
<!-- 1322040173872 -->
<g id="node19" class="node">
<title>1322040173872</title>
<ellipse fill="white" stroke="black" cx="387" cy="-152" rx="27" ry="27"/>
</g>
<!-- 1322040175792&#45;&gt;1322040173872 -->
<g id="edge1" class="edge">
<title>1322040175792&#45;&gt;1322040173872</title>
<path fill="none" stroke="black" d="M324.4,-126.8C332.75,-130.22 342.12,-134.05 350.97,-137.67"/>
<polygon fill="black" stroke="black" points="349.44,-140.83 360.02,-141.37 352.09,-134.35 349.44,-140.83"/>
</g>
<!-- 1322040177232 -->
<g id="node25" class="node">
<title>1322040177232</title>
<ellipse fill="white" stroke="black" cx="387" cy="-80" rx="27" ry="27"/>
</g>
<!-- 1322040175792&#45;&gt;1322040177232 -->
<g id="edge2" class="edge">
<title>1322040175792&#45;&gt;1322040177232</title>
<path fill="none" stroke="black" d="M324.4,-105.2C332.75,-101.78 342.12,-97.95 350.97,-94.33"/>
<polygon fill="black" stroke="black" points="352.09,-97.65 360.02,-90.63 349.44,-91.17 352.09,-97.65"/>
</g>
<!-- 1322040178672 -->
<g id="node10" class="node">
<title>1322040178672</title>
<polygon fill="black" stroke="black" points="1584,-117 1530,-117 1530,-81 1584,-81 1584,-117"/>
</g>
<!-- 1322040179584 -->
<g id="node26" class="node">
<title>1322040179584</title>
<ellipse fill="white" stroke="black" cx="1651" cy="-99" rx="27" ry="27"/>
<ellipse fill="none" stroke="black" cx="1651" cy="-99" rx="31" ry="31"/>
<text text-anchor="start" x="1641" y="-90.9" font-family="Times New Roman,serif" font-size="32.00">â– </text>
</g>
<!-- 1322040178672&#45;&gt;1322040179584 -->
<g id="edge7" class="edge">
<title>1322040178672&#45;&gt;1322040179584</title>
<path fill="none" stroke="black" d="M1584.12,-99C1591.63,-99 1600.01,-99 1608.22,-99"/>
<polygon fill="black" stroke="black" points="1608.08,-102.5 1618.08,-99 1608.08,-95.5 1608.08,-102.5"/>
</g>
<!-- 1322040176080 -->
<g id="node11" class="node">
<title>1322040176080</title>
<polygon fill="white" stroke="black" points="1044,-172 990,-172 990,-136 1044,-136 1044,-172"/>
<text text-anchor="middle" x="1017" y="-150.9" font-family="Times New Roman,serif" font-size="12.00">d</text>
</g>
<!-- 1322040178864 -->
<g id="node23" class="node">
<title>1322040178864</title>
<ellipse fill="white" stroke="black" cx="1197" cy="-154" rx="27" ry="27"/>
</g>
<!-- 1322040176080&#45;&gt;1322040178864 -->
<g id="edge5" class="edge">
<title>1322040176080&#45;&gt;1322040178864</title>
<path fill="none" stroke="black" d="M1044.26,-154C1074.37,-154 1123.96,-154 1158.21,-154"/>
<polygon fill="black" stroke="black" points="1158.11,-157.5 1168.11,-154 1158.11,-150.5 1158.11,-157.5"/>
</g>
<!-- 1322040169264 -->
<g id="node12" class="node">
<title>1322040169264</title>
<ellipse fill="white" stroke="black" cx="27" cy="-116" rx="27" ry="27"/>
<text text-anchor="start" x="16" y="-107.3" font-family="Times New Roman,serif" font-size="34.00">â—</text>
</g>
<!-- 1322040169264&#45;&gt;1322040178624 -->
<g id="edge25" class="edge">
<title>1322040169264&#45;&gt;1322040178624</title>
<path fill="none" stroke="black" d="M54.4,-116C61.89,-116 70.18,-116 78.2,-116"/>
<polygon fill="black" stroke="black" points="78.1,-119.5 88.1,-116 78.1,-112.5 78.1,-119.5"/>
</g>
<!-- 1322040172336&#45;&gt;1322040177664 -->
<g id="edge12" class="edge">
<title>1322040172336&#45;&gt;1322040177664</title>
<path fill="none" stroke="black" d="M683.88,-145.35C714.03,-139.93 764.08,-130.93 798.49,-124.74"/>
<polygon fill="black" stroke="black" points="798.79,-128.25 808.02,-123.03 797.55,-121.36 798.79,-128.25"/>
</g>
<!-- 1322040169120&#45;&gt;1322040176080 -->
<g id="edge13" class="edge">
<title>1322040169120&#45;&gt;1322040176080</title>
<path fill="none" stroke="black" d="M954.4,-154C961.89,-154 970.18,-154 978.2,-154"/>
<polygon fill="black" stroke="black" points="978.1,-157.5 988.1,-154 978.1,-150.5 978.1,-157.5"/>
</g>
<!-- 1322040179152&#45;&gt;1322040175792 -->
<g id="edge14" class="edge">
<title>1322040179152&#45;&gt;1322040175792</title>
<path fill="none" stroke="black" d="M234.4,-116C241.89,-116 250.18,-116 258.2,-116"/>
<polygon fill="black" stroke="black" points="258.1,-119.5 268.1,-116 258.1,-112.5 258.1,-119.5"/>
</g>
<!-- 1322040176176&#45;&gt;1322040178672 -->
<g id="edge15" class="edge">
<title>1322040176176&#45;&gt;1322040178672</title>
<path fill="none" stroke="black" d="M1494.4,-99C1501.89,-99 1510.18,-99 1518.2,-99"/>
<polygon fill="black" stroke="black" points="1518.1,-102.5 1528.1,-99 1518.1,-95.5 1518.1,-102.5"/>
</g>
<!-- 1322040178768&#45;&gt;1322040178816 -->
<g id="edge16" class="edge">
<title>1322040178768&#45;&gt;1322040178816</title>
<path fill="none" stroke="black" d="M1314.4,-99C1321.89,-99 1330.18,-99 1338.2,-99"/>
<polygon fill="black" stroke="black" points="1338.1,-102.5 1348.1,-99 1338.1,-95.5 1338.1,-102.5"/>
</g>
<!-- 1322040176704&#45;&gt;1322040176032 -->
<g id="edge17" class="edge">
<title>1322040176704&#45;&gt;1322040176032</title>
<path fill="none" stroke="black" d="M1134.4,-88.6C1141.89,-88.77 1150.18,-88.96 1158.2,-89.14"/>
<polygon fill="black" stroke="black" points="1158.03,-92.64 1168.1,-89.37 1158.18,-85.64 1158.03,-92.64"/>
</g>
<!-- 1322040173872&#45;&gt;1322040179440 -->
<g id="edge18" class="edge">
<title>1322040173872&#45;&gt;1322040179440</title>
<path fill="none" stroke="black" d="M414.4,-151.7C421.89,-151.61 430.18,-151.52 438.2,-151.43"/>
<polygon fill="black" stroke="black" points="438.14,-154.93 448.1,-151.32 438.06,-147.93 438.14,-154.93"/>
</g>
<!-- 1322040171184&#45;&gt;1322040177664 -->
<g id="edge19" class="edge">
<title>1322040171184&#45;&gt;1322040177664</title>
<path fill="none" stroke="black" d="M772.98,-98.66C781.06,-101.14 790.19,-103.94 798.95,-106.63"/>
<polygon fill="black" stroke="black" points="797.69,-109.91 808.28,-109.5 799.75,-103.22 797.69,-109.91"/>
</g>
<!-- 1322040175648&#45;&gt;1322040179488 -->
<g id="edge20" class="edge">
<title>1322040175648&#45;&gt;1322040179488</title>
<path fill="none" stroke="black" d="M954.4,-82C961.89,-82 970.18,-82 978.2,-82"/>
<polygon fill="black" stroke="black" points="978.1,-85.5 988.1,-82 978.1,-78.5 978.1,-85.5"/>
</g>
<!-- 1322040179008&#45;&gt;1322040177472 -->
<g id="edge21" class="edge">
<title>1322040179008&#45;&gt;1322040177472</title>
<path fill="none" stroke="black" d="M594.4,-84.2C601.89,-84.54 610.18,-84.92 618.2,-85.28"/>
<polygon fill="black" stroke="black" points="617.96,-88.77 628.1,-85.73 618.27,-81.78 617.96,-88.77"/>
</g>
<!-- 1322040178864&#45;&gt;1322040178816 -->
<g id="edge22" class="edge">
<title>1322040178864&#45;&gt;1322040178816</title>
<path fill="none" stroke="black" d="M1224.02,-152.45C1247.98,-150.39 1284.22,-145.67 1314,-135 1322.75,-131.86 1331.66,-127.5 1339.91,-122.88"/>
<polygon fill="black" stroke="black" points="1341.43,-126.05 1348.27,-117.96 1337.88,-120.02 1341.43,-126.05"/>
</g>
<!-- 1322040170224&#45;&gt;1322040178816 -->
<g id="edge23" class="edge">
<title>1322040170224&#45;&gt;1322040178816</title>
<path fill="none" stroke="black" d="M1308.41,-43.7C1319.17,-52.5 1332.61,-63.5 1344.66,-73.36"/>
<polygon fill="black" stroke="black" points="1342.41,-76.04 1352.37,-79.66 1346.84,-70.62 1342.41,-76.04"/>
</g>
<!-- 1322040177232&#45;&gt;1322040177088 -->
<g id="edge24" class="edge">
<title>1322040177232&#45;&gt;1322040177088</title>
<path fill="none" stroke="black" d="M414.4,-80.3C421.89,-80.39 430.18,-80.48 438.2,-80.57"/>
<polygon fill="black" stroke="black" points="438.06,-84.07 448.1,-80.68 438.14,-77.07 438.06,-84.07"/>
</g>
</g>
</svg>
