<?xml version="1.0" encoding="UTF-8" standalone="no"?>
<!DOCTYPE svg PUBLIC "-//W3C//DTD SVG 1.1//EN"
 "http://www.w3.org/Graphics/SVG/1.1/DTD/svg11.dtd">
<!-- Generated by graphviz version 7.0.3 (20221126.0506)
 -->
<!-- Title: new_petri_net Pages: 1 -->
<svg width="1690pt" height="189pt"
 viewBox="0.00 0.00 1690.00 189.00" xmlns="http://www.w3.org/2000/svg" xmlns:xlink="http://www.w3.org/1999/xlink">
<g id="graph0" class="graph" transform="scale(1 1) rotate(0) translate(4 185)">
<title>new_petri_net</title>
<polygon fill="white" stroke="none" points="-4,4 -4,-185 1686,-185 1686,4 -4,4"/>
<!-- 1738120194048 -->
<g id="node1" class="node">
<title>1738120194048</title>
<polygon fill="white" stroke="black" points="504,-169 450,-169 450,-133 504,-133 504,-169"/>
<text text-anchor="middle" x="477" y="-147.9" font-family="Times New Roman,serif" font-size="12.00">b</text>
</g>
<!-- 1739455266624 -->
<g id="node14" class="node">
<title>1739455266624</title>
<ellipse fill="white" stroke="black" cx="567" cy="-151" rx="27" ry="27"/>
</g>
<!-- 1738120194048&#45;&gt;1739455266624 -->
<g id="edge3" class="edge">
<title>1738120194048&#45;&gt;1739455266624</title>
<path fill="none" stroke="black" d="M504.4,-151C511.89,-151 520.18,-151 528.2,-151"/>
<polygon fill="black" stroke="black" points="528.1,-154.5 538.1,-151 528.1,-147.5 528.1,-154.5"/>
</g>
<!-- 1738120194816 -->
<g id="node2" class="node">
<title>1738120194816</title>
<polygon fill="black" stroke="black" points="864,-136 810,-136 810,-100 864,-100 864,-136"/>
</g>
<!-- 1739455266144 -->
<g id="node21" class="node">
<title>1739455266144</title>
<ellipse fill="white" stroke="black" cx="927" cy="-154" rx="27" ry="27"/>
</g>
<!-- 1738120194816&#45;&gt;1739455266144 -->
<g id="edge27" class="edge">
<title>1738120194816&#45;&gt;1739455266144</title>
<path fill="none" stroke="black" d="M864.4,-128.8C872.75,-132.22 882.12,-136.05 890.97,-139.67"/>
<polygon fill="black" stroke="black" points="889.44,-142.83 900.02,-143.37 892.09,-136.35 889.44,-142.83"/>
</g>
<!-- 1739455265952 -->
<g id="node22" class="node">
<title>1739455265952</title>
<ellipse fill="white" stroke="black" cx="927" cy="-82" rx="27" ry="27"/>
</g>
<!-- 1738120194816&#45;&gt;1739455265952 -->
<g id="edge28" class="edge">
<title>1738120194816&#45;&gt;1739455265952</title>
<path fill="none" stroke="black" d="M864.4,-107.2C872.75,-103.78 882.12,-99.95 890.97,-96.33"/>
<polygon fill="black" stroke="black" points="892.09,-99.65 900.02,-92.63 889.44,-93.17 892.09,-99.65"/>
</g>
<!-- 1738120191456 -->
<g id="node3" class="node">
<title>1738120191456</title>
<polygon fill="white" stroke="black" points="504,-102 450,-102 450,-66 504,-66 504,-102"/>
<text text-anchor="middle" x="477" y="-80.9" font-family="Times New Roman,serif" font-size="12.00">e</text>
</g>
<!-- 1738120195776 -->
<g id="node24" class="node">
<title>1738120195776</title>
<ellipse fill="white" stroke="black" cx="657" cy="-87" rx="27" ry="27"/>
</g>
<!-- 1738120191456&#45;&gt;1738120195776 -->
<g id="edge6" class="edge">
<title>1738120191456&#45;&gt;1738120195776</title>
<path fill="none" stroke="black" d="M504.26,-84.44C534.37,-84.95 583.96,-85.79 618.21,-86.36"/>
<polygon fill="black" stroke="black" points="618.06,-89.86 628.11,-86.53 618.17,-82.86 618.06,-89.86"/>
</g>
<!-- 1738120195488 -->
<g id="node4" class="node">
<title>1738120195488</title>
<polygon fill="black" stroke="black" points="1584,-117 1530,-117 1530,-81 1584,-81 1584,-117"/>
</g>
<!-- 1739455266336 -->
<g id="node26" class="node">
<title>1739455266336</title>
<ellipse fill="white" stroke="black" cx="1651" cy="-99" rx="27" ry="27"/>
<ellipse fill="none" stroke="black" cx="1651" cy="-99" rx="31" ry="31"/>
<text text-anchor="start" x="1641" y="-90.9" font-family="Times New Roman,serif" font-size="32.00">â– </text>
</g>
<!-- 1738120195488&#45;&gt;1739455266336 -->
<g id="edge7" class="edge">
<title>1738120195488&#45;&gt;1739455266336</title>
<path fill="none" stroke="black" d="M1584.12,-99C1591.63,-99 1600.01,-99 1608.22,-99"/>
<polygon fill="black" stroke="black" points="1608.08,-102.5 1618.08,-99 1608.08,-95.5 1608.08,-102.5"/>
</g>
<!-- 1738120200096 -->
<g id="node5" class="node">
<title>1738120200096</title>
<polygon fill="white" stroke="black" points="1404,-117 1350,-117 1350,-81 1404,-81 1404,-117"/>
<text text-anchor="middle" x="1377" y="-95.9" font-family="Times New Roman,serif" font-size="12.00">h</text>
</g>
<!-- 1739455266240 -->
<g id="node16" class="node">
<title>1739455266240</title>
<ellipse fill="white" stroke="black" cx="1467" cy="-99" rx="27" ry="27"/>
</g>
<!-- 1738120200096&#45;&gt;1739455266240 -->
<g id="edge11" class="edge">
<title>1738120200096&#45;&gt;1739455266240</title>
<path fill="none" stroke="black" d="M1404.4,-99C1411.89,-99 1420.18,-99 1428.2,-99"/>
<polygon fill="black" stroke="black" points="1428.1,-102.5 1438.1,-99 1428.1,-95.5 1428.1,-102.5"/>
</g>
<!-- 1738120197408 -->
<g id="node6" class="node">
<title>1738120197408</title>
<polygon fill="white" stroke="black" points="324,-134 270,-134 270,-98 324,-98 324,-134"/>
<text text-anchor="middle" x="297" y="-112.9" font-family="Times New Roman,serif" font-size="12.00">a</text>
</g>
<!-- 1739455266432 -->
<g id="node13" class="node">
<title>1739455266432</title>
<ellipse fill="white" stroke="black" cx="387" cy="-152" rx="27" ry="27"/>
</g>
<!-- 1738120197408&#45;&gt;1739455266432 -->
<g id="edge1" class="edge">
<title>1738120197408&#45;&gt;1739455266432</title>
<path fill="none" stroke="black" d="M324.4,-126.8C332.75,-130.22 342.12,-134.05 350.97,-137.67"/>
<polygon fill="black" stroke="black" points="349.44,-140.83 360.02,-141.37 352.09,-134.35 349.44,-140.83"/>
</g>
<!-- 1739455266528 -->
<g id="node19" class="node">
<title>1739455266528</title>
<ellipse fill="white" stroke="black" cx="387" cy="-80" rx="27" ry="27"/>
</g>
<!-- 1738120197408&#45;&gt;1739455266528 -->
<g id="edge2" class="edge">
<title>1738120197408&#45;&gt;1739455266528</title>
<path fill="none" stroke="black" d="M324.4,-105.2C332.75,-101.78 342.12,-97.95 350.97,-94.33"/>
<polygon fill="black" stroke="black" points="352.09,-97.65 360.02,-90.63 349.44,-91.17 352.09,-97.65"/>
</g>
<!-- 1738120196976 -->
<g id="node7" class="node">
<title>1738120196976</title>
<polygon fill="black" stroke="black" points="144,-134 90,-134 90,-98 144,-98 144,-134"/>
</g>
<!-- 1738120194480 -->
<g id="node15" class="node">
<title>1738120194480</title>
<ellipse fill="white" stroke="black" cx="207" cy="-116" rx="27" ry="27"/>
</g>
<!-- 1738120196976&#45;&gt;1738120194480 -->
<g id="edge26" class="edge">
<title>1738120196976&#45;&gt;1738120194480</title>
<path fill="none" stroke="black" d="M144.4,-116C151.89,-116 160.18,-116 168.2,-116"/>
<polygon fill="black" stroke="black" points="168.1,-119.5 178.1,-116 168.1,-112.5 168.1,-119.5"/>
</g>
<!-- 1738120190160 -->
<g id="node8" class="node">
<title>1738120190160</title>
<polygon fill="white" stroke="black" points="1044,-100 990,-100 990,-64 1044,-64 1044,-100"/>
<text text-anchor="middle" x="1017" y="-78.9" font-family="Times New Roman,serif" font-size="12.00">f</text>
</g>
<!-- 1738120193280 -->
<g id="node18" class="node">
<title>1738120193280</title>
<ellipse fill="white" stroke="black" cx="1107" cy="-85" rx="27" ry="27"/>
</g>
<!-- 1738120190160&#45;&gt;1738120193280 -->
<g id="edge8" class="edge">
<title>1738120190160&#45;&gt;1738120193280</title>
<path fill="none" stroke="black" d="M1044.4,-82.9C1051.89,-83.16 1060.18,-83.44 1068.2,-83.71"/>
<polygon fill="black" stroke="black" points="1067.99,-87.21 1078.1,-84.05 1068.23,-80.21 1067.99,-87.21"/>
</g>
<!-- 1739455266720 -->
<g id="node25" class="node">
<title>1739455266720</title>
<ellipse fill="white" stroke="black" cx="1287" cy="-27" rx="27" ry="27"/>
</g>
<!-- 1738120190160&#45;&gt;1739455266720 -->
<g id="edge9" class="edge">
<title>1738120190160&#45;&gt;1739455266720</title>
<path fill="none" stroke="black" d="M1044.49,-65.02C1055.13,-58.98 1067.76,-52.76 1080,-49 1136.92,-31.53 1206.37,-27.46 1248.34,-26.76"/>
<polygon fill="black" stroke="black" points="1248.2,-30.26 1258.16,-26.65 1248.12,-23.26 1248.2,-30.26"/>
</g>
<!-- 1738120190256 -->
<g id="node9" class="node">
<title>1738120190256</title>
<polygon fill="white" stroke="black" points="684,-169 630,-169 630,-133 684,-133 684,-169"/>
<text text-anchor="middle" x="657" y="-147.9" font-family="Times New Roman,serif" font-size="12.00">c</text>
</g>
<!-- 1738120193856 -->
<g id="node20" class="node">
<title>1738120193856</title>
<ellipse fill="white" stroke="black" cx="747" cy="-148" rx="27" ry="27"/>
</g>
<!-- 1738120190256&#45;&gt;1738120193856 -->
<g id="edge4" class="edge">
<title>1738120190256&#45;&gt;1738120193856</title>
<path fill="none" stroke="black" d="M684.4,-150.1C691.89,-149.84 700.18,-149.56 708.2,-149.29"/>
<polygon fill="black" stroke="black" points="708.23,-152.79 718.1,-148.95 707.99,-145.79 708.23,-152.79"/>
</g>
<!-- 1738120195440 -->
<g id="node10" class="node">
<title>1738120195440</title>
<polygon fill="white" stroke="black" points="1044,-172 990,-172 990,-136 1044,-136 1044,-172"/>
<text text-anchor="middle" x="1017" y="-150.9" font-family="Times New Roman,serif" font-size="12.00">d</text>
</g>
<!-- 1739455266048 -->
<g id="node23" class="node">
<title>1739455266048</title>
<ellipse fill="white" stroke="black" cx="1197" cy="-154" rx="27" ry="27"/>
</g>
<!-- 1738120195440&#45;&gt;1739455266048 -->
<g id="edge5" class="edge">
<title>1738120195440&#45;&gt;1739455266048</title>
<path fill="none" stroke="black" d="M1044.26,-154C1074.37,-154 1123.96,-154 1158.21,-154"/>
<polygon fill="black" stroke="black" points="1158.11,-157.5 1168.11,-154 1158.11,-150.5 1158.11,-157.5"/>
</g>
<!-- 1738120189872 -->
<g id="node11" class="node">
<title>1738120189872</title>
<polygon fill="white" stroke="black" points="1224,-107 1170,-107 1170,-71 1224,-71 1224,-107"/>
<text text-anchor="middle" x="1197" y="-85.9" font-family="Times New Roman,serif" font-size="12.00">g</text>
</g>
<!-- 1738120188912 -->
<g id="node17" class="node">
<title>1738120188912</title>
<ellipse fill="white" stroke="black" cx="1287" cy="-99" rx="27" ry="27"/>
</g>
<!-- 1738120189872&#45;&gt;1738120188912 -->
<g id="edge10" class="edge">
<title>1738120189872&#45;&gt;1738120188912</title>
<path fill="none" stroke="black" d="M1224.4,-92C1232.04,-92.87 1240.53,-93.83 1248.7,-94.76"/>
<polygon fill="black" stroke="black" points="1248.08,-98.21 1258.42,-95.87 1248.87,-91.26 1248.08,-98.21"/>
</g>
<!-- 1738120187760 -->
<g id="node12" class="node">
<title>1738120187760</title>
<ellipse fill="white" stroke="black" cx="27" cy="-116" rx="27" ry="27"/>
<text text-anchor="start" x="16" y="-107.3" font-family="Times New Roman,serif" font-size="34.00">â—</text>
</g>
<!-- 1738120187760&#45;&gt;1738120196976 -->
<g id="edge25" class="edge">
<title>1738120187760&#45;&gt;1738120196976</title>
<path fill="none" stroke="black" d="M54.4,-116C61.89,-116 70.18,-116 78.2,-116"/>
<polygon fill="black" stroke="black" points="78.1,-119.5 88.1,-116 78.1,-112.5 78.1,-119.5"/>
</g>
<!-- 1739455266432&#45;&gt;1738120194048 -->
<g id="edge12" class="edge">
<title>1739455266432&#45;&gt;1738120194048</title>
<path fill="none" stroke="black" d="M414.4,-151.7C421.89,-151.61 430.18,-151.52 438.2,-151.43"/>
<polygon fill="black" stroke="black" points="438.14,-154.93 448.1,-151.32 438.06,-147.93 438.14,-154.93"/>
</g>
<!-- 1739455266624&#45;&gt;1738120190256 -->
<g id="edge13" class="edge">
<title>1739455266624&#45;&gt;1738120190256</title>
<path fill="none" stroke="black" d="M594.4,-151C601.89,-151 610.18,-151 618.2,-151"/>
<polygon fill="black" stroke="black" points="618.1,-154.5 628.1,-151 618.1,-147.5 618.1,-154.5"/>
</g>
<!-- 1738120194480&#45;&gt;1738120197408 -->
<g id="edge14" class="edge">
<title>1738120194480&#45;&gt;1738120197408</title>
<path fill="none" stroke="black" d="M234.4,-116C241.89,-116 250.18,-116 258.2,-116"/>
<polygon fill="black" stroke="black" points="258.1,-119.5 268.1,-116 258.1,-112.5 258.1,-119.5"/>
</g>
<!-- 1739455266240&#45;&gt;1738120195488 -->
<g id="edge15" class="edge">
<title>1739455266240&#45;&gt;1738120195488</title>
<path fill="none" stroke="black" d="M1494.4,-99C1501.89,-99 1510.18,-99 1518.2,-99"/>
<polygon fill="black" stroke="black" points="1518.1,-102.5 1528.1,-99 1518.1,-95.5 1518.1,-102.5"/>
</g>
<!-- 1738120188912&#45;&gt;1738120200096 -->
<g id="edge16" class="edge">
<title>1738120188912&#45;&gt;1738120200096</title>
<path fill="none" stroke="black" d="M1314.4,-99C1321.89,-99 1330.18,-99 1338.2,-99"/>
<polygon fill="black" stroke="black" points="1338.1,-102.5 1348.1,-99 1338.1,-95.5 1338.1,-102.5"/>
</g>
<!-- 1738120193280&#45;&gt;1738120189872 -->
<g id="edge17" class="edge">
<title>1738120193280&#45;&gt;1738120189872</title>
<path fill="none" stroke="black" d="M1134.4,-86.2C1141.89,-86.54 1150.18,-86.92 1158.2,-87.28"/>
<polygon fill="black" stroke="black" points="1157.96,-90.77 1168.1,-87.73 1158.27,-83.78 1157.96,-90.77"/>
</g>
<!-- 1739455266528&#45;&gt;1738120191456 -->
<g id="edge18" class="edge">
<title>1739455266528&#45;&gt;1738120191456</title>
<path fill="none" stroke="black" d="M414.4,-81.2C421.89,-81.54 430.18,-81.92 438.2,-82.28"/>
<polygon fill="black" stroke="black" points="437.96,-85.77 448.1,-82.73 438.27,-78.78 437.96,-85.77"/>
</g>
<!-- 1738120193856&#45;&gt;1738120194816 -->
<g id="edge19" class="edge">
<title>1738120193856&#45;&gt;1738120194816</title>
<path fill="none" stroke="black" d="M772.98,-139.48C781.06,-136.73 790.19,-133.62 798.95,-130.63"/>
<polygon fill="black" stroke="black" points="799.96,-133.98 808.29,-127.44 797.7,-127.36 799.96,-133.98"/>
</g>
<!-- 1739455266144&#45;&gt;1738120195440 -->
<g id="edge20" class="edge">
<title>1739455266144&#45;&gt;1738120195440</title>
<path fill="none" stroke="black" d="M954.4,-154C961.89,-154 970.18,-154 978.2,-154"/>
<polygon fill="black" stroke="black" points="978.1,-157.5 988.1,-154 978.1,-150.5 978.1,-157.5"/>
</g>
<!-- 1739455265952&#45;&gt;1738120190160 -->
<g id="edge21" class="edge">
<title>1739455265952&#45;&gt;1738120190160</title>
<path fill="none" stroke="black" d="M954.4,-82C961.89,-82 970.18,-82 978.2,-82"/>
<polygon fill="black" stroke="black" points="978.1,-85.5 988.1,-82 978.1,-78.5 978.1,-85.5"/>
</g>
<!-- 1739455266048&#45;&gt;1738120200096 -->
<g id="edge22" class="edge">
<title>1739455266048&#45;&gt;1738120200096</title>
<path fill="none" stroke="black" d="M1224.02,-152.45C1247.98,-150.39 1284.22,-145.67 1314,-135 1322.75,-131.86 1331.66,-127.5 1339.91,-122.88"/>
<polygon fill="black" stroke="black" points="1341.43,-126.05 1348.27,-117.96 1337.88,-120.02 1341.43,-126.05"/>
</g>
<!-- 1738120195776&#45;&gt;1738120194816 -->
<g id="edge23" class="edge">
<title>1738120195776&#45;&gt;1738120194816</title>
<path fill="none" stroke="black" d="M683.88,-91.51C714.03,-96.76 764.08,-105.48 798.49,-111.47"/>
<polygon fill="black" stroke="black" points="797.56,-114.86 808.01,-113.13 798.76,-107.96 797.56,-114.86"/>
</g>
<!-- 1739455266720&#45;&gt;1738120200096 -->
<g id="edge24" class="edge">
<title>1739455266720&#45;&gt;1738120200096</title>
<path fill="none" stroke="black" d="M1308.41,-43.7C1319.17,-52.5 1332.61,-63.5 1344.66,-73.36"/>
<polygon fill="black" stroke="black" points="1342.41,-76.04 1352.37,-79.66 1346.84,-70.62 1342.41,-76.04"/>
</g>
</g>
</svg>
