<?xml version="1.0" encoding="UTF-8" standalone="no"?>
<!DOCTYPE svg PUBLIC "-//W3C//DTD SVG 1.1//EN"
 "http://www.w3.org/Graphics/SVG/1.1/DTD/svg11.dtd">
<!-- Generated by graphviz version 7.0.3 (20221126.0506)
 -->
<!-- Title: new_petri_net Pages: 1 -->
<svg width="1690pt" height="191pt"
 viewBox="0.00 0.00 1690.00 191.00" xmlns="http://www.w3.org/2000/svg" xmlns:xlink="http://www.w3.org/1999/xlink">
<g id="graph0" class="graph" transform="scale(1 1) rotate(0) translate(4 187)">
<title>new_petri_net</title>
<polygon fill="white" stroke="none" points="-4,4 -4,-187 1686,-187 1686,4 -4,4"/>
<!-- 2391551393024 -->
<g id="node1" class="node">
<title>2391551393024</title>
<polygon fill="white" stroke="black" points="1044,-119 990,-119 990,-83 1044,-83 1044,-119"/>
<text text-anchor="middle" x="1017" y="-97.9" font-family="Times New Roman,serif" font-size="12.00">f</text>
</g>
<!-- 2391551387696 -->
<g id="node18" class="node">
<title>2391551387696</title>
<ellipse fill="white" stroke="black" cx="1107" cy="-152" rx="27" ry="27"/>
</g>
<!-- 2391551393024&#45;&gt;2391551387696 -->
<g id="edge8" class="edge">
<title>2391551393024&#45;&gt;2391551387696</title>
<path fill="none" stroke="black" d="M1044.4,-116.3C1053.47,-121.56 1063.74,-127.51 1073.26,-133.02"/>
<polygon fill="black" stroke="black" points="1071.47,-136.04 1081.88,-138.02 1074.98,-129.98 1071.47,-136.04"/>
</g>
<!-- 2391551393072 -->
<g id="node23" class="node">
<title>2391551393072</title>
<ellipse fill="white" stroke="black" cx="1287" cy="-84" rx="27" ry="27"/>
</g>
<!-- 2391551393024&#45;&gt;2391551393072 -->
<g id="edge9" class="edge">
<title>2391551393024&#45;&gt;2391551393072</title>
<path fill="none" stroke="black" d="M1044.18,-99.34C1091.92,-96.31 1193.23,-89.88 1248.36,-86.39"/>
<polygon fill="black" stroke="black" points="1248.44,-89.89 1258.2,-85.76 1248,-82.9 1248.44,-89.89"/>
</g>
<!-- 2391551378912 -->
<g id="node2" class="node">
<title>2391551378912</title>
<polygon fill="white" stroke="black" points="684,-52 630,-52 630,-16 684,-16 684,-52"/>
<text text-anchor="middle" x="657" y="-30.9" font-family="Times New Roman,serif" font-size="12.00">c</text>
</g>
<!-- 2391551383952 -->
<g id="node13" class="node">
<title>2391551383952</title>
<ellipse fill="white" stroke="black" cx="747" cy="-38" rx="27" ry="27"/>
</g>
<!-- 2391551378912&#45;&gt;2391551383952 -->
<g id="edge4" class="edge">
<title>2391551378912&#45;&gt;2391551383952</title>
<path fill="none" stroke="black" d="M684.4,-35.2C691.89,-35.54 700.18,-35.92 708.2,-36.28"/>
<polygon fill="black" stroke="black" points="707.96,-39.77 718.1,-36.73 708.27,-32.78 707.96,-39.77"/>
</g>
<!-- 2391551392256 -->
<g id="node3" class="node">
<title>2391551392256</title>
<polygon fill="white" stroke="black" points="504,-46 450,-46 450,-10 504,-10 504,-46"/>
<text text-anchor="middle" x="477" y="-24.9" font-family="Times New Roman,serif" font-size="12.00">b</text>
</g>
<!-- 2391551378672 -->
<g id="node14" class="node">
<title>2391551378672</title>
<ellipse fill="white" stroke="black" cx="567" cy="-30" rx="27" ry="27"/>
</g>
<!-- 2391551392256&#45;&gt;2391551378672 -->
<g id="edge3" class="edge">
<title>2391551392256&#45;&gt;2391551378672</title>
<path fill="none" stroke="black" d="M504.4,-28.6C511.89,-28.77 520.18,-28.96 528.2,-29.14"/>
<polygon fill="black" stroke="black" points="528.03,-32.64 538.1,-29.37 528.18,-25.64 528.03,-32.64"/>
</g>
<!-- 2391551393408 -->
<g id="node4" class="node">
<title>2391551393408</title>
<polygon fill="black" stroke="black" points="1584,-102 1530,-102 1530,-66 1584,-66 1584,-102"/>
</g>
<!-- 2391551393504 -->
<g id="node26" class="node">
<title>2391551393504</title>
<ellipse fill="white" stroke="black" cx="1651" cy="-84" rx="27" ry="27"/>
<ellipse fill="none" stroke="black" cx="1651" cy="-84" rx="31" ry="31"/>
<text text-anchor="start" x="1641" y="-75.9" font-family="Times New Roman,serif" font-size="32.00">â– </text>
</g>
<!-- 2391551393408&#45;&gt;2391551393504 -->
<g id="edge7" class="edge">
<title>2391551393408&#45;&gt;2391551393504</title>
<path fill="none" stroke="black" d="M1584.12,-84C1591.63,-84 1600.01,-84 1608.22,-84"/>
<polygon fill="black" stroke="black" points="1608.08,-87.5 1618.08,-84 1608.08,-80.5 1608.08,-87.5"/>
</g>
<!-- 2391551387744 -->
<g id="node5" class="node">
<title>2391551387744</title>
<polygon fill="white" stroke="black" points="1044,-47 990,-47 990,-11 1044,-11 1044,-47"/>
<text text-anchor="middle" x="1017" y="-25.9" font-family="Times New Roman,serif" font-size="12.00">d</text>
</g>
<!-- 2391551391920 -->
<g id="node20" class="node">
<title>2391551391920</title>
<ellipse fill="white" stroke="black" cx="1197" cy="-29" rx="27" ry="27"/>
</g>
<!-- 2391551387744&#45;&gt;2391551391920 -->
<g id="edge5" class="edge">
<title>2391551387744&#45;&gt;2391551391920</title>
<path fill="none" stroke="black" d="M1044.26,-29C1074.37,-29 1123.96,-29 1158.21,-29"/>
<polygon fill="black" stroke="black" points="1158.11,-32.5 1168.11,-29 1158.11,-25.5 1158.11,-32.5"/>
</g>
<!-- 2391551377856 -->
<g id="node6" class="node">
<title>2391551377856</title>
<polygon fill="black" stroke="black" points="144,-81 90,-81 90,-45 144,-45 144,-81"/>
</g>
<!-- 2391551390096 -->
<g id="node15" class="node">
<title>2391551390096</title>
<ellipse fill="white" stroke="black" cx="207" cy="-63" rx="27" ry="27"/>
</g>
<!-- 2391551377856&#45;&gt;2391551390096 -->
<g id="edge26" class="edge">
<title>2391551377856&#45;&gt;2391551390096</title>
<path fill="none" stroke="black" d="M144.4,-63C151.89,-63 160.18,-63 168.2,-63"/>
<polygon fill="black" stroke="black" points="168.1,-66.5 178.1,-63 168.1,-59.5 168.1,-66.5"/>
</g>
<!-- 2391551378720 -->
<g id="node7" class="node">
<title>2391551378720</title>
<polygon fill="white" stroke="black" points="1224,-170 1170,-170 1170,-134 1224,-134 1224,-170"/>
<text text-anchor="middle" x="1197" y="-148.9" font-family="Times New Roman,serif" font-size="12.00">g</text>
</g>
<!-- 2391551381168 -->
<g id="node17" class="node">
<title>2391551381168</title>
<ellipse fill="white" stroke="black" cx="1287" cy="-156" rx="27" ry="27"/>
</g>
<!-- 2391551378720&#45;&gt;2391551381168 -->
<g id="edge10" class="edge">
<title>2391551378720&#45;&gt;2391551381168</title>
<path fill="none" stroke="black" d="M1224.4,-153.2C1231.89,-153.54 1240.18,-153.92 1248.2,-154.28"/>
<polygon fill="black" stroke="black" points="1247.96,-157.77 1258.1,-154.73 1248.27,-150.78 1247.96,-157.77"/>
</g>
<!-- 2391551383664 -->
<g id="node8" class="node">
<title>2391551383664</title>
<polygon fill="white" stroke="black" points="324,-81 270,-81 270,-45 324,-45 324,-81"/>
<text text-anchor="middle" x="297" y="-59.9" font-family="Times New Roman,serif" font-size="12.00">a</text>
</g>
<!-- 2391551379584 -->
<g id="node19" class="node">
<title>2391551379584</title>
<ellipse fill="white" stroke="black" cx="387" cy="-99" rx="27" ry="27"/>
</g>
<!-- 2391551383664&#45;&gt;2391551379584 -->
<g id="edge1" class="edge">
<title>2391551383664&#45;&gt;2391551379584</title>
<path fill="none" stroke="black" d="M324.4,-73.8C332.75,-77.22 342.12,-81.05 350.97,-84.67"/>
<polygon fill="black" stroke="black" points="349.44,-87.83 360.02,-88.37 352.09,-81.35 349.44,-87.83"/>
</g>
<!-- 2391551391488 -->
<g id="node24" class="node">
<title>2391551391488</title>
<ellipse fill="white" stroke="black" cx="387" cy="-27" rx="27" ry="27"/>
</g>
<!-- 2391551383664&#45;&gt;2391551391488 -->
<g id="edge2" class="edge">
<title>2391551383664&#45;&gt;2391551391488</title>
<path fill="none" stroke="black" d="M324.4,-52.2C332.75,-48.78 342.12,-44.95 350.97,-41.33"/>
<polygon fill="black" stroke="black" points="352.09,-44.65 360.02,-37.63 349.44,-38.17 352.09,-44.65"/>
</g>
<!-- 2391551387120 -->
<g id="node9" class="node">
<title>2391551387120</title>
<polygon fill="black" stroke="black" points="864,-83 810,-83 810,-47 864,-47 864,-83"/>
</g>
<!-- 2391551392736 -->
<g id="node21" class="node">
<title>2391551392736</title>
<ellipse fill="white" stroke="black" cx="927" cy="-101" rx="27" ry="27"/>
</g>
<!-- 2391551387120&#45;&gt;2391551392736 -->
<g id="edge27" class="edge">
<title>2391551387120&#45;&gt;2391551392736</title>
<path fill="none" stroke="black" d="M864.4,-75.8C872.75,-79.22 882.12,-83.05 890.97,-86.67"/>
<polygon fill="black" stroke="black" points="889.44,-89.83 900.02,-90.37 892.09,-83.35 889.44,-89.83"/>
</g>
<!-- 2391551390240 -->
<g id="node25" class="node">
<title>2391551390240</title>
<ellipse fill="white" stroke="black" cx="927" cy="-29" rx="27" ry="27"/>
</g>
<!-- 2391551387120&#45;&gt;2391551390240 -->
<g id="edge28" class="edge">
<title>2391551387120&#45;&gt;2391551390240</title>
<path fill="none" stroke="black" d="M864.4,-54.2C872.75,-50.78 882.12,-46.95 890.97,-43.33"/>
<polygon fill="black" stroke="black" points="892.09,-46.65 900.02,-39.63 889.44,-40.17 892.09,-46.65"/>
</g>
<!-- 2391551383376 -->
<g id="node10" class="node">
<title>2391551383376</title>
<polygon fill="white" stroke="black" points="504,-116 450,-116 450,-80 504,-80 504,-116"/>
<text text-anchor="middle" x="477" y="-94.9" font-family="Times New Roman,serif" font-size="12.00">e</text>
</g>
<!-- 2391551393264 -->
<g id="node22" class="node">
<title>2391551393264</title>
<ellipse fill="white" stroke="black" cx="657" cy="-97" rx="27" ry="27"/>
</g>
<!-- 2391551383376&#45;&gt;2391551393264 -->
<g id="edge6" class="edge">
<title>2391551383376&#45;&gt;2391551393264</title>
<path fill="none" stroke="black" d="M504.26,-97.85C534.37,-97.68 583.96,-97.4 618.21,-97.21"/>
<polygon fill="black" stroke="black" points="618.13,-100.71 628.11,-97.16 618.09,-93.71 618.13,-100.71"/>
</g>
<!-- 2391551378288 -->
<g id="node11" class="node">
<title>2391551378288</title>
<polygon fill="white" stroke="black" points="1404,-102 1350,-102 1350,-66 1404,-66 1404,-102"/>
<text text-anchor="middle" x="1377" y="-80.9" font-family="Times New Roman,serif" font-size="12.00">h</text>
</g>
<!-- 2391551392064 -->
<g id="node16" class="node">
<title>2391551392064</title>
<ellipse fill="white" stroke="black" cx="1467" cy="-84" rx="27" ry="27"/>
</g>
<!-- 2391551378288&#45;&gt;2391551392064 -->
<g id="edge11" class="edge">
<title>2391551378288&#45;&gt;2391551392064</title>
<path fill="none" stroke="black" d="M1404.4,-84C1411.89,-84 1420.18,-84 1428.2,-84"/>
<polygon fill="black" stroke="black" points="1428.1,-87.5 1438.1,-84 1428.1,-80.5 1428.1,-87.5"/>
</g>
<!-- 2391551393120 -->
<g id="node12" class="node">
<title>2391551393120</title>
<ellipse fill="white" stroke="black" cx="27" cy="-63" rx="27" ry="27"/>
<text text-anchor="start" x="16" y="-54.3" font-family="Times New Roman,serif" font-size="34.00">â—</text>
</g>
<!-- 2391551393120&#45;&gt;2391551377856 -->
<g id="edge25" class="edge">
<title>2391551393120&#45;&gt;2391551377856</title>
<path fill="none" stroke="black" d="M54.4,-63C61.89,-63 70.18,-63 78.2,-63"/>
<polygon fill="black" stroke="black" points="78.1,-66.5 88.1,-63 78.1,-59.5 78.1,-66.5"/>
</g>
<!-- 2391551383952&#45;&gt;2391551387120 -->
<g id="edge12" class="edge">
<title>2391551383952&#45;&gt;2391551387120</title>
<path fill="none" stroke="black" d="M772.98,-45.66C781.06,-48.14 790.19,-50.94 798.95,-53.63"/>
<polygon fill="black" stroke="black" points="797.69,-56.91 808.28,-56.5 799.75,-50.22 797.69,-56.91"/>
</g>
<!-- 2391551378672&#45;&gt;2391551378912 -->
<g id="edge13" class="edge">
<title>2391551378672&#45;&gt;2391551378912</title>
<path fill="none" stroke="black" d="M594.4,-31.2C601.89,-31.54 610.18,-31.92 618.2,-32.28"/>
<polygon fill="black" stroke="black" points="617.96,-35.77 628.1,-32.73 618.27,-28.78 617.96,-35.77"/>
</g>
<!-- 2391551390096&#45;&gt;2391551383664 -->
<g id="edge14" class="edge">
<title>2391551390096&#45;&gt;2391551383664</title>
<path fill="none" stroke="black" d="M234.4,-63C241.89,-63 250.18,-63 258.2,-63"/>
<polygon fill="black" stroke="black" points="258.1,-66.5 268.1,-63 258.1,-59.5 258.1,-66.5"/>
</g>
<!-- 2391551392064&#45;&gt;2391551393408 -->
<g id="edge15" class="edge">
<title>2391551392064&#45;&gt;2391551393408</title>
<path fill="none" stroke="black" d="M1494.4,-84C1501.89,-84 1510.18,-84 1518.2,-84"/>
<polygon fill="black" stroke="black" points="1518.1,-87.5 1528.1,-84 1518.1,-80.5 1518.1,-87.5"/>
</g>
<!-- 2391551381168&#45;&gt;2391551378288 -->
<g id="edge16" class="edge">
<title>2391551381168&#45;&gt;2391551378288</title>
<path fill="none" stroke="black" d="M1308.41,-139.3C1319.17,-130.5 1332.61,-119.5 1344.66,-109.64"/>
<polygon fill="black" stroke="black" points="1346.84,-112.38 1352.37,-103.34 1342.41,-106.96 1346.84,-112.38"/>
</g>
<!-- 2391551387696&#45;&gt;2391551378720 -->
<g id="edge17" class="edge">
<title>2391551387696&#45;&gt;2391551378720</title>
<path fill="none" stroke="black" d="M1134.4,-152C1141.89,-152 1150.18,-152 1158.2,-152"/>
<polygon fill="black" stroke="black" points="1158.1,-155.5 1168.1,-152 1158.1,-148.5 1158.1,-155.5"/>
</g>
<!-- 2391551379584&#45;&gt;2391551383376 -->
<g id="edge18" class="edge">
<title>2391551379584&#45;&gt;2391551383376</title>
<path fill="none" stroke="black" d="M414.4,-98.7C421.89,-98.61 430.18,-98.52 438.2,-98.43"/>
<polygon fill="black" stroke="black" points="438.14,-101.93 448.1,-98.32 438.06,-94.93 438.14,-101.93"/>
</g>
<!-- 2391551391920&#45;&gt;2391551378288 -->
<g id="edge19" class="edge">
<title>2391551391920&#45;&gt;2391551378288</title>
<path fill="none" stroke="black" d="M1224.02,-30.55C1247.98,-32.61 1284.22,-37.33 1314,-48 1322.75,-51.14 1331.66,-55.5 1339.91,-60.12"/>
<polygon fill="black" stroke="black" points="1337.88,-62.98 1348.27,-65.04 1341.43,-56.95 1337.88,-62.98"/>
</g>
<!-- 2391551392736&#45;&gt;2391551393024 -->
<g id="edge20" class="edge">
<title>2391551392736&#45;&gt;2391551393024</title>
<path fill="none" stroke="black" d="M954.4,-101C961.89,-101 970.18,-101 978.2,-101"/>
<polygon fill="black" stroke="black" points="978.1,-104.5 988.1,-101 978.1,-97.5 978.1,-104.5"/>
</g>
<!-- 2391551393264&#45;&gt;2391551387120 -->
<g id="edge21" class="edge">
<title>2391551393264&#45;&gt;2391551387120</title>
<path fill="none" stroke="black" d="M683.88,-92.35C714.03,-86.93 764.08,-77.93 798.49,-71.74"/>
<polygon fill="black" stroke="black" points="798.79,-75.25 808.02,-70.03 797.55,-68.36 798.79,-75.25"/>
</g>
<!-- 2391551393072&#45;&gt;2391551378288 -->
<g id="edge22" class="edge">
<title>2391551393072&#45;&gt;2391551378288</title>
<path fill="none" stroke="black" d="M1314.4,-84C1321.89,-84 1330.18,-84 1338.2,-84"/>
<polygon fill="black" stroke="black" points="1338.1,-87.5 1348.1,-84 1338.1,-80.5 1338.1,-87.5"/>
</g>
<!-- 2391551391488&#45;&gt;2391551392256 -->
<g id="edge23" class="edge">
<title>2391551391488&#45;&gt;2391551392256</title>
<path fill="none" stroke="black" d="M414.4,-27.3C421.89,-27.39 430.18,-27.48 438.2,-27.57"/>
<polygon fill="black" stroke="black" points="438.06,-31.07 448.1,-27.68 438.14,-24.07 438.06,-31.07"/>
</g>
<!-- 2391551390240&#45;&gt;2391551387744 -->
<g id="edge24" class="edge">
<title>2391551390240&#45;&gt;2391551387744</title>
<path fill="none" stroke="black" d="M954.4,-29C961.89,-29 970.18,-29 978.2,-29"/>
<polygon fill="black" stroke="black" points="978.1,-32.5 988.1,-29 978.1,-25.5 978.1,-32.5"/>
</g>
</g>
</svg>
