<?xml version="1.0" encoding="UTF-8" standalone="no"?>
<!DOCTYPE svg PUBLIC "-//W3C//DTD SVG 1.1//EN"
 "http://www.w3.org/Graphics/SVG/1.1/DTD/svg11.dtd">
<!-- Generated by graphviz version 7.0.3 (20221126.0506)
 -->
<!-- Title: new_petri_net Pages: 1 -->
<svg width="1510pt" height="202pt"
 viewBox="0.00 0.00 1510.00 202.00" xmlns="http://www.w3.org/2000/svg" xmlns:xlink="http://www.w3.org/1999/xlink">
<g id="graph0" class="graph" transform="scale(1 1) rotate(0) translate(4 198)">
<title>new_petri_net</title>
<polygon fill="white" stroke="none" points="-4,4 -4,-198 1506,-198 1506,4 -4,4"/>
<!-- 1903632927712 -->
<g id="node1" class="node">
<title>1903632927712</title>
<polygon fill="white" stroke="black" points="324,-117 270,-117 270,-81 324,-81 324,-117"/>
<text text-anchor="middle" x="297" y="-95.9" font-family="Times New Roman,serif" font-size="12.00">a</text>
</g>
<!-- 1903638235696 -->
<g id="node14" class="node">
<title>1903638235696</title>
<ellipse fill="white" stroke="black" cx="387" cy="-167" rx="27" ry="27"/>
</g>
<!-- 1903632927712&#45;&gt;1903638235696 -->
<g id="edge1" class="edge">
<title>1903632927712&#45;&gt;1903638235696</title>
<path fill="none" stroke="black" d="M321.58,-117.22C332.16,-125.4 344.77,-135.14 356.01,-143.82"/>
<polygon fill="black" stroke="black" points="353.81,-146.55 363.86,-149.89 358.09,-141.01 353.81,-146.55"/>
</g>
<!-- 1903638234832 -->
<g id="node15" class="node">
<title>1903638234832</title>
<ellipse fill="white" stroke="black" cx="387" cy="-95" rx="27" ry="27"/>
</g>
<!-- 1903632927712&#45;&gt;1903638234832 -->
<g id="edge2" class="edge">
<title>1903632927712&#45;&gt;1903638234832</title>
<path fill="none" stroke="black" d="M324.4,-97.8C331.89,-97.46 340.18,-97.08 348.2,-96.72"/>
<polygon fill="black" stroke="black" points="348.27,-100.22 358.1,-96.27 347.96,-93.23 348.27,-100.22"/>
</g>
<!-- 1903636060416 -->
<g id="node2" class="node">
<title>1903636060416</title>
<polygon fill="white" stroke="black" points="504,-185 450,-185 450,-149 504,-149 504,-185"/>
<text text-anchor="middle" x="477" y="-163.9" font-family="Times New Roman,serif" font-size="12.00">e</text>
</g>
<!-- 1903638235360 -->
<g id="node24" class="node">
<title>1903638235360</title>
<ellipse fill="white" stroke="black" cx="747" cy="-167" rx="27" ry="27"/>
</g>
<!-- 1903636060416&#45;&gt;1903638235360 -->
<g id="edge6" class="edge">
<title>1903636060416&#45;&gt;1903638235360</title>
<path fill="none" stroke="black" d="M504.18,-167C551.92,-167 653.23,-167 708.36,-167"/>
<polygon fill="black" stroke="black" points="708.2,-170.5 718.2,-167 708.2,-163.5 708.2,-170.5"/>
</g>
<!-- 1903638101632 -->
<g id="node3" class="node">
<title>1903638101632</title>
<polygon fill="white" stroke="black" points="1224,-100 1170,-100 1170,-64 1224,-64 1224,-100"/>
<text text-anchor="middle" x="1197" y="-78.9" font-family="Times New Roman,serif" font-size="12.00">h</text>
</g>
<!-- 1903638236560 -->
<g id="node16" class="node">
<title>1903638236560</title>
<ellipse fill="white" stroke="black" cx="1287" cy="-82" rx="27" ry="27"/>
</g>
<!-- 1903638101632&#45;&gt;1903638236560 -->
<g id="edge10" class="edge">
<title>1903638101632&#45;&gt;1903638236560</title>
<path fill="none" stroke="black" d="M1224.4,-82C1231.89,-82 1240.18,-82 1248.2,-82"/>
<polygon fill="black" stroke="black" points="1248.1,-85.5 1258.1,-82 1248.1,-78.5 1248.1,-85.5"/>
</g>
<!-- 1903638101920 -->
<g id="node4" class="node">
<title>1903638101920</title>
<polygon fill="white" stroke="black" points="504,-113 450,-113 450,-77 504,-77 504,-113"/>
<text text-anchor="middle" x="477" y="-91.9" font-family="Times New Roman,serif" font-size="12.00">b</text>
</g>
<!-- 1903638235504 -->
<g id="node25" class="node">
<title>1903638235504</title>
<ellipse fill="white" stroke="black" cx="567" cy="-95" rx="27" ry="27"/>
</g>
<!-- 1903638101920&#45;&gt;1903638235504 -->
<g id="edge3" class="edge">
<title>1903638101920&#45;&gt;1903638235504</title>
<path fill="none" stroke="black" d="M504.4,-95C511.89,-95 520.18,-95 528.2,-95"/>
<polygon fill="black" stroke="black" points="528.1,-98.5 538.1,-95 528.1,-91.5 528.1,-98.5"/>
</g>
<!-- 1903632930064 -->
<g id="node5" class="node">
<title>1903632930064</title>
<polygon fill="black" stroke="black" points="1404,-100 1350,-100 1350,-64 1404,-64 1404,-100"/>
</g>
<!-- 1903638236656 -->
<g id="node26" class="node">
<title>1903638236656</title>
<ellipse fill="white" stroke="black" cx="1471" cy="-82" rx="27" ry="27"/>
<ellipse fill="none" stroke="black" cx="1471" cy="-82" rx="31" ry="31"/>
<text text-anchor="start" x="1461" y="-73.9" font-family="Times New Roman,serif" font-size="32.00">â– </text>
</g>
<!-- 1903632930064&#45;&gt;1903638236656 -->
<g id="edge7" class="edge">
<title>1903632930064&#45;&gt;1903638236656</title>
<path fill="none" stroke="black" d="M1404.12,-82C1411.63,-82 1420.01,-82 1428.22,-82"/>
<polygon fill="black" stroke="black" points="1428.08,-85.5 1438.08,-82 1428.08,-78.5 1428.08,-85.5"/>
</g>
<!-- 1903638099280 -->
<g id="node6" class="node">
<title>1903638099280</title>
<polygon fill="white" stroke="black" points="684,-113 630,-113 630,-77 684,-77 684,-113"/>
<text text-anchor="middle" x="657" y="-91.9" font-family="Times New Roman,serif" font-size="12.00">c</text>
</g>
<!-- 1903638234928 -->
<g id="node22" class="node">
<title>1903638234928</title>
<ellipse fill="white" stroke="black" cx="747" cy="-95" rx="27" ry="27"/>
</g>
<!-- 1903638099280&#45;&gt;1903638234928 -->
<g id="edge4" class="edge">
<title>1903638099280&#45;&gt;1903638234928</title>
<path fill="none" stroke="black" d="M684.4,-95C691.89,-95 700.18,-95 708.2,-95"/>
<polygon fill="black" stroke="black" points="708.1,-98.5 718.1,-95 708.1,-91.5 708.1,-98.5"/>
</g>
<!-- 1903636060368 -->
<g id="node7" class="node">
<title>1903636060368</title>
<polygon fill="white" stroke="black" points="1044,-172 990,-172 990,-136 1044,-136 1044,-172"/>
<text text-anchor="middle" x="1017" y="-150.9" font-family="Times New Roman,serif" font-size="12.00">f</text>
</g>
<!-- 1903638234592 -->
<g id="node13" class="node">
<title>1903638234592</title>
<ellipse fill="white" stroke="black" cx="1107" cy="-154" rx="27" ry="27"/>
</g>
<!-- 1903636060368&#45;&gt;1903638234592 -->
<g id="edge8" class="edge">
<title>1903636060368&#45;&gt;1903638234592</title>
<path fill="none" stroke="black" d="M1044.4,-154C1051.89,-154 1060.18,-154 1068.2,-154"/>
<polygon fill="black" stroke="black" points="1068.1,-157.5 1078.1,-154 1068.1,-150.5 1068.1,-157.5"/>
</g>
<!-- 1903638099088 -->
<g id="node8" class="node">
<title>1903638099088</title>
<polygon fill="black" stroke="black" points="864,-140 810,-140 810,-104 864,-104 864,-140"/>
</g>
<!-- 1903638235792 -->
<g id="node18" class="node">
<title>1903638235792</title>
<ellipse fill="white" stroke="black" cx="927" cy="-154" rx="27" ry="27"/>
</g>
<!-- 1903638099088&#45;&gt;1903638235792 -->
<g id="edge27" class="edge">
<title>1903638099088&#45;&gt;1903638235792</title>
<path fill="none" stroke="black" d="M864.4,-131.6C872.59,-134.58 881.75,-137.91 890.45,-141.07"/>
<polygon fill="black" stroke="black" points="889.11,-144.31 899.7,-144.44 891.5,-137.73 889.11,-144.31"/>
</g>
<!-- 1903638235600 -->
<g id="node19" class="node">
<title>1903638235600</title>
<ellipse fill="white" stroke="black" cx="927" cy="-82" rx="27" ry="27"/>
</g>
<!-- 1903638099088&#45;&gt;1903638235600 -->
<g id="edge28" class="edge">
<title>1903638099088&#45;&gt;1903638235600</title>
<path fill="none" stroke="black" d="M864.4,-110C872.99,-106.1 882.65,-101.71 891.73,-97.58"/>
<polygon fill="black" stroke="black" points="892.98,-100.85 900.64,-93.53 890.09,-94.48 892.98,-100.85"/>
</g>
<!-- 1903638098992 -->
<g id="node9" class="node">
<title>1903638098992</title>
<polygon fill="white" stroke="black" points="324,-45 270,-45 270,-9 324,-9 324,-45"/>
<text text-anchor="middle" x="297" y="-23.9" font-family="Times New Roman,serif" font-size="12.00">g</text>
</g>
<!-- 1903638233200 -->
<g id="node20" class="node">
<title>1903638233200</title>
<ellipse fill="white" stroke="black" cx="657" cy="-27" rx="27" ry="27"/>
</g>
<!-- 1903638098992&#45;&gt;1903638233200 -->
<g id="edge9" class="edge">
<title>1903638098992&#45;&gt;1903638233200</title>
<path fill="none" stroke="black" d="M324.32,-27C387.04,-27 545.46,-27 618.3,-27"/>
<polygon fill="black" stroke="black" points="618.12,-30.5 628.12,-27 618.12,-23.5 618.12,-30.5"/>
</g>
<!-- 1903638099184 -->
<g id="node10" class="node">
<title>1903638099184</title>
<polygon fill="white" stroke="black" points="1044,-100 990,-100 990,-64 1044,-64 1044,-100"/>
<text text-anchor="middle" x="1017" y="-78.9" font-family="Times New Roman,serif" font-size="12.00">d</text>
</g>
<!-- 1903638234352 -->
<g id="node23" class="node">
<title>1903638234352</title>
<ellipse fill="white" stroke="black" cx="1107" cy="-82" rx="27" ry="27"/>
</g>
<!-- 1903638099184&#45;&gt;1903638234352 -->
<g id="edge5" class="edge">
<title>1903638099184&#45;&gt;1903638234352</title>
<path fill="none" stroke="black" d="M1044.4,-82C1051.89,-82 1060.18,-82 1068.2,-82"/>
<polygon fill="black" stroke="black" points="1068.1,-85.5 1078.1,-82 1068.1,-78.5 1068.1,-85.5"/>
</g>
<!-- 1903638099376 -->
<g id="node11" class="node">
<title>1903638099376</title>
<polygon fill="black" stroke="black" points="144,-81 90,-81 90,-45 144,-45 144,-81"/>
</g>
<!-- 1903638234256 -->
<g id="node17" class="node">
<title>1903638234256</title>
<ellipse fill="white" stroke="black" cx="207" cy="-99" rx="27" ry="27"/>
</g>
<!-- 1903638099376&#45;&gt;1903638234256 -->
<g id="edge25" class="edge">
<title>1903638099376&#45;&gt;1903638234256</title>
<path fill="none" stroke="black" d="M144.4,-73.8C152.75,-77.22 162.12,-81.05 170.97,-84.67"/>
<polygon fill="black" stroke="black" points="169.44,-87.83 180.02,-88.37 172.09,-81.35 169.44,-87.83"/>
</g>
<!-- 1903638234736 -->
<g id="node21" class="node">
<title>1903638234736</title>
<ellipse fill="white" stroke="black" cx="207" cy="-27" rx="27" ry="27"/>
</g>
<!-- 1903638099376&#45;&gt;1903638234736 -->
<g id="edge26" class="edge">
<title>1903638099376&#45;&gt;1903638234736</title>
<path fill="none" stroke="black" d="M144.4,-52.2C152.75,-48.78 162.12,-44.95 170.97,-41.33"/>
<polygon fill="black" stroke="black" points="172.09,-44.65 180.02,-37.63 169.44,-38.17 172.09,-44.65"/>
</g>
<!-- 1903638236704 -->
<g id="node12" class="node">
<title>1903638236704</title>
<ellipse fill="white" stroke="black" cx="27" cy="-63" rx="27" ry="27"/>
<text text-anchor="start" x="16" y="-54.3" font-family="Times New Roman,serif" font-size="34.00">â—</text>
</g>
<!-- 1903638236704&#45;&gt;1903638099376 -->
<g id="edge24" class="edge">
<title>1903638236704&#45;&gt;1903638099376</title>
<path fill="none" stroke="black" d="M54.4,-63C61.89,-63 70.18,-63 78.2,-63"/>
<polygon fill="black" stroke="black" points="78.1,-66.5 88.1,-63 78.1,-59.5 78.1,-66.5"/>
</g>
<!-- 1903638234592&#45;&gt;1903638101632 -->
<g id="edge11" class="edge">
<title>1903638234592&#45;&gt;1903638101632</title>
<path fill="none" stroke="black" d="M1128.41,-137.3C1139.17,-128.5 1152.61,-117.5 1164.66,-107.64"/>
<polygon fill="black" stroke="black" points="1166.84,-110.38 1172.37,-101.34 1162.41,-104.96 1166.84,-110.38"/>
</g>
<!-- 1903638235696&#45;&gt;1903636060416 -->
<g id="edge12" class="edge">
<title>1903638235696&#45;&gt;1903636060416</title>
<path fill="none" stroke="black" d="M414.4,-167C421.89,-167 430.18,-167 438.2,-167"/>
<polygon fill="black" stroke="black" points="438.1,-170.5 448.1,-167 438.1,-163.5 438.1,-170.5"/>
</g>
<!-- 1903638234832&#45;&gt;1903638101920 -->
<g id="edge13" class="edge">
<title>1903638234832&#45;&gt;1903638101920</title>
<path fill="none" stroke="black" d="M414.4,-95C421.89,-95 430.18,-95 438.2,-95"/>
<polygon fill="black" stroke="black" points="438.1,-98.5 448.1,-95 438.1,-91.5 438.1,-98.5"/>
</g>
<!-- 1903638236560&#45;&gt;1903632930064 -->
<g id="edge14" class="edge">
<title>1903638236560&#45;&gt;1903632930064</title>
<path fill="none" stroke="black" d="M1314.4,-82C1321.89,-82 1330.18,-82 1338.2,-82"/>
<polygon fill="black" stroke="black" points="1338.1,-85.5 1348.1,-82 1338.1,-78.5 1338.1,-85.5"/>
</g>
<!-- 1903638234256&#45;&gt;1903632927712 -->
<g id="edge15" class="edge">
<title>1903638234256&#45;&gt;1903632927712</title>
<path fill="none" stroke="black" d="M234.4,-99C241.89,-99 250.18,-99 258.2,-99"/>
<polygon fill="black" stroke="black" points="258.1,-102.5 268.1,-99 258.1,-95.5 258.1,-102.5"/>
</g>
<!-- 1903638235792&#45;&gt;1903636060368 -->
<g id="edge16" class="edge">
<title>1903638235792&#45;&gt;1903636060368</title>
<path fill="none" stroke="black" d="M954.4,-154C961.89,-154 970.18,-154 978.2,-154"/>
<polygon fill="black" stroke="black" points="978.1,-157.5 988.1,-154 978.1,-150.5 978.1,-157.5"/>
</g>
<!-- 1903638235600&#45;&gt;1903638099184 -->
<g id="edge17" class="edge">
<title>1903638235600&#45;&gt;1903638099184</title>
<path fill="none" stroke="black" d="M954.4,-82C961.89,-82 970.18,-82 978.2,-82"/>
<polygon fill="black" stroke="black" points="978.1,-85.5 988.1,-82 978.1,-78.5 978.1,-85.5"/>
</g>
<!-- 1903638233200&#45;&gt;1903638101632 -->
<g id="edge18" class="edge">
<title>1903638233200&#45;&gt;1903638101632</title>
<path fill="none" stroke="black" d="M684.24,-27C718.96,-27 782.07,-27 836,-27 836,-27 836,-27 1018,-27 1070.24,-27 1084.82,-28.37 1134,-46 1142.75,-49.14 1151.66,-53.5 1159.91,-58.12"/>
<polygon fill="black" stroke="black" points="1157.88,-60.98 1168.27,-63.04 1161.43,-54.95 1157.88,-60.98"/>
</g>
<!-- 1903638234736&#45;&gt;1903638098992 -->
<g id="edge19" class="edge">
<title>1903638234736&#45;&gt;1903638098992</title>
<path fill="none" stroke="black" d="M234.4,-27C241.89,-27 250.18,-27 258.2,-27"/>
<polygon fill="black" stroke="black" points="258.1,-30.5 268.1,-27 258.1,-23.5 258.1,-30.5"/>
</g>
<!-- 1903638234928&#45;&gt;1903638099088 -->
<g id="edge20" class="edge">
<title>1903638234928&#45;&gt;1903638099088</title>
<path fill="none" stroke="black" d="M772.98,-102.66C781.06,-105.14 790.19,-107.94 798.95,-110.63"/>
<polygon fill="black" stroke="black" points="797.69,-113.91 808.28,-113.5 799.75,-107.22 797.69,-113.91"/>
</g>
<!-- 1903638234352&#45;&gt;1903638101632 -->
<g id="edge21" class="edge">
<title>1903638234352&#45;&gt;1903638101632</title>
<path fill="none" stroke="black" d="M1134.4,-82C1141.89,-82 1150.18,-82 1158.2,-82"/>
<polygon fill="black" stroke="black" points="1158.1,-85.5 1168.1,-82 1158.1,-78.5 1158.1,-85.5"/>
</g>
<!-- 1903638235360&#45;&gt;1903638099088 -->
<g id="edge22" class="edge">
<title>1903638235360&#45;&gt;1903638099088</title>
<path fill="none" stroke="black" d="M771.58,-154.94C780.18,-150.54 790.12,-145.46 799.57,-140.63"/>
<polygon fill="black" stroke="black" points="800.9,-143.88 808.21,-136.21 797.71,-137.65 800.9,-143.88"/>
</g>
<!-- 1903638235504&#45;&gt;1903638099280 -->
<g id="edge23" class="edge">
<title>1903638235504&#45;&gt;1903638099280</title>
<path fill="none" stroke="black" d="M594.4,-95C601.89,-95 610.18,-95 618.2,-95"/>
<polygon fill="black" stroke="black" points="618.1,-98.5 628.1,-95 618.1,-91.5 618.1,-98.5"/>
</g>
</g>
</svg>
