<?xml version="1.0" encoding="UTF-8" standalone="no"?>
<!DOCTYPE svg PUBLIC "-//W3C//DTD SVG 1.1//EN"
 "http://www.w3.org/Graphics/SVG/1.1/DTD/svg11.dtd">
<!-- Generated by graphviz version 7.0.3 (20221126.0506)
 -->
<!-- Title: new_petri_net Pages: 1 -->
<svg width="1330pt" height="206pt"
 viewBox="0.00 0.00 1330.00 206.00" xmlns="http://www.w3.org/2000/svg" xmlns:xlink="http://www.w3.org/1999/xlink">
<g id="graph0" class="graph" transform="scale(1 1) rotate(0) translate(4 202)">
<title>new_petri_net</title>
<polygon fill="white" stroke="none" points="-4,4 -4,-202 1326,-202 1326,4 -4,4"/>
<!-- 2391554271232 -->
<g id="node1" class="node">
<title>2391554271232</title>
<polygon fill="white" stroke="black" points="504,-45 450,-45 450,-9 504,-9 504,-45"/>
<text text-anchor="middle" x="477" y="-23.9" font-family="Times New Roman,serif" font-size="12.00">g</text>
</g>
<!-- 2391554271904 -->
<g id="node17" class="node">
<title>2391554271904</title>
<ellipse fill="white" stroke="black" cx="567" cy="-27" rx="27" ry="27"/>
</g>
<!-- 2391554271232&#45;&gt;2391554271904 -->
<g id="edge10" class="edge">
<title>2391554271232&#45;&gt;2391554271904</title>
<path fill="none" stroke="black" d="M504.4,-27C511.89,-27 520.18,-27 528.2,-27"/>
<polygon fill="black" stroke="black" points="528.1,-30.5 538.1,-27 528.1,-23.5 528.1,-30.5"/>
</g>
<!-- 2391554275936 -->
<g id="node2" class="node">
<title>2391554275936</title>
<polygon fill="black" stroke="black" points="144,-117 90,-117 90,-81 144,-81 144,-117"/>
</g>
<!-- 2391554267152 -->
<g id="node16" class="node">
<title>2391554267152</title>
<ellipse fill="white" stroke="black" cx="207" cy="-99" rx="27" ry="27"/>
</g>
<!-- 2391554275936&#45;&gt;2391554267152 -->
<g id="edge26" class="edge">
<title>2391554275936&#45;&gt;2391554267152</title>
<path fill="none" stroke="black" d="M144.4,-99C151.89,-99 160.18,-99 168.2,-99"/>
<polygon fill="black" stroke="black" points="168.1,-102.5 178.1,-99 168.1,-95.5 168.1,-102.5"/>
</g>
<!-- 2391554276032 -->
<g id="node3" class="node">
<title>2391554276032</title>
<polygon fill="white" stroke="black" points="1044,-172 990,-172 990,-136 1044,-136 1044,-172"/>
<text text-anchor="middle" x="1017" y="-150.9" font-family="Times New Roman,serif" font-size="12.00">f</text>
</g>
<!-- 2391554275504 -->
<g id="node25" class="node">
<title>2391554275504</title>
<ellipse fill="white" stroke="black" cx="1107" cy="-154" rx="27" ry="27"/>
</g>
<!-- 2391554276032&#45;&gt;2391554275504 -->
<g id="edge9" class="edge">
<title>2391554276032&#45;&gt;2391554275504</title>
<path fill="none" stroke="black" d="M1044.4,-154C1051.89,-154 1060.18,-154 1068.2,-154"/>
<polygon fill="black" stroke="black" points="1068.1,-157.5 1078.1,-154 1068.1,-150.5 1068.1,-157.5"/>
</g>
<!-- 2391554261920 -->
<g id="node4" class="node">
<title>2391554261920</title>
<polygon fill="white" stroke="black" points="324,-117 270,-117 270,-81 324,-81 324,-117"/>
<text text-anchor="middle" x="297" y="-95.9" font-family="Times New Roman,serif" font-size="12.00">a</text>
</g>
<!-- 2391554272192 -->
<g id="node13" class="node">
<title>2391554272192</title>
<ellipse fill="white" stroke="black" cx="387" cy="-99" rx="27" ry="27"/>
</g>
<!-- 2391554261920&#45;&gt;2391554272192 -->
<g id="edge1" class="edge">
<title>2391554261920&#45;&gt;2391554272192</title>
<path fill="none" stroke="black" d="M324.4,-99C331.89,-99 340.18,-99 348.2,-99"/>
<polygon fill="black" stroke="black" points="348.1,-102.5 358.1,-99 348.1,-95.5 348.1,-102.5"/>
</g>
<!-- 2391554270416 -->
<g id="node19" class="node">
<title>2391554270416</title>
<ellipse fill="white" stroke="black" cx="387" cy="-27" rx="27" ry="27"/>
</g>
<!-- 2391554261920&#45;&gt;2391554270416 -->
<g id="edge2" class="edge">
<title>2391554261920&#45;&gt;2391554270416</title>
<path fill="none" stroke="black" d="M320.21,-80.83C331.32,-71.74 344.92,-60.61 356.87,-50.84"/>
<polygon fill="black" stroke="black" points="358.92,-53.68 364.44,-44.64 354.48,-48.26 358.92,-53.68"/>
</g>
<!-- 2391554266096 -->
<g id="node22" class="node">
<title>2391554266096</title>
<ellipse fill="white" stroke="black" cx="387" cy="-171" rx="27" ry="27"/>
</g>
<!-- 2391554261920&#45;&gt;2391554266096 -->
<g id="edge3" class="edge">
<title>2391554261920&#45;&gt;2391554266096</title>
<path fill="none" stroke="black" d="M320.21,-117.17C331.32,-126.26 344.92,-137.39 356.87,-147.16"/>
<polygon fill="black" stroke="black" points="354.48,-149.74 364.44,-153.36 358.92,-144.32 354.48,-149.74"/>
</g>
<!-- 2391554269888 -->
<g id="node5" class="node">
<title>2391554269888</title>
<polygon fill="white" stroke="black" points="504,-117 450,-117 450,-81 504,-81 504,-117"/>
<text text-anchor="middle" x="477" y="-95.9" font-family="Times New Roman,serif" font-size="12.00">e</text>
</g>
<!-- 2391554273248 -->
<g id="node14" class="node">
<title>2391554273248</title>
<ellipse fill="white" stroke="black" cx="657" cy="-102" rx="27" ry="27"/>
</g>
<!-- 2391554269888&#45;&gt;2391554273248 -->
<g id="edge7" class="edge">
<title>2391554269888&#45;&gt;2391554273248</title>
<path fill="none" stroke="black" d="M504.26,-99.44C534.37,-99.95 583.96,-100.79 618.21,-101.36"/>
<polygon fill="black" stroke="black" points="618.06,-104.86 628.11,-101.53 618.17,-97.86 618.06,-104.86"/>
</g>
<!-- 2391554264128 -->
<g id="node6" class="node">
<title>2391554264128</title>
<polygon fill="white" stroke="black" points="684,-187 630,-187 630,-151 684,-151 684,-187"/>
<text text-anchor="middle" x="657" y="-165.9" font-family="Times New Roman,serif" font-size="12.00">c</text>
</g>
<!-- 2391554277088 -->
<g id="node15" class="node">
<title>2391554277088</title>
<ellipse fill="white" stroke="black" cx="747" cy="-163" rx="27" ry="27"/>
</g>
<!-- 2391554264128&#45;&gt;2391554277088 -->
<g id="edge5" class="edge">
<title>2391554264128&#45;&gt;2391554277088</title>
<path fill="none" stroke="black" d="M684.4,-167.2C691.89,-166.69 700.18,-166.12 708.2,-165.58"/>
<polygon fill="black" stroke="black" points="708.37,-169.07 718.11,-164.9 707.89,-162.09 708.37,-169.07"/>
</g>
<!-- 2391554268304 -->
<g id="node7" class="node">
<title>2391554268304</title>
<polygon fill="black" stroke="black" points="864,-151 810,-151 810,-115 864,-115 864,-151"/>
</g>
<!-- 2391554276560 -->
<g id="node23" class="node">
<title>2391554276560</title>
<ellipse fill="white" stroke="black" cx="927" cy="-82" rx="27" ry="27"/>
</g>
<!-- 2391554268304&#45;&gt;2391554276560 -->
<g id="edge27" class="edge">
<title>2391554268304&#45;&gt;2391554276560</title>
<path fill="none" stroke="black" d="M864.4,-117.7C873.47,-112.44 883.74,-106.49 893.26,-100.98"/>
<polygon fill="black" stroke="black" points="894.98,-104.02 901.88,-95.98 891.47,-97.96 894.98,-104.02"/>
</g>
<!-- 2391554268688 -->
<g id="node24" class="node">
<title>2391554268688</title>
<ellipse fill="white" stroke="black" cx="927" cy="-154" rx="27" ry="27"/>
</g>
<!-- 2391554268304&#45;&gt;2391554268688 -->
<g id="edge28" class="edge">
<title>2391554268304&#45;&gt;2391554268688</title>
<path fill="none" stroke="black" d="M864.4,-139.3C872.2,-141.16 880.88,-143.23 889.2,-145.22"/>
<polygon fill="black" stroke="black" points="888.21,-148.58 898.75,-147.5 889.83,-141.77 888.21,-148.58"/>
</g>
<!-- 2391554276464 -->
<g id="node8" class="node">
<title>2391554276464</title>
<polygon fill="black" stroke="black" points="1224,-100 1170,-100 1170,-64 1224,-64 1224,-100"/>
</g>
<!-- 2391554268016 -->
<g id="node26" class="node">
<title>2391554268016</title>
<ellipse fill="white" stroke="black" cx="1291" cy="-82" rx="27" ry="27"/>
<ellipse fill="none" stroke="black" cx="1291" cy="-82" rx="31" ry="31"/>
<text text-anchor="start" x="1281" y="-73.9" font-family="Times New Roman,serif" font-size="32.00">â– </text>
</g>
<!-- 2391554276464&#45;&gt;2391554268016 -->
<g id="edge8" class="edge">
<title>2391554276464&#45;&gt;2391554268016</title>
<path fill="none" stroke="black" d="M1224.12,-82C1231.63,-82 1240.01,-82 1248.22,-82"/>
<polygon fill="black" stroke="black" points="1248.08,-85.5 1258.08,-82 1248.08,-78.5 1248.08,-85.5"/>
</g>
<!-- 2391554273680 -->
<g id="node9" class="node">
<title>2391554273680</title>
<polygon fill="white" stroke="black" points="504,-188 450,-188 450,-152 504,-152 504,-188"/>
<text text-anchor="middle" x="477" y="-166.9" font-family="Times New Roman,serif" font-size="12.00">b</text>
</g>
<!-- 2391554262880 -->
<g id="node18" class="node">
<title>2391554262880</title>
<ellipse fill="white" stroke="black" cx="567" cy="-170" rx="27" ry="27"/>
</g>
<!-- 2391554273680&#45;&gt;2391554262880 -->
<g id="edge4" class="edge">
<title>2391554273680&#45;&gt;2391554262880</title>
<path fill="none" stroke="black" d="M504.4,-170C511.89,-170 520.18,-170 528.2,-170"/>
<polygon fill="black" stroke="black" points="528.1,-173.5 538.1,-170 528.1,-166.5 528.1,-173.5"/>
</g>
<!-- 2391554262928 -->
<g id="node10" class="node">
<title>2391554262928</title>
<polygon fill="white" stroke="black" points="684,-45 630,-45 630,-9 684,-9 684,-45"/>
<text text-anchor="middle" x="657" y="-23.9" font-family="Times New Roman,serif" font-size="12.00">h</text>
</g>
<!-- 2391554269024 -->
<g id="node20" class="node">
<title>2391554269024</title>
<ellipse fill="white" stroke="black" cx="837" cy="-27" rx="27" ry="27"/>
</g>
<!-- 2391554262928&#45;&gt;2391554269024 -->
<g id="edge11" class="edge">
<title>2391554262928&#45;&gt;2391554269024</title>
<path fill="none" stroke="black" d="M684.26,-27C714.37,-27 763.96,-27 798.21,-27"/>
<polygon fill="black" stroke="black" points="798.11,-30.5 808.11,-27 798.11,-23.5 798.11,-30.5"/>
</g>
<!-- 2391554277040 -->
<g id="node11" class="node">
<title>2391554277040</title>
<polygon fill="white" stroke="black" points="1044,-100 990,-100 990,-64 1044,-64 1044,-100"/>
<text text-anchor="middle" x="1017" y="-78.9" font-family="Times New Roman,serif" font-size="12.00">d</text>
</g>
<!-- 2391554275168 -->
<g id="node21" class="node">
<title>2391554275168</title>
<ellipse fill="white" stroke="black" cx="1107" cy="-82" rx="27" ry="27"/>
</g>
<!-- 2391554277040&#45;&gt;2391554275168 -->
<g id="edge6" class="edge">
<title>2391554277040&#45;&gt;2391554275168</title>
<path fill="none" stroke="black" d="M1044.4,-82C1051.89,-82 1060.18,-82 1068.2,-82"/>
<polygon fill="black" stroke="black" points="1068.1,-85.5 1078.1,-82 1068.1,-78.5 1068.1,-85.5"/>
</g>
<!-- 2391554263792 -->
<g id="node12" class="node">
<title>2391554263792</title>
<ellipse fill="white" stroke="black" cx="27" cy="-99" rx="27" ry="27"/>
<text text-anchor="start" x="16" y="-90.3" font-family="Times New Roman,serif" font-size="34.00">â—</text>
</g>
<!-- 2391554263792&#45;&gt;2391554275936 -->
<g id="edge25" class="edge">
<title>2391554263792&#45;&gt;2391554275936</title>
<path fill="none" stroke="black" d="M54.4,-99C61.89,-99 70.18,-99 78.2,-99"/>
<polygon fill="black" stroke="black" points="78.1,-102.5 88.1,-99 78.1,-95.5 78.1,-102.5"/>
</g>
<!-- 2391554272192&#45;&gt;2391554269888 -->
<g id="edge12" class="edge">
<title>2391554272192&#45;&gt;2391554269888</title>
<path fill="none" stroke="black" d="M414.4,-99C421.89,-99 430.18,-99 438.2,-99"/>
<polygon fill="black" stroke="black" points="438.1,-102.5 448.1,-99 438.1,-95.5 438.1,-102.5"/>
</g>
<!-- 2391554273248&#45;&gt;2391554268304 -->
<g id="edge13" class="edge">
<title>2391554273248&#45;&gt;2391554268304</title>
<path fill="none" stroke="black" d="M683.88,-106.51C714.03,-111.76 764.08,-120.48 798.49,-126.47"/>
<polygon fill="black" stroke="black" points="797.56,-129.86 808.01,-128.13 798.76,-122.96 797.56,-129.86"/>
</g>
<!-- 2391554277088&#45;&gt;2391554268304 -->
<g id="edge14" class="edge">
<title>2391554277088&#45;&gt;2391554268304</title>
<path fill="none" stroke="black" d="M772.98,-154.48C781.06,-151.73 790.19,-148.62 798.95,-145.63"/>
<polygon fill="black" stroke="black" points="799.96,-148.98 808.29,-142.44 797.7,-142.36 799.96,-148.98"/>
</g>
<!-- 2391554267152&#45;&gt;2391554261920 -->
<g id="edge15" class="edge">
<title>2391554267152&#45;&gt;2391554261920</title>
<path fill="none" stroke="black" d="M234.4,-99C241.89,-99 250.18,-99 258.2,-99"/>
<polygon fill="black" stroke="black" points="258.1,-102.5 268.1,-99 258.1,-95.5 258.1,-102.5"/>
</g>
<!-- 2391554271904&#45;&gt;2391554262928 -->
<g id="edge16" class="edge">
<title>2391554271904&#45;&gt;2391554262928</title>
<path fill="none" stroke="black" d="M594.4,-27C601.89,-27 610.18,-27 618.2,-27"/>
<polygon fill="black" stroke="black" points="618.1,-30.5 628.1,-27 618.1,-23.5 618.1,-30.5"/>
</g>
<!-- 2391554262880&#45;&gt;2391554264128 -->
<g id="edge17" class="edge">
<title>2391554262880&#45;&gt;2391554264128</title>
<path fill="none" stroke="black" d="M594.4,-169.7C601.89,-169.61 610.18,-169.52 618.2,-169.43"/>
<polygon fill="black" stroke="black" points="618.14,-172.93 628.1,-169.32 618.06,-165.93 618.14,-172.93"/>
</g>
<!-- 2391554270416&#45;&gt;2391554271232 -->
<g id="edge18" class="edge">
<title>2391554270416&#45;&gt;2391554271232</title>
<path fill="none" stroke="black" d="M414.4,-27C421.89,-27 430.18,-27 438.2,-27"/>
<polygon fill="black" stroke="black" points="438.1,-30.5 448.1,-27 438.1,-23.5 438.1,-30.5"/>
</g>
<!-- 2391554269024&#45;&gt;2391554276464 -->
<g id="edge19" class="edge">
<title>2391554269024&#45;&gt;2391554276464</title>
<path fill="none" stroke="black" d="M864.04,-24.75C916.47,-21.06 1037.93,-16.8 1134,-46 1143.06,-48.75 1152.21,-53.05 1160.6,-57.73"/>
<polygon fill="black" stroke="black" points="1158.7,-60.67 1169.09,-62.77 1162.28,-54.66 1158.7,-60.67"/>
</g>
<!-- 2391554275168&#45;&gt;2391554276464 -->
<g id="edge20" class="edge">
<title>2391554275168&#45;&gt;2391554276464</title>
<path fill="none" stroke="black" d="M1134.4,-82C1141.89,-82 1150.18,-82 1158.2,-82"/>
<polygon fill="black" stroke="black" points="1158.1,-85.5 1168.1,-82 1158.1,-78.5 1158.1,-85.5"/>
</g>
<!-- 2391554266096&#45;&gt;2391554273680 -->
<g id="edge21" class="edge">
<title>2391554266096&#45;&gt;2391554273680</title>
<path fill="none" stroke="black" d="M414.4,-170.7C421.89,-170.61 430.18,-170.52 438.2,-170.43"/>
<polygon fill="black" stroke="black" points="438.14,-173.93 448.1,-170.32 438.06,-166.93 438.14,-173.93"/>
</g>
<!-- 2391554276560&#45;&gt;2391554277040 -->
<g id="edge22" class="edge">
<title>2391554276560&#45;&gt;2391554277040</title>
<path fill="none" stroke="black" d="M954.4,-82C961.89,-82 970.18,-82 978.2,-82"/>
<polygon fill="black" stroke="black" points="978.1,-85.5 988.1,-82 978.1,-78.5 978.1,-85.5"/>
</g>
<!-- 2391554268688&#45;&gt;2391554276032 -->
<g id="edge23" class="edge">
<title>2391554268688&#45;&gt;2391554276032</title>
<path fill="none" stroke="black" d="M954.4,-154C961.89,-154 970.18,-154 978.2,-154"/>
<polygon fill="black" stroke="black" points="978.1,-157.5 988.1,-154 978.1,-150.5 978.1,-157.5"/>
</g>
<!-- 2391554275504&#45;&gt;2391554276464 -->
<g id="edge24" class="edge">
<title>2391554275504&#45;&gt;2391554276464</title>
<path fill="none" stroke="black" d="M1128.41,-137.3C1139.17,-128.5 1152.61,-117.5 1164.66,-107.64"/>
<polygon fill="black" stroke="black" points="1166.84,-110.38 1172.37,-101.34 1162.41,-104.96 1166.84,-110.38"/>
</g>
</g>
</svg>
