<?xml version="1.0" encoding="UTF-8" standalone="no"?>
<!DOCTYPE svg PUBLIC "-//W3C//DTD SVG 1.1//EN"
 "http://www.w3.org/Graphics/SVG/1.1/DTD/svg11.dtd">
<!-- Generated by graphviz version 7.0.3 (20221126.0506)
 -->
<!-- Title: new_petri_net Pages: 1 -->
<svg width="1510pt" height="206pt"
 viewBox="0.00 0.00 1510.00 206.00" xmlns="http://www.w3.org/2000/svg" xmlns:xlink="http://www.w3.org/1999/xlink">
<g id="graph0" class="graph" transform="scale(1 1) rotate(0) translate(4 202)">
<title>new_petri_net</title>
<polygon fill="white" stroke="none" points="-4,4 -4,-202 1506,-202 1506,4 -4,4"/>
<!-- 1739435235584 -->
<g id="node1" class="node">
<title>1739435235584</title>
<polygon fill="black" stroke="black" points="144,-117 90,-117 90,-81 144,-81 144,-117"/>
</g>
<!-- 1739435264944 -->
<g id="node15" class="node">
<title>1739435264944</title>
<ellipse fill="white" stroke="black" cx="207" cy="-99" rx="27" ry="27"/>
</g>
<!-- 1739435235584&#45;&gt;1739435264944 -->
<g id="edge26" class="edge">
<title>1739435235584&#45;&gt;1739435264944</title>
<path fill="none" stroke="black" d="M144.4,-99C151.89,-99 160.18,-99 168.2,-99"/>
<polygon fill="black" stroke="black" points="168.1,-102.5 178.1,-99 168.1,-95.5 168.1,-102.5"/>
</g>
<!-- 1739435234144 -->
<g id="node2" class="node">
<title>1739435234144</title>
<polygon fill="black" stroke="black" points="1404,-100 1350,-100 1350,-64 1404,-64 1404,-100"/>
</g>
<!-- 1739458859728 -->
<g id="node26" class="node">
<title>1739458859728</title>
<ellipse fill="white" stroke="black" cx="1471" cy="-82" rx="27" ry="27"/>
<ellipse fill="none" stroke="black" cx="1471" cy="-82" rx="31" ry="31"/>
<text text-anchor="start" x="1461" y="-73.9" font-family="Times New Roman,serif" font-size="32.00">â– </text>
</g>
<!-- 1739435234144&#45;&gt;1739458859728 -->
<g id="edge8" class="edge">
<title>1739435234144&#45;&gt;1739458859728</title>
<path fill="none" stroke="black" d="M1404.12,-82C1411.63,-82 1420.01,-82 1428.22,-82"/>
<polygon fill="black" stroke="black" points="1428.08,-85.5 1438.08,-82 1428.08,-78.5 1428.08,-85.5"/>
</g>
<!-- 1739435234240 -->
<g id="node3" class="node">
<title>1739435234240</title>
<polygon fill="white" stroke="black" points="504,-45 450,-45 450,-9 504,-9 504,-45"/>
<text text-anchor="middle" x="477" y="-23.9" font-family="Times New Roman,serif" font-size="12.00">g</text>
</g>
<!-- 1739435264416 -->
<g id="node19" class="node">
<title>1739435264416</title>
<ellipse fill="white" stroke="black" cx="657" cy="-27" rx="27" ry="27"/>
</g>
<!-- 1739435234240&#45;&gt;1739435264416 -->
<g id="edge10" class="edge">
<title>1739435234240&#45;&gt;1739435264416</title>
<path fill="none" stroke="black" d="M504.26,-27C534.37,-27 583.96,-27 618.21,-27"/>
<polygon fill="black" stroke="black" points="618.11,-30.5 628.11,-27 618.11,-23.5 618.11,-30.5"/>
</g>
<!-- 1739435237312 -->
<g id="node4" class="node">
<title>1739435237312</title>
<polygon fill="white" stroke="black" points="504,-117 450,-117 450,-81 504,-81 504,-117"/>
<text text-anchor="middle" x="477" y="-95.9" font-family="Times New Roman,serif" font-size="12.00">b</text>
</g>
<!-- 1739435266816 -->
<g id="node17" class="node">
<title>1739435266816</title>
<ellipse fill="white" stroke="black" cx="567" cy="-99" rx="27" ry="27"/>
</g>
<!-- 1739435237312&#45;&gt;1739435266816 -->
<g id="edge4" class="edge">
<title>1739435237312&#45;&gt;1739435266816</title>
<path fill="none" stroke="black" d="M504.4,-99C511.89,-99 520.18,-99 528.2,-99"/>
<polygon fill="black" stroke="black" points="528.1,-102.5 538.1,-99 528.1,-95.5 528.1,-102.5"/>
</g>
<!-- 1739435236832 -->
<g id="node5" class="node">
<title>1739435236832</title>
<polygon fill="white" stroke="black" points="324,-117 270,-117 270,-81 324,-81 324,-117"/>
<text text-anchor="middle" x="297" y="-95.9" font-family="Times New Roman,serif" font-size="12.00">a</text>
</g>
<!-- 1739435266864 -->
<g id="node20" class="node">
<title>1739435266864</title>
<ellipse fill="white" stroke="black" cx="387" cy="-171" rx="27" ry="27"/>
</g>
<!-- 1739435236832&#45;&gt;1739435266864 -->
<g id="edge1" class="edge">
<title>1739435236832&#45;&gt;1739435266864</title>
<path fill="none" stroke="black" d="M320.21,-117.17C331.32,-126.26 344.92,-137.39 356.87,-147.16"/>
<polygon fill="black" stroke="black" points="354.48,-149.74 364.44,-153.36 358.92,-144.32 354.48,-149.74"/>
</g>
<!-- 1739435269360 -->
<g id="node24" class="node">
<title>1739435269360</title>
<ellipse fill="white" stroke="black" cx="387" cy="-99" rx="27" ry="27"/>
</g>
<!-- 1739435236832&#45;&gt;1739435269360 -->
<g id="edge2" class="edge">
<title>1739435236832&#45;&gt;1739435269360</title>
<path fill="none" stroke="black" d="M324.4,-99C331.89,-99 340.18,-99 348.2,-99"/>
<polygon fill="black" stroke="black" points="348.1,-102.5 358.1,-99 348.1,-95.5 348.1,-102.5"/>
</g>
<!-- 1739435274448 -->
<g id="node25" class="node">
<title>1739435274448</title>
<ellipse fill="white" stroke="black" cx="387" cy="-27" rx="27" ry="27"/>
</g>
<!-- 1739435236832&#45;&gt;1739435274448 -->
<g id="edge3" class="edge">
<title>1739435236832&#45;&gt;1739435274448</title>
<path fill="none" stroke="black" d="M320.21,-80.83C331.32,-71.74 344.92,-60.61 356.87,-50.84"/>
<polygon fill="black" stroke="black" points="358.92,-53.68 364.44,-44.64 354.48,-48.26 358.92,-53.68"/>
</g>
<!-- 1739435268784 -->
<g id="node6" class="node">
<title>1739435268784</title>
<polygon fill="white" stroke="black" points="1044,-100 990,-100 990,-64 1044,-64 1044,-100"/>
<text text-anchor="middle" x="1017" y="-78.9" font-family="Times New Roman,serif" font-size="12.00">f</text>
</g>
<!-- 1739435273392 -->
<g id="node22" class="node">
<title>1739435273392</title>
<ellipse fill="white" stroke="black" cx="1107" cy="-82" rx="27" ry="27"/>
</g>
<!-- 1739435268784&#45;&gt;1739435273392 -->
<g id="edge9" class="edge">
<title>1739435268784&#45;&gt;1739435273392</title>
<path fill="none" stroke="black" d="M1044.4,-82C1051.89,-82 1060.18,-82 1068.2,-82"/>
<polygon fill="black" stroke="black" points="1068.1,-85.5 1078.1,-82 1068.1,-78.5 1068.1,-85.5"/>
</g>
<!-- 1739435236400 -->
<g id="node7" class="node">
<title>1739435236400</title>
<polygon fill="black" stroke="black" points="864,-144 810,-144 810,-108 864,-108 864,-144"/>
</g>
<!-- 1739435263024 -->
<g id="node18" class="node">
<title>1739435263024</title>
<ellipse fill="white" stroke="black" cx="927" cy="-154" rx="27" ry="27"/>
</g>
<!-- 1739435236400&#45;&gt;1739435263024 -->
<g id="edge27" class="edge">
<title>1739435236400&#45;&gt;1739435263024</title>
<path fill="none" stroke="black" d="M864.4,-134.4C872.43,-136.95 881.39,-139.81 889.94,-142.53"/>
<polygon fill="black" stroke="black" points="888.79,-145.83 899.38,-145.53 890.91,-139.16 888.79,-145.83"/>
</g>
<!-- 1739435268400 -->
<g id="node21" class="node">
<title>1739435268400</title>
<ellipse fill="white" stroke="black" cx="927" cy="-82" rx="27" ry="27"/>
</g>
<!-- 1739435236400&#45;&gt;1739435268400 -->
<g id="edge28" class="edge">
<title>1739435236400&#45;&gt;1739435268400</title>
<path fill="none" stroke="black" d="M864.4,-112.8C873.16,-108.42 883.02,-103.49 892.25,-98.87"/>
<polygon fill="black" stroke="black" points="893.58,-102.12 900.96,-94.52 890.45,-95.86 893.58,-102.12"/>
</g>
<!-- 1739435237360 -->
<g id="node8" class="node">
<title>1739435237360</title>
<polygon fill="white" stroke="black" points="504,-189 450,-189 450,-153 504,-153 504,-189"/>
<text text-anchor="middle" x="477" y="-167.9" font-family="Times New Roman,serif" font-size="12.00">e</text>
</g>
<!-- 1739435265136 -->
<g id="node13" class="node">
<title>1739435265136</title>
<ellipse fill="white" stroke="black" cx="747" cy="-171" rx="27" ry="27"/>
</g>
<!-- 1739435237360&#45;&gt;1739435265136 -->
<g id="edge7" class="edge">
<title>1739435237360&#45;&gt;1739435265136</title>
<path fill="none" stroke="black" d="M504.18,-171C551.92,-171 653.23,-171 708.36,-171"/>
<polygon fill="black" stroke="black" points="708.2,-174.5 718.2,-171 708.2,-167.5 708.2,-174.5"/>
</g>
<!-- 1739435235536 -->
<g id="node9" class="node">
<title>1739435235536</title>
<polygon fill="white" stroke="black" points="1224,-100 1170,-100 1170,-64 1224,-64 1224,-100"/>
<text text-anchor="middle" x="1197" y="-78.9" font-family="Times New Roman,serif" font-size="12.00">h</text>
</g>
<!-- 1739435264896 -->
<g id="node16" class="node">
<title>1739435264896</title>
<ellipse fill="white" stroke="black" cx="1287" cy="-82" rx="27" ry="27"/>
</g>
<!-- 1739435235536&#45;&gt;1739435264896 -->
<g id="edge11" class="edge">
<title>1739435235536&#45;&gt;1739435264896</title>
<path fill="none" stroke="black" d="M1224.4,-82C1231.89,-82 1240.18,-82 1248.2,-82"/>
<polygon fill="black" stroke="black" points="1248.1,-85.5 1258.1,-82 1248.1,-78.5 1248.1,-85.5"/>
</g>
<!-- 1739435236784 -->
<g id="node10" class="node">
<title>1739435236784</title>
<polygon fill="white" stroke="black" points="684,-117 630,-117 630,-81 684,-81 684,-117"/>
<text text-anchor="middle" x="657" y="-95.9" font-family="Times New Roman,serif" font-size="12.00">c</text>
</g>
<!-- 1739435264992 -->
<g id="node23" class="node">
<title>1739435264992</title>
<ellipse fill="white" stroke="black" cx="747" cy="-99" rx="27" ry="27"/>
</g>
<!-- 1739435236784&#45;&gt;1739435264992 -->
<g id="edge5" class="edge">
<title>1739435236784&#45;&gt;1739435264992</title>
<path fill="none" stroke="black" d="M684.4,-99C691.89,-99 700.18,-99 708.2,-99"/>
<polygon fill="black" stroke="black" points="708.1,-102.5 718.1,-99 708.1,-95.5 708.1,-102.5"/>
</g>
<!-- 1739435235632 -->
<g id="node11" class="node">
<title>1739435235632</title>
<polygon fill="white" stroke="black" points="1044,-172 990,-172 990,-136 1044,-136 1044,-172"/>
<text text-anchor="middle" x="1017" y="-150.9" font-family="Times New Roman,serif" font-size="12.00">d</text>
</g>
<!-- 1739435270752 -->
<g id="node14" class="node">
<title>1739435270752</title>
<ellipse fill="white" stroke="black" cx="1107" cy="-154" rx="27" ry="27"/>
</g>
<!-- 1739435235632&#45;&gt;1739435270752 -->
<g id="edge6" class="edge">
<title>1739435235632&#45;&gt;1739435270752</title>
<path fill="none" stroke="black" d="M1044.4,-154C1051.89,-154 1060.18,-154 1068.2,-154"/>
<polygon fill="black" stroke="black" points="1068.1,-157.5 1078.1,-154 1068.1,-150.5 1068.1,-157.5"/>
</g>
<!-- 1739435264272 -->
<g id="node12" class="node">
<title>1739435264272</title>
<ellipse fill="white" stroke="black" cx="27" cy="-99" rx="27" ry="27"/>
<text text-anchor="start" x="16" y="-90.3" font-family="Times New Roman,serif" font-size="34.00">â—</text>
</g>
<!-- 1739435264272&#45;&gt;1739435235584 -->
<g id="edge25" class="edge">
<title>1739435264272&#45;&gt;1739435235584</title>
<path fill="none" stroke="black" d="M54.4,-99C61.89,-99 70.18,-99 78.2,-99"/>
<polygon fill="black" stroke="black" points="78.1,-102.5 88.1,-99 78.1,-95.5 78.1,-102.5"/>
</g>
<!-- 1739435265136&#45;&gt;1739435236400 -->
<g id="edge12" class="edge">
<title>1739435265136&#45;&gt;1739435236400</title>
<path fill="none" stroke="black" d="M771.58,-158.94C780.18,-154.54 790.12,-149.46 799.57,-144.63"/>
<polygon fill="black" stroke="black" points="800.9,-147.88 808.21,-140.21 797.71,-141.65 800.9,-147.88"/>
</g>
<!-- 1739435270752&#45;&gt;1739435235536 -->
<g id="edge13" class="edge">
<title>1739435270752&#45;&gt;1739435235536</title>
<path fill="none" stroke="black" d="M1128.41,-137.3C1139.17,-128.5 1152.61,-117.5 1164.66,-107.64"/>
<polygon fill="black" stroke="black" points="1166.84,-110.38 1172.37,-101.34 1162.41,-104.96 1166.84,-110.38"/>
</g>
<!-- 1739435264944&#45;&gt;1739435236832 -->
<g id="edge14" class="edge">
<title>1739435264944&#45;&gt;1739435236832</title>
<path fill="none" stroke="black" d="M234.4,-99C241.89,-99 250.18,-99 258.2,-99"/>
<polygon fill="black" stroke="black" points="258.1,-102.5 268.1,-99 258.1,-95.5 258.1,-102.5"/>
</g>
<!-- 1739435264896&#45;&gt;1739435234144 -->
<g id="edge15" class="edge">
<title>1739435264896&#45;&gt;1739435234144</title>
<path fill="none" stroke="black" d="M1314.4,-82C1321.89,-82 1330.18,-82 1338.2,-82"/>
<polygon fill="black" stroke="black" points="1338.1,-85.5 1348.1,-82 1338.1,-78.5 1338.1,-85.5"/>
</g>
<!-- 1739435266816&#45;&gt;1739435236784 -->
<g id="edge16" class="edge">
<title>1739435266816&#45;&gt;1739435236784</title>
<path fill="none" stroke="black" d="M594.4,-99C601.89,-99 610.18,-99 618.2,-99"/>
<polygon fill="black" stroke="black" points="618.1,-102.5 628.1,-99 618.1,-95.5 618.1,-102.5"/>
</g>
<!-- 1739435263024&#45;&gt;1739435235632 -->
<g id="edge17" class="edge">
<title>1739435263024&#45;&gt;1739435235632</title>
<path fill="none" stroke="black" d="M954.4,-154C961.89,-154 970.18,-154 978.2,-154"/>
<polygon fill="black" stroke="black" points="978.1,-157.5 988.1,-154 978.1,-150.5 978.1,-157.5"/>
</g>
<!-- 1739435264416&#45;&gt;1739435235536 -->
<g id="edge18" class="edge">
<title>1739435264416&#45;&gt;1739435235536</title>
<path fill="none" stroke="black" d="M684.24,-27C718.96,-27 782.07,-27 836,-27 836,-27 836,-27 1018,-27 1070.24,-27 1084.82,-28.37 1134,-46 1142.75,-49.14 1151.66,-53.5 1159.91,-58.12"/>
<polygon fill="black" stroke="black" points="1157.88,-60.98 1168.27,-63.04 1161.43,-54.95 1157.88,-60.98"/>
</g>
<!-- 1739435266864&#45;&gt;1739435237360 -->
<g id="edge19" class="edge">
<title>1739435266864&#45;&gt;1739435237360</title>
<path fill="none" stroke="black" d="M414.4,-171C421.89,-171 430.18,-171 438.2,-171"/>
<polygon fill="black" stroke="black" points="438.1,-174.5 448.1,-171 438.1,-167.5 438.1,-174.5"/>
</g>
<!-- 1739435268400&#45;&gt;1739435268784 -->
<g id="edge20" class="edge">
<title>1739435268400&#45;&gt;1739435268784</title>
<path fill="none" stroke="black" d="M954.4,-82C961.89,-82 970.18,-82 978.2,-82"/>
<polygon fill="black" stroke="black" points="978.1,-85.5 988.1,-82 978.1,-78.5 978.1,-85.5"/>
</g>
<!-- 1739435273392&#45;&gt;1739435235536 -->
<g id="edge21" class="edge">
<title>1739435273392&#45;&gt;1739435235536</title>
<path fill="none" stroke="black" d="M1134.4,-82C1141.89,-82 1150.18,-82 1158.2,-82"/>
<polygon fill="black" stroke="black" points="1158.1,-85.5 1168.1,-82 1158.1,-78.5 1158.1,-85.5"/>
</g>
<!-- 1739435264992&#45;&gt;1739435236400 -->
<g id="edge22" class="edge">
<title>1739435264992&#45;&gt;1739435236400</title>
<path fill="none" stroke="black" d="M772.98,-106.66C781.06,-109.14 790.19,-111.94 798.95,-114.63"/>
<polygon fill="black" stroke="black" points="797.69,-117.91 808.28,-117.5 799.75,-111.22 797.69,-117.91"/>
</g>
<!-- 1739435269360&#45;&gt;1739435237312 -->
<g id="edge23" class="edge">
<title>1739435269360&#45;&gt;1739435237312</title>
<path fill="none" stroke="black" d="M414.4,-99C421.89,-99 430.18,-99 438.2,-99"/>
<polygon fill="black" stroke="black" points="438.1,-102.5 448.1,-99 438.1,-95.5 438.1,-102.5"/>
</g>
<!-- 1739435274448&#45;&gt;1739435234240 -->
<g id="edge24" class="edge">
<title>1739435274448&#45;&gt;1739435234240</title>
<path fill="none" stroke="black" d="M414.4,-27C421.89,-27 430.18,-27 438.2,-27"/>
<polygon fill="black" stroke="black" points="438.1,-30.5 448.1,-27 438.1,-23.5 438.1,-30.5"/>
</g>
</g>
</svg>
