<?xml version="1.0" encoding="UTF-8" standalone="no"?>
<!DOCTYPE svg PUBLIC "-//W3C//DTD SVG 1.1//EN"
 "http://www.w3.org/Graphics/SVG/1.1/DTD/svg11.dtd">
<!-- Generated by graphviz version 7.0.3 (20221126.0506)
 -->
<!-- Title: new_petri_net Pages: 1 -->
<svg width="1330pt" height="242pt"
 viewBox="0.00 0.00 1330.00 242.00" xmlns="http://www.w3.org/2000/svg" xmlns:xlink="http://www.w3.org/1999/xlink">
<g id="graph0" class="graph" transform="scale(1 1) rotate(0) translate(4 238)">
<title>new_petri_net</title>
<polygon fill="white" stroke="none" points="-4,4 -4,-238 1326,-238 1326,4 -4,4"/>
<!-- 2391558597376 -->
<g id="node1" class="node">
<title>2391558597376</title>
<polygon fill="white" stroke="black" points="504,-81 450,-81 450,-45 504,-45 504,-81"/>
<text text-anchor="middle" x="477" y="-59.9" font-family="Times New Roman,serif" font-size="12.00">b</text>
</g>
<!-- 2391558597664 -->
<g id="node22" class="node">
<title>2391558597664</title>
<ellipse fill="white" stroke="black" cx="567" cy="-63" rx="27" ry="27"/>
</g>
<!-- 2391558597376&#45;&gt;2391558597664 -->
<g id="edge4" class="edge">
<title>2391558597376&#45;&gt;2391558597664</title>
<path fill="none" stroke="black" d="M504.4,-63C511.89,-63 520.18,-63 528.2,-63"/>
<polygon fill="black" stroke="black" points="528.1,-66.5 538.1,-63 528.1,-59.5 528.1,-66.5"/>
</g>
<!-- 2391558597280 -->
<g id="node2" class="node">
<title>2391558597280</title>
<polygon fill="white" stroke="black" points="864,-158 810,-158 810,-122 864,-122 864,-158"/>
<text text-anchor="middle" x="837" y="-136.9" font-family="Times New Roman,serif" font-size="12.00">f</text>
</g>
<!-- 2391558598336 -->
<g id="node12" class="node">
<title>2391558598336</title>
<ellipse fill="white" stroke="black" cx="927" cy="-140" rx="27" ry="27"/>
</g>
<!-- 2391558597280&#45;&gt;2391558598336 -->
<g id="edge10" class="edge">
<title>2391558597280&#45;&gt;2391558598336</title>
<path fill="none" stroke="black" d="M864.4,-140C871.89,-140 880.18,-140 888.2,-140"/>
<polygon fill="black" stroke="black" points="888.1,-143.5 898.1,-140 888.1,-136.5 888.1,-143.5"/>
</g>
<!-- 2391558597184 -->
<g id="node3" class="node">
<title>2391558597184</title>
<polygon fill="white" stroke="black" points="504,-223 450,-223 450,-187 504,-187 504,-223"/>
<text text-anchor="middle" x="477" y="-201.9" font-family="Times New Roman,serif" font-size="12.00">g</text>
</g>
<!-- 2391558598384 -->
<g id="node20" class="node">
<title>2391558598384</title>
<ellipse fill="white" stroke="black" cx="567" cy="-204" rx="27" ry="27"/>
</g>
<!-- 2391558597184&#45;&gt;2391558598384 -->
<g id="edge11" class="edge">
<title>2391558597184&#45;&gt;2391558598384</title>
<path fill="none" stroke="black" d="M504.4,-204.7C511.89,-204.61 520.18,-204.52 528.2,-204.43"/>
<polygon fill="black" stroke="black" points="528.14,-207.93 538.1,-204.32 528.06,-200.93 528.14,-207.93"/>
</g>
<!-- 2391558597472 -->
<g id="node4" class="node">
<title>2391558597472</title>
<polygon fill="white" stroke="black" points="864,-58 810,-58 810,-22 864,-22 864,-58"/>
<text text-anchor="middle" x="837" y="-36.9" font-family="Times New Roman,serif" font-size="12.00">d</text>
</g>
<!-- 2391558598432 -->
<g id="node13" class="node">
<title>2391558598432</title>
<ellipse fill="white" stroke="black" cx="927" cy="-59" rx="27" ry="27"/>
</g>
<!-- 2391558597472&#45;&gt;2391558598432 -->
<g id="edge7" class="edge">
<title>2391558597472&#45;&gt;2391558598432</title>
<path fill="none" stroke="black" d="M864.4,-45.7C872.2,-47.38 880.88,-49.26 889.2,-51.06"/>
<polygon fill="black" stroke="black" points="888.23,-54.43 898.74,-53.11 889.71,-47.58 888.23,-54.43"/>
</g>
<!-- 2391558587488 -->
<g id="node5" class="node">
<title>2391558587488</title>
<polygon fill="white" stroke="black" points="504,-155 450,-155 450,-119 504,-119 504,-155"/>
<text text-anchor="middle" x="477" y="-133.9" font-family="Times New Roman,serif" font-size="12.00">e</text>
</g>
<!-- 2391558598624 -->
<g id="node16" class="node">
<title>2391558598624</title>
<ellipse fill="white" stroke="black" cx="657" cy="-145" rx="27" ry="27"/>
</g>
<!-- 2391558587488&#45;&gt;2391558598624 -->
<g id="edge8" class="edge">
<title>2391558587488&#45;&gt;2391558598624</title>
<path fill="none" stroke="black" d="M504.26,-138.18C534.37,-139.53 583.96,-141.76 618.21,-143.3"/>
<polygon fill="black" stroke="black" points="617.97,-146.79 628.12,-143.75 618.28,-139.8 617.97,-146.79"/>
</g>
<!-- 2391558597136 -->
<g id="node6" class="node">
<title>2391558597136</title>
<polygon fill="white" stroke="black" points="684,-81 630,-81 630,-45 684,-45 684,-81"/>
<text text-anchor="middle" x="657" y="-59.9" font-family="Times New Roman,serif" font-size="12.00">c</text>
</g>
<!-- 2391558597040 -->
<g id="node21" class="node">
<title>2391558597040</title>
<ellipse fill="white" stroke="black" cx="747" cy="-99" rx="27" ry="27"/>
</g>
<!-- 2391558597136&#45;&gt;2391558597040 -->
<g id="edge5" class="edge">
<title>2391558597136&#45;&gt;2391558597040</title>
<path fill="none" stroke="black" d="M684.4,-73.8C692.75,-77.22 702.12,-81.05 710.97,-84.67"/>
<polygon fill="black" stroke="black" points="709.44,-87.83 720.02,-88.37 712.09,-81.35 709.44,-87.83"/>
</g>
<!-- 2391558598576 -->
<g id="node23" class="node">
<title>2391558598576</title>
<ellipse fill="white" stroke="black" cx="747" cy="-27" rx="27" ry="27"/>
</g>
<!-- 2391558597136&#45;&gt;2391558598576 -->
<g id="edge6" class="edge">
<title>2391558597136&#45;&gt;2391558598576</title>
<path fill="none" stroke="black" d="M684.4,-52.2C692.75,-48.78 702.12,-44.95 710.97,-41.33"/>
<polygon fill="black" stroke="black" points="712.09,-44.65 720.02,-37.63 709.44,-38.17 712.09,-44.65"/>
</g>
<!-- 2391558597616 -->
<g id="node7" class="node">
<title>2391558597616</title>
<polygon fill="black" stroke="black" points="144,-153 90,-153 90,-117 144,-117 144,-153"/>
</g>
<!-- 2391558597952 -->
<g id="node14" class="node">
<title>2391558597952</title>
<ellipse fill="white" stroke="black" cx="207" cy="-135" rx="27" ry="27"/>
</g>
<!-- 2391558597616&#45;&gt;2391558597952 -->
<g id="edge26" class="edge">
<title>2391558597616&#45;&gt;2391558597952</title>
<path fill="none" stroke="black" d="M144.4,-135C151.89,-135 160.18,-135 168.2,-135"/>
<polygon fill="black" stroke="black" points="168.1,-138.5 178.1,-135 168.1,-131.5 168.1,-138.5"/>
</g>
<!-- 2391558597520 -->
<g id="node8" class="node">
<title>2391558597520</title>
<polygon fill="white" stroke="black" points="324,-153 270,-153 270,-117 324,-117 324,-153"/>
<text text-anchor="middle" x="297" y="-131.9" font-family="Times New Roman,serif" font-size="12.00">a</text>
</g>
<!-- 2391558597712 -->
<g id="node17" class="node">
<title>2391558597712</title>
<ellipse fill="white" stroke="black" cx="387" cy="-135" rx="27" ry="27"/>
</g>
<!-- 2391558597520&#45;&gt;2391558597712 -->
<g id="edge1" class="edge">
<title>2391558597520&#45;&gt;2391558597712</title>
<path fill="none" stroke="black" d="M324.4,-135C331.89,-135 340.18,-135 348.2,-135"/>
<polygon fill="black" stroke="black" points="348.1,-138.5 358.1,-135 348.1,-131.5 348.1,-138.5"/>
</g>
<!-- 2391558598192 -->
<g id="node18" class="node">
<title>2391558598192</title>
<ellipse fill="white" stroke="black" cx="387" cy="-207" rx="27" ry="27"/>
</g>
<!-- 2391558597520&#45;&gt;2391558598192 -->
<g id="edge2" class="edge">
<title>2391558597520&#45;&gt;2391558598192</title>
<path fill="none" stroke="black" d="M320.21,-153.17C331.32,-162.26 344.92,-173.39 356.87,-183.16"/>
<polygon fill="black" stroke="black" points="354.48,-185.74 364.44,-189.36 358.92,-180.32 354.48,-185.74"/>
</g>
<!-- 2391558727824 -->
<g id="node19" class="node">
<title>2391558727824</title>
<ellipse fill="white" stroke="black" cx="387" cy="-63" rx="27" ry="27"/>
</g>
<!-- 2391558597520&#45;&gt;2391558727824 -->
<g id="edge3" class="edge">
<title>2391558597520&#45;&gt;2391558727824</title>
<path fill="none" stroke="black" d="M320.21,-116.83C331.32,-107.74 344.92,-96.61 356.87,-86.84"/>
<polygon fill="black" stroke="black" points="358.92,-89.68 364.44,-80.64 354.48,-84.26 358.92,-89.68"/>
</g>
<!-- 2391558597424 -->
<g id="node9" class="node">
<title>2391558597424</title>
<polygon fill="white" stroke="black" points="1044,-158 990,-158 990,-122 1044,-122 1044,-158"/>
<text text-anchor="middle" x="1017" y="-136.9" font-family="Times New Roman,serif" font-size="12.00">h</text>
</g>
<!-- 2391558597904 -->
<g id="node15" class="node">
<title>2391558597904</title>
<ellipse fill="white" stroke="black" cx="1107" cy="-140" rx="27" ry="27"/>
</g>
<!-- 2391558597424&#45;&gt;2391558597904 -->
<g id="edge12" class="edge">
<title>2391558597424&#45;&gt;2391558597904</title>
<path fill="none" stroke="black" d="M1044.4,-140C1051.89,-140 1060.18,-140 1068.2,-140"/>
<polygon fill="black" stroke="black" points="1068.1,-143.5 1078.1,-140 1068.1,-136.5 1068.1,-143.5"/>
</g>
<!-- 2391558597328 -->
<g id="node10" class="node">
<title>2391558597328</title>
<polygon fill="black" stroke="black" points="1224,-158 1170,-158 1170,-122 1224,-122 1224,-158"/>
</g>
<!-- 2391558598144 -->
<g id="node24" class="node">
<title>2391558598144</title>
<ellipse fill="white" stroke="black" cx="1291" cy="-140" rx="27" ry="27"/>
<ellipse fill="none" stroke="black" cx="1291" cy="-140" rx="31" ry="31"/>
<text text-anchor="start" x="1281" y="-131.9" font-family="Times New Roman,serif" font-size="32.00">â– </text>
</g>
<!-- 2391558597328&#45;&gt;2391558598144 -->
<g id="edge9" class="edge">
<title>2391558597328&#45;&gt;2391558598144</title>
<path fill="none" stroke="black" d="M1224.12,-140C1231.63,-140 1240.01,-140 1248.22,-140"/>
<polygon fill="black" stroke="black" points="1248.08,-143.5 1258.08,-140 1248.08,-136.5 1248.08,-143.5"/>
</g>
<!-- 2391558597760 -->
<g id="node11" class="node">
<title>2391558597760</title>
<ellipse fill="white" stroke="black" cx="27" cy="-135" rx="27" ry="27"/>
<text text-anchor="start" x="16" y="-126.3" font-family="Times New Roman,serif" font-size="34.00">â—</text>
</g>
<!-- 2391558597760&#45;&gt;2391558597616 -->
<g id="edge25" class="edge">
<title>2391558597760&#45;&gt;2391558597616</title>
<path fill="none" stroke="black" d="M54.4,-135C61.89,-135 70.18,-135 78.2,-135"/>
<polygon fill="black" stroke="black" points="78.1,-138.5 88.1,-135 78.1,-131.5 78.1,-138.5"/>
</g>
<!-- 2391558598336&#45;&gt;2391558597424 -->
<g id="edge13" class="edge">
<title>2391558598336&#45;&gt;2391558597424</title>
<path fill="none" stroke="black" d="M954.4,-140C961.89,-140 970.18,-140 978.2,-140"/>
<polygon fill="black" stroke="black" points="978.1,-143.5 988.1,-140 978.1,-136.5 978.1,-143.5"/>
</g>
<!-- 2391558598432&#45;&gt;2391558597424 -->
<g id="edge14" class="edge">
<title>2391558598432&#45;&gt;2391558597424</title>
<path fill="none" stroke="black" d="M947.53,-76.98C959.33,-87.83 974.56,-101.86 987.67,-113.92"/>
<polygon fill="black" stroke="black" points="985.07,-116.29 994.8,-120.49 989.81,-111.14 985.07,-116.29"/>
</g>
<!-- 2391558597952&#45;&gt;2391558597520 -->
<g id="edge15" class="edge">
<title>2391558597952&#45;&gt;2391558597520</title>
<path fill="none" stroke="black" d="M234.4,-135C241.89,-135 250.18,-135 258.2,-135"/>
<polygon fill="black" stroke="black" points="258.1,-138.5 268.1,-135 258.1,-131.5 258.1,-138.5"/>
</g>
<!-- 2391558597904&#45;&gt;2391558597328 -->
<g id="edge16" class="edge">
<title>2391558597904&#45;&gt;2391558597328</title>
<path fill="none" stroke="black" d="M1134.4,-140C1141.89,-140 1150.18,-140 1158.2,-140"/>
<polygon fill="black" stroke="black" points="1158.1,-143.5 1168.1,-140 1158.1,-136.5 1158.1,-143.5"/>
</g>
<!-- 2391558598624&#45;&gt;2391558597280 -->
<g id="edge17" class="edge">
<title>2391558598624&#45;&gt;2391558597280</title>
<path fill="none" stroke="black" d="M684.26,-144.26C714.37,-143.42 763.96,-142.02 798.21,-141.06"/>
<polygon fill="black" stroke="black" points="798.22,-144.56 808.11,-140.78 798.02,-137.57 798.22,-144.56"/>
</g>
<!-- 2391558597712&#45;&gt;2391558587488 -->
<g id="edge18" class="edge">
<title>2391558597712&#45;&gt;2391558587488</title>
<path fill="none" stroke="black" d="M414.4,-135.6C421.89,-135.77 430.18,-135.96 438.2,-136.14"/>
<polygon fill="black" stroke="black" points="438.03,-139.64 448.1,-136.37 438.18,-132.64 438.03,-139.64"/>
</g>
<!-- 2391558598192&#45;&gt;2391558597184 -->
<g id="edge19" class="edge">
<title>2391558598192&#45;&gt;2391558597184</title>
<path fill="none" stroke="black" d="M414.4,-206.4C421.89,-206.23 430.18,-206.04 438.2,-205.86"/>
<polygon fill="black" stroke="black" points="438.18,-209.36 448.1,-205.63 438.03,-202.36 438.18,-209.36"/>
</g>
<!-- 2391558727824&#45;&gt;2391558597376 -->
<g id="edge20" class="edge">
<title>2391558727824&#45;&gt;2391558597376</title>
<path fill="none" stroke="black" d="M414.4,-63C421.89,-63 430.18,-63 438.2,-63"/>
<polygon fill="black" stroke="black" points="438.1,-66.5 448.1,-63 438.1,-59.5 438.1,-66.5"/>
</g>
<!-- 2391558598384&#45;&gt;2391558597424 -->
<g id="edge21" class="edge">
<title>2391558598384&#45;&gt;2391558597424</title>
<path fill="none" stroke="black" d="M594.23,-203.04C628.95,-201.86 692.06,-200 746,-200 746,-200 746,-200 838,-200 890.65,-200 904.82,-194.79 954,-176 962.76,-172.65 971.74,-168.15 980.04,-163.48"/>
<polygon fill="black" stroke="black" points="981.63,-166.6 988.48,-158.51 978.08,-160.57 981.63,-166.6"/>
</g>
<!-- 2391558597040&#45;&gt;2391558597280 -->
<g id="edge22" class="edge">
<title>2391558597040&#45;&gt;2391558597280</title>
<path fill="none" stroke="black" d="M772.05,-110.2C780.39,-114.09 789.94,-118.54 799.07,-122.8"/>
<polygon fill="black" stroke="black" points="797.59,-125.97 808.14,-127.02 800.55,-119.62 797.59,-125.97"/>
</g>
<!-- 2391558597664&#45;&gt;2391558597136 -->
<g id="edge23" class="edge">
<title>2391558597664&#45;&gt;2391558597136</title>
<path fill="none" stroke="black" d="M594.4,-63C601.89,-63 610.18,-63 618.2,-63"/>
<polygon fill="black" stroke="black" points="618.1,-66.5 628.1,-63 618.1,-59.5 618.1,-66.5"/>
</g>
<!-- 2391558598576&#45;&gt;2391558597472 -->
<g id="edge24" class="edge">
<title>2391558598576&#45;&gt;2391558597472</title>
<path fill="none" stroke="black" d="M773.93,-30.83C781.58,-31.96 790.11,-33.22 798.34,-34.44"/>
<polygon fill="black" stroke="black" points="797.75,-37.89 808.15,-35.89 798.77,-30.96 797.75,-37.89"/>
</g>
</g>
</svg>
