<?xml version="1.0" encoding="UTF-8" standalone="no"?>
<!DOCTYPE svg PUBLIC "-//W3C//DTD SVG 1.1//EN"
 "http://www.w3.org/Graphics/SVG/1.1/DTD/svg11.dtd">
<!-- Generated by graphviz version 7.0.3 (20221126.0506)
 -->
<!-- Title: new_petri_net Pages: 1 -->
<svg width="1330pt" height="256pt"
 viewBox="0.00 0.00 1330.00 256.00" xmlns="http://www.w3.org/2000/svg" xmlns:xlink="http://www.w3.org/1999/xlink">
<g id="graph0" class="graph" transform="scale(1 1) rotate(0) translate(4 252)">
<title>new_petri_net</title>
<polygon fill="white" stroke="none" points="-4,4 -4,-252 1326,-252 1326,4 -4,4"/>
<!-- 1739455895040 -->
<g id="node1" class="node">
<title>1739455895040</title>
<polygon fill="white" stroke="black" points="864,-72 810,-72 810,-36 864,-36 864,-72"/>
<text text-anchor="middle" x="837" y="-50.9" font-family="Times New Roman,serif" font-size="12.00">d</text>
</g>
<!-- 1739457011840 -->
<g id="node12" class="node">
<title>1739457011840</title>
<ellipse fill="white" stroke="black" cx="927" cy="-54" rx="27" ry="27"/>
</g>
<!-- 1739455895040&#45;&gt;1739457011840 -->
<g id="edge7" class="edge">
<title>1739455895040&#45;&gt;1739457011840</title>
<path fill="none" stroke="black" d="M864.4,-54C871.89,-54 880.18,-54 888.2,-54"/>
<polygon fill="black" stroke="black" points="888.1,-57.5 898.1,-54 888.1,-50.5 888.1,-57.5"/>
</g>
<!-- 1739455902624 -->
<g id="node2" class="node">
<title>1739455902624</title>
<polygon fill="white" stroke="black" points="1044,-144 990,-144 990,-108 1044,-108 1044,-144"/>
<text text-anchor="middle" x="1017" y="-122.9" font-family="Times New Roman,serif" font-size="12.00">h</text>
</g>
<!-- 1739457012608 -->
<g id="node15" class="node">
<title>1739457012608</title>
<ellipse fill="white" stroke="black" cx="1107" cy="-126" rx="27" ry="27"/>
</g>
<!-- 1739455902624&#45;&gt;1739457012608 -->
<g id="edge12" class="edge">
<title>1739455902624&#45;&gt;1739457012608</title>
<path fill="none" stroke="black" d="M1044.4,-126C1051.89,-126 1060.18,-126 1068.2,-126"/>
<polygon fill="black" stroke="black" points="1068.1,-129.5 1078.1,-126 1068.1,-122.5 1068.1,-129.5"/>
</g>
<!-- 1739457019184 -->
<g id="node3" class="node">
<title>1739457019184</title>
<polygon fill="white" stroke="black" points="324,-167 270,-167 270,-131 324,-131 324,-167"/>
<text text-anchor="middle" x="297" y="-145.9" font-family="Times New Roman,serif" font-size="12.00">a</text>
</g>
<!-- 1739457011168 -->
<g id="node17" class="node">
<title>1739457011168</title>
<ellipse fill="white" stroke="black" cx="387" cy="-149" rx="27" ry="27"/>
</g>
<!-- 1739457019184&#45;&gt;1739457011168 -->
<g id="edge1" class="edge">
<title>1739457019184&#45;&gt;1739457011168</title>
<path fill="none" stroke="black" d="M324.4,-149C331.89,-149 340.18,-149 348.2,-149"/>
<polygon fill="black" stroke="black" points="348.1,-152.5 358.1,-149 348.1,-145.5 348.1,-152.5"/>
</g>
<!-- 1739457011360 -->
<g id="node18" class="node">
<title>1739457011360</title>
<ellipse fill="white" stroke="black" cx="387" cy="-221" rx="27" ry="27"/>
</g>
<!-- 1739457019184&#45;&gt;1739457011360 -->
<g id="edge2" class="edge">
<title>1739457019184&#45;&gt;1739457011360</title>
<path fill="none" stroke="black" d="M320.21,-167.17C331.32,-176.26 344.92,-187.39 356.87,-197.16"/>
<polygon fill="black" stroke="black" points="354.48,-199.74 364.44,-203.36 358.92,-194.32 354.48,-199.74"/>
</g>
<!-- 1739457011552 -->
<g id="node19" class="node">
<title>1739457011552</title>
<ellipse fill="white" stroke="black" cx="387" cy="-77" rx="27" ry="27"/>
</g>
<!-- 1739457019184&#45;&gt;1739457011552 -->
<g id="edge3" class="edge">
<title>1739457019184&#45;&gt;1739457011552</title>
<path fill="none" stroke="black" d="M320.21,-130.83C331.32,-121.74 344.92,-110.61 356.87,-100.84"/>
<polygon fill="black" stroke="black" points="358.92,-103.68 364.44,-94.64 354.48,-98.26 358.92,-103.68"/>
</g>
<!-- 1739457019472 -->
<g id="node4" class="node">
<title>1739457019472</title>
<polygon fill="white" stroke="black" points="504,-95 450,-95 450,-59 504,-59 504,-95"/>
<text text-anchor="middle" x="477" y="-73.9" font-family="Times New Roman,serif" font-size="12.00">b</text>
</g>
<!-- 1739457018608 -->
<g id="node23" class="node">
<title>1739457018608</title>
<ellipse fill="white" stroke="black" cx="567" cy="-77" rx="27" ry="27"/>
</g>
<!-- 1739457019472&#45;&gt;1739457018608 -->
<g id="edge4" class="edge">
<title>1739457019472&#45;&gt;1739457018608</title>
<path fill="none" stroke="black" d="M504.4,-77C511.89,-77 520.18,-77 528.2,-77"/>
<polygon fill="black" stroke="black" points="528.1,-80.5 538.1,-77 528.1,-73.5 528.1,-80.5"/>
</g>
<!-- 1739457019376 -->
<g id="node5" class="node">
<title>1739457019376</title>
<polygon fill="white" stroke="black" points="684,-95 630,-95 630,-59 684,-59 684,-95"/>
<text text-anchor="middle" x="657" y="-73.9" font-family="Times New Roman,serif" font-size="12.00">c</text>
</g>
<!-- 1739457011744 -->
<g id="node20" class="node">
<title>1739457011744</title>
<ellipse fill="white" stroke="black" cx="747" cy="-27" rx="27" ry="27"/>
</g>
<!-- 1739457019376&#45;&gt;1739457011744 -->
<g id="edge5" class="edge">
<title>1739457019376&#45;&gt;1739457011744</title>
<path fill="none" stroke="black" d="M684.4,-62C693.4,-56.89 703.57,-51.11 713.02,-45.74"/>
<polygon fill="black" stroke="black" points="714.62,-48.86 721.58,-40.87 711.16,-42.77 714.62,-48.86"/>
</g>
<!-- 1739457012992 -->
<g id="node22" class="node">
<title>1739457012992</title>
<ellipse fill="white" stroke="black" cx="747" cy="-99" rx="27" ry="27"/>
</g>
<!-- 1739457019376&#45;&gt;1739457012992 -->
<g id="edge6" class="edge">
<title>1739457019376&#45;&gt;1739457012992</title>
<path fill="none" stroke="black" d="M684.4,-83.6C692.27,-85.57 701.03,-87.76 709.43,-89.86"/>
<polygon fill="black" stroke="black" points="708.5,-93.23 719.05,-92.26 710.2,-86.44 708.5,-93.23"/>
</g>
<!-- 1739457019280 -->
<g id="node6" class="node">
<title>1739457019280</title>
<polygon fill="white" stroke="black" points="864,-144 810,-144 810,-108 864,-108 864,-144"/>
<text text-anchor="middle" x="837" y="-122.9" font-family="Times New Roman,serif" font-size="12.00">f</text>
</g>
<!-- 1739457018416 -->
<g id="node21" class="node">
<title>1739457018416</title>
<ellipse fill="white" stroke="black" cx="927" cy="-126" rx="27" ry="27"/>
</g>
<!-- 1739457019280&#45;&gt;1739457018416 -->
<g id="edge10" class="edge">
<title>1739457019280&#45;&gt;1739457018416</title>
<path fill="none" stroke="black" d="M864.4,-126C871.89,-126 880.18,-126 888.2,-126"/>
<polygon fill="black" stroke="black" points="888.1,-129.5 898.1,-126 888.1,-122.5 888.1,-129.5"/>
</g>
<!-- 1739457019568 -->
<g id="node7" class="node">
<title>1739457019568</title>
<polygon fill="black" stroke="black" points="1224,-144 1170,-144 1170,-108 1224,-108 1224,-144"/>
</g>
<!-- 1739457018800 -->
<g id="node24" class="node">
<title>1739457018800</title>
<ellipse fill="white" stroke="black" cx="1291" cy="-126" rx="27" ry="27"/>
<ellipse fill="none" stroke="black" cx="1291" cy="-126" rx="31" ry="31"/>
<text text-anchor="start" x="1281" y="-117.9" font-family="Times New Roman,serif" font-size="32.00">â– </text>
</g>
<!-- 1739457019568&#45;&gt;1739457018800 -->
<g id="edge9" class="edge">
<title>1739457019568&#45;&gt;1739457018800</title>
<path fill="none" stroke="black" d="M1224.12,-126C1231.63,-126 1240.01,-126 1248.22,-126"/>
<polygon fill="black" stroke="black" points="1248.08,-129.5 1258.08,-126 1248.08,-122.5 1248.08,-129.5"/>
</g>
<!-- 1739457019664 -->
<g id="node8" class="node">
<title>1739457019664</title>
<polygon fill="white" stroke="black" points="504,-238 450,-238 450,-202 504,-202 504,-238"/>
<text text-anchor="middle" x="477" y="-216.9" font-family="Times New Roman,serif" font-size="12.00">g</text>
</g>
<!-- 1739457012800 -->
<g id="node13" class="node">
<title>1739457012800</title>
<ellipse fill="white" stroke="black" cx="657" cy="-211" rx="27" ry="27"/>
</g>
<!-- 1739457019664&#45;&gt;1739457012800 -->
<g id="edge11" class="edge">
<title>1739457019664&#45;&gt;1739457012800</title>
<path fill="none" stroke="black" d="M504.26,-218.67C534.37,-217.15 583.96,-214.64 618.21,-212.91"/>
<polygon fill="black" stroke="black" points="618.31,-216.41 628.12,-212.41 617.95,-209.42 618.31,-216.41"/>
</g>
<!-- 1739457019760 -->
<g id="node9" class="node">
<title>1739457019760</title>
<polygon fill="black" stroke="black" points="144,-167 90,-167 90,-131 144,-131 144,-167"/>
</g>
<!-- 1739457012032 -->
<g id="node14" class="node">
<title>1739457012032</title>
<ellipse fill="white" stroke="black" cx="207" cy="-149" rx="27" ry="27"/>
</g>
<!-- 1739457019760&#45;&gt;1739457012032 -->
<g id="edge26" class="edge">
<title>1739457019760&#45;&gt;1739457012032</title>
<path fill="none" stroke="black" d="M144.4,-149C151.89,-149 160.18,-149 168.2,-149"/>
<polygon fill="black" stroke="black" points="168.1,-152.5 178.1,-149 168.1,-145.5 168.1,-152.5"/>
</g>
<!-- 1739457019856 -->
<g id="node10" class="node">
<title>1739457019856</title>
<polygon fill="white" stroke="black" points="504,-168 450,-168 450,-132 504,-132 504,-168"/>
<text text-anchor="middle" x="477" y="-146.9" font-family="Times New Roman,serif" font-size="12.00">e</text>
</g>
<!-- 1739457018992 -->
<g id="node16" class="node">
<title>1739457018992</title>
<ellipse fill="white" stroke="black" cx="567" cy="-150" rx="27" ry="27"/>
</g>
<!-- 1739457019856&#45;&gt;1739457018992 -->
<g id="edge8" class="edge">
<title>1739457019856&#45;&gt;1739457018992</title>
<path fill="none" stroke="black" d="M504.4,-150C511.89,-150 520.18,-150 528.2,-150"/>
<polygon fill="black" stroke="black" points="528.1,-153.5 538.1,-150 528.1,-146.5 528.1,-153.5"/>
</g>
<!-- 1739457012416 -->
<g id="node11" class="node">
<title>1739457012416</title>
<ellipse fill="white" stroke="black" cx="27" cy="-149" rx="27" ry="27"/>
<text text-anchor="start" x="16" y="-140.3" font-family="Times New Roman,serif" font-size="34.00">â—</text>
</g>
<!-- 1739457012416&#45;&gt;1739457019760 -->
<g id="edge25" class="edge">
<title>1739457012416&#45;&gt;1739457019760</title>
<path fill="none" stroke="black" d="M54.4,-149C61.89,-149 70.18,-149 78.2,-149"/>
<polygon fill="black" stroke="black" points="78.1,-152.5 88.1,-149 78.1,-145.5 78.1,-152.5"/>
</g>
<!-- 1739457011840&#45;&gt;1739455902624 -->
<g id="edge13" class="edge">
<title>1739457011840&#45;&gt;1739455902624</title>
<path fill="none" stroke="black" d="M948.41,-70.7C959.17,-79.5 972.61,-90.5 984.66,-100.36"/>
<polygon fill="black" stroke="black" points="982.41,-103.04 992.37,-106.66 986.84,-97.62 982.41,-103.04"/>
</g>
<!-- 1739457012800&#45;&gt;1739455902624 -->
<g id="edge14" class="edge">
<title>1739457012800&#45;&gt;1739455902624</title>
<path fill="none" stroke="black" d="M684.13,-209.83C736.7,-206.8 858.42,-196.36 954,-162 962.74,-158.86 971.66,-154.49 979.9,-149.87"/>
<polygon fill="black" stroke="black" points="981.42,-153.04 988.27,-144.95 977.87,-147.01 981.42,-153.04"/>
</g>
<!-- 1739457012032&#45;&gt;1739457019184 -->
<g id="edge15" class="edge">
<title>1739457012032&#45;&gt;1739457019184</title>
<path fill="none" stroke="black" d="M234.4,-149C241.89,-149 250.18,-149 258.2,-149"/>
<polygon fill="black" stroke="black" points="258.1,-152.5 268.1,-149 258.1,-145.5 258.1,-152.5"/>
</g>
<!-- 1739457012608&#45;&gt;1739457019568 -->
<g id="edge16" class="edge">
<title>1739457012608&#45;&gt;1739457019568</title>
<path fill="none" stroke="black" d="M1134.4,-126C1141.89,-126 1150.18,-126 1158.2,-126"/>
<polygon fill="black" stroke="black" points="1158.1,-129.5 1168.1,-126 1158.1,-122.5 1158.1,-129.5"/>
</g>
<!-- 1739457018992&#45;&gt;1739457019280 -->
<g id="edge17" class="edge">
<title>1739457018992&#45;&gt;1739457019280</title>
<path fill="none" stroke="black" d="M594.39,-148.68C633.64,-146.59 709.66,-142 774,-135 781.85,-134.15 790.23,-133.05 798.21,-131.93"/>
<polygon fill="black" stroke="black" points="798.62,-135.4 808.01,-130.49 797.6,-128.48 798.62,-135.4"/>
</g>
<!-- 1739457011168&#45;&gt;1739457019856 -->
<g id="edge18" class="edge">
<title>1739457011168&#45;&gt;1739457019856</title>
<path fill="none" stroke="black" d="M414.4,-149.3C421.89,-149.39 430.18,-149.48 438.2,-149.57"/>
<polygon fill="black" stroke="black" points="438.06,-153.07 448.1,-149.68 438.14,-146.07 438.06,-153.07"/>
</g>
<!-- 1739457011360&#45;&gt;1739457019664 -->
<g id="edge19" class="edge">
<title>1739457011360&#45;&gt;1739457019664</title>
<path fill="none" stroke="black" d="M414.4,-220.7C421.89,-220.61 430.18,-220.52 438.2,-220.43"/>
<polygon fill="black" stroke="black" points="438.14,-223.93 448.1,-220.32 438.06,-216.93 438.14,-223.93"/>
</g>
<!-- 1739457011552&#45;&gt;1739457019472 -->
<g id="edge20" class="edge">
<title>1739457011552&#45;&gt;1739457019472</title>
<path fill="none" stroke="black" d="M414.4,-77C421.89,-77 430.18,-77 438.2,-77"/>
<polygon fill="black" stroke="black" points="438.1,-80.5 448.1,-77 438.1,-73.5 438.1,-80.5"/>
</g>
<!-- 1739457011744&#45;&gt;1739455895040 -->
<g id="edge21" class="edge">
<title>1739457011744&#45;&gt;1739455895040</title>
<path fill="none" stroke="black" d="M772.98,-34.66C781.06,-37.14 790.19,-39.94 798.95,-42.63"/>
<polygon fill="black" stroke="black" points="797.69,-45.91 808.28,-45.5 799.75,-39.22 797.69,-45.91"/>
</g>
<!-- 1739457018416&#45;&gt;1739455902624 -->
<g id="edge22" class="edge">
<title>1739457018416&#45;&gt;1739455902624</title>
<path fill="none" stroke="black" d="M954.4,-126C961.89,-126 970.18,-126 978.2,-126"/>
<polygon fill="black" stroke="black" points="978.1,-129.5 988.1,-126 978.1,-122.5 978.1,-129.5"/>
</g>
<!-- 1739457012992&#45;&gt;1739457019280 -->
<g id="edge23" class="edge">
<title>1739457012992&#45;&gt;1739457019280</title>
<path fill="none" stroke="black" d="M772.98,-106.66C781.06,-109.14 790.19,-111.94 798.95,-114.63"/>
<polygon fill="black" stroke="black" points="797.69,-117.91 808.28,-117.5 799.75,-111.22 797.69,-117.91"/>
</g>
<!-- 1739457018608&#45;&gt;1739457019376 -->
<g id="edge24" class="edge">
<title>1739457018608&#45;&gt;1739457019376</title>
<path fill="none" stroke="black" d="M594.4,-77C601.89,-77 610.18,-77 618.2,-77"/>
<polygon fill="black" stroke="black" points="618.1,-80.5 628.1,-77 618.1,-73.5 618.1,-80.5"/>
</g>
</g>
</svg>
