<?xml version="1.0" encoding="UTF-8" standalone="no"?>
<!DOCTYPE svg PUBLIC "-//W3C//DTD SVG 1.1//EN"
 "http://www.w3.org/Graphics/SVG/1.1/DTD/svg11.dtd">
<!-- Generated by graphviz version 7.0.3 (20221126.0506)
 -->
<!-- Title: new_petri_net Pages: 1 -->
<svg width="1330pt" height="242pt"
 viewBox="0.00 0.00 1330.00 242.00" xmlns="http://www.w3.org/2000/svg" xmlns:xlink="http://www.w3.org/1999/xlink">
<g id="graph0" class="graph" transform="scale(1 1) rotate(0) translate(4 238)">
<title>new_petri_net</title>
<polygon fill="white" stroke="none" points="-4,4 -4,-238 1326,-238 1326,4 -4,4"/>
<!-- 1903635976672 -->
<g id="node1" class="node">
<title>1903635976672</title>
<polygon fill="black" stroke="black" points="144,-153 90,-153 90,-117 144,-117 144,-153"/>
</g>
<!-- 1903635976288 -->
<g id="node14" class="node">
<title>1903635976288</title>
<ellipse fill="white" stroke="black" cx="207" cy="-135" rx="27" ry="27"/>
</g>
<!-- 1903635976672&#45;&gt;1903635976288 -->
<g id="edge26" class="edge">
<title>1903635976672&#45;&gt;1903635976288</title>
<path fill="none" stroke="black" d="M144.4,-135C151.89,-135 160.18,-135 168.2,-135"/>
<polygon fill="black" stroke="black" points="168.1,-138.5 178.1,-135 168.1,-131.5 168.1,-138.5"/>
</g>
<!-- 1903635983104 -->
<g id="node2" class="node">
<title>1903635983104</title>
<polygon fill="white" stroke="black" points="504,-155 450,-155 450,-119 504,-119 504,-155"/>
<text text-anchor="middle" x="477" y="-133.9" font-family="Times New Roman,serif" font-size="12.00">e</text>
</g>
<!-- 1903635983152 -->
<g id="node16" class="node">
<title>1903635983152</title>
<ellipse fill="white" stroke="black" cx="657" cy="-145" rx="27" ry="27"/>
</g>
<!-- 1903635983104&#45;&gt;1903635983152 -->
<g id="edge8" class="edge">
<title>1903635983104&#45;&gt;1903635983152</title>
<path fill="none" stroke="black" d="M504.26,-138.18C534.37,-139.53 583.96,-141.76 618.21,-143.3"/>
<polygon fill="black" stroke="black" points="617.97,-146.79 628.12,-143.75 618.28,-139.8 617.97,-146.79"/>
</g>
<!-- 1903635979840 -->
<g id="node3" class="node">
<title>1903635979840</title>
<polygon fill="white" stroke="black" points="864,-136 810,-136 810,-100 864,-100 864,-136"/>
<text text-anchor="middle" x="837" y="-114.9" font-family="Times New Roman,serif" font-size="12.00">f</text>
</g>
<!-- 1903635978352 -->
<g id="node18" class="node">
<title>1903635978352</title>
<ellipse fill="white" stroke="black" cx="927" cy="-118" rx="27" ry="27"/>
</g>
<!-- 1903635979840&#45;&gt;1903635978352 -->
<g id="edge10" class="edge">
<title>1903635979840&#45;&gt;1903635978352</title>
<path fill="none" stroke="black" d="M864.4,-118C871.89,-118 880.18,-118 888.2,-118"/>
<polygon fill="black" stroke="black" points="888.1,-121.5 898.1,-118 888.1,-114.5 888.1,-121.5"/>
</g>
<!-- 1903635978112 -->
<g id="node4" class="node">
<title>1903635978112</title>
<polygon fill="white" stroke="black" points="504,-223 450,-223 450,-187 504,-187 504,-223"/>
<text text-anchor="middle" x="477" y="-201.9" font-family="Times New Roman,serif" font-size="12.00">g</text>
</g>
<!-- 1903635987424 -->
<g id="node21" class="node">
<title>1903635987424</title>
<ellipse fill="white" stroke="black" cx="567" cy="-204" rx="27" ry="27"/>
</g>
<!-- 1903635978112&#45;&gt;1903635987424 -->
<g id="edge11" class="edge">
<title>1903635978112&#45;&gt;1903635987424</title>
<path fill="none" stroke="black" d="M504.4,-204.7C511.89,-204.61 520.18,-204.52 528.2,-204.43"/>
<polygon fill="black" stroke="black" points="528.14,-207.93 538.1,-204.32 528.06,-200.93 528.14,-207.93"/>
</g>
<!-- 1903635976576 -->
<g id="node5" class="node">
<title>1903635976576</title>
<polygon fill="black" stroke="black" points="1224,-136 1170,-136 1170,-100 1224,-100 1224,-136"/>
</g>
<!-- 1903635978496 -->
<g id="node24" class="node">
<title>1903635978496</title>
<ellipse fill="white" stroke="black" cx="1291" cy="-118" rx="27" ry="27"/>
<ellipse fill="none" stroke="black" cx="1291" cy="-118" rx="31" ry="31"/>
<text text-anchor="start" x="1281" y="-109.9" font-family="Times New Roman,serif" font-size="32.00">â– </text>
</g>
<!-- 1903635976576&#45;&gt;1903635978496 -->
<g id="edge9" class="edge">
<title>1903635976576&#45;&gt;1903635978496</title>
<path fill="none" stroke="black" d="M1224.12,-118C1231.63,-118 1240.01,-118 1248.22,-118"/>
<polygon fill="black" stroke="black" points="1248.08,-121.5 1258.08,-118 1248.08,-114.5 1248.08,-121.5"/>
</g>
<!-- 1903635977200 -->
<g id="node6" class="node">
<title>1903635977200</title>
<polygon fill="white" stroke="black" points="864,-64 810,-64 810,-28 864,-28 864,-64"/>
<text text-anchor="middle" x="837" y="-42.9" font-family="Times New Roman,serif" font-size="12.00">d</text>
</g>
<!-- 1903635979888 -->
<g id="node19" class="node">
<title>1903635979888</title>
<ellipse fill="white" stroke="black" cx="927" cy="-46" rx="27" ry="27"/>
</g>
<!-- 1903635977200&#45;&gt;1903635979888 -->
<g id="edge7" class="edge">
<title>1903635977200&#45;&gt;1903635979888</title>
<path fill="none" stroke="black" d="M864.4,-46C871.89,-46 880.18,-46 888.2,-46"/>
<polygon fill="black" stroke="black" points="888.1,-49.5 898.1,-46 888.1,-42.5 888.1,-49.5"/>
</g>
<!-- 1903635976048 -->
<g id="node7" class="node">
<title>1903635976048</title>
<polygon fill="white" stroke="black" points="1044,-136 990,-136 990,-100 1044,-100 1044,-136"/>
<text text-anchor="middle" x="1017" y="-114.9" font-family="Times New Roman,serif" font-size="12.00">h</text>
</g>
<!-- 1903635982720 -->
<g id="node15" class="node">
<title>1903635982720</title>
<ellipse fill="white" stroke="black" cx="1107" cy="-118" rx="27" ry="27"/>
</g>
<!-- 1903635976048&#45;&gt;1903635982720 -->
<g id="edge12" class="edge">
<title>1903635976048&#45;&gt;1903635982720</title>
<path fill="none" stroke="black" d="M1044.4,-118C1051.89,-118 1060.18,-118 1068.2,-118"/>
<polygon fill="black" stroke="black" points="1068.1,-121.5 1078.1,-118 1068.1,-114.5 1068.1,-121.5"/>
</g>
<!-- 1903635986512 -->
<g id="node8" class="node">
<title>1903635986512</title>
<polygon fill="white" stroke="black" points="324,-153 270,-153 270,-117 324,-117 324,-153"/>
<text text-anchor="middle" x="297" y="-131.9" font-family="Times New Roman,serif" font-size="12.00">a</text>
</g>
<!-- 1903635987616 -->
<g id="node17" class="node">
<title>1903635987616</title>
<ellipse fill="white" stroke="black" cx="387" cy="-135" rx="27" ry="27"/>
</g>
<!-- 1903635986512&#45;&gt;1903635987616 -->
<g id="edge1" class="edge">
<title>1903635986512&#45;&gt;1903635987616</title>
<path fill="none" stroke="black" d="M324.4,-135C331.89,-135 340.18,-135 348.2,-135"/>
<polygon fill="black" stroke="black" points="348.1,-138.5 358.1,-135 348.1,-131.5 348.1,-138.5"/>
</g>
<!-- 1903635985552 -->
<g id="node20" class="node">
<title>1903635985552</title>
<ellipse fill="white" stroke="black" cx="387" cy="-207" rx="27" ry="27"/>
</g>
<!-- 1903635986512&#45;&gt;1903635985552 -->
<g id="edge2" class="edge">
<title>1903635986512&#45;&gt;1903635985552</title>
<path fill="none" stroke="black" d="M320.21,-153.17C331.32,-162.26 344.92,-173.39 356.87,-183.16"/>
<polygon fill="black" stroke="black" points="354.48,-185.74 364.44,-189.36 358.92,-180.32 354.48,-185.74"/>
</g>
<!-- 1903635983968 -->
<g id="node22" class="node">
<title>1903635983968</title>
<ellipse fill="white" stroke="black" cx="387" cy="-63" rx="27" ry="27"/>
</g>
<!-- 1903635986512&#45;&gt;1903635983968 -->
<g id="edge3" class="edge">
<title>1903635986512&#45;&gt;1903635983968</title>
<path fill="none" stroke="black" d="M320.21,-116.83C331.32,-107.74 344.92,-96.61 356.87,-86.84"/>
<polygon fill="black" stroke="black" points="358.92,-89.68 364.44,-80.64 354.48,-84.26 358.92,-89.68"/>
</g>
<!-- 1903635979024 -->
<g id="node9" class="node">
<title>1903635979024</title>
<polygon fill="white" stroke="black" points="504,-81 450,-81 450,-45 504,-45 504,-81"/>
<text text-anchor="middle" x="477" y="-59.9" font-family="Times New Roman,serif" font-size="12.00">b</text>
</g>
<!-- 1903635986080 -->
<g id="node23" class="node">
<title>1903635986080</title>
<ellipse fill="white" stroke="black" cx="567" cy="-63" rx="27" ry="27"/>
</g>
<!-- 1903635979024&#45;&gt;1903635986080 -->
<g id="edge4" class="edge">
<title>1903635979024&#45;&gt;1903635986080</title>
<path fill="none" stroke="black" d="M504.4,-63C511.89,-63 520.18,-63 528.2,-63"/>
<polygon fill="black" stroke="black" points="528.1,-66.5 538.1,-63 528.1,-59.5 528.1,-66.5"/>
</g>
<!-- 1903635977872 -->
<g id="node10" class="node">
<title>1903635977872</title>
<polygon fill="white" stroke="black" points="684,-81 630,-81 630,-45 684,-45 684,-81"/>
<text text-anchor="middle" x="657" y="-59.9" font-family="Times New Roman,serif" font-size="12.00">c</text>
</g>
<!-- 1903635977920 -->
<g id="node12" class="node">
<title>1903635977920</title>
<ellipse fill="white" stroke="black" cx="747" cy="-99" rx="27" ry="27"/>
</g>
<!-- 1903635977872&#45;&gt;1903635977920 -->
<g id="edge5" class="edge">
<title>1903635977872&#45;&gt;1903635977920</title>
<path fill="none" stroke="black" d="M684.4,-73.8C692.75,-77.22 702.12,-81.05 710.97,-84.67"/>
<polygon fill="black" stroke="black" points="709.44,-87.83 720.02,-88.37 712.09,-81.35 709.44,-87.83"/>
</g>
<!-- 1903635985840 -->
<g id="node13" class="node">
<title>1903635985840</title>
<ellipse fill="white" stroke="black" cx="747" cy="-27" rx="27" ry="27"/>
</g>
<!-- 1903635977872&#45;&gt;1903635985840 -->
<g id="edge6" class="edge">
<title>1903635977872&#45;&gt;1903635985840</title>
<path fill="none" stroke="black" d="M684.4,-52.2C692.75,-48.78 702.12,-44.95 710.97,-41.33"/>
<polygon fill="black" stroke="black" points="712.09,-44.65 720.02,-37.63 709.44,-38.17 712.09,-44.65"/>
</g>
<!-- 1903635978160 -->
<g id="node11" class="node">
<title>1903635978160</title>
<ellipse fill="white" stroke="black" cx="27" cy="-135" rx="27" ry="27"/>
<text text-anchor="start" x="16" y="-126.3" font-family="Times New Roman,serif" font-size="34.00">â—</text>
</g>
<!-- 1903635978160&#45;&gt;1903635976672 -->
<g id="edge25" class="edge">
<title>1903635978160&#45;&gt;1903635976672</title>
<path fill="none" stroke="black" d="M54.4,-135C61.89,-135 70.18,-135 78.2,-135"/>
<polygon fill="black" stroke="black" points="78.1,-138.5 88.1,-135 78.1,-131.5 78.1,-138.5"/>
</g>
<!-- 1903635977920&#45;&gt;1903635979840 -->
<g id="edge13" class="edge">
<title>1903635977920&#45;&gt;1903635979840</title>
<path fill="none" stroke="black" d="M773.45,-104.5C781.27,-106.18 790.04,-108.08 798.49,-109.9"/>
<polygon fill="black" stroke="black" points="797.69,-113.31 808.21,-112 799.17,-106.47 797.69,-113.31"/>
</g>
<!-- 1903635985840&#45;&gt;1903635977200 -->
<g id="edge14" class="edge">
<title>1903635985840&#45;&gt;1903635977200</title>
<path fill="none" stroke="black" d="M773.45,-32.5C781.27,-34.18 790.04,-36.08 798.49,-37.9"/>
<polygon fill="black" stroke="black" points="797.69,-41.31 808.21,-40 799.17,-34.47 797.69,-41.31"/>
</g>
<!-- 1903635976288&#45;&gt;1903635986512 -->
<g id="edge15" class="edge">
<title>1903635976288&#45;&gt;1903635986512</title>
<path fill="none" stroke="black" d="M234.4,-135C241.89,-135 250.18,-135 258.2,-135"/>
<polygon fill="black" stroke="black" points="258.1,-138.5 268.1,-135 258.1,-131.5 258.1,-138.5"/>
</g>
<!-- 1903635982720&#45;&gt;1903635976576 -->
<g id="edge16" class="edge">
<title>1903635982720&#45;&gt;1903635976576</title>
<path fill="none" stroke="black" d="M1134.4,-118C1141.89,-118 1150.18,-118 1158.2,-118"/>
<polygon fill="black" stroke="black" points="1158.1,-121.5 1168.1,-118 1158.1,-114.5 1158.1,-121.5"/>
</g>
<!-- 1903635983152&#45;&gt;1903635979840 -->
<g id="edge17" class="edge">
<title>1903635983152&#45;&gt;1903635979840</title>
<path fill="none" stroke="black" d="M684.44,-144.09C708.07,-142.95 743.56,-140.44 774,-135 782.07,-133.56 790.6,-131.55 798.68,-129.41"/>
<polygon fill="black" stroke="black" points="799.53,-132.8 808.23,-126.76 797.66,-126.06 799.53,-132.8"/>
</g>
<!-- 1903635987616&#45;&gt;1903635983104 -->
<g id="edge18" class="edge">
<title>1903635987616&#45;&gt;1903635983104</title>
<path fill="none" stroke="black" d="M414.4,-135.6C421.89,-135.77 430.18,-135.96 438.2,-136.14"/>
<polygon fill="black" stroke="black" points="438.03,-139.64 448.1,-136.37 438.18,-132.64 438.03,-139.64"/>
</g>
<!-- 1903635978352&#45;&gt;1903635976048 -->
<g id="edge19" class="edge">
<title>1903635978352&#45;&gt;1903635976048</title>
<path fill="none" stroke="black" d="M954.4,-118C961.89,-118 970.18,-118 978.2,-118"/>
<polygon fill="black" stroke="black" points="978.1,-121.5 988.1,-118 978.1,-114.5 978.1,-121.5"/>
</g>
<!-- 1903635979888&#45;&gt;1903635976048 -->
<g id="edge20" class="edge">
<title>1903635979888&#45;&gt;1903635976048</title>
<path fill="none" stroke="black" d="M948.41,-62.7C959.17,-71.5 972.61,-82.5 984.66,-92.36"/>
<polygon fill="black" stroke="black" points="982.41,-95.04 992.37,-98.66 986.84,-89.62 982.41,-95.04"/>
</g>
<!-- 1903635985552&#45;&gt;1903635978112 -->
<g id="edge21" class="edge">
<title>1903635985552&#45;&gt;1903635978112</title>
<path fill="none" stroke="black" d="M414.4,-206.4C421.89,-206.23 430.18,-206.04 438.2,-205.86"/>
<polygon fill="black" stroke="black" points="438.18,-209.36 448.1,-205.63 438.03,-202.36 438.18,-209.36"/>
</g>
<!-- 1903635987424&#45;&gt;1903635976048 -->
<g id="edge22" class="edge">
<title>1903635987424&#45;&gt;1903635976048</title>
<path fill="none" stroke="black" d="M594.23,-203.04C628.95,-201.86 692.06,-200 746,-200 746,-200 746,-200 838,-200 893.2,-200 949.93,-167.06 984.08,-142.94"/>
<polygon fill="black" stroke="black" points="985.82,-146 991.86,-137.29 981.71,-140.33 985.82,-146"/>
</g>
<!-- 1903635983968&#45;&gt;1903635979024 -->
<g id="edge23" class="edge">
<title>1903635983968&#45;&gt;1903635979024</title>
<path fill="none" stroke="black" d="M414.4,-63C421.89,-63 430.18,-63 438.2,-63"/>
<polygon fill="black" stroke="black" points="438.1,-66.5 448.1,-63 438.1,-59.5 438.1,-66.5"/>
</g>
<!-- 1903635986080&#45;&gt;1903635977872 -->
<g id="edge24" class="edge">
<title>1903635986080&#45;&gt;1903635977872</title>
<path fill="none" stroke="black" d="M594.4,-63C601.89,-63 610.18,-63 618.2,-63"/>
<polygon fill="black" stroke="black" points="618.1,-66.5 628.1,-63 618.1,-59.5 618.1,-66.5"/>
</g>
</g>
</svg>
