<?xml version="1.0" encoding="UTF-8" standalone="no"?>
<!DOCTYPE svg PUBLIC "-//W3C//DTD SVG 1.1//EN"
 "http://www.w3.org/Graphics/SVG/1.1/DTD/svg11.dtd">
<!-- Generated by graphviz version 7.0.3 (20221126.0506)
 -->
<!-- Title: new_petri_net Pages: 1 -->
<svg width="1330pt" height="206pt"
 viewBox="0.00 0.00 1330.00 206.00" xmlns="http://www.w3.org/2000/svg" xmlns:xlink="http://www.w3.org/1999/xlink">
<g id="graph0" class="graph" transform="scale(1 1) rotate(0) translate(4 202)">
<title>new_petri_net</title>
<polygon fill="white" stroke="none" points="-4,4 -4,-202 1326,-202 1326,4 -4,4"/>
<!-- 1739458252032 -->
<g id="node1" class="node">
<title>1739458252032</title>
<polygon fill="white" stroke="black" points="504,-119 450,-119 450,-83 504,-83 504,-119"/>
<text text-anchor="middle" x="477" y="-97.9" font-family="Times New Roman,serif" font-size="12.00">e</text>
</g>
<!-- 1739458259376 -->
<g id="node24" class="node">
<title>1739458259376</title>
<ellipse fill="white" stroke="black" cx="657" cy="-106" rx="27" ry="27"/>
</g>
<!-- 1739458252032&#45;&gt;1739458259376 -->
<g id="edge7" class="edge">
<title>1739458252032&#45;&gt;1739458259376</title>
<path fill="none" stroke="black" d="M504.26,-101.74C534.37,-102.58 583.96,-103.98 618.21,-104.94"/>
<polygon fill="black" stroke="black" points="618.02,-108.43 628.11,-105.22 618.22,-101.44 618.02,-108.43"/>
</g>
<!-- 1739458256448 -->
<g id="node2" class="node">
<title>1739458256448</title>
<polygon fill="black" stroke="black" points="1224,-100 1170,-100 1170,-64 1224,-64 1224,-100"/>
</g>
<!-- 1739458251840 -->
<g id="node26" class="node">
<title>1739458251840</title>
<ellipse fill="white" stroke="black" cx="1291" cy="-82" rx="27" ry="27"/>
<ellipse fill="none" stroke="black" cx="1291" cy="-82" rx="31" ry="31"/>
<text text-anchor="start" x="1281" y="-73.9" font-family="Times New Roman,serif" font-size="32.00">â– </text>
</g>
<!-- 1739458256448&#45;&gt;1739458251840 -->
<g id="edge8" class="edge">
<title>1739458256448&#45;&gt;1739458251840</title>
<path fill="none" stroke="black" d="M1224.12,-82C1231.63,-82 1240.01,-82 1248.22,-82"/>
<polygon fill="black" stroke="black" points="1248.08,-85.5 1258.08,-82 1248.08,-78.5 1248.08,-85.5"/>
</g>
<!-- 1739458255008 -->
<g id="node3" class="node">
<title>1739458255008</title>
<polygon fill="white" stroke="black" points="324,-117 270,-117 270,-81 324,-81 324,-117"/>
<text text-anchor="middle" x="297" y="-95.9" font-family="Times New Roman,serif" font-size="12.00">a</text>
</g>
<!-- 1739458257456 -->
<g id="node20" class="node">
<title>1739458257456</title>
<ellipse fill="white" stroke="black" cx="387" cy="-171" rx="27" ry="27"/>
</g>
<!-- 1739458255008&#45;&gt;1739458257456 -->
<g id="edge1" class="edge">
<title>1739458255008&#45;&gt;1739458257456</title>
<path fill="none" stroke="black" d="M320.21,-117.17C331.32,-126.26 344.92,-137.39 356.87,-147.16"/>
<polygon fill="black" stroke="black" points="354.48,-149.74 364.44,-153.36 358.92,-144.32 354.48,-149.74"/>
</g>
<!-- 1739458252512 -->
<g id="node21" class="node">
<title>1739458252512</title>
<ellipse fill="white" stroke="black" cx="387" cy="-99" rx="27" ry="27"/>
</g>
<!-- 1739458255008&#45;&gt;1739458252512 -->
<g id="edge2" class="edge">
<title>1739458255008&#45;&gt;1739458252512</title>
<path fill="none" stroke="black" d="M324.4,-99C331.89,-99 340.18,-99 348.2,-99"/>
<polygon fill="black" stroke="black" points="348.1,-102.5 358.1,-99 348.1,-95.5 348.1,-102.5"/>
</g>
<!-- 1739458255824 -->
<g id="node25" class="node">
<title>1739458255824</title>
<ellipse fill="white" stroke="black" cx="387" cy="-27" rx="27" ry="27"/>
</g>
<!-- 1739458255008&#45;&gt;1739458255824 -->
<g id="edge3" class="edge">
<title>1739458255008&#45;&gt;1739458255824</title>
<path fill="none" stroke="black" d="M320.21,-80.83C331.32,-71.74 344.92,-60.61 356.87,-50.84"/>
<polygon fill="black" stroke="black" points="358.92,-53.68 364.44,-44.64 354.48,-48.26 358.92,-53.68"/>
</g>
<!-- 1739458264320 -->
<g id="node4" class="node">
<title>1739458264320</title>
<polygon fill="white" stroke="black" points="504,-188 450,-188 450,-152 504,-152 504,-188"/>
<text text-anchor="middle" x="477" y="-166.9" font-family="Times New Roman,serif" font-size="12.00">b</text>
</g>
<!-- 1739458254384 -->
<g id="node19" class="node">
<title>1739458254384</title>
<ellipse fill="white" stroke="black" cx="567" cy="-169" rx="27" ry="27"/>
</g>
<!-- 1739458264320&#45;&gt;1739458254384 -->
<g id="edge4" class="edge">
<title>1739458264320&#45;&gt;1739458254384</title>
<path fill="none" stroke="black" d="M504.4,-169.7C511.89,-169.61 520.18,-169.52 528.2,-169.43"/>
<polygon fill="black" stroke="black" points="528.14,-172.93 538.1,-169.32 528.06,-165.93 528.14,-172.93"/>
</g>
<!-- 1739458254048 -->
<g id="node5" class="node">
<title>1739458254048</title>
<polygon fill="white" stroke="black" points="1044,-172 990,-172 990,-136 1044,-136 1044,-172"/>
<text text-anchor="middle" x="1017" y="-150.9" font-family="Times New Roman,serif" font-size="12.00">d</text>
</g>
<!-- 1739458263024 -->
<g id="node18" class="node">
<title>1739458263024</title>
<ellipse fill="white" stroke="black" cx="1107" cy="-154" rx="27" ry="27"/>
</g>
<!-- 1739458254048&#45;&gt;1739458263024 -->
<g id="edge6" class="edge">
<title>1739458254048&#45;&gt;1739458263024</title>
<path fill="none" stroke="black" d="M1044.4,-154C1051.89,-154 1060.18,-154 1068.2,-154"/>
<polygon fill="black" stroke="black" points="1068.1,-157.5 1078.1,-154 1068.1,-150.5 1068.1,-157.5"/>
</g>
<!-- 1739458250928 -->
<g id="node6" class="node">
<title>1739458250928</title>
<polygon fill="black" stroke="black" points="144,-117 90,-117 90,-81 144,-81 144,-117"/>
</g>
<!-- 1739458252128 -->
<g id="node16" class="node">
<title>1739458252128</title>
<ellipse fill="white" stroke="black" cx="207" cy="-99" rx="27" ry="27"/>
</g>
<!-- 1739458250928&#45;&gt;1739458252128 -->
<g id="edge26" class="edge">
<title>1739458250928&#45;&gt;1739458252128</title>
<path fill="none" stroke="black" d="M144.4,-99C151.89,-99 160.18,-99 168.2,-99"/>
<polygon fill="black" stroke="black" points="168.1,-102.5 178.1,-99 168.1,-95.5 168.1,-102.5"/>
</g>
<!-- 1739458251312 -->
<g id="node7" class="node">
<title>1739458251312</title>
<polygon fill="black" stroke="black" points="864,-152 810,-152 810,-116 864,-116 864,-152"/>
</g>
<!-- 1739458260864 -->
<g id="node14" class="node">
<title>1739458260864</title>
<ellipse fill="white" stroke="black" cx="927" cy="-154" rx="27" ry="27"/>
</g>
<!-- 1739458251312&#45;&gt;1739458260864 -->
<g id="edge27" class="edge">
<title>1739458251312&#45;&gt;1739458260864</title>
<path fill="none" stroke="black" d="M864.4,-140C872.2,-141.77 880.88,-143.75 889.2,-145.64"/>
<polygon fill="black" stroke="black" points="888.22,-149 898.75,-147.81 889.77,-142.18 888.22,-149"/>
</g>
<!-- 1739458261200 -->
<g id="node22" class="node">
<title>1739458261200</title>
<ellipse fill="white" stroke="black" cx="927" cy="-82" rx="27" ry="27"/>
</g>
<!-- 1739458251312&#45;&gt;1739458261200 -->
<g id="edge28" class="edge">
<title>1739458251312&#45;&gt;1739458261200</title>
<path fill="none" stroke="black" d="M864.4,-118.4C873.57,-112.98 883.96,-106.84 893.56,-101.17"/>
<polygon fill="black" stroke="black" points="895.06,-104.35 901.89,-96.25 891.5,-98.32 895.06,-104.35"/>
</g>
<!-- 1739458258224 -->
<g id="node8" class="node">
<title>1739458258224</title>
<polygon fill="white" stroke="black" points="684,-187 630,-187 630,-151 684,-151 684,-187"/>
<text text-anchor="middle" x="657" y="-165.9" font-family="Times New Roman,serif" font-size="12.00">c</text>
</g>
<!-- 1739458258896 -->
<g id="node13" class="node">
<title>1739458258896</title>
<ellipse fill="white" stroke="black" cx="747" cy="-167" rx="27" ry="27"/>
</g>
<!-- 1739458258224&#45;&gt;1739458258896 -->
<g id="edge5" class="edge">
<title>1739458258224&#45;&gt;1739458258896</title>
<path fill="none" stroke="black" d="M684.4,-168.4C691.89,-168.23 700.18,-168.04 708.2,-167.86"/>
<polygon fill="black" stroke="black" points="708.18,-171.36 718.1,-167.63 708.03,-164.36 708.18,-171.36"/>
</g>
<!-- 1739458257072 -->
<g id="node9" class="node">
<title>1739458257072</title>
<polygon fill="white" stroke="black" points="1044,-100 990,-100 990,-64 1044,-64 1044,-100"/>
<text text-anchor="middle" x="1017" y="-78.9" font-family="Times New Roman,serif" font-size="12.00">f</text>
</g>
<!-- 1739458264992 -->
<g id="node23" class="node">
<title>1739458264992</title>
<ellipse fill="white" stroke="black" cx="1107" cy="-82" rx="27" ry="27"/>
</g>
<!-- 1739458257072&#45;&gt;1739458264992 -->
<g id="edge9" class="edge">
<title>1739458257072&#45;&gt;1739458264992</title>
<path fill="none" stroke="black" d="M1044.4,-82C1051.89,-82 1060.18,-82 1068.2,-82"/>
<polygon fill="black" stroke="black" points="1068.1,-85.5 1078.1,-82 1068.1,-78.5 1068.1,-85.5"/>
</g>
<!-- 1739458252272 -->
<g id="node10" class="node">
<title>1739458252272</title>
<polygon fill="white" stroke="black" points="684,-45 630,-45 630,-9 684,-9 684,-45"/>
<text text-anchor="middle" x="657" y="-23.9" font-family="Times New Roman,serif" font-size="12.00">h</text>
</g>
<!-- 1739458253280 -->
<g id="node15" class="node">
<title>1739458253280</title>
<ellipse fill="white" stroke="black" cx="837" cy="-27" rx="27" ry="27"/>
</g>
<!-- 1739458252272&#45;&gt;1739458253280 -->
<g id="edge11" class="edge">
<title>1739458252272&#45;&gt;1739458253280</title>
<path fill="none" stroke="black" d="M684.26,-27C714.37,-27 763.96,-27 798.21,-27"/>
<polygon fill="black" stroke="black" points="798.11,-30.5 808.11,-27 798.11,-23.5 798.11,-30.5"/>
</g>
<!-- 1739458255056 -->
<g id="node11" class="node">
<title>1739458255056</title>
<polygon fill="white" stroke="black" points="504,-45 450,-45 450,-9 504,-9 504,-45"/>
<text text-anchor="middle" x="477" y="-23.9" font-family="Times New Roman,serif" font-size="12.00">g</text>
</g>
<!-- 1739458259760 -->
<g id="node17" class="node">
<title>1739458259760</title>
<ellipse fill="white" stroke="black" cx="567" cy="-27" rx="27" ry="27"/>
</g>
<!-- 1739458255056&#45;&gt;1739458259760 -->
<g id="edge10" class="edge">
<title>1739458255056&#45;&gt;1739458259760</title>
<path fill="none" stroke="black" d="M504.4,-27C511.89,-27 520.18,-27 528.2,-27"/>
<polygon fill="black" stroke="black" points="528.1,-30.5 538.1,-27 528.1,-23.5 528.1,-30.5"/>
</g>
<!-- 1739458253760 -->
<g id="node12" class="node">
<title>1739458253760</title>
<ellipse fill="white" stroke="black" cx="27" cy="-99" rx="27" ry="27"/>
<text text-anchor="start" x="16" y="-90.3" font-family="Times New Roman,serif" font-size="34.00">â—</text>
</g>
<!-- 1739458253760&#45;&gt;1739458250928 -->
<g id="edge25" class="edge">
<title>1739458253760&#45;&gt;1739458250928</title>
<path fill="none" stroke="black" d="M54.4,-99C61.89,-99 70.18,-99 78.2,-99"/>
<polygon fill="black" stroke="black" points="78.1,-102.5 88.1,-99 78.1,-95.5 78.1,-102.5"/>
</g>
<!-- 1739458258896&#45;&gt;1739458251312 -->
<g id="edge12" class="edge">
<title>1739458258896&#45;&gt;1739458251312</title>
<path fill="none" stroke="black" d="M772.51,-157.81C780.76,-154.72 790.14,-151.2 799.12,-147.83"/>
<polygon fill="black" stroke="black" points="800.22,-151.16 808.35,-144.37 797.76,-144.6 800.22,-151.16"/>
</g>
<!-- 1739458260864&#45;&gt;1739458254048 -->
<g id="edge13" class="edge">
<title>1739458260864&#45;&gt;1739458254048</title>
<path fill="none" stroke="black" d="M954.4,-154C961.89,-154 970.18,-154 978.2,-154"/>
<polygon fill="black" stroke="black" points="978.1,-157.5 988.1,-154 978.1,-150.5 978.1,-157.5"/>
</g>
<!-- 1739458253280&#45;&gt;1739458256448 -->
<g id="edge14" class="edge">
<title>1739458253280&#45;&gt;1739458256448</title>
<path fill="none" stroke="black" d="M864.04,-24.75C916.47,-21.06 1037.93,-16.8 1134,-46 1143.06,-48.75 1152.21,-53.05 1160.6,-57.73"/>
<polygon fill="black" stroke="black" points="1158.7,-60.67 1169.09,-62.77 1162.28,-54.66 1158.7,-60.67"/>
</g>
<!-- 1739458252128&#45;&gt;1739458255008 -->
<g id="edge15" class="edge">
<title>1739458252128&#45;&gt;1739458255008</title>
<path fill="none" stroke="black" d="M234.4,-99C241.89,-99 250.18,-99 258.2,-99"/>
<polygon fill="black" stroke="black" points="258.1,-102.5 268.1,-99 258.1,-95.5 258.1,-102.5"/>
</g>
<!-- 1739458259760&#45;&gt;1739458252272 -->
<g id="edge16" class="edge">
<title>1739458259760&#45;&gt;1739458252272</title>
<path fill="none" stroke="black" d="M594.4,-27C601.89,-27 610.18,-27 618.2,-27"/>
<polygon fill="black" stroke="black" points="618.1,-30.5 628.1,-27 618.1,-23.5 618.1,-30.5"/>
</g>
<!-- 1739458263024&#45;&gt;1739458256448 -->
<g id="edge17" class="edge">
<title>1739458263024&#45;&gt;1739458256448</title>
<path fill="none" stroke="black" d="M1128.41,-137.3C1139.17,-128.5 1152.61,-117.5 1164.66,-107.64"/>
<polygon fill="black" stroke="black" points="1166.84,-110.38 1172.37,-101.34 1162.41,-104.96 1166.84,-110.38"/>
</g>
<!-- 1739458254384&#45;&gt;1739458258224 -->
<g id="edge18" class="edge">
<title>1739458254384&#45;&gt;1739458258224</title>
<path fill="none" stroke="black" d="M594.4,-169C601.89,-169 610.18,-169 618.2,-169"/>
<polygon fill="black" stroke="black" points="618.1,-172.5 628.1,-169 618.1,-165.5 618.1,-172.5"/>
</g>
<!-- 1739458257456&#45;&gt;1739458264320 -->
<g id="edge19" class="edge">
<title>1739458257456&#45;&gt;1739458264320</title>
<path fill="none" stroke="black" d="M414.4,-170.7C421.89,-170.61 430.18,-170.52 438.2,-170.43"/>
<polygon fill="black" stroke="black" points="438.14,-173.93 448.1,-170.32 438.06,-166.93 438.14,-173.93"/>
</g>
<!-- 1739458252512&#45;&gt;1739458252032 -->
<g id="edge20" class="edge">
<title>1739458252512&#45;&gt;1739458252032</title>
<path fill="none" stroke="black" d="M414.4,-99.6C421.89,-99.77 430.18,-99.96 438.2,-100.14"/>
<polygon fill="black" stroke="black" points="438.03,-103.64 448.1,-100.37 438.18,-96.64 438.03,-103.64"/>
</g>
<!-- 1739458261200&#45;&gt;1739458257072 -->
<g id="edge21" class="edge">
<title>1739458261200&#45;&gt;1739458257072</title>
<path fill="none" stroke="black" d="M954.4,-82C961.89,-82 970.18,-82 978.2,-82"/>
<polygon fill="black" stroke="black" points="978.1,-85.5 988.1,-82 978.1,-78.5 978.1,-85.5"/>
</g>
<!-- 1739458264992&#45;&gt;1739458256448 -->
<g id="edge22" class="edge">
<title>1739458264992&#45;&gt;1739458256448</title>
<path fill="none" stroke="black" d="M1134.4,-82C1141.89,-82 1150.18,-82 1158.2,-82"/>
<polygon fill="black" stroke="black" points="1158.1,-85.5 1168.1,-82 1158.1,-78.5 1158.1,-85.5"/>
</g>
<!-- 1739458259376&#45;&gt;1739458251312 -->
<g id="edge23" class="edge">
<title>1739458259376&#45;&gt;1739458251312</title>
<path fill="none" stroke="black" d="M683.88,-110.07C714.03,-114.81 764.08,-122.69 798.49,-128.1"/>
<polygon fill="black" stroke="black" points="797.59,-131.5 808.01,-129.6 798.68,-124.59 797.59,-131.5"/>
</g>
<!-- 1739458255824&#45;&gt;1739458255056 -->
<g id="edge24" class="edge">
<title>1739458255824&#45;&gt;1739458255056</title>
<path fill="none" stroke="black" d="M414.4,-27C421.89,-27 430.18,-27 438.2,-27"/>
<polygon fill="black" stroke="black" points="438.1,-30.5 448.1,-27 438.1,-23.5 438.1,-30.5"/>
</g>
</g>
</svg>
