<?xml version="1.0" encoding="UTF-8" standalone="no"?>
<!DOCTYPE svg PUBLIC "-//W3C//DTD SVG 1.1//EN"
 "http://www.w3.org/Graphics/SVG/1.1/DTD/svg11.dtd">
<!-- Generated by graphviz version 7.0.3 (20221126.0506)
 -->
<!-- Title: new_petri_net Pages: 1 -->
<svg width="1510pt" height="206pt"
 viewBox="0.00 0.00 1510.00 206.00" xmlns="http://www.w3.org/2000/svg" xmlns:xlink="http://www.w3.org/1999/xlink">
<g id="graph0" class="graph" transform="scale(1 1) rotate(0) translate(4 202)">
<title>new_petri_net</title>
<polygon fill="white" stroke="none" points="-4,4 -4,-202 1506,-202 1506,4 -4,4"/>
<!-- 2391552273248 -->
<g id="node1" class="node">
<title>2391552273248</title>
<polygon fill="white" stroke="black" points="1044,-62 990,-62 990,-26 1044,-26 1044,-62"/>
<text text-anchor="middle" x="1017" y="-40.9" font-family="Times New Roman,serif" font-size="12.00">d</text>
</g>
<!-- 2391555646624 -->
<g id="node23" class="node">
<title>2391555646624</title>
<ellipse fill="white" stroke="black" cx="1107" cy="-44" rx="27" ry="27"/>
</g>
<!-- 2391552273248&#45;&gt;2391555646624 -->
<g id="edge6" class="edge">
<title>2391552273248&#45;&gt;2391555646624</title>
<path fill="none" stroke="black" d="M1044.4,-44C1051.89,-44 1060.18,-44 1068.2,-44"/>
<polygon fill="black" stroke="black" points="1068.1,-47.5 1078.1,-44 1068.1,-40.5 1068.1,-47.5"/>
</g>
<!-- 2391552269216 -->
<g id="node2" class="node">
<title>2391552269216</title>
<polygon fill="white" stroke="black" points="1044,-134 990,-134 990,-98 1044,-98 1044,-134"/>
<text text-anchor="middle" x="1017" y="-112.9" font-family="Times New Roman,serif" font-size="12.00">f</text>
</g>
<!-- 2391555646672 -->
<g id="node22" class="node">
<title>2391555646672</title>
<ellipse fill="white" stroke="black" cx="1107" cy="-116" rx="27" ry="27"/>
</g>
<!-- 2391552269216&#45;&gt;2391555646672 -->
<g id="edge9" class="edge">
<title>2391552269216&#45;&gt;2391555646672</title>
<path fill="none" stroke="black" d="M1044.4,-116C1051.89,-116 1060.18,-116 1068.2,-116"/>
<polygon fill="black" stroke="black" points="1068.1,-119.5 1078.1,-116 1068.1,-112.5 1068.1,-119.5"/>
</g>
<!-- 2391552277184 -->
<g id="node3" class="node">
<title>2391552277184</title>
<polygon fill="white" stroke="black" points="684,-45 630,-45 630,-9 684,-9 684,-45"/>
<text text-anchor="middle" x="657" y="-23.9" font-family="Times New Roman,serif" font-size="12.00">c</text>
</g>
<!-- 2391555642784 -->
<g id="node14" class="node">
<title>2391555642784</title>
<ellipse fill="white" stroke="black" cx="747" cy="-27" rx="27" ry="27"/>
</g>
<!-- 2391552277184&#45;&gt;2391555642784 -->
<g id="edge5" class="edge">
<title>2391552277184&#45;&gt;2391555642784</title>
<path fill="none" stroke="black" d="M684.4,-27C691.89,-27 700.18,-27 708.2,-27"/>
<polygon fill="black" stroke="black" points="708.1,-30.5 718.1,-27 708.1,-23.5 708.1,-30.5"/>
</g>
<!-- 2391552268928 -->
<g id="node4" class="node">
<title>2391552268928</title>
<polygon fill="black" stroke="black" points="864,-89 810,-89 810,-53 864,-53 864,-89"/>
</g>
<!-- 2391555649648 -->
<g id="node21" class="node">
<title>2391555649648</title>
<ellipse fill="white" stroke="black" cx="927" cy="-116" rx="27" ry="27"/>
</g>
<!-- 2391552268928&#45;&gt;2391555649648 -->
<g id="edge27" class="edge">
<title>2391552268928&#45;&gt;2391555649648</title>
<path fill="none" stroke="black" d="M864.4,-84.5C873.23,-89.02 883.19,-94.11 892.49,-98.86"/>
<polygon fill="black" stroke="black" points="890.76,-101.91 901.26,-103.35 893.95,-95.68 890.76,-101.91"/>
</g>
<!-- 2391555649696 -->
<g id="node24" class="node">
<title>2391555649696</title>
<ellipse fill="white" stroke="black" cx="927" cy="-44" rx="27" ry="27"/>
</g>
<!-- 2391552268928&#45;&gt;2391555649696 -->
<g id="edge28" class="edge">
<title>2391552268928&#45;&gt;2391555649696</title>
<path fill="none" stroke="black" d="M864.4,-62.9C872.43,-60.44 881.39,-57.69 889.94,-55.06"/>
<polygon fill="black" stroke="black" points="890.84,-58.45 899.38,-52.17 888.79,-51.76 890.84,-58.45"/>
</g>
<!-- 2391552277664 -->
<g id="node5" class="node">
<title>2391552277664</title>
<polygon fill="black" stroke="black" points="1404,-134 1350,-134 1350,-98 1404,-98 1404,-134"/>
</g>
<!-- 2391555642448 -->
<g id="node26" class="node">
<title>2391555642448</title>
<ellipse fill="white" stroke="black" cx="1471" cy="-116" rx="27" ry="27"/>
<ellipse fill="none" stroke="black" cx="1471" cy="-116" rx="31" ry="31"/>
<text text-anchor="start" x="1461" y="-107.9" font-family="Times New Roman,serif" font-size="32.00">â– </text>
</g>
<!-- 2391552277664&#45;&gt;2391555642448 -->
<g id="edge8" class="edge">
<title>2391552277664&#45;&gt;2391555642448</title>
<path fill="none" stroke="black" d="M1404.12,-116C1411.63,-116 1420.01,-116 1428.22,-116"/>
<polygon fill="black" stroke="black" points="1428.08,-119.5 1438.08,-116 1428.08,-112.5 1428.08,-119.5"/>
</g>
<!-- 2391552270752 -->
<g id="node6" class="node">
<title>2391552270752</title>
<polygon fill="black" stroke="black" points="144,-117 90,-117 90,-81 144,-81 144,-117"/>
</g>
<!-- 2391552263312 -->
<g id="node15" class="node">
<title>2391552263312</title>
<ellipse fill="white" stroke="black" cx="207" cy="-99" rx="27" ry="27"/>
</g>
<!-- 2391552270752&#45;&gt;2391552263312 -->
<g id="edge26" class="edge">
<title>2391552270752&#45;&gt;2391552263312</title>
<path fill="none" stroke="black" d="M144.4,-99C151.89,-99 160.18,-99 168.2,-99"/>
<polygon fill="black" stroke="black" points="168.1,-102.5 178.1,-99 168.1,-95.5 168.1,-102.5"/>
</g>
<!-- 2391552269312 -->
<g id="node7" class="node">
<title>2391552269312</title>
<polygon fill="white" stroke="black" points="1224,-134 1170,-134 1170,-98 1224,-98 1224,-134"/>
<text text-anchor="middle" x="1197" y="-112.9" font-family="Times New Roman,serif" font-size="12.00">h</text>
</g>
<!-- 2391555643072 -->
<g id="node16" class="node">
<title>2391555643072</title>
<ellipse fill="white" stroke="black" cx="1287" cy="-116" rx="27" ry="27"/>
</g>
<!-- 2391552269312&#45;&gt;2391555643072 -->
<g id="edge11" class="edge">
<title>2391552269312&#45;&gt;2391555643072</title>
<path fill="none" stroke="black" d="M1224.4,-116C1231.89,-116 1240.18,-116 1248.2,-116"/>
<polygon fill="black" stroke="black" points="1248.1,-119.5 1258.1,-116 1248.1,-112.5 1248.1,-119.5"/>
</g>
<!-- 2391552277808 -->
<g id="node8" class="node">
<title>2391552277808</title>
<polygon fill="white" stroke="black" points="324,-117 270,-117 270,-81 324,-81 324,-117"/>
<text text-anchor="middle" x="297" y="-95.9" font-family="Times New Roman,serif" font-size="12.00">a</text>
</g>
<!-- 2391552276944 -->
<g id="node13" class="node">
<title>2391552276944</title>
<ellipse fill="white" stroke="black" cx="387" cy="-171" rx="27" ry="27"/>
</g>
<!-- 2391552277808&#45;&gt;2391552276944 -->
<g id="edge1" class="edge">
<title>2391552277808&#45;&gt;2391552276944</title>
<path fill="none" stroke="black" d="M320.21,-117.17C331.32,-126.26 344.92,-137.39 356.87,-147.16"/>
<polygon fill="black" stroke="black" points="354.48,-149.74 364.44,-153.36 358.92,-144.32 354.48,-149.74"/>
</g>
<!-- 2391552271664 -->
<g id="node19" class="node">
<title>2391552271664</title>
<ellipse fill="white" stroke="black" cx="387" cy="-99" rx="27" ry="27"/>
</g>
<!-- 2391552277808&#45;&gt;2391552271664 -->
<g id="edge2" class="edge">
<title>2391552277808&#45;&gt;2391552271664</title>
<path fill="none" stroke="black" d="M324.4,-99C331.89,-99 340.18,-99 348.2,-99"/>
<polygon fill="black" stroke="black" points="348.1,-102.5 358.1,-99 348.1,-95.5 348.1,-102.5"/>
</g>
<!-- 2391555648304 -->
<g id="node20" class="node">
<title>2391555648304</title>
<ellipse fill="white" stroke="black" cx="387" cy="-27" rx="27" ry="27"/>
</g>
<!-- 2391552277808&#45;&gt;2391555648304 -->
<g id="edge3" class="edge">
<title>2391552277808&#45;&gt;2391555648304</title>
<path fill="none" stroke="black" d="M320.21,-80.83C331.32,-71.74 344.92,-60.61 356.87,-50.84"/>
<polygon fill="black" stroke="black" points="358.92,-53.68 364.44,-44.64 354.48,-48.26 358.92,-53.68"/>
</g>
<!-- 2391552273296 -->
<g id="node9" class="node">
<title>2391552273296</title>
<polygon fill="white" stroke="black" points="504,-45 450,-45 450,-9 504,-9 504,-45"/>
<text text-anchor="middle" x="477" y="-23.9" font-family="Times New Roman,serif" font-size="12.00">b</text>
</g>
<!-- 2391555645136 -->
<g id="node17" class="node">
<title>2391555645136</title>
<ellipse fill="white" stroke="black" cx="567" cy="-27" rx="27" ry="27"/>
</g>
<!-- 2391552273296&#45;&gt;2391555645136 -->
<g id="edge4" class="edge">
<title>2391552273296&#45;&gt;2391555645136</title>
<path fill="none" stroke="black" d="M504.4,-27C511.89,-27 520.18,-27 528.2,-27"/>
<polygon fill="black" stroke="black" points="528.1,-30.5 538.1,-27 528.1,-23.5 528.1,-30.5"/>
</g>
<!-- 2391552277712 -->
<g id="node10" class="node">
<title>2391552277712</title>
<polygon fill="white" stroke="black" points="504,-117 450,-117 450,-81 504,-81 504,-117"/>
<text text-anchor="middle" x="477" y="-95.9" font-family="Times New Roman,serif" font-size="12.00">e</text>
</g>
<!-- 2391552276992 -->
<g id="node25" class="node">
<title>2391552276992</title>
<ellipse fill="white" stroke="black" cx="747" cy="-99" rx="27" ry="27"/>
</g>
<!-- 2391552277712&#45;&gt;2391552276992 -->
<g id="edge7" class="edge">
<title>2391552277712&#45;&gt;2391552276992</title>
<path fill="none" stroke="black" d="M504.18,-99C551.92,-99 653.23,-99 708.36,-99"/>
<polygon fill="black" stroke="black" points="708.2,-102.5 718.2,-99 708.2,-95.5 708.2,-102.5"/>
</g>
<!-- 2391552271376 -->
<g id="node11" class="node">
<title>2391552271376</title>
<polygon fill="white" stroke="black" points="504,-189 450,-189 450,-153 504,-153 504,-189"/>
<text text-anchor="middle" x="477" y="-167.9" font-family="Times New Roman,serif" font-size="12.00">g</text>
</g>
<!-- 2391555646960 -->
<g id="node18" class="node">
<title>2391555646960</title>
<ellipse fill="white" stroke="black" cx="657" cy="-171" rx="27" ry="27"/>
</g>
<!-- 2391552271376&#45;&gt;2391555646960 -->
<g id="edge10" class="edge">
<title>2391552271376&#45;&gt;2391555646960</title>
<path fill="none" stroke="black" d="M504.26,-171C534.37,-171 583.96,-171 618.21,-171"/>
<polygon fill="black" stroke="black" points="618.11,-174.5 628.11,-171 618.11,-167.5 618.11,-174.5"/>
</g>
<!-- 2391552277472 -->
<g id="node12" class="node">
<title>2391552277472</title>
<ellipse fill="white" stroke="black" cx="27" cy="-99" rx="27" ry="27"/>
<text text-anchor="start" x="16" y="-90.3" font-family="Times New Roman,serif" font-size="34.00">â—</text>
</g>
<!-- 2391552277472&#45;&gt;2391552270752 -->
<g id="edge25" class="edge">
<title>2391552277472&#45;&gt;2391552270752</title>
<path fill="none" stroke="black" d="M54.4,-99C61.89,-99 70.18,-99 78.2,-99"/>
<polygon fill="black" stroke="black" points="78.1,-102.5 88.1,-99 78.1,-95.5 78.1,-102.5"/>
</g>
<!-- 2391552276944&#45;&gt;2391552271376 -->
<g id="edge12" class="edge">
<title>2391552276944&#45;&gt;2391552271376</title>
<path fill="none" stroke="black" d="M414.4,-171C421.89,-171 430.18,-171 438.2,-171"/>
<polygon fill="black" stroke="black" points="438.1,-174.5 448.1,-171 438.1,-167.5 438.1,-174.5"/>
</g>
<!-- 2391555642784&#45;&gt;2391552268928 -->
<g id="edge13" class="edge">
<title>2391555642784&#45;&gt;2391552268928</title>
<path fill="none" stroke="black" d="M771.58,-38.79C780.09,-43.05 789.91,-47.95 799.27,-52.64"/>
<polygon fill="black" stroke="black" points="797.69,-55.76 808.2,-57.1 800.83,-49.5 797.69,-55.76"/>
</g>
<!-- 2391552263312&#45;&gt;2391552277808 -->
<g id="edge14" class="edge">
<title>2391552263312&#45;&gt;2391552277808</title>
<path fill="none" stroke="black" d="M234.4,-99C241.89,-99 250.18,-99 258.2,-99"/>
<polygon fill="black" stroke="black" points="258.1,-102.5 268.1,-99 258.1,-95.5 258.1,-102.5"/>
</g>
<!-- 2391555643072&#45;&gt;2391552277664 -->
<g id="edge15" class="edge">
<title>2391555643072&#45;&gt;2391552277664</title>
<path fill="none" stroke="black" d="M1314.4,-116C1321.89,-116 1330.18,-116 1338.2,-116"/>
<polygon fill="black" stroke="black" points="1338.1,-119.5 1348.1,-116 1338.1,-112.5 1338.1,-119.5"/>
</g>
<!-- 2391555645136&#45;&gt;2391552277184 -->
<g id="edge16" class="edge">
<title>2391555645136&#45;&gt;2391552277184</title>
<path fill="none" stroke="black" d="M594.4,-27C601.89,-27 610.18,-27 618.2,-27"/>
<polygon fill="black" stroke="black" points="618.1,-30.5 628.1,-27 618.1,-23.5 618.1,-30.5"/>
</g>
<!-- 2391555646960&#45;&gt;2391552269312 -->
<g id="edge17" class="edge">
<title>2391555646960&#45;&gt;2391552269312</title>
<path fill="none" stroke="black" d="M684.24,-171C718.96,-171 782.07,-171 836,-171 836,-171 836,-171 1018,-171 1070.24,-171 1084.82,-169.63 1134,-152 1142.75,-148.86 1151.66,-144.5 1159.91,-139.88"/>
<polygon fill="black" stroke="black" points="1161.43,-143.05 1168.27,-134.96 1157.88,-137.02 1161.43,-143.05"/>
</g>
<!-- 2391552271664&#45;&gt;2391552277712 -->
<g id="edge18" class="edge">
<title>2391552271664&#45;&gt;2391552277712</title>
<path fill="none" stroke="black" d="M414.4,-99C421.89,-99 430.18,-99 438.2,-99"/>
<polygon fill="black" stroke="black" points="438.1,-102.5 448.1,-99 438.1,-95.5 438.1,-102.5"/>
</g>
<!-- 2391555648304&#45;&gt;2391552273296 -->
<g id="edge19" class="edge">
<title>2391555648304&#45;&gt;2391552273296</title>
<path fill="none" stroke="black" d="M414.4,-27C421.89,-27 430.18,-27 438.2,-27"/>
<polygon fill="black" stroke="black" points="438.1,-30.5 448.1,-27 438.1,-23.5 438.1,-30.5"/>
</g>
<!-- 2391555649648&#45;&gt;2391552269216 -->
<g id="edge20" class="edge">
<title>2391555649648&#45;&gt;2391552269216</title>
<path fill="none" stroke="black" d="M954.4,-116C961.89,-116 970.18,-116 978.2,-116"/>
<polygon fill="black" stroke="black" points="978.1,-119.5 988.1,-116 978.1,-112.5 978.1,-119.5"/>
</g>
<!-- 2391555646672&#45;&gt;2391552269312 -->
<g id="edge21" class="edge">
<title>2391555646672&#45;&gt;2391552269312</title>
<path fill="none" stroke="black" d="M1134.4,-116C1141.89,-116 1150.18,-116 1158.2,-116"/>
<polygon fill="black" stroke="black" points="1158.1,-119.5 1168.1,-116 1158.1,-112.5 1158.1,-119.5"/>
</g>
<!-- 2391555646624&#45;&gt;2391552269312 -->
<g id="edge22" class="edge">
<title>2391555646624&#45;&gt;2391552269312</title>
<path fill="none" stroke="black" d="M1128.41,-60.7C1139.17,-69.5 1152.61,-80.5 1164.66,-90.36"/>
<polygon fill="black" stroke="black" points="1162.41,-93.04 1172.37,-96.66 1166.84,-87.62 1162.41,-93.04"/>
</g>
<!-- 2391555649696&#45;&gt;2391552273248 -->
<g id="edge23" class="edge">
<title>2391555649696&#45;&gt;2391552273248</title>
<path fill="none" stroke="black" d="M954.4,-44C961.89,-44 970.18,-44 978.2,-44"/>
<polygon fill="black" stroke="black" points="978.1,-47.5 988.1,-44 978.1,-40.5 978.1,-47.5"/>
</g>
<!-- 2391552276992&#45;&gt;2391552268928 -->
<g id="edge24" class="edge">
<title>2391552276992&#45;&gt;2391552268928</title>
<path fill="none" stroke="black" d="M772.98,-91.05C781.06,-88.48 790.19,-85.58 798.95,-82.79"/>
<polygon fill="black" stroke="black" points="799.82,-86.19 808.29,-79.82 797.69,-79.52 799.82,-86.19"/>
</g>
</g>
</svg>
