<?xml version="1.0" encoding="UTF-8" standalone="no"?>
<!DOCTYPE svg PUBLIC "-//W3C//DTD SVG 1.1//EN"
 "http://www.w3.org/Graphics/SVG/1.1/DTD/svg11.dtd">
<!-- Generated by graphviz version 7.0.3 (20221126.0506)
 -->
<!-- Title: new_petri_net Pages: 1 -->
<svg width="1330pt" height="206pt"
 viewBox="0.00 0.00 1330.00 206.00" xmlns="http://www.w3.org/2000/svg" xmlns:xlink="http://www.w3.org/1999/xlink">
<g id="graph0" class="graph" transform="scale(1 1) rotate(0) translate(4 202)">
<title>new_petri_net</title>
<polygon fill="white" stroke="none" points="-4,4 -4,-202 1326,-202 1326,4 -4,4"/>
<!-- 2391555316448 -->
<g id="node1" class="node">
<title>2391555316448</title>
<polygon fill="white" stroke="black" points="504,-189 450,-189 450,-153 504,-153 504,-189"/>
<text text-anchor="middle" x="477" y="-167.9" font-family="Times New Roman,serif" font-size="12.00">f</text>
</g>
<!-- 2391555311504 -->
<g id="node20" class="node">
<title>2391555311504</title>
<ellipse fill="white" stroke="black" cx="567" cy="-171" rx="27" ry="27"/>
</g>
<!-- 2391555316448&#45;&gt;2391555311504 -->
<g id="edge9" class="edge">
<title>2391555316448&#45;&gt;2391555311504</title>
<path fill="none" stroke="black" d="M504.4,-171C511.89,-171 520.18,-171 528.2,-171"/>
<polygon fill="black" stroke="black" points="528.1,-174.5 538.1,-171 528.1,-167.5 528.1,-174.5"/>
</g>
<!-- 2391555315968 -->
<g id="node2" class="node">
<title>2391555315968</title>
<polygon fill="white" stroke="black" points="1044,-148 990,-148 990,-112 1044,-112 1044,-148"/>
<text text-anchor="middle" x="1017" y="-126.9" font-family="Times New Roman,serif" font-size="12.00">h</text>
</g>
<!-- 2391553328416 -->
<g id="node15" class="node">
<title>2391553328416</title>
<ellipse fill="white" stroke="black" cx="1107" cy="-130" rx="27" ry="27"/>
</g>
<!-- 2391555315968&#45;&gt;2391553328416 -->
<g id="edge11" class="edge">
<title>2391555315968&#45;&gt;2391553328416</title>
<path fill="none" stroke="black" d="M1044.4,-130C1051.89,-130 1060.18,-130 1068.2,-130"/>
<polygon fill="black" stroke="black" points="1068.1,-133.5 1078.1,-130 1068.1,-126.5 1068.1,-133.5"/>
</g>
<!-- 2391555318080 -->
<g id="node3" class="node">
<title>2391555318080</title>
<polygon fill="white" stroke="black" points="684,-117 630,-117 630,-81 684,-81 684,-117"/>
<text text-anchor="middle" x="657" y="-95.9" font-family="Times New Roman,serif" font-size="12.00">c</text>
</g>
<!-- 2391553335616 -->
<g id="node12" class="node">
<title>2391553335616</title>
<ellipse fill="white" stroke="black" cx="747" cy="-99" rx="27" ry="27"/>
</g>
<!-- 2391555318080&#45;&gt;2391553335616 -->
<g id="edge5" class="edge">
<title>2391555318080&#45;&gt;2391553335616</title>
<path fill="none" stroke="black" d="M684.4,-99C691.89,-99 700.18,-99 708.2,-99"/>
<polygon fill="black" stroke="black" points="708.1,-102.5 718.1,-99 708.1,-95.5 708.1,-102.5"/>
</g>
<!-- 2391555312992 -->
<g id="node4" class="node">
<title>2391555312992</title>
<polygon fill="white" stroke="black" points="504,-47 450,-47 450,-11 504,-11 504,-47"/>
<text text-anchor="middle" x="477" y="-25.9" font-family="Times New Roman,serif" font-size="12.00">e</text>
</g>
<!-- 2391559417920 -->
<g id="node17" class="node">
<title>2391559417920</title>
<ellipse fill="white" stroke="black" cx="657" cy="-35" rx="27" ry="27"/>
</g>
<!-- 2391555312992&#45;&gt;2391559417920 -->
<g id="edge7" class="edge">
<title>2391555312992&#45;&gt;2391559417920</title>
<path fill="none" stroke="black" d="M504.26,-29.89C534.37,-30.9 583.96,-32.57 618.21,-33.73"/>
<polygon fill="black" stroke="black" points="618,-37.22 628.12,-34.06 618.24,-30.23 618,-37.22"/>
</g>
<!-- 2391555324272 -->
<g id="node5" class="node">
<title>2391555324272</title>
<polygon fill="black" stroke="black" points="144,-117 90,-117 90,-81 144,-81 144,-117"/>
</g>
<!-- 2391553335760 -->
<g id="node14" class="node">
<title>2391553335760</title>
<ellipse fill="white" stroke="black" cx="207" cy="-99" rx="27" ry="27"/>
</g>
<!-- 2391555324272&#45;&gt;2391553335760 -->
<g id="edge24" class="edge">
<title>2391555324272&#45;&gt;2391553335760</title>
<path fill="none" stroke="black" d="M144.4,-99C151.89,-99 160.18,-99 168.2,-99"/>
<polygon fill="black" stroke="black" points="168.1,-102.5 178.1,-99 168.1,-95.5 168.1,-102.5"/>
</g>
<!-- 2391555319952 -->
<g id="node6" class="node">
<title>2391555319952</title>
<polygon fill="black" stroke="black" points="1224,-148 1170,-148 1170,-112 1224,-112 1224,-148"/>
</g>
<!-- 2391555310400 -->
<g id="node23" class="node">
<title>2391555310400</title>
<ellipse fill="white" stroke="black" cx="1291" cy="-130" rx="27" ry="27"/>
<ellipse fill="none" stroke="black" cx="1291" cy="-130" rx="31" ry="31"/>
<text text-anchor="start" x="1281" y="-121.9" font-family="Times New Roman,serif" font-size="32.00">â– </text>
</g>
<!-- 2391555319952&#45;&gt;2391555310400 -->
<g id="edge8" class="edge">
<title>2391555319952&#45;&gt;2391555310400</title>
<path fill="none" stroke="black" d="M1224.12,-130C1231.63,-130 1240.01,-130 1248.22,-130"/>
<polygon fill="black" stroke="black" points="1248.08,-133.5 1258.08,-130 1248.08,-126.5 1248.08,-133.5"/>
</g>
<!-- 2391555324656 -->
<g id="node7" class="node">
<title>2391555324656</title>
<polygon fill="white" stroke="black" points="324,-117 270,-117 270,-81 324,-81 324,-117"/>
<text text-anchor="middle" x="297" y="-95.9" font-family="Times New Roman,serif" font-size="12.00">a</text>
</g>
<!-- 2391553334992 -->
<g id="node16" class="node">
<title>2391553334992</title>
<ellipse fill="white" stroke="black" cx="387" cy="-171" rx="27" ry="27"/>
</g>
<!-- 2391555324656&#45;&gt;2391553334992 -->
<g id="edge1" class="edge">
<title>2391555324656&#45;&gt;2391553334992</title>
<path fill="none" stroke="black" d="M320.21,-117.17C331.32,-126.26 344.92,-137.39 356.87,-147.16"/>
<polygon fill="black" stroke="black" points="354.48,-149.74 364.44,-153.36 358.92,-144.32 354.48,-149.74"/>
</g>
<!-- 2391555322112 -->
<g id="node18" class="node">
<title>2391555322112</title>
<ellipse fill="white" stroke="black" cx="387" cy="-99" rx="27" ry="27"/>
</g>
<!-- 2391555324656&#45;&gt;2391555322112 -->
<g id="edge2" class="edge">
<title>2391555324656&#45;&gt;2391555322112</title>
<path fill="none" stroke="black" d="M324.4,-99C331.89,-99 340.18,-99 348.2,-99"/>
<polygon fill="black" stroke="black" points="348.1,-102.5 358.1,-99 348.1,-95.5 348.1,-102.5"/>
</g>
<!-- 2391555323360 -->
<g id="node21" class="node">
<title>2391555323360</title>
<ellipse fill="white" stroke="black" cx="387" cy="-27" rx="27" ry="27"/>
</g>
<!-- 2391555324656&#45;&gt;2391555323360 -->
<g id="edge3" class="edge">
<title>2391555324656&#45;&gt;2391555323360</title>
<path fill="none" stroke="black" d="M320.21,-80.83C331.32,-71.74 344.92,-60.61 356.87,-50.84"/>
<polygon fill="black" stroke="black" points="358.92,-53.68 364.44,-44.64 354.48,-48.26 358.92,-53.68"/>
</g>
<!-- 2391555319088 -->
<g id="node8" class="node">
<title>2391555319088</title>
<polygon fill="white" stroke="black" points="504,-117 450,-117 450,-81 504,-81 504,-117"/>
<text text-anchor="middle" x="477" y="-95.9" font-family="Times New Roman,serif" font-size="12.00">b</text>
</g>
<!-- 2391555312272 -->
<g id="node19" class="node">
<title>2391555312272</title>
<ellipse fill="white" stroke="black" cx="567" cy="-99" rx="27" ry="27"/>
</g>
<!-- 2391555319088&#45;&gt;2391555312272 -->
<g id="edge4" class="edge">
<title>2391555319088&#45;&gt;2391555312272</title>
<path fill="none" stroke="black" d="M504.4,-99C511.89,-99 520.18,-99 528.2,-99"/>
<polygon fill="black" stroke="black" points="528.1,-102.5 538.1,-99 528.1,-95.5 528.1,-102.5"/>
</g>
<!-- 2391555314192 -->
<g id="node9" class="node">
<title>2391555314192</title>
<polygon fill="white" stroke="black" points="684,-187 630,-187 630,-151 684,-151 684,-187"/>
<text text-anchor="middle" x="657" y="-165.9" font-family="Times New Roman,serif" font-size="12.00">g</text>
</g>
<!-- 2391555313136 -->
<g id="node22" class="node">
<title>2391555313136</title>
<ellipse fill="white" stroke="black" cx="837" cy="-163" rx="27" ry="27"/>
</g>
<!-- 2391555314192&#45;&gt;2391555313136 -->
<g id="edge10" class="edge">
<title>2391555314192&#45;&gt;2391555313136</title>
<path fill="none" stroke="black" d="M684.26,-168.11C714.37,-167.1 763.96,-165.43 798.21,-164.27"/>
<polygon fill="black" stroke="black" points="798.24,-167.77 808.12,-163.94 798,-160.78 798.24,-167.77"/>
</g>
<!-- 2391555314288 -->
<g id="node10" class="node">
<title>2391555314288</title>
<polygon fill="white" stroke="black" points="864,-117 810,-117 810,-81 864,-81 864,-117"/>
<text text-anchor="middle" x="837" y="-95.9" font-family="Times New Roman,serif" font-size="12.00">d</text>
</g>
<!-- 2391555319856 -->
<g id="node13" class="node">
<title>2391555319856</title>
<ellipse fill="white" stroke="black" cx="927" cy="-103" rx="27" ry="27"/>
</g>
<!-- 2391555314288&#45;&gt;2391555319856 -->
<g id="edge6" class="edge">
<title>2391555314288&#45;&gt;2391555319856</title>
<path fill="none" stroke="black" d="M864.4,-100.2C871.89,-100.54 880.18,-100.92 888.2,-101.28"/>
<polygon fill="black" stroke="black" points="887.96,-104.77 898.1,-101.73 888.27,-97.78 887.96,-104.77"/>
</g>
<!-- 2391555325280 -->
<g id="node11" class="node">
<title>2391555325280</title>
<ellipse fill="white" stroke="black" cx="27" cy="-99" rx="27" ry="27"/>
<text text-anchor="start" x="16" y="-90.3" font-family="Times New Roman,serif" font-size="34.00">â—</text>
</g>
<!-- 2391555325280&#45;&gt;2391555324272 -->
<g id="edge23" class="edge">
<title>2391555325280&#45;&gt;2391555324272</title>
<path fill="none" stroke="black" d="M54.4,-99C61.89,-99 70.18,-99 78.2,-99"/>
<polygon fill="black" stroke="black" points="78.1,-102.5 88.1,-99 78.1,-95.5 78.1,-102.5"/>
</g>
<!-- 2391553335616&#45;&gt;2391555314288 -->
<g id="edge12" class="edge">
<title>2391553335616&#45;&gt;2391555314288</title>
<path fill="none" stroke="black" d="M774.4,-99C781.89,-99 790.18,-99 798.2,-99"/>
<polygon fill="black" stroke="black" points="798.1,-102.5 808.1,-99 798.1,-95.5 798.1,-102.5"/>
</g>
<!-- 2391555319856&#45;&gt;2391555315968 -->
<g id="edge13" class="edge">
<title>2391555319856&#45;&gt;2391555315968</title>
<path fill="none" stroke="black" d="M952.98,-110.66C961.06,-113.14 970.19,-115.94 978.95,-118.63"/>
<polygon fill="black" stroke="black" points="977.69,-121.91 988.28,-121.5 979.75,-115.22 977.69,-121.91"/>
</g>
<!-- 2391553335760&#45;&gt;2391555324656 -->
<g id="edge14" class="edge">
<title>2391553335760&#45;&gt;2391555324656</title>
<path fill="none" stroke="black" d="M234.4,-99C241.89,-99 250.18,-99 258.2,-99"/>
<polygon fill="black" stroke="black" points="258.1,-102.5 268.1,-99 258.1,-95.5 258.1,-102.5"/>
</g>
<!-- 2391553328416&#45;&gt;2391555319952 -->
<g id="edge15" class="edge">
<title>2391553328416&#45;&gt;2391555319952</title>
<path fill="none" stroke="black" d="M1134.4,-130C1141.89,-130 1150.18,-130 1158.2,-130"/>
<polygon fill="black" stroke="black" points="1158.1,-133.5 1168.1,-130 1158.1,-126.5 1158.1,-133.5"/>
</g>
<!-- 2391553334992&#45;&gt;2391555316448 -->
<g id="edge16" class="edge">
<title>2391553334992&#45;&gt;2391555316448</title>
<path fill="none" stroke="black" d="M414.4,-171C421.89,-171 430.18,-171 438.2,-171"/>
<polygon fill="black" stroke="black" points="438.1,-174.5 448.1,-171 438.1,-167.5 438.1,-174.5"/>
</g>
<!-- 2391559417920&#45;&gt;2391555314288 -->
<g id="edge17" class="edge">
<title>2391559417920&#45;&gt;2391555314288</title>
<path fill="none" stroke="black" d="M684,-39.05C707.96,-43.3 744.2,-51.05 774,-63 782.71,-66.49 791.66,-71.05 799.96,-75.74"/>
<polygon fill="black" stroke="black" points="798,-78.65 808.39,-80.7 801.55,-72.61 798,-78.65"/>
</g>
<!-- 2391555322112&#45;&gt;2391555319088 -->
<g id="edge18" class="edge">
<title>2391555322112&#45;&gt;2391555319088</title>
<path fill="none" stroke="black" d="M414.4,-99C421.89,-99 430.18,-99 438.2,-99"/>
<polygon fill="black" stroke="black" points="438.1,-102.5 448.1,-99 438.1,-95.5 438.1,-102.5"/>
</g>
<!-- 2391555312272&#45;&gt;2391555318080 -->
<g id="edge19" class="edge">
<title>2391555312272&#45;&gt;2391555318080</title>
<path fill="none" stroke="black" d="M594.4,-99C601.89,-99 610.18,-99 618.2,-99"/>
<polygon fill="black" stroke="black" points="618.1,-102.5 628.1,-99 618.1,-95.5 618.1,-102.5"/>
</g>
<!-- 2391555311504&#45;&gt;2391555314192 -->
<g id="edge20" class="edge">
<title>2391555311504&#45;&gt;2391555314192</title>
<path fill="none" stroke="black" d="M594.4,-170.4C601.89,-170.23 610.18,-170.04 618.2,-169.86"/>
<polygon fill="black" stroke="black" points="618.18,-173.36 628.1,-169.63 618.03,-166.36 618.18,-173.36"/>
</g>
<!-- 2391555323360&#45;&gt;2391555312992 -->
<g id="edge21" class="edge">
<title>2391555323360&#45;&gt;2391555312992</title>
<path fill="none" stroke="black" d="M414.4,-27.6C421.89,-27.77 430.18,-27.96 438.2,-28.14"/>
<polygon fill="black" stroke="black" points="438.03,-31.64 448.1,-28.37 438.18,-24.64 438.03,-31.64"/>
</g>
<!-- 2391555313136&#45;&gt;2391555315968 -->
<g id="edge22" class="edge">
<title>2391555313136&#45;&gt;2391555315968</title>
<path fill="none" stroke="black" d="M863.88,-158.2C894.03,-152.61 944.08,-143.33 978.49,-136.95"/>
<polygon fill="black" stroke="black" points="978.82,-140.45 988.02,-135.19 977.55,-133.57 978.82,-140.45"/>
</g>
</g>
</svg>
