<?xml version="1.0" encoding="UTF-8" standalone="no"?>
<!DOCTYPE svg PUBLIC "-//W3C//DTD SVG 1.1//EN"
 "http://www.w3.org/Graphics/SVG/1.1/DTD/svg11.dtd">
<!-- Generated by graphviz version 7.0.3 (20221126.0506)
 -->
<!-- Title: new_petri_net Pages: 1 -->
<svg width="1510pt" height="206pt"
 viewBox="0.00 0.00 1510.00 206.00" xmlns="http://www.w3.org/2000/svg" xmlns:xlink="http://www.w3.org/1999/xlink">
<g id="graph0" class="graph" transform="scale(1 1) rotate(0) translate(4 202)">
<title>new_petri_net</title>
<polygon fill="white" stroke="none" points="-4,4 -4,-202 1506,-202 1506,4 -4,4"/>
<!-- 1903642274176 -->
<g id="node1" class="node">
<title>1903642274176</title>
<polygon fill="white" stroke="black" points="324,-117 270,-117 270,-81 324,-81 324,-117"/>
<text text-anchor="middle" x="297" y="-95.9" font-family="Times New Roman,serif" font-size="12.00">a</text>
</g>
<!-- 1903642278304 -->
<g id="node18" class="node">
<title>1903642278304</title>
<ellipse fill="white" stroke="black" cx="387" cy="-171" rx="27" ry="27"/>
</g>
<!-- 1903642274176&#45;&gt;1903642278304 -->
<g id="edge1" class="edge">
<title>1903642274176&#45;&gt;1903642278304</title>
<path fill="none" stroke="black" d="M320.21,-117.17C331.32,-126.26 344.92,-137.39 356.87,-147.16"/>
<polygon fill="black" stroke="black" points="354.48,-149.74 364.44,-153.36 358.92,-144.32 354.48,-149.74"/>
</g>
<!-- 1903642274752 -->
<g id="node21" class="node">
<title>1903642274752</title>
<ellipse fill="white" stroke="black" cx="387" cy="-99" rx="27" ry="27"/>
</g>
<!-- 1903642274176&#45;&gt;1903642274752 -->
<g id="edge2" class="edge">
<title>1903642274176&#45;&gt;1903642274752</title>
<path fill="none" stroke="black" d="M324.4,-99C331.89,-99 340.18,-99 348.2,-99"/>
<polygon fill="black" stroke="black" points="348.1,-102.5 358.1,-99 348.1,-95.5 348.1,-102.5"/>
</g>
<!-- 1903642274032 -->
<g id="node23" class="node">
<title>1903642274032</title>
<ellipse fill="white" stroke="black" cx="387" cy="-27" rx="27" ry="27"/>
</g>
<!-- 1903642274176&#45;&gt;1903642274032 -->
<g id="edge3" class="edge">
<title>1903642274176&#45;&gt;1903642274032</title>
<path fill="none" stroke="black" d="M320.21,-80.83C331.32,-71.74 344.92,-60.61 356.87,-50.84"/>
<polygon fill="black" stroke="black" points="358.92,-53.68 364.44,-44.64 354.48,-48.26 358.92,-53.68"/>
</g>
<!-- 1903642274560 -->
<g id="node2" class="node">
<title>1903642274560</title>
<polygon fill="white" stroke="black" points="504,-46 450,-46 450,-10 504,-10 504,-46"/>
<text text-anchor="middle" x="477" y="-24.9" font-family="Times New Roman,serif" font-size="12.00">b</text>
</g>
<!-- 1903642278208 -->
<g id="node17" class="node">
<title>1903642278208</title>
<ellipse fill="white" stroke="black" cx="567" cy="-30" rx="27" ry="27"/>
</g>
<!-- 1903642274560&#45;&gt;1903642278208 -->
<g id="edge4" class="edge">
<title>1903642274560&#45;&gt;1903642278208</title>
<path fill="none" stroke="black" d="M504.4,-28.6C511.89,-28.77 520.18,-28.96 528.2,-29.14"/>
<polygon fill="black" stroke="black" points="528.03,-32.64 538.1,-29.37 528.18,-25.64 528.03,-32.64"/>
</g>
<!-- 1903642278592 -->
<g id="node3" class="node">
<title>1903642278592</title>
<polygon fill="black" stroke="black" points="864,-87 810,-87 810,-51 864,-51 864,-87"/>
</g>
<!-- 1903642274704 -->
<g id="node22" class="node">
<title>1903642274704</title>
<ellipse fill="white" stroke="black" cx="927" cy="-116" rx="27" ry="27"/>
</g>
<!-- 1903642278592&#45;&gt;1903642274704 -->
<g id="edge27" class="edge">
<title>1903642278592&#45;&gt;1903642274704</title>
<path fill="none" stroke="black" d="M864.4,-83.1C873.23,-87.82 883.19,-93.14 892.49,-98.1"/>
<polygon fill="black" stroke="black" points="890.8,-101.17 901.27,-102.79 894.1,-94.99 890.8,-101.17"/>
</g>
<!-- 1903642274896 -->
<g id="node25" class="node">
<title>1903642274896</title>
<ellipse fill="white" stroke="black" cx="927" cy="-44" rx="27" ry="27"/>
</g>
<!-- 1903642278592&#45;&gt;1903642274896 -->
<g id="edge28" class="edge">
<title>1903642278592&#45;&gt;1903642274896</title>
<path fill="none" stroke="black" d="M864.4,-61.5C872.36,-59.24 881.23,-56.72 889.71,-54.31"/>
<polygon fill="black" stroke="black" points="890.4,-57.75 899.07,-51.65 888.49,-51.02 890.4,-57.75"/>
</g>
<!-- 1903634391648 -->
<g id="node4" class="node">
<title>1903634391648</title>
<polygon fill="black" stroke="black" points="1404,-134 1350,-134 1350,-98 1404,-98 1404,-134"/>
</g>
<!-- 1903642278640 -->
<g id="node26" class="node">
<title>1903642278640</title>
<ellipse fill="white" stroke="black" cx="1471" cy="-116" rx="27" ry="27"/>
<ellipse fill="none" stroke="black" cx="1471" cy="-116" rx="31" ry="31"/>
<text text-anchor="start" x="1461" y="-107.9" font-family="Times New Roman,serif" font-size="32.00">â– </text>
</g>
<!-- 1903634391648&#45;&gt;1903642278640 -->
<g id="edge8" class="edge">
<title>1903634391648&#45;&gt;1903642278640</title>
<path fill="none" stroke="black" d="M1404.12,-116C1411.63,-116 1420.01,-116 1428.22,-116"/>
<polygon fill="black" stroke="black" points="1428.08,-119.5 1438.08,-116 1428.08,-112.5 1428.08,-119.5"/>
</g>
<!-- 1903642273072 -->
<g id="node5" class="node">
<title>1903642273072</title>
<polygon fill="white" stroke="black" points="1224,-134 1170,-134 1170,-98 1224,-98 1224,-134"/>
<text text-anchor="middle" x="1197" y="-112.9" font-family="Times New Roman,serif" font-size="12.00">h</text>
</g>
<!-- 1903642278736 -->
<g id="node16" class="node">
<title>1903642278736</title>
<ellipse fill="white" stroke="black" cx="1287" cy="-116" rx="27" ry="27"/>
</g>
<!-- 1903642273072&#45;&gt;1903642278736 -->
<g id="edge11" class="edge">
<title>1903642273072&#45;&gt;1903642278736</title>
<path fill="none" stroke="black" d="M1224.4,-116C1231.89,-116 1240.18,-116 1248.2,-116"/>
<polygon fill="black" stroke="black" points="1248.1,-119.5 1258.1,-116 1248.1,-112.5 1248.1,-119.5"/>
</g>
<!-- 1903642277488 -->
<g id="node6" class="node">
<title>1903642277488</title>
<polygon fill="white" stroke="black" points="504,-189 450,-189 450,-153 504,-153 504,-189"/>
<text text-anchor="middle" x="477" y="-167.9" font-family="Times New Roman,serif" font-size="12.00">g</text>
</g>
<!-- 1903642274944 -->
<g id="node19" class="node">
<title>1903642274944</title>
<ellipse fill="white" stroke="black" cx="747" cy="-171" rx="27" ry="27"/>
</g>
<!-- 1903642277488&#45;&gt;1903642274944 -->
<g id="edge10" class="edge">
<title>1903642277488&#45;&gt;1903642274944</title>
<path fill="none" stroke="black" d="M504.18,-171C551.92,-171 653.23,-171 708.36,-171"/>
<polygon fill="black" stroke="black" points="708.2,-174.5 718.2,-171 708.2,-167.5 708.2,-174.5"/>
</g>
<!-- 1903642277968 -->
<g id="node7" class="node">
<title>1903642277968</title>
<polygon fill="white" stroke="black" points="504,-117 450,-117 450,-81 504,-81 504,-117"/>
<text text-anchor="middle" x="477" y="-95.9" font-family="Times New Roman,serif" font-size="12.00">e</text>
</g>
<!-- 1903642274656 -->
<g id="node14" class="node">
<title>1903642274656</title>
<ellipse fill="white" stroke="black" cx="657" cy="-95" rx="27" ry="27"/>
</g>
<!-- 1903642277968&#45;&gt;1903642274656 -->
<g id="edge7" class="edge">
<title>1903642277968&#45;&gt;1903642274656</title>
<path fill="none" stroke="black" d="M504.26,-98.41C534.37,-97.73 583.96,-96.62 618.21,-95.85"/>
<polygon fill="black" stroke="black" points="618.2,-99.35 628.11,-95.63 618.04,-92.35 618.2,-99.35"/>
</g>
<!-- 1903642264528 -->
<g id="node8" class="node">
<title>1903642264528</title>
<polygon fill="black" stroke="black" points="144,-117 90,-117 90,-81 144,-81 144,-117"/>
</g>
<!-- 1903642273408 -->
<g id="node15" class="node">
<title>1903642273408</title>
<ellipse fill="white" stroke="black" cx="207" cy="-99" rx="27" ry="27"/>
</g>
<!-- 1903642264528&#45;&gt;1903642273408 -->
<g id="edge26" class="edge">
<title>1903642264528&#45;&gt;1903642273408</title>
<path fill="none" stroke="black" d="M144.4,-99C151.89,-99 160.18,-99 168.2,-99"/>
<polygon fill="black" stroke="black" points="168.1,-102.5 178.1,-99 168.1,-95.5 168.1,-102.5"/>
</g>
<!-- 1903642277296 -->
<g id="node9" class="node">
<title>1903642277296</title>
<polygon fill="white" stroke="black" points="684,-49 630,-49 630,-13 684,-13 684,-49"/>
<text text-anchor="middle" x="657" y="-27.9" font-family="Times New Roman,serif" font-size="12.00">c</text>
</g>
<!-- 1903642267888 -->
<g id="node24" class="node">
<title>1903642267888</title>
<ellipse fill="white" stroke="black" cx="747" cy="-34" rx="27" ry="27"/>
</g>
<!-- 1903642277296&#45;&gt;1903642267888 -->
<g id="edge5" class="edge">
<title>1903642277296&#45;&gt;1903642267888</title>
<path fill="none" stroke="black" d="M684.4,-31.9C691.89,-32.16 700.18,-32.44 708.2,-32.71"/>
<polygon fill="black" stroke="black" points="707.99,-36.21 718.1,-33.05 708.23,-29.21 707.99,-36.21"/>
</g>
<!-- 1903634391600 -->
<g id="node10" class="node">
<title>1903634391600</title>
<polygon fill="white" stroke="black" points="1044,-62 990,-62 990,-26 1044,-26 1044,-62"/>
<text text-anchor="middle" x="1017" y="-40.9" font-family="Times New Roman,serif" font-size="12.00">d</text>
</g>
<!-- 1903642274800 -->
<g id="node20" class="node">
<title>1903642274800</title>
<ellipse fill="white" stroke="black" cx="1107" cy="-44" rx="27" ry="27"/>
</g>
<!-- 1903634391600&#45;&gt;1903642274800 -->
<g id="edge6" class="edge">
<title>1903634391600&#45;&gt;1903642274800</title>
<path fill="none" stroke="black" d="M1044.4,-44C1051.89,-44 1060.18,-44 1068.2,-44"/>
<polygon fill="black" stroke="black" points="1068.1,-47.5 1078.1,-44 1068.1,-40.5 1068.1,-47.5"/>
</g>
<!-- 1903634391408 -->
<g id="node11" class="node">
<title>1903634391408</title>
<polygon fill="white" stroke="black" points="1044,-134 990,-134 990,-98 1044,-98 1044,-134"/>
<text text-anchor="middle" x="1017" y="-112.9" font-family="Times New Roman,serif" font-size="12.00">f</text>
</g>
<!-- 1903642279408 -->
<g id="node13" class="node">
<title>1903642279408</title>
<ellipse fill="white" stroke="black" cx="1107" cy="-116" rx="27" ry="27"/>
</g>
<!-- 1903634391408&#45;&gt;1903642279408 -->
<g id="edge9" class="edge">
<title>1903634391408&#45;&gt;1903642279408</title>
<path fill="none" stroke="black" d="M1044.4,-116C1051.89,-116 1060.18,-116 1068.2,-116"/>
<polygon fill="black" stroke="black" points="1068.1,-119.5 1078.1,-116 1068.1,-112.5 1068.1,-119.5"/>
</g>
<!-- 1903642279840 -->
<g id="node12" class="node">
<title>1903642279840</title>
<ellipse fill="white" stroke="black" cx="27" cy="-99" rx="27" ry="27"/>
<text text-anchor="start" x="16" y="-90.3" font-family="Times New Roman,serif" font-size="34.00">â—</text>
</g>
<!-- 1903642279840&#45;&gt;1903642264528 -->
<g id="edge25" class="edge">
<title>1903642279840&#45;&gt;1903642264528</title>
<path fill="none" stroke="black" d="M54.4,-99C61.89,-99 70.18,-99 78.2,-99"/>
<polygon fill="black" stroke="black" points="78.1,-102.5 88.1,-99 78.1,-95.5 78.1,-102.5"/>
</g>
<!-- 1903642279408&#45;&gt;1903642273072 -->
<g id="edge12" class="edge">
<title>1903642279408&#45;&gt;1903642273072</title>
<path fill="none" stroke="black" d="M1134.4,-116C1141.89,-116 1150.18,-116 1158.2,-116"/>
<polygon fill="black" stroke="black" points="1158.1,-119.5 1168.1,-116 1158.1,-112.5 1158.1,-119.5"/>
</g>
<!-- 1903642274656&#45;&gt;1903642278592 -->
<g id="edge13" class="edge">
<title>1903642274656&#45;&gt;1903642278592</title>
<path fill="none" stroke="black" d="M683.88,-91.22C714.03,-86.82 764.08,-79.5 798.49,-74.48"/>
<polygon fill="black" stroke="black" points="798.62,-78 808.01,-73.09 797.61,-71.07 798.62,-78"/>
</g>
<!-- 1903642273408&#45;&gt;1903642274176 -->
<g id="edge14" class="edge">
<title>1903642273408&#45;&gt;1903642274176</title>
<path fill="none" stroke="black" d="M234.4,-99C241.89,-99 250.18,-99 258.2,-99"/>
<polygon fill="black" stroke="black" points="258.1,-102.5 268.1,-99 258.1,-95.5 258.1,-102.5"/>
</g>
<!-- 1903642278736&#45;&gt;1903634391648 -->
<g id="edge15" class="edge">
<title>1903642278736&#45;&gt;1903634391648</title>
<path fill="none" stroke="black" d="M1314.4,-116C1321.89,-116 1330.18,-116 1338.2,-116"/>
<polygon fill="black" stroke="black" points="1338.1,-119.5 1348.1,-116 1338.1,-112.5 1338.1,-119.5"/>
</g>
<!-- 1903642278208&#45;&gt;1903642277296 -->
<g id="edge16" class="edge">
<title>1903642278208&#45;&gt;1903642277296</title>
<path fill="none" stroke="black" d="M594.4,-30.3C601.89,-30.39 610.18,-30.48 618.2,-30.57"/>
<polygon fill="black" stroke="black" points="618.06,-34.07 628.1,-30.68 618.14,-27.07 618.06,-34.07"/>
</g>
<!-- 1903642278304&#45;&gt;1903642277488 -->
<g id="edge17" class="edge">
<title>1903642278304&#45;&gt;1903642277488</title>
<path fill="none" stroke="black" d="M414.4,-171C421.89,-171 430.18,-171 438.2,-171"/>
<polygon fill="black" stroke="black" points="438.1,-174.5 448.1,-171 438.1,-167.5 438.1,-174.5"/>
</g>
<!-- 1903642274944&#45;&gt;1903642273072 -->
<g id="edge18" class="edge">
<title>1903642274944&#45;&gt;1903642273072</title>
<path fill="none" stroke="black" d="M774.24,-171C808.96,-171 872.07,-171 926,-171 926,-171 926,-171 1018,-171 1070.24,-171 1084.82,-169.63 1134,-152 1142.75,-148.86 1151.66,-144.5 1159.91,-139.88"/>
<polygon fill="black" stroke="black" points="1161.43,-143.05 1168.27,-134.96 1157.88,-137.02 1161.43,-143.05"/>
</g>
<!-- 1903642274800&#45;&gt;1903642273072 -->
<g id="edge19" class="edge">
<title>1903642274800&#45;&gt;1903642273072</title>
<path fill="none" stroke="black" d="M1128.41,-60.7C1139.17,-69.5 1152.61,-80.5 1164.66,-90.36"/>
<polygon fill="black" stroke="black" points="1162.41,-93.04 1172.37,-96.66 1166.84,-87.62 1162.41,-93.04"/>
</g>
<!-- 1903642274752&#45;&gt;1903642277968 -->
<g id="edge20" class="edge">
<title>1903642274752&#45;&gt;1903642277968</title>
<path fill="none" stroke="black" d="M414.4,-99C421.89,-99 430.18,-99 438.2,-99"/>
<polygon fill="black" stroke="black" points="438.1,-102.5 448.1,-99 438.1,-95.5 438.1,-102.5"/>
</g>
<!-- 1903642274704&#45;&gt;1903634391408 -->
<g id="edge21" class="edge">
<title>1903642274704&#45;&gt;1903634391408</title>
<path fill="none" stroke="black" d="M954.4,-116C961.89,-116 970.18,-116 978.2,-116"/>
<polygon fill="black" stroke="black" points="978.1,-119.5 988.1,-116 978.1,-112.5 978.1,-119.5"/>
</g>
<!-- 1903642274032&#45;&gt;1903642274560 -->
<g id="edge22" class="edge">
<title>1903642274032&#45;&gt;1903642274560</title>
<path fill="none" stroke="black" d="M414.4,-27.3C421.89,-27.39 430.18,-27.48 438.2,-27.57"/>
<polygon fill="black" stroke="black" points="438.06,-31.07 448.1,-27.68 438.14,-24.07 438.06,-31.07"/>
</g>
<!-- 1903642267888&#45;&gt;1903642278592 -->
<g id="edge23" class="edge">
<title>1903642267888&#45;&gt;1903642278592</title>
<path fill="none" stroke="black" d="M772.51,-43.75C780.76,-47.03 790.14,-50.76 799.12,-54.33"/>
<polygon fill="black" stroke="black" points="797.78,-57.57 808.37,-58.01 800.37,-51.06 797.78,-57.57"/>
</g>
<!-- 1903642274896&#45;&gt;1903634391600 -->
<g id="edge24" class="edge">
<title>1903642274896&#45;&gt;1903634391600</title>
<path fill="none" stroke="black" d="M954.4,-44C961.89,-44 970.18,-44 978.2,-44"/>
<polygon fill="black" stroke="black" points="978.1,-47.5 988.1,-44 978.1,-40.5 978.1,-47.5"/>
</g>
</g>
</svg>
