<?xml version="1.0" encoding="UTF-8" standalone="no"?>
<!DOCTYPE svg PUBLIC "-//W3C//DTD SVG 1.1//EN"
 "http://www.w3.org/Graphics/SVG/1.1/DTD/svg11.dtd">
<!-- Generated by graphviz version 7.0.3 (20221126.0506)
 -->
<!-- Title: new_petri_net Pages: 1 -->
<svg width="1330pt" height="206pt"
 viewBox="0.00 0.00 1330.00 206.00" xmlns="http://www.w3.org/2000/svg" xmlns:xlink="http://www.w3.org/1999/xlink">
<g id="graph0" class="graph" transform="scale(1 1) rotate(0) translate(4 202)">
<title>new_petri_net</title>
<polygon fill="white" stroke="none" points="-4,4 -4,-202 1326,-202 1326,4 -4,4"/>
<!-- 1322037626336 -->
<g id="node1" class="node">
<title>1322037626336</title>
<polygon fill="white" stroke="black" points="504,-46 450,-46 450,-10 504,-10 504,-46"/>
<text text-anchor="middle" x="477" y="-24.9" font-family="Times New Roman,serif" font-size="12.00">f</text>
</g>
<!-- 1322040022480 -->
<g id="node21" class="node">
<title>1322040022480</title>
<ellipse fill="white" stroke="black" cx="567" cy="-32" rx="27" ry="27"/>
</g>
<!-- 1322037626336&#45;&gt;1322040022480 -->
<g id="edge9" class="edge">
<title>1322037626336&#45;&gt;1322040022480</title>
<path fill="none" stroke="black" d="M504.4,-29.2C511.89,-29.54 520.18,-29.92 528.2,-30.28"/>
<polygon fill="black" stroke="black" points="527.96,-33.77 538.1,-30.73 528.27,-26.78 527.96,-33.77"/>
</g>
<!-- 1322037636416 -->
<g id="node2" class="node">
<title>1322037636416</title>
<polygon fill="white" stroke="black" points="504,-187 450,-187 450,-151 504,-151 504,-187"/>
<text text-anchor="middle" x="477" y="-165.9" font-family="Times New Roman,serif" font-size="12.00">b</text>
</g>
<!-- 1322040025600 -->
<g id="node17" class="node">
<title>1322040025600</title>
<ellipse fill="white" stroke="black" cx="567" cy="-168" rx="27" ry="27"/>
</g>
<!-- 1322037636416&#45;&gt;1322040025600 -->
<g id="edge4" class="edge">
<title>1322037636416&#45;&gt;1322040025600</title>
<path fill="none" stroke="black" d="M504.4,-168.7C511.89,-168.61 520.18,-168.52 528.2,-168.43"/>
<polygon fill="black" stroke="black" points="528.14,-171.93 538.1,-168.32 528.06,-164.93 528.14,-171.93"/>
</g>
<!-- 1322037640160 -->
<g id="node3" class="node">
<title>1322037640160</title>
<polygon fill="white" stroke="black" points="864,-117 810,-117 810,-81 864,-81 864,-117"/>
<text text-anchor="middle" x="837" y="-95.9" font-family="Times New Roman,serif" font-size="12.00">d</text>
</g>
<!-- 1322040022144 -->
<g id="node20" class="node">
<title>1322040022144</title>
<ellipse fill="white" stroke="black" cx="927" cy="-97" rx="27" ry="27"/>
</g>
<!-- 1322037640160&#45;&gt;1322040022144 -->
<g id="edge6" class="edge">
<title>1322037640160&#45;&gt;1322040022144</title>
<path fill="none" stroke="black" d="M864.4,-98.4C871.89,-98.23 880.18,-98.04 888.2,-97.86"/>
<polygon fill="black" stroke="black" points="888.18,-101.36 898.1,-97.63 888.03,-94.36 888.18,-101.36"/>
</g>
<!-- 1322040022096 -->
<g id="node4" class="node">
<title>1322040022096</title>
<polygon fill="black" stroke="black" points="1224,-85 1170,-85 1170,-49 1224,-49 1224,-85"/>
</g>
<!-- 1322040023776 -->
<g id="node23" class="node">
<title>1322040023776</title>
<ellipse fill="white" stroke="black" cx="1291" cy="-67" rx="27" ry="27"/>
<ellipse fill="none" stroke="black" cx="1291" cy="-67" rx="31" ry="31"/>
<text text-anchor="start" x="1281" y="-58.9" font-family="Times New Roman,serif" font-size="32.00">â– </text>
</g>
<!-- 1322040022096&#45;&gt;1322040023776 -->
<g id="edge8" class="edge">
<title>1322040022096&#45;&gt;1322040023776</title>
<path fill="none" stroke="black" d="M1224.12,-67C1231.63,-67 1240.01,-67 1248.22,-67"/>
<polygon fill="black" stroke="black" points="1248.08,-70.5 1258.08,-67 1248.08,-63.5 1248.08,-70.5"/>
</g>
<!-- 1322037633296 -->
<g id="node5" class="node">
<title>1322037633296</title>
<polygon fill="white" stroke="black" points="684,-52 630,-52 630,-16 684,-16 684,-52"/>
<text text-anchor="middle" x="657" y="-30.9" font-family="Times New Roman,serif" font-size="12.00">g</text>
</g>
<!-- 1322040018496 -->
<g id="node13" class="node">
<title>1322040018496</title>
<ellipse fill="white" stroke="black" cx="837" cy="-36" rx="27" ry="27"/>
</g>
<!-- 1322037633296&#45;&gt;1322040018496 -->
<g id="edge10" class="edge">
<title>1322037633296&#45;&gt;1322040018496</title>
<path fill="none" stroke="black" d="M684.26,-34.3C714.37,-34.63 763.96,-35.19 798.21,-35.58"/>
<polygon fill="black" stroke="black" points="798.08,-39.07 808.11,-35.69 798.15,-32.07 798.08,-39.07"/>
</g>
<!-- 1322037638576 -->
<g id="node6" class="node">
<title>1322037638576</title>
<polygon fill="white" stroke="black" points="504,-117 450,-117 450,-81 504,-81 504,-117"/>
<text text-anchor="middle" x="477" y="-95.9" font-family="Times New Roman,serif" font-size="12.00">e</text>
</g>
<!-- 1322040019264 -->
<g id="node22" class="node">
<title>1322040019264</title>
<ellipse fill="white" stroke="black" cx="657" cy="-99" rx="27" ry="27"/>
</g>
<!-- 1322037638576&#45;&gt;1322040019264 -->
<g id="edge7" class="edge">
<title>1322037638576&#45;&gt;1322040019264</title>
<path fill="none" stroke="black" d="M504.26,-99C534.37,-99 583.96,-99 618.21,-99"/>
<polygon fill="black" stroke="black" points="618.11,-102.5 628.11,-99 618.11,-95.5 618.11,-102.5"/>
</g>
<!-- 1322037633200 -->
<g id="node7" class="node">
<title>1322037633200</title>
<polygon fill="white" stroke="black" points="684,-184 630,-184 630,-148 684,-148 684,-184"/>
<text text-anchor="middle" x="657" y="-162.9" font-family="Times New Roman,serif" font-size="12.00">c</text>
</g>
<!-- 1322040027040 -->
<g id="node18" class="node">
<title>1322040027040</title>
<ellipse fill="white" stroke="black" cx="747" cy="-158" rx="27" ry="27"/>
</g>
<!-- 1322037633200&#45;&gt;1322040027040 -->
<g id="edge5" class="edge">
<title>1322037633200&#45;&gt;1322040027040</title>
<path fill="none" stroke="black" d="M684.4,-163.6C691.89,-162.92 700.18,-162.17 708.2,-161.44"/>
<polygon fill="black" stroke="black" points="708.47,-164.93 718.11,-160.54 707.83,-157.96 708.47,-164.93"/>
</g>
<!-- 1322037628112 -->
<g id="node8" class="node">
<title>1322037628112</title>
<polygon fill="white" stroke="black" points="324,-117 270,-117 270,-81 324,-81 324,-117"/>
<text text-anchor="middle" x="297" y="-95.9" font-family="Times New Roman,serif" font-size="12.00">a</text>
</g>
<!-- 1322040024544 -->
<g id="node12" class="node">
<title>1322040024544</title>
<ellipse fill="white" stroke="black" cx="387" cy="-99" rx="27" ry="27"/>
</g>
<!-- 1322037628112&#45;&gt;1322040024544 -->
<g id="edge1" class="edge">
<title>1322037628112&#45;&gt;1322040024544</title>
<path fill="none" stroke="black" d="M324.4,-99C331.89,-99 340.18,-99 348.2,-99"/>
<polygon fill="black" stroke="black" points="348.1,-102.5 358.1,-99 348.1,-95.5 348.1,-102.5"/>
</g>
<!-- 1322040019840 -->
<g id="node16" class="node">
<title>1322040019840</title>
<ellipse fill="white" stroke="black" cx="387" cy="-27" rx="27" ry="27"/>
</g>
<!-- 1322037628112&#45;&gt;1322040019840 -->
<g id="edge2" class="edge">
<title>1322037628112&#45;&gt;1322040019840</title>
<path fill="none" stroke="black" d="M320.21,-80.83C331.32,-71.74 344.92,-60.61 356.87,-50.84"/>
<polygon fill="black" stroke="black" points="358.92,-53.68 364.44,-44.64 354.48,-48.26 358.92,-53.68"/>
</g>
<!-- 1322040023440 -->
<g id="node19" class="node">
<title>1322040023440</title>
<ellipse fill="white" stroke="black" cx="387" cy="-171" rx="27" ry="27"/>
</g>
<!-- 1322037628112&#45;&gt;1322040023440 -->
<g id="edge3" class="edge">
<title>1322037628112&#45;&gt;1322040023440</title>
<path fill="none" stroke="black" d="M320.21,-117.17C331.32,-126.26 344.92,-137.39 356.87,-147.16"/>
<polygon fill="black" stroke="black" points="354.48,-149.74 364.44,-153.36 358.92,-144.32 354.48,-149.74"/>
</g>
<!-- 1322037635504 -->
<g id="node9" class="node">
<title>1322037635504</title>
<polygon fill="white" stroke="black" points="1044,-85 990,-85 990,-49 1044,-49 1044,-85"/>
<text text-anchor="middle" x="1017" y="-63.9" font-family="Times New Roman,serif" font-size="12.00">h</text>
</g>
<!-- 1322040028672 -->
<g id="node15" class="node">
<title>1322040028672</title>
<ellipse fill="white" stroke="black" cx="1107" cy="-67" rx="27" ry="27"/>
</g>
<!-- 1322037635504&#45;&gt;1322040028672 -->
<g id="edge11" class="edge">
<title>1322037635504&#45;&gt;1322040028672</title>
<path fill="none" stroke="black" d="M1044.4,-67C1051.89,-67 1060.18,-67 1068.2,-67"/>
<polygon fill="black" stroke="black" points="1068.1,-70.5 1078.1,-67 1068.1,-63.5 1068.1,-70.5"/>
</g>
<!-- 1322037639440 -->
<g id="node10" class="node">
<title>1322037639440</title>
<polygon fill="black" stroke="black" points="144,-117 90,-117 90,-81 144,-81 144,-117"/>
</g>
<!-- 1322040026704 -->
<g id="node14" class="node">
<title>1322040026704</title>
<ellipse fill="white" stroke="black" cx="207" cy="-99" rx="27" ry="27"/>
</g>
<!-- 1322037639440&#45;&gt;1322040026704 -->
<g id="edge24" class="edge">
<title>1322037639440&#45;&gt;1322040026704</title>
<path fill="none" stroke="black" d="M144.4,-99C151.89,-99 160.18,-99 168.2,-99"/>
<polygon fill="black" stroke="black" points="168.1,-102.5 178.1,-99 168.1,-95.5 168.1,-102.5"/>
</g>
<!-- 1322040017104 -->
<g id="node11" class="node">
<title>1322040017104</title>
<ellipse fill="white" stroke="black" cx="27" cy="-99" rx="27" ry="27"/>
<text text-anchor="start" x="16" y="-90.3" font-family="Times New Roman,serif" font-size="34.00">â—</text>
</g>
<!-- 1322040017104&#45;&gt;1322037639440 -->
<g id="edge23" class="edge">
<title>1322040017104&#45;&gt;1322037639440</title>
<path fill="none" stroke="black" d="M54.4,-99C61.89,-99 70.18,-99 78.2,-99"/>
<polygon fill="black" stroke="black" points="78.1,-102.5 88.1,-99 78.1,-95.5 78.1,-102.5"/>
</g>
<!-- 1322040024544&#45;&gt;1322037638576 -->
<g id="edge12" class="edge">
<title>1322040024544&#45;&gt;1322037638576</title>
<path fill="none" stroke="black" d="M414.4,-99C421.89,-99 430.18,-99 438.2,-99"/>
<polygon fill="black" stroke="black" points="438.1,-102.5 448.1,-99 438.1,-95.5 438.1,-102.5"/>
</g>
<!-- 1322040018496&#45;&gt;1322037635504 -->
<g id="edge13" class="edge">
<title>1322040018496&#45;&gt;1322037635504</title>
<path fill="none" stroke="black" d="M863.88,-40.51C894.03,-45.76 944.08,-54.48 978.49,-60.47"/>
<polygon fill="black" stroke="black" points="977.56,-63.86 988.01,-62.13 978.76,-56.96 977.56,-63.86"/>
</g>
<!-- 1322040026704&#45;&gt;1322037628112 -->
<g id="edge14" class="edge">
<title>1322040026704&#45;&gt;1322037628112</title>
<path fill="none" stroke="black" d="M234.4,-99C241.89,-99 250.18,-99 258.2,-99"/>
<polygon fill="black" stroke="black" points="258.1,-102.5 268.1,-99 258.1,-95.5 258.1,-102.5"/>
</g>
<!-- 1322040028672&#45;&gt;1322040022096 -->
<g id="edge15" class="edge">
<title>1322040028672&#45;&gt;1322040022096</title>
<path fill="none" stroke="black" d="M1134.4,-67C1141.89,-67 1150.18,-67 1158.2,-67"/>
<polygon fill="black" stroke="black" points="1158.1,-70.5 1168.1,-67 1158.1,-63.5 1158.1,-70.5"/>
</g>
<!-- 1322040019840&#45;&gt;1322037626336 -->
<g id="edge16" class="edge">
<title>1322040019840&#45;&gt;1322037626336</title>
<path fill="none" stroke="black" d="M414.4,-27.3C421.89,-27.39 430.18,-27.48 438.2,-27.57"/>
<polygon fill="black" stroke="black" points="438.06,-31.07 448.1,-27.68 438.14,-24.07 438.06,-31.07"/>
</g>
<!-- 1322040025600&#45;&gt;1322037633200 -->
<g id="edge17" class="edge">
<title>1322040025600&#45;&gt;1322037633200</title>
<path fill="none" stroke="black" d="M594.4,-167.4C601.89,-167.23 610.18,-167.04 618.2,-166.86"/>
<polygon fill="black" stroke="black" points="618.18,-170.36 628.1,-166.63 618.03,-163.36 618.18,-170.36"/>
</g>
<!-- 1322040027040&#45;&gt;1322037640160 -->
<g id="edge18" class="edge">
<title>1322040027040&#45;&gt;1322037640160</title>
<path fill="none" stroke="black" d="M769.75,-143.42C779.03,-137.2 790.09,-129.78 800.5,-122.8"/>
<polygon fill="black" stroke="black" points="802.18,-125.89 808.54,-117.41 798.28,-120.07 802.18,-125.89"/>
</g>
<!-- 1322040023440&#45;&gt;1322037636416 -->
<g id="edge19" class="edge">
<title>1322040023440&#45;&gt;1322037636416</title>
<path fill="none" stroke="black" d="M414.4,-170.4C421.89,-170.23 430.18,-170.04 438.2,-169.86"/>
<polygon fill="black" stroke="black" points="438.18,-173.36 448.1,-169.63 438.03,-166.36 438.18,-173.36"/>
</g>
<!-- 1322040022144&#45;&gt;1322037635504 -->
<g id="edge20" class="edge">
<title>1322040022144&#45;&gt;1322037635504</title>
<path fill="none" stroke="black" d="M952.98,-88.48C961.06,-85.73 970.19,-82.62 978.95,-79.63"/>
<polygon fill="black" stroke="black" points="979.96,-82.98 988.29,-76.44 977.7,-76.36 979.96,-82.98"/>
</g>
<!-- 1322040022480&#45;&gt;1322037633296 -->
<g id="edge21" class="edge">
<title>1322040022480&#45;&gt;1322037633296</title>
<path fill="none" stroke="black" d="M594.4,-32.6C601.89,-32.77 610.18,-32.96 618.2,-33.14"/>
<polygon fill="black" stroke="black" points="618.03,-36.64 628.1,-33.37 618.18,-29.64 618.03,-36.64"/>
</g>
<!-- 1322040019264&#45;&gt;1322037640160 -->
<g id="edge22" class="edge">
<title>1322040019264&#45;&gt;1322037640160</title>
<path fill="none" stroke="black" d="M684.26,-99C714.37,-99 763.96,-99 798.21,-99"/>
<polygon fill="black" stroke="black" points="798.11,-102.5 808.11,-99 798.11,-95.5 798.11,-102.5"/>
</g>
</g>
</svg>
