<?xml version="1.0" encoding="UTF-8" standalone="no"?>
<!DOCTYPE svg PUBLIC "-//W3C//DTD SVG 1.1//EN"
 "http://www.w3.org/Graphics/SVG/1.1/DTD/svg11.dtd">
<!-- Generated by graphviz version 7.0.3 (20221126.0506)
 -->
<!-- Title: new_petri_net Pages: 1 -->
<svg width="1510pt" height="266pt"
 viewBox="0.00 0.00 1510.00 266.00" xmlns="http://www.w3.org/2000/svg" xmlns:xlink="http://www.w3.org/1999/xlink">
<g id="graph0" class="graph" transform="scale(1 1) rotate(0) translate(4 262)">
<title>new_petri_net</title>
<polygon fill="white" stroke="none" points="-4,4 -4,-262 1506,-262 1506,4 -4,4"/>
<!-- 2391551227936 -->
<g id="node1" class="node">
<title>2391551227936</title>
<polygon fill="white" stroke="black" points="324,-141 270,-141 270,-105 324,-105 324,-141"/>
<text text-anchor="middle" x="297" y="-119.9" font-family="Times New Roman,serif" font-size="12.00">a</text>
</g>
<!-- 2391551225632 -->
<g id="node18" class="node">
<title>2391551225632</title>
<ellipse fill="white" stroke="black" cx="387" cy="-87" rx="27" ry="27"/>
</g>
<!-- 2391551227936&#45;&gt;2391551225632 -->
<g id="edge1" class="edge">
<title>2391551227936&#45;&gt;2391551225632</title>
<path fill="none" stroke="black" d="M324.4,-112.2C332.75,-108.78 342.12,-104.95 350.97,-101.33"/>
<polygon fill="black" stroke="black" points="352.09,-104.65 360.02,-97.63 349.44,-98.17 352.09,-104.65"/>
</g>
<!-- 2391550749968 -->
<g id="node19" class="node">
<title>2391550749968</title>
<ellipse fill="white" stroke="black" cx="387" cy="-231" rx="27" ry="27"/>
</g>
<!-- 2391551227936&#45;&gt;2391550749968 -->
<g id="edge2" class="edge">
<title>2391551227936&#45;&gt;2391550749968</title>
<path fill="none" stroke="black" d="M312.93,-141.32C326.39,-157.84 346.42,-182.43 362.11,-201.68"/>
<polygon fill="black" stroke="black" points="359.21,-203.66 368.24,-209.2 364.63,-199.24 359.21,-203.66"/>
</g>
<!-- 2391551223328 -->
<g id="node24" class="node">
<title>2391551223328</title>
<ellipse fill="white" stroke="black" cx="387" cy="-159" rx="27" ry="27"/>
</g>
<!-- 2391551227936&#45;&gt;2391551223328 -->
<g id="edge3" class="edge">
<title>2391551227936&#45;&gt;2391551223328</title>
<path fill="none" stroke="black" d="M324.4,-133.8C332.75,-137.22 342.12,-141.05 350.97,-144.67"/>
<polygon fill="black" stroke="black" points="349.44,-147.83 360.02,-148.37 352.09,-141.35 349.44,-147.83"/>
</g>
<!-- 2391551219344 -->
<g id="node26" class="node">
<title>2391551219344</title>
<ellipse fill="white" stroke="black" cx="477" cy="-27" rx="27" ry="27"/>
</g>
<!-- 2391551227936&#45;&gt;2391551219344 -->
<g id="edge4" class="edge">
<title>2391551227936&#45;&gt;2391551219344</title>
<path fill="none" stroke="black" d="M308.84,-104.6C319.65,-87.93 337.82,-64.05 360,-51 383.8,-36.99 414.56,-31.07 438.42,-28.62"/>
<polygon fill="black" stroke="black" points="438.68,-32.11 448.35,-27.77 438.09,-25.13 438.68,-32.11"/>
</g>
<!-- 2391550751840 -->
<g id="node2" class="node">
<title>2391550751840</title>
<polygon fill="white" stroke="black" points="1044,-194 990,-194 990,-158 1044,-158 1044,-194"/>
<text text-anchor="middle" x="1017" y="-172.9" font-family="Times New Roman,serif" font-size="12.00">d</text>
</g>
<!-- 2391550742672 -->
<g id="node23" class="node">
<title>2391550742672</title>
<ellipse fill="white" stroke="black" cx="1107" cy="-176" rx="27" ry="27"/>
</g>
<!-- 2391550751840&#45;&gt;2391550742672 -->
<g id="edge7" class="edge">
<title>2391550751840&#45;&gt;2391550742672</title>
<path fill="none" stroke="black" d="M1044.4,-176C1051.89,-176 1060.18,-176 1068.2,-176"/>
<polygon fill="black" stroke="black" points="1068.1,-179.5 1078.1,-176 1068.1,-172.5 1068.1,-179.5"/>
</g>
<!-- 2391550747520 -->
<g id="node3" class="node">
<title>2391550747520</title>
<polygon fill="white" stroke="black" points="1044,-122 990,-122 990,-86 1044,-86 1044,-122"/>
<text text-anchor="middle" x="1017" y="-100.9" font-family="Times New Roman,serif" font-size="12.00">f</text>
</g>
<!-- 2391550743344 -->
<g id="node22" class="node">
<title>2391550743344</title>
<ellipse fill="white" stroke="black" cx="1107" cy="-104" rx="27" ry="27"/>
</g>
<!-- 2391550747520&#45;&gt;2391550743344 -->
<g id="edge10" class="edge">
<title>2391550747520&#45;&gt;2391550743344</title>
<path fill="none" stroke="black" d="M1044.4,-104C1051.89,-104 1060.18,-104 1068.2,-104"/>
<polygon fill="black" stroke="black" points="1068.1,-107.5 1078.1,-104 1068.1,-100.5 1068.1,-107.5"/>
</g>
<!-- 2391550243840 -->
<g id="node4" class="node">
<title>2391550243840</title>
<polygon fill="white" stroke="black" points="1224,-194 1170,-194 1170,-158 1224,-158 1224,-194"/>
<text text-anchor="middle" x="1197" y="-172.9" font-family="Times New Roman,serif" font-size="12.00">h</text>
</g>
<!-- 2391551229184 -->
<g id="node16" class="node">
<title>2391551229184</title>
<ellipse fill="white" stroke="black" cx="1287" cy="-176" rx="27" ry="27"/>
</g>
<!-- 2391550243840&#45;&gt;2391551229184 -->
<g id="edge12" class="edge">
<title>2391550243840&#45;&gt;2391551229184</title>
<path fill="none" stroke="black" d="M1224.4,-176C1231.89,-176 1240.18,-176 1248.2,-176"/>
<polygon fill="black" stroke="black" points="1248.1,-179.5 1258.1,-176 1248.1,-172.5 1248.1,-179.5"/>
</g>
<!-- 2391550244224 -->
<g id="node5" class="node">
<title>2391550244224</title>
<polygon fill="black" stroke="black" points="144,-141 90,-141 90,-105 144,-105 144,-141"/>
</g>
<!-- 2391551220304 -->
<g id="node15" class="node">
<title>2391551220304</title>
<ellipse fill="white" stroke="black" cx="207" cy="-123" rx="27" ry="27"/>
</g>
<!-- 2391550244224&#45;&gt;2391551220304 -->
<g id="edge28" class="edge">
<title>2391550244224&#45;&gt;2391551220304</title>
<path fill="none" stroke="black" d="M144.4,-123C151.89,-123 160.18,-123 168.2,-123"/>
<polygon fill="black" stroke="black" points="168.1,-126.5 178.1,-123 168.1,-119.5 168.1,-126.5"/>
</g>
<!-- 2391551218000 -->
<g id="node6" class="node">
<title>2391551218000</title>
<polygon fill="white" stroke="black" points="684,-105 630,-105 630,-69 684,-69 684,-105"/>
<text text-anchor="middle" x="657" y="-83.9" font-family="Times New Roman,serif" font-size="12.00">c</text>
</g>
<!-- 2391551223184 -->
<g id="node20" class="node">
<title>2391551223184</title>
<ellipse fill="white" stroke="black" cx="747" cy="-87" rx="27" ry="27"/>
</g>
<!-- 2391551218000&#45;&gt;2391551223184 -->
<g id="edge6" class="edge">
<title>2391551218000&#45;&gt;2391551223184</title>
<path fill="none" stroke="black" d="M684.4,-87C691.89,-87 700.18,-87 708.2,-87"/>
<polygon fill="black" stroke="black" points="708.1,-90.5 718.1,-87 708.1,-83.5 708.1,-90.5"/>
</g>
<!-- 2391550739408 -->
<g id="node7" class="node">
<title>2391550739408</title>
<polygon fill="white" stroke="black" points="504,-177 450,-177 450,-141 504,-141 504,-177"/>
<text text-anchor="middle" x="477" y="-155.9" font-family="Times New Roman,serif" font-size="12.00">e</text>
</g>
<!-- 2391550743488 -->
<g id="node14" class="node">
<title>2391550743488</title>
<ellipse fill="white" stroke="black" cx="747" cy="-159" rx="27" ry="27"/>
</g>
<!-- 2391550739408&#45;&gt;2391550743488 -->
<g id="edge8" class="edge">
<title>2391550739408&#45;&gt;2391550743488</title>
<path fill="none" stroke="black" d="M504.18,-159C551.92,-159 653.23,-159 708.36,-159"/>
<polygon fill="black" stroke="black" points="708.2,-162.5 718.2,-159 708.2,-155.5 708.2,-162.5"/>
</g>
<!-- 2391550752272 -->
<g id="node8" class="node">
<title>2391550752272</title>
<polygon fill="black" stroke="black" points="1404,-194 1350,-194 1350,-158 1404,-158 1404,-194"/>
</g>
<!-- 2391551222176 -->
<g id="node27" class="node">
<title>2391551222176</title>
<ellipse fill="white" stroke="black" cx="1471" cy="-176" rx="27" ry="27"/>
<ellipse fill="none" stroke="black" cx="1471" cy="-176" rx="31" ry="31"/>
<text text-anchor="start" x="1461" y="-167.9" font-family="Times New Roman,serif" font-size="32.00">â– </text>
</g>
<!-- 2391550752272&#45;&gt;2391551222176 -->
<g id="edge9" class="edge">
<title>2391550752272&#45;&gt;2391551222176</title>
<path fill="none" stroke="black" d="M1404.12,-176C1411.63,-176 1420.01,-176 1428.22,-176"/>
<polygon fill="black" stroke="black" points="1428.08,-179.5 1438.08,-176 1428.08,-172.5 1428.08,-179.5"/>
</g>
<!-- 2391550754288 -->
<g id="node9" class="node">
<title>2391550754288</title>
<polygon fill="black" stroke="black" points="864,-149 810,-149 810,-113 864,-113 864,-149"/>
</g>
<!-- 2391551228224 -->
<g id="node13" class="node">
<title>2391551228224</title>
<ellipse fill="white" stroke="black" cx="927" cy="-176" rx="27" ry="27"/>
</g>
<!-- 2391550754288&#45;&gt;2391551228224 -->
<g id="edge29" class="edge">
<title>2391550754288&#45;&gt;2391551228224</title>
<path fill="none" stroke="black" d="M864.4,-144.5C873.23,-149.02 883.19,-154.11 892.49,-158.86"/>
<polygon fill="black" stroke="black" points="890.76,-161.91 901.26,-163.35 893.95,-155.68 890.76,-161.91"/>
</g>
<!-- 2391551217088 -->
<g id="node25" class="node">
<title>2391551217088</title>
<ellipse fill="white" stroke="black" cx="927" cy="-104" rx="27" ry="27"/>
</g>
<!-- 2391550754288&#45;&gt;2391551217088 -->
<g id="edge30" class="edge">
<title>2391550754288&#45;&gt;2391551217088</title>
<path fill="none" stroke="black" d="M864.4,-122.9C872.43,-120.44 881.39,-117.69 889.94,-115.06"/>
<polygon fill="black" stroke="black" points="890.84,-118.45 899.38,-112.17 888.79,-111.76 890.84,-118.45"/>
</g>
<!-- 2391558091632 -->
<g id="node10" class="node">
<title>2391558091632</title>
<polygon fill="white" stroke="black" points="504,-249 450,-249 450,-213 504,-213 504,-249"/>
<text text-anchor="middle" x="477" y="-227.9" font-family="Times New Roman,serif" font-size="12.00">g</text>
</g>
<!-- 2391550741136 -->
<g id="node21" class="node">
<title>2391550741136</title>
<ellipse fill="white" stroke="black" cx="657" cy="-231" rx="27" ry="27"/>
</g>
<!-- 2391558091632&#45;&gt;2391550741136 -->
<g id="edge11" class="edge">
<title>2391558091632&#45;&gt;2391550741136</title>
<path fill="none" stroke="black" d="M504.26,-231C534.37,-231 583.96,-231 618.21,-231"/>
<polygon fill="black" stroke="black" points="618.11,-234.5 628.11,-231 618.11,-227.5 618.11,-234.5"/>
</g>
<!-- 2391550239760 -->
<g id="node11" class="node">
<title>2391550239760</title>
<polygon fill="white" stroke="black" points="504,-108 450,-108 450,-72 504,-72 504,-108"/>
<text text-anchor="middle" x="477" y="-86.9" font-family="Times New Roman,serif" font-size="12.00">b</text>
</g>
<!-- 2391551228752 -->
<g id="node17" class="node">
<title>2391551228752</title>
<ellipse fill="white" stroke="black" cx="567" cy="-88" rx="27" ry="27"/>
</g>
<!-- 2391550239760&#45;&gt;2391551228752 -->
<g id="edge5" class="edge">
<title>2391550239760&#45;&gt;2391551228752</title>
<path fill="none" stroke="black" d="M504.4,-89.4C511.89,-89.23 520.18,-89.04 528.2,-88.86"/>
<polygon fill="black" stroke="black" points="528.18,-92.36 538.1,-88.63 528.03,-85.36 528.18,-92.36"/>
</g>
<!-- 2391551217520 -->
<g id="node12" class="node">
<title>2391551217520</title>
<ellipse fill="white" stroke="black" cx="27" cy="-123" rx="27" ry="27"/>
<text text-anchor="start" x="16" y="-114.3" font-family="Times New Roman,serif" font-size="34.00">â—</text>
</g>
<!-- 2391551217520&#45;&gt;2391550244224 -->
<g id="edge27" class="edge">
<title>2391551217520&#45;&gt;2391550244224</title>
<path fill="none" stroke="black" d="M54.4,-123C61.89,-123 70.18,-123 78.2,-123"/>
<polygon fill="black" stroke="black" points="78.1,-126.5 88.1,-123 78.1,-119.5 78.1,-126.5"/>
</g>
<!-- 2391551228224&#45;&gt;2391550751840 -->
<g id="edge13" class="edge">
<title>2391551228224&#45;&gt;2391550751840</title>
<path fill="none" stroke="black" d="M954.4,-176C961.89,-176 970.18,-176 978.2,-176"/>
<polygon fill="black" stroke="black" points="978.1,-179.5 988.1,-176 978.1,-172.5 978.1,-179.5"/>
</g>
<!-- 2391550743488&#45;&gt;2391550754288 -->
<g id="edge14" class="edge">
<title>2391550743488&#45;&gt;2391550754288</title>
<path fill="none" stroke="black" d="M772.98,-151.05C781.06,-148.48 790.19,-145.58 798.95,-142.79"/>
<polygon fill="black" stroke="black" points="799.82,-146.19 808.29,-139.82 797.69,-139.52 799.82,-146.19"/>
</g>
<!-- 2391551220304&#45;&gt;2391551227936 -->
<g id="edge15" class="edge">
<title>2391551220304&#45;&gt;2391551227936</title>
<path fill="none" stroke="black" d="M234.4,-123C241.89,-123 250.18,-123 258.2,-123"/>
<polygon fill="black" stroke="black" points="258.1,-126.5 268.1,-123 258.1,-119.5 258.1,-126.5"/>
</g>
<!-- 2391551229184&#45;&gt;2391550752272 -->
<g id="edge16" class="edge">
<title>2391551229184&#45;&gt;2391550752272</title>
<path fill="none" stroke="black" d="M1314.4,-176C1321.89,-176 1330.18,-176 1338.2,-176"/>
<polygon fill="black" stroke="black" points="1338.1,-179.5 1348.1,-176 1338.1,-172.5 1338.1,-179.5"/>
</g>
<!-- 2391551228752&#45;&gt;2391551218000 -->
<g id="edge17" class="edge">
<title>2391551228752&#45;&gt;2391551218000</title>
<path fill="none" stroke="black" d="M594.4,-87.7C601.89,-87.61 610.18,-87.52 618.2,-87.43"/>
<polygon fill="black" stroke="black" points="618.14,-90.93 628.1,-87.32 618.06,-83.93 618.14,-90.93"/>
</g>
<!-- 2391551225632&#45;&gt;2391550239760 -->
<g id="edge18" class="edge">
<title>2391551225632&#45;&gt;2391550239760</title>
<path fill="none" stroke="black" d="M414.4,-87.9C421.89,-88.16 430.18,-88.44 438.2,-88.71"/>
<polygon fill="black" stroke="black" points="437.99,-92.21 448.1,-89.05 438.23,-85.21 437.99,-92.21"/>
</g>
<!-- 2391550749968&#45;&gt;2391558091632 -->
<g id="edge19" class="edge">
<title>2391550749968&#45;&gt;2391558091632</title>
<path fill="none" stroke="black" d="M414.4,-231C421.89,-231 430.18,-231 438.2,-231"/>
<polygon fill="black" stroke="black" points="438.1,-234.5 448.1,-231 438.1,-227.5 438.1,-234.5"/>
</g>
<!-- 2391551223184&#45;&gt;2391550754288 -->
<g id="edge20" class="edge">
<title>2391551223184&#45;&gt;2391550754288</title>
<path fill="none" stroke="black" d="M771.58,-98.79C780.09,-103.05 789.91,-107.95 799.27,-112.64"/>
<polygon fill="black" stroke="black" points="797.69,-115.76 808.2,-117.1 800.83,-109.5 797.69,-115.76"/>
</g>
<!-- 2391550741136&#45;&gt;2391550243840 -->
<g id="edge21" class="edge">
<title>2391550741136&#45;&gt;2391550243840</title>
<path fill="none" stroke="black" d="M684.24,-231C718.96,-231 782.07,-231 836,-231 836,-231 836,-231 1018,-231 1070.24,-231 1084.82,-229.63 1134,-212 1142.75,-208.86 1151.66,-204.5 1159.91,-199.88"/>
<polygon fill="black" stroke="black" points="1161.43,-203.05 1168.27,-194.96 1157.88,-197.02 1161.43,-203.05"/>
</g>
<!-- 2391550743344&#45;&gt;2391550243840 -->
<g id="edge22" class="edge">
<title>2391550743344&#45;&gt;2391550243840</title>
<path fill="none" stroke="black" d="M1128.41,-120.7C1139.17,-129.5 1152.61,-140.5 1164.66,-150.36"/>
<polygon fill="black" stroke="black" points="1162.41,-153.04 1172.37,-156.66 1166.84,-147.62 1162.41,-153.04"/>
</g>
<!-- 2391550742672&#45;&gt;2391550243840 -->
<g id="edge23" class="edge">
<title>2391550742672&#45;&gt;2391550243840</title>
<path fill="none" stroke="black" d="M1134.4,-176C1141.89,-176 1150.18,-176 1158.2,-176"/>
<polygon fill="black" stroke="black" points="1158.1,-179.5 1168.1,-176 1158.1,-172.5 1158.1,-179.5"/>
</g>
<!-- 2391551223328&#45;&gt;2391550739408 -->
<g id="edge24" class="edge">
<title>2391551223328&#45;&gt;2391550739408</title>
<path fill="none" stroke="black" d="M414.4,-159C421.89,-159 430.18,-159 438.2,-159"/>
<polygon fill="black" stroke="black" points="438.1,-162.5 448.1,-159 438.1,-155.5 438.1,-162.5"/>
</g>
<!-- 2391551217088&#45;&gt;2391550747520 -->
<g id="edge25" class="edge">
<title>2391551217088&#45;&gt;2391550747520</title>
<path fill="none" stroke="black" d="M954.4,-104C961.89,-104 970.18,-104 978.2,-104"/>
<polygon fill="black" stroke="black" points="978.1,-107.5 988.1,-104 978.1,-100.5 978.1,-107.5"/>
</g>
<!-- 2391551219344&#45;&gt;2391551218000 -->
<g id="edge26" class="edge">
<title>2391551219344&#45;&gt;2391551218000</title>
<path fill="none" stroke="black" d="M503.98,-30.31C527.92,-33.89 564.15,-40.66 594,-52 602.71,-55.31 611.66,-59.7 619.96,-64.25"/>
<polygon fill="black" stroke="black" points="617.97,-67.15 628.39,-69.07 621.44,-61.07 617.97,-67.15"/>
</g>
</g>
</svg>
