<?xml version="1.0" encoding="UTF-8" standalone="no"?>
<!DOCTYPE svg PUBLIC "-//W3C//DTD SVG 1.1//EN"
 "http://www.w3.org/Graphics/SVG/1.1/DTD/svg11.dtd">
<!-- Generated by graphviz version 7.0.3 (20221126.0506)
 -->
<!-- Title: new_petri_net Pages: 1 -->
<svg width="1510pt" height="252pt"
 viewBox="0.00 0.00 1510.00 252.00" xmlns="http://www.w3.org/2000/svg" xmlns:xlink="http://www.w3.org/1999/xlink">
<g id="graph0" class="graph" transform="scale(1 1) rotate(0) translate(4 248)">
<title>new_petri_net</title>
<polygon fill="white" stroke="none" points="-4,4 -4,-248 1506,-248 1506,4 -4,4"/>
<!-- 1903642707520 -->
<g id="node1" class="node">
<title>1903642707520</title>
<polygon fill="black" stroke="black" points="864,-108 810,-108 810,-72 864,-72 864,-108"/>
</g>
<!-- 1903642712080 -->
<g id="node22" class="node">
<title>1903642712080</title>
<ellipse fill="white" stroke="black" cx="927" cy="-90" rx="27" ry="27"/>
</g>
<!-- 1903642707520&#45;&gt;1903642712080 -->
<g id="edge29" class="edge">
<title>1903642707520&#45;&gt;1903642712080</title>
<path fill="none" stroke="black" d="M864.4,-90C871.89,-90 880.18,-90 888.2,-90"/>
<polygon fill="black" stroke="black" points="888.1,-93.5 898.1,-90 888.1,-86.5 888.1,-93.5"/>
</g>
<!-- 1903642707616 -->
<g id="node23" class="node">
<title>1903642707616</title>
<ellipse fill="white" stroke="black" cx="927" cy="-162" rx="27" ry="27"/>
</g>
<!-- 1903642707520&#45;&gt;1903642707616 -->
<g id="edge30" class="edge">
<title>1903642707520&#45;&gt;1903642707616</title>
<path fill="none" stroke="black" d="M860.21,-108.17C871.32,-117.26 884.92,-128.39 896.87,-138.16"/>
<polygon fill="black" stroke="black" points="894.48,-140.74 904.44,-144.36 898.92,-135.32 894.48,-140.74"/>
</g>
<!-- 1903642706752 -->
<g id="node2" class="node">
<title>1903642706752</title>
<polygon fill="white" stroke="black" points="684,-108 630,-108 630,-72 684,-72 684,-108"/>
<text text-anchor="middle" x="657" y="-86.9" font-family="Times New Roman,serif" font-size="12.00">c</text>
</g>
<!-- 1903642773296 -->
<g id="node20" class="node">
<title>1903642773296</title>
<ellipse fill="white" stroke="black" cx="747" cy="-90" rx="27" ry="27"/>
</g>
<!-- 1903642706752&#45;&gt;1903642773296 -->
<g id="edge6" class="edge">
<title>1903642706752&#45;&gt;1903642773296</title>
<path fill="none" stroke="black" d="M684.4,-90C691.89,-90 700.18,-90 708.2,-90"/>
<polygon fill="black" stroke="black" points="708.1,-93.5 718.1,-90 708.1,-86.5 708.1,-93.5"/>
</g>
<!-- 1903642711744 -->
<g id="node3" class="node">
<title>1903642711744</title>
<polygon fill="white" stroke="black" points="504,-235 450,-235 450,-199 504,-199 504,-235"/>
<text text-anchor="middle" x="477" y="-213.9" font-family="Times New Roman,serif" font-size="12.00">g</text>
</g>
<!-- 1903642772144 -->
<g id="node24" class="node">
<title>1903642772144</title>
<ellipse fill="white" stroke="black" cx="747" cy="-217" rx="27" ry="27"/>
</g>
<!-- 1903642711744&#45;&gt;1903642772144 -->
<g id="edge11" class="edge">
<title>1903642711744&#45;&gt;1903642772144</title>
<path fill="none" stroke="black" d="M504.18,-217C551.92,-217 653.23,-217 708.36,-217"/>
<polygon fill="black" stroke="black" points="708.2,-220.5 718.2,-217 708.2,-213.5 708.2,-220.5"/>
</g>
<!-- 1903642707808 -->
<g id="node4" class="node">
<title>1903642707808</title>
<polygon fill="white" stroke="black" points="504,-45 450,-45 450,-9 504,-9 504,-45"/>
<text text-anchor="middle" x="477" y="-23.9" font-family="Times New Roman,serif" font-size="12.00">e</text>
</g>
<!-- 1903642771664 -->
<g id="node25" class="node">
<title>1903642771664</title>
<ellipse fill="white" stroke="black" cx="657" cy="-27" rx="27" ry="27"/>
</g>
<!-- 1903642707808&#45;&gt;1903642771664 -->
<g id="edge8" class="edge">
<title>1903642707808&#45;&gt;1903642771664</title>
<path fill="none" stroke="black" d="M504.26,-27C534.37,-27 583.96,-27 618.21,-27"/>
<polygon fill="black" stroke="black" points="618.11,-30.5 628.11,-27 618.11,-23.5 618.11,-30.5"/>
</g>
<!-- 1903642706560 -->
<g id="node5" class="node">
<title>1903642706560</title>
<polygon fill="white" stroke="black" points="1224,-180 1170,-180 1170,-144 1224,-144 1224,-180"/>
<text text-anchor="middle" x="1197" y="-158.9" font-family="Times New Roman,serif" font-size="12.00">h</text>
</g>
<!-- 1903642773392 -->
<g id="node16" class="node">
<title>1903642773392</title>
<ellipse fill="white" stroke="black" cx="1287" cy="-162" rx="27" ry="27"/>
</g>
<!-- 1903642706560&#45;&gt;1903642773392 -->
<g id="edge12" class="edge">
<title>1903642706560&#45;&gt;1903642773392</title>
<path fill="none" stroke="black" d="M1224.4,-162C1231.89,-162 1240.18,-162 1248.2,-162"/>
<polygon fill="black" stroke="black" points="1248.1,-165.5 1258.1,-162 1248.1,-158.5 1248.1,-165.5"/>
</g>
<!-- 1903642706704 -->
<g id="node6" class="node">
<title>1903642706704</title>
<polygon fill="white" stroke="black" points="324,-135 270,-135 270,-99 324,-99 324,-135"/>
<text text-anchor="middle" x="297" y="-113.9" font-family="Times New Roman,serif" font-size="12.00">a</text>
</g>
<!-- 1903642711840 -->
<g id="node14" class="node">
<title>1903642711840</title>
<ellipse fill="white" stroke="black" cx="387" cy="-217" rx="27" ry="27"/>
</g>
<!-- 1903642706704&#45;&gt;1903642711840 -->
<g id="edge1" class="edge">
<title>1903642706704&#45;&gt;1903642711840</title>
<path fill="none" stroke="black" d="M314.14,-135.34C327.24,-150.23 345.93,-171.47 360.97,-188.56"/>
<polygon fill="black" stroke="black" points="358.22,-190.73 367.45,-195.92 363.47,-186.1 358.22,-190.73"/>
</g>
<!-- 1903642722064 -->
<g id="node18" class="node">
<title>1903642722064</title>
<ellipse fill="white" stroke="black" cx="387" cy="-145" rx="27" ry="27"/>
</g>
<!-- 1903642706704&#45;&gt;1903642722064 -->
<g id="edge2" class="edge">
<title>1903642706704&#45;&gt;1903642722064</title>
<path fill="none" stroke="black" d="M324.4,-125.4C332.43,-127.95 341.39,-130.81 349.94,-133.53"/>
<polygon fill="black" stroke="black" points="348.79,-136.83 359.38,-136.53 350.91,-130.16 348.79,-136.83"/>
</g>
<!-- 1903642721536 -->
<g id="node19" class="node">
<title>1903642721536</title>
<ellipse fill="white" stroke="black" cx="387" cy="-31" rx="27" ry="27"/>
</g>
<!-- 1903642706704&#45;&gt;1903642721536 -->
<g id="edge3" class="edge">
<title>1903642706704&#45;&gt;1903642721536</title>
<path fill="none" stroke="black" d="M316.66,-98.76C328.95,-86.76 345.23,-70.85 358.92,-57.46"/>
<polygon fill="black" stroke="black" points="361.27,-60.06 365.98,-50.57 356.38,-55.05 361.27,-60.06"/>
</g>
<!-- 1903642774880 -->
<g id="node21" class="node">
<title>1903642774880</title>
<ellipse fill="white" stroke="black" cx="477" cy="-90" rx="27" ry="27"/>
</g>
<!-- 1903642706704&#45;&gt;1903642774880 -->
<g id="edge4" class="edge">
<title>1903642706704&#45;&gt;1903642774880</title>
<path fill="none" stroke="black" d="M324.26,-113.02C354.59,-108.42 404.68,-100.82 438.95,-95.62"/>
<polygon fill="black" stroke="black" points="439.06,-99.14 448.42,-94.18 438.01,-92.22 439.06,-99.14"/>
</g>
<!-- 1903642707376 -->
<g id="node7" class="node">
<title>1903642707376</title>
<polygon fill="white" stroke="black" points="1044,-180 990,-180 990,-144 1044,-144 1044,-180"/>
<text text-anchor="middle" x="1017" y="-158.9" font-family="Times New Roman,serif" font-size="12.00">f</text>
</g>
<!-- 1903642714816 -->
<g id="node13" class="node">
<title>1903642714816</title>
<ellipse fill="white" stroke="black" cx="1107" cy="-162" rx="27" ry="27"/>
</g>
<!-- 1903642707376&#45;&gt;1903642714816 -->
<g id="edge10" class="edge">
<title>1903642707376&#45;&gt;1903642714816</title>
<path fill="none" stroke="black" d="M1044.4,-162C1051.89,-162 1060.18,-162 1068.2,-162"/>
<polygon fill="black" stroke="black" points="1068.1,-165.5 1078.1,-162 1068.1,-158.5 1068.1,-165.5"/>
</g>
<!-- 1903642706416 -->
<g id="node8" class="node">
<title>1903642706416</title>
<polygon fill="white" stroke="black" points="504,-171 450,-171 450,-135 504,-135 504,-171"/>
<text text-anchor="middle" x="477" y="-149.9" font-family="Times New Roman,serif" font-size="12.00">b</text>
</g>
<!-- 1903642722016 -->
<g id="node17" class="node">
<title>1903642722016</title>
<ellipse fill="white" stroke="black" cx="567" cy="-149" rx="27" ry="27"/>
</g>
<!-- 1903642706416&#45;&gt;1903642722016 -->
<g id="edge5" class="edge">
<title>1903642706416&#45;&gt;1903642722016</title>
<path fill="none" stroke="black" d="M504.4,-151.8C511.89,-151.46 520.18,-151.08 528.2,-150.72"/>
<polygon fill="black" stroke="black" points="528.27,-154.22 538.1,-150.27 527.96,-147.23 528.27,-154.22"/>
</g>
<!-- 1903642707760 -->
<g id="node9" class="node">
<title>1903642707760</title>
<polygon fill="white" stroke="black" points="1044,-108 990,-108 990,-72 1044,-72 1044,-108"/>
<text text-anchor="middle" x="1017" y="-86.9" font-family="Times New Roman,serif" font-size="12.00">d</text>
</g>
<!-- 1903642714864 -->
<g id="node26" class="node">
<title>1903642714864</title>
<ellipse fill="white" stroke="black" cx="1107" cy="-90" rx="27" ry="27"/>
</g>
<!-- 1903642707760&#45;&gt;1903642714864 -->
<g id="edge7" class="edge">
<title>1903642707760&#45;&gt;1903642714864</title>
<path fill="none" stroke="black" d="M1044.4,-90C1051.89,-90 1060.18,-90 1068.2,-90"/>
<polygon fill="black" stroke="black" points="1068.1,-93.5 1078.1,-90 1068.1,-86.5 1068.1,-93.5"/>
</g>
<!-- 1903642706992 -->
<g id="node10" class="node">
<title>1903642706992</title>
<polygon fill="black" stroke="black" points="1404,-180 1350,-180 1350,-144 1404,-144 1404,-180"/>
</g>
<!-- 1903642721776 -->
<g id="node27" class="node">
<title>1903642721776</title>
<ellipse fill="white" stroke="black" cx="1471" cy="-162" rx="27" ry="27"/>
<ellipse fill="none" stroke="black" cx="1471" cy="-162" rx="31" ry="31"/>
<text text-anchor="start" x="1461" y="-153.9" font-family="Times New Roman,serif" font-size="32.00">â– </text>
</g>
<!-- 1903642706992&#45;&gt;1903642721776 -->
<g id="edge9" class="edge">
<title>1903642706992&#45;&gt;1903642721776</title>
<path fill="none" stroke="black" d="M1404.12,-162C1411.63,-162 1420.01,-162 1428.22,-162"/>
<polygon fill="black" stroke="black" points="1428.08,-165.5 1438.08,-162 1428.08,-158.5 1428.08,-165.5"/>
</g>
<!-- 1903642711696 -->
<g id="node11" class="node">
<title>1903642711696</title>
<polygon fill="black" stroke="black" points="144,-135 90,-135 90,-99 144,-99 144,-135"/>
</g>
<!-- 1903642722112 -->
<g id="node15" class="node">
<title>1903642722112</title>
<ellipse fill="white" stroke="black" cx="207" cy="-117" rx="27" ry="27"/>
</g>
<!-- 1903642711696&#45;&gt;1903642722112 -->
<g id="edge28" class="edge">
<title>1903642711696&#45;&gt;1903642722112</title>
<path fill="none" stroke="black" d="M144.4,-117C151.89,-117 160.18,-117 168.2,-117"/>
<polygon fill="black" stroke="black" points="168.1,-120.5 178.1,-117 168.1,-113.5 168.1,-120.5"/>
</g>
<!-- 1903642773488 -->
<g id="node12" class="node">
<title>1903642773488</title>
<ellipse fill="white" stroke="black" cx="27" cy="-117" rx="27" ry="27"/>
<text text-anchor="start" x="16" y="-108.3" font-family="Times New Roman,serif" font-size="34.00">â—</text>
</g>
<!-- 1903642773488&#45;&gt;1903642711696 -->
<g id="edge27" class="edge">
<title>1903642773488&#45;&gt;1903642711696</title>
<path fill="none" stroke="black" d="M54.4,-117C61.89,-117 70.18,-117 78.2,-117"/>
<polygon fill="black" stroke="black" points="78.1,-120.5 88.1,-117 78.1,-113.5 78.1,-120.5"/>
</g>
<!-- 1903642714816&#45;&gt;1903642706560 -->
<g id="edge13" class="edge">
<title>1903642714816&#45;&gt;1903642706560</title>
<path fill="none" stroke="black" d="M1134.4,-162C1141.89,-162 1150.18,-162 1158.2,-162"/>
<polygon fill="black" stroke="black" points="1158.1,-165.5 1168.1,-162 1158.1,-158.5 1158.1,-165.5"/>
</g>
<!-- 1903642711840&#45;&gt;1903642711744 -->
<g id="edge14" class="edge">
<title>1903642711840&#45;&gt;1903642711744</title>
<path fill="none" stroke="black" d="M414.4,-217C421.89,-217 430.18,-217 438.2,-217"/>
<polygon fill="black" stroke="black" points="438.1,-220.5 448.1,-217 438.1,-213.5 438.1,-220.5"/>
</g>
<!-- 1903642722112&#45;&gt;1903642706704 -->
<g id="edge15" class="edge">
<title>1903642722112&#45;&gt;1903642706704</title>
<path fill="none" stroke="black" d="M234.4,-117C241.89,-117 250.18,-117 258.2,-117"/>
<polygon fill="black" stroke="black" points="258.1,-120.5 268.1,-117 258.1,-113.5 258.1,-120.5"/>
</g>
<!-- 1903642773392&#45;&gt;1903642706992 -->
<g id="edge16" class="edge">
<title>1903642773392&#45;&gt;1903642706992</title>
<path fill="none" stroke="black" d="M1314.4,-162C1321.89,-162 1330.18,-162 1338.2,-162"/>
<polygon fill="black" stroke="black" points="1338.1,-165.5 1348.1,-162 1338.1,-158.5 1338.1,-165.5"/>
</g>
<!-- 1903642722016&#45;&gt;1903642706752 -->
<g id="edge17" class="edge">
<title>1903642722016&#45;&gt;1903642706752</title>
<path fill="none" stroke="black" d="M589.75,-134.42C599.03,-128.2 610.09,-120.78 620.5,-113.8"/>
<polygon fill="black" stroke="black" points="622.18,-116.89 628.54,-108.41 618.28,-111.07 622.18,-116.89"/>
</g>
<!-- 1903642722064&#45;&gt;1903642706416 -->
<g id="edge18" class="edge">
<title>1903642722064&#45;&gt;1903642706416</title>
<path fill="none" stroke="black" d="M413.93,-147.36C421.58,-148.05 430.11,-148.83 438.34,-149.58"/>
<polygon fill="black" stroke="black" points="437.87,-153.05 448.14,-150.47 438.5,-146.08 437.87,-153.05"/>
</g>
<!-- 1903642721536&#45;&gt;1903642707808 -->
<g id="edge19" class="edge">
<title>1903642721536&#45;&gt;1903642707808</title>
<path fill="none" stroke="black" d="M414.4,-29.8C421.89,-29.46 430.18,-29.08 438.2,-28.72"/>
<polygon fill="black" stroke="black" points="438.27,-32.22 448.1,-28.27 437.96,-25.23 438.27,-32.22"/>
</g>
<!-- 1903642773296&#45;&gt;1903642707520 -->
<g id="edge20" class="edge">
<title>1903642773296&#45;&gt;1903642707520</title>
<path fill="none" stroke="black" d="M774.4,-90C781.89,-90 790.18,-90 798.2,-90"/>
<polygon fill="black" stroke="black" points="798.1,-93.5 808.1,-90 798.1,-86.5 798.1,-93.5"/>
</g>
<!-- 1903642774880&#45;&gt;1903642706752 -->
<g id="edge21" class="edge">
<title>1903642774880&#45;&gt;1903642706752</title>
<path fill="none" stroke="black" d="M504.26,-90C534.37,-90 583.96,-90 618.21,-90"/>
<polygon fill="black" stroke="black" points="618.11,-93.5 628.11,-90 618.11,-86.5 618.11,-93.5"/>
</g>
<!-- 1903642712080&#45;&gt;1903642707760 -->
<g id="edge22" class="edge">
<title>1903642712080&#45;&gt;1903642707760</title>
<path fill="none" stroke="black" d="M954.4,-90C961.89,-90 970.18,-90 978.2,-90"/>
<polygon fill="black" stroke="black" points="978.1,-93.5 988.1,-90 978.1,-86.5 978.1,-93.5"/>
</g>
<!-- 1903642707616&#45;&gt;1903642707376 -->
<g id="edge23" class="edge">
<title>1903642707616&#45;&gt;1903642707376</title>
<path fill="none" stroke="black" d="M954.4,-162C961.89,-162 970.18,-162 978.2,-162"/>
<polygon fill="black" stroke="black" points="978.1,-165.5 988.1,-162 978.1,-158.5 978.1,-165.5"/>
</g>
<!-- 1903642772144&#45;&gt;1903642706560 -->
<g id="edge24" class="edge">
<title>1903642772144&#45;&gt;1903642706560</title>
<path fill="none" stroke="black" d="M774.24,-217C808.96,-217 872.07,-217 926,-217 926,-217 926,-217 1018,-217 1070.24,-217 1084.82,-215.63 1134,-198 1142.75,-194.86 1151.66,-190.5 1159.91,-185.88"/>
<polygon fill="black" stroke="black" points="1161.43,-189.05 1168.27,-180.96 1157.88,-183.02 1161.43,-189.05"/>
</g>
<!-- 1903642771664&#45;&gt;1903642707520 -->
<g id="edge25" class="edge">
<title>1903642771664&#45;&gt;1903642707520</title>
<path fill="none" stroke="black" d="M684.01,-30.78C707.97,-34.78 744.21,-42.19 774,-54 782.72,-57.46 791.68,-62 799.98,-66.68"/>
<polygon fill="black" stroke="black" points="798.02,-69.59 808.41,-71.65 801.57,-63.56 798.02,-69.59"/>
</g>
<!-- 1903642714864&#45;&gt;1903642706560 -->
<g id="edge26" class="edge">
<title>1903642714864&#45;&gt;1903642706560</title>
<path fill="none" stroke="black" d="M1128.41,-106.7C1139.17,-115.5 1152.61,-126.5 1164.66,-136.36"/>
<polygon fill="black" stroke="black" points="1162.41,-139.04 1172.37,-142.66 1166.84,-133.62 1162.41,-139.04"/>
</g>
</g>
</svg>
