<?xml version="1.0" encoding="UTF-8" standalone="no"?>
<!DOCTYPE svg PUBLIC "-//W3C//DTD SVG 1.1//EN"
 "http://www.w3.org/Graphics/SVG/1.1/DTD/svg11.dtd">
<!-- Generated by graphviz version 7.0.3 (20221126.0506)
 -->
<!-- Title: new_petri_net Pages: 1 -->
<svg width="1330pt" height="206pt"
 viewBox="0.00 0.00 1330.00 206.00" xmlns="http://www.w3.org/2000/svg" xmlns:xlink="http://www.w3.org/1999/xlink">
<g id="graph0" class="graph" transform="scale(1 1) rotate(0) translate(4 202)">
<title>new_petri_net</title>
<polygon fill="white" stroke="none" points="-4,4 -4,-202 1326,-202 1326,4 -4,4"/>
<!-- 1739459380320 -->
<g id="node1" class="node">
<title>1739459380320</title>
<polygon fill="white" stroke="black" points="1044,-148 990,-148 990,-112 1044,-112 1044,-148"/>
<text text-anchor="middle" x="1017" y="-126.9" font-family="Times New Roman,serif" font-size="12.00">h</text>
</g>
<!-- 1739459380176 -->
<g id="node15" class="node">
<title>1739459380176</title>
<ellipse fill="white" stroke="black" cx="1107" cy="-130" rx="27" ry="27"/>
</g>
<!-- 1739459380320&#45;&gt;1739459380176 -->
<g id="edge11" class="edge">
<title>1739459380320&#45;&gt;1739459380176</title>
<path fill="none" stroke="black" d="M1044.4,-130C1051.89,-130 1060.18,-130 1068.2,-130"/>
<polygon fill="black" stroke="black" points="1068.1,-133.5 1078.1,-130 1068.1,-126.5 1068.1,-133.5"/>
</g>
<!-- 1739459381184 -->
<g id="node2" class="node">
<title>1739459381184</title>
<polygon fill="white" stroke="black" points="504,-188 450,-188 450,-152 504,-152 504,-188"/>
<text text-anchor="middle" x="477" y="-166.9" font-family="Times New Roman,serif" font-size="12.00">f</text>
</g>
<!-- 1739459382096 -->
<g id="node13" class="node">
<title>1739459382096</title>
<ellipse fill="white" stroke="black" cx="567" cy="-170" rx="27" ry="27"/>
</g>
<!-- 1739459381184&#45;&gt;1739459382096 -->
<g id="edge9" class="edge">
<title>1739459381184&#45;&gt;1739459382096</title>
<path fill="none" stroke="black" d="M504.4,-170C511.89,-170 520.18,-170 528.2,-170"/>
<polygon fill="black" stroke="black" points="528.1,-173.5 538.1,-170 528.1,-166.5 528.1,-173.5"/>
</g>
<!-- 1739459383296 -->
<g id="node3" class="node">
<title>1739459383296</title>
<polygon fill="white" stroke="black" points="504,-47 450,-47 450,-11 504,-11 504,-47"/>
<text text-anchor="middle" x="477" y="-25.9" font-family="Times New Roman,serif" font-size="12.00">b</text>
</g>
<!-- 1739459381712 -->
<g id="node12" class="node">
<title>1739459381712</title>
<ellipse fill="white" stroke="black" cx="567" cy="-33" rx="27" ry="27"/>
</g>
<!-- 1739459383296&#45;&gt;1739459381712 -->
<g id="edge4" class="edge">
<title>1739459383296&#45;&gt;1739459381712</title>
<path fill="none" stroke="black" d="M504.4,-30.2C511.89,-30.54 520.18,-30.92 528.2,-31.28"/>
<polygon fill="black" stroke="black" points="527.96,-34.77 538.1,-31.73 528.27,-27.78 527.96,-34.77"/>
</g>
<!-- 1739459382624 -->
<g id="node4" class="node">
<title>1739459382624</title>
<polygon fill="white" stroke="black" points="684,-53 630,-53 630,-17 684,-17 684,-53"/>
<text text-anchor="middle" x="657" y="-31.9" font-family="Times New Roman,serif" font-size="12.00">c</text>
</g>
<!-- 1739459383104 -->
<g id="node17" class="node">
<title>1739459383104</title>
<ellipse fill="white" stroke="black" cx="747" cy="-40" rx="27" ry="27"/>
</g>
<!-- 1739459382624&#45;&gt;1739459383104 -->
<g id="edge5" class="edge">
<title>1739459382624&#45;&gt;1739459383104</title>
<path fill="none" stroke="black" d="M684.4,-36.5C691.89,-36.93 700.18,-37.4 708.2,-37.85"/>
<polygon fill="black" stroke="black" points="707.92,-41.34 718.1,-38.42 708.32,-34.35 707.92,-41.34"/>
</g>
<!-- 1739459392176 -->
<g id="node5" class="node">
<title>1739459392176</title>
<polygon fill="white" stroke="black" points="324,-117 270,-117 270,-81 324,-81 324,-117"/>
<text text-anchor="middle" x="297" y="-95.9" font-family="Times New Roman,serif" font-size="12.00">a</text>
</g>
<!-- 1739459383968 -->
<g id="node16" class="node">
<title>1739459383968</title>
<ellipse fill="white" stroke="black" cx="387" cy="-171" rx="27" ry="27"/>
</g>
<!-- 1739459392176&#45;&gt;1739459383968 -->
<g id="edge1" class="edge">
<title>1739459392176&#45;&gt;1739459383968</title>
<path fill="none" stroke="black" d="M320.21,-117.17C331.32,-126.26 344.92,-137.39 356.87,-147.16"/>
<polygon fill="black" stroke="black" points="354.48,-149.74 364.44,-153.36 358.92,-144.32 354.48,-149.74"/>
</g>
<!-- 1739459380272 -->
<g id="node19" class="node">
<title>1739459380272</title>
<ellipse fill="white" stroke="black" cx="387" cy="-99" rx="27" ry="27"/>
</g>
<!-- 1739459392176&#45;&gt;1739459380272 -->
<g id="edge2" class="edge">
<title>1739459392176&#45;&gt;1739459380272</title>
<path fill="none" stroke="black" d="M324.4,-99C331.89,-99 340.18,-99 348.2,-99"/>
<polygon fill="black" stroke="black" points="348.1,-102.5 358.1,-99 348.1,-95.5 348.1,-102.5"/>
</g>
<!-- 1739459381328 -->
<g id="node20" class="node">
<title>1739459381328</title>
<ellipse fill="white" stroke="black" cx="387" cy="-27" rx="27" ry="27"/>
</g>
<!-- 1739459392176&#45;&gt;1739459381328 -->
<g id="edge3" class="edge">
<title>1739459392176&#45;&gt;1739459381328</title>
<path fill="none" stroke="black" d="M320.21,-80.83C331.32,-71.74 344.92,-60.61 356.87,-50.84"/>
<polygon fill="black" stroke="black" points="358.92,-53.68 364.44,-44.64 354.48,-48.26 358.92,-53.68"/>
</g>
<!-- 1739459381232 -->
<g id="node6" class="node">
<title>1739459381232</title>
<polygon fill="white" stroke="black" points="864,-117 810,-117 810,-81 864,-81 864,-117"/>
<text text-anchor="middle" x="837" y="-95.9" font-family="Times New Roman,serif" font-size="12.00">d</text>
</g>
<!-- 1739459383872 -->
<g id="node21" class="node">
<title>1739459383872</title>
<ellipse fill="white" stroke="black" cx="927" cy="-103" rx="27" ry="27"/>
</g>
<!-- 1739459381232&#45;&gt;1739459383872 -->
<g id="edge6" class="edge">
<title>1739459381232&#45;&gt;1739459383872</title>
<path fill="none" stroke="black" d="M864.4,-100.2C871.89,-100.54 880.18,-100.92 888.2,-101.28"/>
<polygon fill="black" stroke="black" points="887.96,-104.77 898.1,-101.73 888.27,-97.78 887.96,-104.77"/>
</g>
<!-- 1739459383344 -->
<g id="node7" class="node">
<title>1739459383344</title>
<polygon fill="black" stroke="black" points="1224,-148 1170,-148 1170,-112 1224,-112 1224,-148"/>
</g>
<!-- 1739459382000 -->
<g id="node23" class="node">
<title>1739459382000</title>
<ellipse fill="white" stroke="black" cx="1291" cy="-130" rx="27" ry="27"/>
<ellipse fill="none" stroke="black" cx="1291" cy="-130" rx="31" ry="31"/>
<text text-anchor="start" x="1281" y="-121.9" font-family="Times New Roman,serif" font-size="32.00">â– </text>
</g>
<!-- 1739459383344&#45;&gt;1739459382000 -->
<g id="edge8" class="edge">
<title>1739459383344&#45;&gt;1739459382000</title>
<path fill="none" stroke="black" d="M1224.12,-130C1231.63,-130 1240.01,-130 1248.22,-130"/>
<polygon fill="black" stroke="black" points="1248.08,-133.5 1258.08,-130 1248.08,-126.5 1248.08,-133.5"/>
</g>
<!-- 1739459380464 -->
<g id="node8" class="node">
<title>1739459380464</title>
<polygon fill="white" stroke="black" points="684,-187 630,-187 630,-151 684,-151 684,-187"/>
<text text-anchor="middle" x="657" y="-165.9" font-family="Times New Roman,serif" font-size="12.00">g</text>
</g>
<!-- 1739459381520 -->
<g id="node18" class="node">
<title>1739459381520</title>
<ellipse fill="white" stroke="black" cx="837" cy="-164" rx="27" ry="27"/>
</g>
<!-- 1739459380464&#45;&gt;1739459381520 -->
<g id="edge10" class="edge">
<title>1739459380464&#45;&gt;1739459381520</title>
<path fill="none" stroke="black" d="M684.26,-168.26C714.37,-167.42 763.96,-166.02 798.21,-165.06"/>
<polygon fill="black" stroke="black" points="798.22,-168.56 808.11,-164.78 798.02,-161.57 798.22,-168.56"/>
</g>
<!-- 1739459386992 -->
<g id="node9" class="node">
<title>1739459386992</title>
<polygon fill="white" stroke="black" points="504,-117 450,-117 450,-81 504,-81 504,-117"/>
<text text-anchor="middle" x="477" y="-95.9" font-family="Times New Roman,serif" font-size="12.00">e</text>
</g>
<!-- 1739459379648 -->
<g id="node22" class="node">
<title>1739459379648</title>
<ellipse fill="white" stroke="black" cx="657" cy="-99" rx="27" ry="27"/>
</g>
<!-- 1739459386992&#45;&gt;1739459379648 -->
<g id="edge7" class="edge">
<title>1739459386992&#45;&gt;1739459379648</title>
<path fill="none" stroke="black" d="M504.26,-99C534.37,-99 583.96,-99 618.21,-99"/>
<polygon fill="black" stroke="black" points="618.11,-102.5 628.11,-99 618.11,-95.5 618.11,-102.5"/>
</g>
<!-- 1739459382672 -->
<g id="node10" class="node">
<title>1739459382672</title>
<polygon fill="black" stroke="black" points="144,-117 90,-117 90,-81 144,-81 144,-117"/>
</g>
<!-- 1739459380656 -->
<g id="node14" class="node">
<title>1739459380656</title>
<ellipse fill="white" stroke="black" cx="207" cy="-99" rx="27" ry="27"/>
</g>
<!-- 1739459382672&#45;&gt;1739459380656 -->
<g id="edge24" class="edge">
<title>1739459382672&#45;&gt;1739459380656</title>
<path fill="none" stroke="black" d="M144.4,-99C151.89,-99 160.18,-99 168.2,-99"/>
<polygon fill="black" stroke="black" points="168.1,-102.5 178.1,-99 168.1,-95.5 168.1,-102.5"/>
</g>
<!-- 1739459382432 -->
<g id="node11" class="node">
<title>1739459382432</title>
<ellipse fill="white" stroke="black" cx="27" cy="-99" rx="27" ry="27"/>
<text text-anchor="start" x="16" y="-90.3" font-family="Times New Roman,serif" font-size="34.00">â—</text>
</g>
<!-- 1739459382432&#45;&gt;1739459382672 -->
<g id="edge23" class="edge">
<title>1739459382432&#45;&gt;1739459382672</title>
<path fill="none" stroke="black" d="M54.4,-99C61.89,-99 70.18,-99 78.2,-99"/>
<polygon fill="black" stroke="black" points="78.1,-102.5 88.1,-99 78.1,-95.5 78.1,-102.5"/>
</g>
<!-- 1739459381712&#45;&gt;1739459382624 -->
<g id="edge12" class="edge">
<title>1739459381712&#45;&gt;1739459382624</title>
<path fill="none" stroke="black" d="M594.4,-33.6C601.89,-33.77 610.18,-33.96 618.2,-34.14"/>
<polygon fill="black" stroke="black" points="618.03,-37.64 628.1,-34.37 618.18,-30.64 618.03,-37.64"/>
</g>
<!-- 1739459382096&#45;&gt;1739459380464 -->
<g id="edge13" class="edge">
<title>1739459382096&#45;&gt;1739459380464</title>
<path fill="none" stroke="black" d="M594.4,-169.7C601.89,-169.61 610.18,-169.52 618.2,-169.43"/>
<polygon fill="black" stroke="black" points="618.14,-172.93 628.1,-169.32 618.06,-165.93 618.14,-172.93"/>
</g>
<!-- 1739459380656&#45;&gt;1739459392176 -->
<g id="edge14" class="edge">
<title>1739459380656&#45;&gt;1739459392176</title>
<path fill="none" stroke="black" d="M234.4,-99C241.89,-99 250.18,-99 258.2,-99"/>
<polygon fill="black" stroke="black" points="258.1,-102.5 268.1,-99 258.1,-95.5 258.1,-102.5"/>
</g>
<!-- 1739459380176&#45;&gt;1739459383344 -->
<g id="edge15" class="edge">
<title>1739459380176&#45;&gt;1739459383344</title>
<path fill="none" stroke="black" d="M1134.4,-130C1141.89,-130 1150.18,-130 1158.2,-130"/>
<polygon fill="black" stroke="black" points="1158.1,-133.5 1168.1,-130 1158.1,-126.5 1158.1,-133.5"/>
</g>
<!-- 1739459383968&#45;&gt;1739459381184 -->
<g id="edge16" class="edge">
<title>1739459383968&#45;&gt;1739459381184</title>
<path fill="none" stroke="black" d="M414.4,-170.7C421.89,-170.61 430.18,-170.52 438.2,-170.43"/>
<polygon fill="black" stroke="black" points="438.14,-173.93 448.1,-170.32 438.06,-166.93 438.14,-173.93"/>
</g>
<!-- 1739459383104&#45;&gt;1739459381232 -->
<g id="edge17" class="edge">
<title>1739459383104&#45;&gt;1739459381232</title>
<path fill="none" stroke="black" d="M769.75,-54.58C779.03,-60.8 790.09,-68.22 800.5,-75.2"/>
<polygon fill="black" stroke="black" points="798.28,-77.93 808.54,-80.59 802.18,-72.11 798.28,-77.93"/>
</g>
<!-- 1739459381520&#45;&gt;1739459380320 -->
<g id="edge18" class="edge">
<title>1739459381520&#45;&gt;1739459380320</title>
<path fill="none" stroke="black" d="M863.88,-159.06C894.03,-153.3 944.08,-143.74 978.49,-137.17"/>
<polygon fill="black" stroke="black" points="978.85,-140.66 988.02,-135.34 977.54,-133.78 978.85,-140.66"/>
</g>
<!-- 1739459380272&#45;&gt;1739459386992 -->
<g id="edge19" class="edge">
<title>1739459380272&#45;&gt;1739459386992</title>
<path fill="none" stroke="black" d="M414.4,-99C421.89,-99 430.18,-99 438.2,-99"/>
<polygon fill="black" stroke="black" points="438.1,-102.5 448.1,-99 438.1,-95.5 438.1,-102.5"/>
</g>
<!-- 1739459381328&#45;&gt;1739459383296 -->
<g id="edge20" class="edge">
<title>1739459381328&#45;&gt;1739459383296</title>
<path fill="none" stroke="black" d="M414.4,-27.6C421.89,-27.77 430.18,-27.96 438.2,-28.14"/>
<polygon fill="black" stroke="black" points="438.03,-31.64 448.1,-28.37 438.18,-24.64 438.03,-31.64"/>
</g>
<!-- 1739459383872&#45;&gt;1739459380320 -->
<g id="edge21" class="edge">
<title>1739459383872&#45;&gt;1739459380320</title>
<path fill="none" stroke="black" d="M952.98,-110.66C961.06,-113.14 970.19,-115.94 978.95,-118.63"/>
<polygon fill="black" stroke="black" points="977.69,-121.91 988.28,-121.5 979.75,-115.22 977.69,-121.91"/>
</g>
<!-- 1739459379648&#45;&gt;1739459381232 -->
<g id="edge22" class="edge">
<title>1739459379648&#45;&gt;1739459381232</title>
<path fill="none" stroke="black" d="M684.26,-99C714.37,-99 763.96,-99 798.21,-99"/>
<polygon fill="black" stroke="black" points="798.11,-102.5 808.11,-99 798.11,-95.5 798.11,-102.5"/>
</g>
</g>
</svg>
