<?xml version="1.0" encoding="UTF-8" standalone="no"?>
<!DOCTYPE svg PUBLIC "-//W3C//DTD SVG 1.1//EN"
 "http://www.w3.org/Graphics/SVG/1.1/DTD/svg11.dtd">
<!-- Generated by graphviz version 3.0.0 (20220226.1711)
 -->
<!-- Title: imdf_net_1729175622.2212126 Pages: 1 -->
<svg width="1150pt" height="206pt"
 viewBox="0.00 0.00 1150.00 206.00" xmlns="http://www.w3.org/2000/svg" xmlns:xlink="http://www.w3.org/1999/xlink">
<g id="graph0" class="graph" transform="scale(1 1) rotate(0) translate(4 202)">
<title>imdf_net_1729175622.2212126</title>
<polygon fill="white" stroke="transparent" points="-4,4 -4,-202 1146,-202 1146,4 -4,4"/>
<!-- 2333740350784 -->
<g id="node1" class="node">
<title>2333740350784</title>
<polygon fill="white" stroke="black" points="144,-117 90,-117 90,-81 144,-81 144,-117"/>
<text text-anchor="middle" x="117" y="-95.9" font-family="Times New Roman,serif" font-size="12.00">a</text>
</g>
<!-- 2333741433200 -->
<g id="node11" class="node">
<title>2333741433200</title>
<ellipse fill="white" stroke="black" cx="207" cy="-99" rx="27" ry="27"/>
</g>
<!-- 2333740350784&#45;&gt;2333741433200 -->
<g id="edge3" class="edge">
<title>2333740350784&#45;&gt;2333741433200</title>
<path fill="none" stroke="black" d="M144.4,-99C152.39,-99 161.31,-99 169.82,-99"/>
<polygon fill="black" stroke="black" points="169.92,-102.5 179.92,-99 169.92,-95.5 169.92,-102.5"/>
</g>
<!-- 2333741434016 -->
<g id="node18" class="node">
<title>2333741434016</title>
<ellipse fill="white" stroke="black" cx="207" cy="-27" rx="27" ry="27"/>
</g>
<!-- 2333740350784&#45;&gt;2333741434016 -->
<g id="edge4" class="edge">
<title>2333740350784&#45;&gt;2333741434016</title>
<path fill="none" stroke="black" d="M140.21,-80.83C151.54,-71.56 165.46,-60.17 177.57,-50.26"/>
<polygon fill="black" stroke="black" points="180.09,-52.72 185.61,-43.68 175.65,-47.31 180.09,-52.72"/>
</g>
<!-- 2333741268864 -->
<g id="node20" class="node">
<title>2333741268864</title>
<ellipse fill="white" stroke="black" cx="207" cy="-171" rx="27" ry="27"/>
</g>
<!-- 2333740350784&#45;&gt;2333741268864 -->
<g id="edge5" class="edge">
<title>2333740350784&#45;&gt;2333741268864</title>
<path fill="none" stroke="black" d="M140.21,-117.17C151.54,-126.44 165.46,-137.83 177.57,-147.74"/>
<polygon fill="black" stroke="black" points="175.65,-150.69 185.61,-154.32 180.09,-145.28 175.65,-150.69"/>
</g>
<!-- 2333741433152 -->
<g id="node2" class="node">
<title>2333741433152</title>
<polygon fill="white" stroke="black" points="324,-188 270,-188 270,-152 324,-152 324,-188"/>
<text text-anchor="middle" x="297" y="-166.9" font-family="Times New Roman,serif" font-size="12.00">e</text>
</g>
<!-- 2333741432912 -->
<g id="node21" class="node">
<title>2333741432912</title>
<ellipse fill="white" stroke="black" cx="477" cy="-166" rx="27" ry="27"/>
</g>
<!-- 2333741433152&#45;&gt;2333741432912 -->
<g id="edge6" class="edge">
<title>2333741433152&#45;&gt;2333741432912</title>
<path fill="none" stroke="black" d="M324.26,-169.41C354.85,-168.72 405.55,-167.58 439.84,-166.81"/>
<polygon fill="black" stroke="black" points="440,-170.31 449.92,-166.59 439.84,-163.31 440,-170.31"/>
</g>
<!-- 2333741433824 -->
<g id="node3" class="node">
<title>2333741433824</title>
<polygon fill="white" stroke="black" points="504,-120 450,-120 450,-84 504,-84 504,-120"/>
<text text-anchor="middle" x="477" y="-98.9" font-family="Times New Roman,serif" font-size="12.00">c</text>
</g>
<!-- 2333741433344 -->
<g id="node12" class="node">
<title>2333741433344</title>
<ellipse fill="white" stroke="black" cx="567" cy="-105" rx="27" ry="27"/>
</g>
<!-- 2333741433824&#45;&gt;2333741433344 -->
<g id="edge7" class="edge">
<title>2333741433824&#45;&gt;2333741433344</title>
<path fill="none" stroke="black" d="M504.4,-102.9C512.39,-103.17 521.31,-103.48 529.82,-103.77"/>
<polygon fill="black" stroke="black" points="529.81,-107.27 539.92,-104.11 530.04,-100.27 529.81,-107.27"/>
</g>
<!-- 2333741434976 -->
<g id="node4" class="node">
<title>2333741434976</title>
<polygon fill="white" stroke="black" points="864,-172 810,-172 810,-136 864,-136 864,-172"/>
<text text-anchor="middle" x="837" y="-150.9" font-family="Times New Roman,serif" font-size="12.00">f</text>
</g>
<!-- 2333741434688 -->
<g id="node17" class="node">
<title>2333741434688</title>
<ellipse fill="white" stroke="black" cx="927" cy="-154" rx="27" ry="27"/>
</g>
<!-- 2333741434976&#45;&gt;2333741434688 -->
<g id="edge9" class="edge">
<title>2333741434976&#45;&gt;2333741434688</title>
<path fill="none" stroke="black" d="M864.4,-154C872.39,-154 881.31,-154 889.82,-154"/>
<polygon fill="black" stroke="black" points="889.92,-157.5 899.92,-154 889.92,-150.5 889.92,-157.5"/>
</g>
<!-- 2333741435552 -->
<g id="node5" class="node">
<title>2333741435552</title>
<polygon fill="white" stroke="black" points="324,-45 270,-45 270,-9 324,-9 324,-45"/>
<text text-anchor="middle" x="297" y="-23.9" font-family="Times New Roman,serif" font-size="12.00">g</text>
</g>
<!-- 2333741435264 -->
<g id="node19" class="node">
<title>2333741435264</title>
<ellipse fill="white" stroke="black" cx="567" cy="-27" rx="27" ry="27"/>
</g>
<!-- 2333741435552&#45;&gt;2333741435264 -->
<g id="edge10" class="edge">
<title>2333741435552&#45;&gt;2333741435264</title>
<path fill="none" stroke="black" d="M324.18,-27C372.22,-27 474.51,-27 529.39,-27"/>
<polygon fill="black" stroke="black" points="529.71,-30.5 539.71,-27 529.71,-23.5 529.71,-30.5"/>
</g>
<!-- 2333741268192 -->
<g id="node6" class="node">
<title>2333741268192</title>
<polygon fill="white" stroke="black" points="1044,-100 990,-100 990,-64 1044,-64 1044,-100"/>
<text text-anchor="middle" x="1017" y="-78.9" font-family="Times New Roman,serif" font-size="12.00">h</text>
</g>
<!-- 2333734413728 -->
<g id="node22" class="node">
<title>2333734413728</title>
<ellipse fill="white" stroke="black" cx="1111" cy="-82" rx="27" ry="27"/>
<ellipse fill="none" stroke="black" cx="1111" cy="-82" rx="31" ry="31"/>
<text text-anchor="start" x="1094" y="-73.9" font-family="Times New Roman,serif" font-size="32.00">â– </text>
</g>
<!-- 2333741268192&#45;&gt;2333734413728 -->
<g id="edge2" class="edge">
<title>2333741268192&#45;&gt;2333734413728</title>
<path fill="none" stroke="black" d="M1044.12,-82C1052.14,-82 1061.15,-82 1069.88,-82"/>
<polygon fill="black" stroke="black" points="1069.92,-85.5 1079.92,-82 1069.92,-78.5 1069.92,-85.5"/>
</g>
<!-- 2333741268720 -->
<g id="node7" class="node">
<title>2333741268720</title>
<polygon fill="black" stroke="black" points="684,-146 630,-146 630,-110 684,-110 684,-146"/>
</g>
<!-- 2333741434064 -->
<g id="node14" class="node">
<title>2333741434064</title>
<ellipse fill="white" stroke="black" cx="747" cy="-82" rx="27" ry="27"/>
</g>
<!-- 2333741268720&#45;&gt;2333741434064 -->
<g id="edge23" class="edge">
<title>2333741268720&#45;&gt;2333741434064</title>
<path fill="none" stroke="black" d="M684.4,-114.2C693.61,-109.39 704.05,-103.93 713.68,-98.89"/>
<polygon fill="black" stroke="black" points="715.36,-101.96 722.61,-94.23 712.12,-95.76 715.36,-101.96"/>
</g>
<!-- 2333741434496 -->
<g id="node16" class="node">
<title>2333741434496</title>
<ellipse fill="white" stroke="black" cx="747" cy="-154" rx="27" ry="27"/>
</g>
<!-- 2333741268720&#45;&gt;2333741434496 -->
<g id="edge24" class="edge">
<title>2333741268720&#45;&gt;2333741434496</title>
<path fill="none" stroke="black" d="M684.4,-135.8C692.79,-138.28 702.2,-141.06 711.09,-143.69"/>
<polygon fill="black" stroke="black" points="710.24,-147.08 720.82,-146.56 712.22,-140.37 710.24,-147.08"/>
</g>
<!-- 2333741433680 -->
<g id="node8" class="node">
<title>2333741433680</title>
<polygon fill="white" stroke="black" points="324,-117 270,-117 270,-81 324,-81 324,-117"/>
<text text-anchor="middle" x="297" y="-95.9" font-family="Times New Roman,serif" font-size="12.00">b</text>
</g>
<!-- 2333741433488 -->
<g id="node13" class="node">
<title>2333741433488</title>
<ellipse fill="white" stroke="black" cx="387" cy="-100" rx="27" ry="27"/>
</g>
<!-- 2333741433680&#45;&gt;2333741433488 -->
<g id="edge8" class="edge">
<title>2333741433680&#45;&gt;2333741433488</title>
<path fill="none" stroke="black" d="M324.4,-99.3C332.39,-99.39 341.31,-99.49 349.82,-99.59"/>
<polygon fill="black" stroke="black" points="349.88,-103.09 359.92,-99.7 349.96,-96.09 349.88,-103.09"/>
</g>
<!-- 2333741434448 -->
<g id="node9" class="node">
<title>2333741434448</title>
<polygon fill="white" stroke="black" points="864,-100 810,-100 810,-64 864,-64 864,-100"/>
<text text-anchor="middle" x="837" y="-78.9" font-family="Times New Roman,serif" font-size="12.00">d</text>
</g>
<!-- 2333741434208 -->
<g id="node15" class="node">
<title>2333741434208</title>
<ellipse fill="white" stroke="black" cx="927" cy="-82" rx="27" ry="27"/>
</g>
<!-- 2333741434448&#45;&gt;2333741434208 -->
<g id="edge1" class="edge">
<title>2333741434448&#45;&gt;2333741434208</title>
<path fill="none" stroke="black" d="M864.4,-82C872.39,-82 881.31,-82 889.82,-82"/>
<polygon fill="black" stroke="black" points="889.92,-85.5 899.92,-82 889.92,-78.5 889.92,-85.5"/>
</g>
<!-- 2333732423200 -->
<g id="node10" class="node">
<title>2333732423200</title>
<ellipse fill="white" stroke="black" cx="27" cy="-99" rx="27" ry="27"/>
<text text-anchor="start" x="9.5" y="-90.3" font-family="Times New Roman,serif" font-size="34.00">â—</text>
</g>
<!-- 2333732423200&#45;&gt;2333740350784 -->
<g id="edge22" class="edge">
<title>2333732423200&#45;&gt;2333740350784</title>
<path fill="none" stroke="black" d="M54.4,-99C62.39,-99 71.31,-99 79.82,-99"/>
<polygon fill="black" stroke="black" points="79.92,-102.5 89.92,-99 79.92,-95.5 79.92,-102.5"/>
</g>
<!-- 2333741433200&#45;&gt;2333741433680 -->
<g id="edge11" class="edge">
<title>2333741433200&#45;&gt;2333741433680</title>
<path fill="none" stroke="black" d="M234.4,-99C242.39,-99 251.31,-99 259.82,-99"/>
<polygon fill="black" stroke="black" points="259.92,-102.5 269.92,-99 259.92,-95.5 259.92,-102.5"/>
</g>
<!-- 2333741433344&#45;&gt;2333741268720 -->
<g id="edge12" class="edge">
<title>2333741433344&#45;&gt;2333741268720</title>
<path fill="none" stroke="black" d="M593.45,-111.65C601.79,-113.83 611.21,-116.29 620.16,-118.63"/>
<polygon fill="black" stroke="black" points="619.43,-122.06 629.99,-121.2 621.2,-115.29 619.43,-122.06"/>
</g>
<!-- 2333741433488&#45;&gt;2333741433824 -->
<g id="edge13" class="edge">
<title>2333741433488&#45;&gt;2333741433824</title>
<path fill="none" stroke="black" d="M414.4,-100.6C422.39,-100.78 431.31,-100.98 439.82,-101.18"/>
<polygon fill="black" stroke="black" points="439.84,-104.68 449.92,-101.41 440,-97.68 439.84,-104.68"/>
</g>
<!-- 2333741434064&#45;&gt;2333741434448 -->
<g id="edge14" class="edge">
<title>2333741434064&#45;&gt;2333741434448</title>
<path fill="none" stroke="black" d="M774.4,-82C782.39,-82 791.31,-82 799.82,-82"/>
<polygon fill="black" stroke="black" points="799.92,-85.5 809.92,-82 799.92,-78.5 799.92,-85.5"/>
</g>
<!-- 2333741434208&#45;&gt;2333741268192 -->
<g id="edge15" class="edge">
<title>2333741434208&#45;&gt;2333741268192</title>
<path fill="none" stroke="black" d="M954.4,-82C962.39,-82 971.31,-82 979.82,-82"/>
<polygon fill="black" stroke="black" points="979.92,-85.5 989.92,-82 979.92,-78.5 979.92,-85.5"/>
</g>
<!-- 2333741434496&#45;&gt;2333741434976 -->
<g id="edge16" class="edge">
<title>2333741434496&#45;&gt;2333741434976</title>
<path fill="none" stroke="black" d="M774.4,-154C782.39,-154 791.31,-154 799.82,-154"/>
<polygon fill="black" stroke="black" points="799.92,-157.5 809.92,-154 799.92,-150.5 799.92,-157.5"/>
</g>
<!-- 2333741434688&#45;&gt;2333741268192 -->
<g id="edge17" class="edge">
<title>2333741434688&#45;&gt;2333741268192</title>
<path fill="none" stroke="black" d="M948.41,-137.3C959.57,-128.17 973.61,-116.68 986,-106.55"/>
<polygon fill="black" stroke="black" points="988.33,-109.16 993.85,-100.12 983.89,-103.75 988.33,-109.16"/>
</g>
<!-- 2333741434016&#45;&gt;2333741435552 -->
<g id="edge18" class="edge">
<title>2333741434016&#45;&gt;2333741435552</title>
<path fill="none" stroke="black" d="M234.4,-27C242.39,-27 251.31,-27 259.82,-27"/>
<polygon fill="black" stroke="black" points="259.92,-30.5 269.92,-27 259.92,-23.5 259.92,-30.5"/>
</g>
<!-- 2333741435264&#45;&gt;2333741268192 -->
<g id="edge19" class="edge">
<title>2333741435264&#45;&gt;2333741268192</title>
<path fill="none" stroke="black" d="M594.24,-27C628.96,-27 692.07,-27 746,-27 746,-27 746,-27 838,-27 890.24,-27 904.82,-28.37 954,-46 963.22,-49.3 972.63,-53.98 981.24,-58.87"/>
<polygon fill="black" stroke="black" points="979.49,-61.9 989.88,-63.99 983.06,-55.88 979.49,-61.9"/>
</g>
<!-- 2333741268864&#45;&gt;2333741433152 -->
<g id="edge20" class="edge">
<title>2333741268864&#45;&gt;2333741433152</title>
<path fill="none" stroke="black" d="M234.4,-170.7C242.39,-170.61 251.31,-170.51 259.82,-170.41"/>
<polygon fill="black" stroke="black" points="259.96,-173.91 269.92,-170.3 259.88,-166.91 259.96,-173.91"/>
</g>
<!-- 2333741432912&#45;&gt;2333741268720 -->
<g id="edge21" class="edge">
<title>2333741432912&#45;&gt;2333741268720</title>
<path fill="none" stroke="black" d="M503.5,-160.56C533.99,-154.05 585.23,-143.11 619.81,-135.73"/>
<polygon fill="black" stroke="black" points="620.92,-139.07 629.97,-133.56 619.46,-132.22 620.92,-139.07"/>
</g>
</g>
</svg>
