<?xml version="1.0" encoding="UTF-8" standalone="no"?>
<!DOCTYPE svg PUBLIC "-//W3C//DTD SVG 1.1//EN"
 "http://www.w3.org/Graphics/SVG/1.1/DTD/svg11.dtd">
<!-- Generated by graphviz version 7.0.3 (20221126.0506)
 -->
<!-- Title: imdf_net_1727637579.8174183 Pages: 1 -->
<svg width="1150pt" height="206pt"
 viewBox="0.00 0.00 1150.00 206.00" xmlns="http://www.w3.org/2000/svg" xmlns:xlink="http://www.w3.org/1999/xlink">
<g id="graph0" class="graph" transform="scale(1 1) rotate(0) translate(4 202)">
<title>imdf_net_1727637579.8174183</title>
<polygon fill="white" stroke="none" points="-4,4 -4,-202 1146,-202 1146,4 -4,4"/>
<!-- 1903630627648 -->
<g id="node1" class="node">
<title>1903630627648</title>
<polygon fill="white" stroke="black" points="144,-117 90,-117 90,-81 144,-81 144,-117"/>
<text text-anchor="middle" x="117" y="-95.9" font-family="Times New Roman,serif" font-size="12.00">a</text>
</g>
<!-- 1903630629952 -->
<g id="node11" class="node">
<title>1903630629952</title>
<ellipse fill="white" stroke="black" cx="207" cy="-99" rx="27" ry="27"/>
</g>
<!-- 1903630627648&#45;&gt;1903630629952 -->
<g id="edge1" class="edge">
<title>1903630627648&#45;&gt;1903630629952</title>
<path fill="none" stroke="black" d="M144.4,-99C151.89,-99 160.18,-99 168.2,-99"/>
<polygon fill="black" stroke="black" points="168.1,-102.5 178.1,-99 168.1,-95.5 168.1,-102.5"/>
</g>
<!-- 1903630877168 -->
<g id="node18" class="node">
<title>1903630877168</title>
<ellipse fill="white" stroke="black" cx="207" cy="-27" rx="27" ry="27"/>
</g>
<!-- 1903630627648&#45;&gt;1903630877168 -->
<g id="edge2" class="edge">
<title>1903630627648&#45;&gt;1903630877168</title>
<path fill="none" stroke="black" d="M140.21,-80.83C151.32,-71.74 164.92,-60.61 176.87,-50.84"/>
<polygon fill="black" stroke="black" points="178.92,-53.68 184.44,-44.64 174.48,-48.26 178.92,-53.68"/>
</g>
<!-- 1903630629280 -->
<g id="node20" class="node">
<title>1903630629280</title>
<ellipse fill="white" stroke="black" cx="207" cy="-171" rx="27" ry="27"/>
</g>
<!-- 1903630627648&#45;&gt;1903630629280 -->
<g id="edge3" class="edge">
<title>1903630627648&#45;&gt;1903630629280</title>
<path fill="none" stroke="black" d="M140.21,-117.17C151.32,-126.26 164.92,-137.39 176.87,-147.16"/>
<polygon fill="black" stroke="black" points="174.48,-149.74 184.44,-153.36 178.92,-144.32 174.48,-149.74"/>
</g>
<!-- 1903630629760 -->
<g id="node2" class="node">
<title>1903630629760</title>
<polygon fill="white" stroke="black" points="324,-188 270,-188 270,-152 324,-152 324,-188"/>
<text text-anchor="middle" x="297" y="-166.9" font-family="Times New Roman,serif" font-size="12.00">e</text>
</g>
<!-- 1903630629472 -->
<g id="node21" class="node">
<title>1903630629472</title>
<ellipse fill="white" stroke="black" cx="477" cy="-166" rx="27" ry="27"/>
</g>
<!-- 1903630629760&#45;&gt;1903630629472 -->
<g id="edge5" class="edge">
<title>1903630629760&#45;&gt;1903630629472</title>
<path fill="none" stroke="black" d="M324.26,-169.41C354.37,-168.73 403.96,-167.62 438.21,-166.85"/>
<polygon fill="black" stroke="black" points="438.2,-170.35 448.11,-166.63 438.04,-163.35 438.2,-170.35"/>
</g>
<!-- 1903630630528 -->
<g id="node3" class="node">
<title>1903630630528</title>
<polygon fill="white" stroke="black" points="324,-117 270,-117 270,-81 324,-81 324,-117"/>
<text text-anchor="middle" x="297" y="-95.9" font-family="Times New Roman,serif" font-size="12.00">b</text>
</g>
<!-- 1903630630336 -->
<g id="node13" class="node">
<title>1903630630336</title>
<ellipse fill="white" stroke="black" cx="387" cy="-100" rx="27" ry="27"/>
</g>
<!-- 1903630630528&#45;&gt;1903630630336 -->
<g id="edge8" class="edge">
<title>1903630630528&#45;&gt;1903630630336</title>
<path fill="none" stroke="black" d="M324.4,-99.3C331.89,-99.39 340.18,-99.48 348.2,-99.57"/>
<polygon fill="black" stroke="black" points="348.06,-103.07 358.1,-99.68 348.14,-96.07 348.06,-103.07"/>
</g>
<!-- 1903630630816 -->
<g id="node4" class="node">
<title>1903630630816</title>
<polygon fill="white" stroke="black" points="504,-120 450,-120 450,-84 504,-84 504,-120"/>
<text text-anchor="middle" x="477" y="-98.9" font-family="Times New Roman,serif" font-size="12.00">c</text>
</g>
<!-- 1903630630144 -->
<g id="node12" class="node">
<title>1903630630144</title>
<ellipse fill="white" stroke="black" cx="567" cy="-105" rx="27" ry="27"/>
</g>
<!-- 1903630630816&#45;&gt;1903630630144 -->
<g id="edge7" class="edge">
<title>1903630630816&#45;&gt;1903630630144</title>
<path fill="none" stroke="black" d="M504.4,-102.9C511.89,-103.16 520.18,-103.44 528.2,-103.71"/>
<polygon fill="black" stroke="black" points="527.99,-107.21 538.1,-104.05 528.23,-100.21 527.99,-107.21"/>
</g>
<!-- 1903630877696 -->
<g id="node5" class="node">
<title>1903630877696</title>
<polygon fill="white" stroke="black" points="864,-100 810,-100 810,-64 864,-64 864,-100"/>
<text text-anchor="middle" x="837" y="-78.9" font-family="Times New Roman,serif" font-size="12.00">d</text>
</g>
<!-- 1903630877408 -->
<g id="node15" class="node">
<title>1903630877408</title>
<ellipse fill="white" stroke="black" cx="927" cy="-82" rx="27" ry="27"/>
</g>
<!-- 1903630877696&#45;&gt;1903630877408 -->
<g id="edge6" class="edge">
<title>1903630877696&#45;&gt;1903630877408</title>
<path fill="none" stroke="black" d="M864.4,-82C871.89,-82 880.18,-82 888.2,-82"/>
<polygon fill="black" stroke="black" points="888.1,-85.5 898.1,-82 888.1,-78.5 888.1,-85.5"/>
</g>
<!-- 1903630878368 -->
<g id="node6" class="node">
<title>1903630878368</title>
<polygon fill="white" stroke="black" points="864,-172 810,-172 810,-136 864,-136 864,-172"/>
<text text-anchor="middle" x="837" y="-150.9" font-family="Times New Roman,serif" font-size="12.00">f</text>
</g>
<!-- 1903630878080 -->
<g id="node17" class="node">
<title>1903630878080</title>
<ellipse fill="white" stroke="black" cx="927" cy="-154" rx="27" ry="27"/>
</g>
<!-- 1903630878368&#45;&gt;1903630878080 -->
<g id="edge9" class="edge">
<title>1903630878368&#45;&gt;1903630878080</title>
<path fill="none" stroke="black" d="M864.4,-154C871.89,-154 880.18,-154 888.2,-154"/>
<polygon fill="black" stroke="black" points="888.1,-157.5 898.1,-154 888.1,-150.5 888.1,-157.5"/>
</g>
<!-- 1903630628320 -->
<g id="node7" class="node">
<title>1903630628320</title>
<polygon fill="white" stroke="black" points="1044,-100 990,-100 990,-64 1044,-64 1044,-100"/>
<text text-anchor="middle" x="1017" y="-78.9" font-family="Times New Roman,serif" font-size="12.00">h</text>
</g>
<!-- 1903630627360 -->
<g id="node22" class="node">
<title>1903630627360</title>
<ellipse fill="white" stroke="black" cx="1111" cy="-82" rx="27" ry="27"/>
<ellipse fill="none" stroke="black" cx="1111" cy="-82" rx="31" ry="31"/>
<text text-anchor="start" x="1101" y="-73.9" font-family="Times New Roman,serif" font-size="32.00">â– </text>
</g>
<!-- 1903630628320&#45;&gt;1903630627360 -->
<g id="edge4" class="edge">
<title>1903630628320&#45;&gt;1903630627360</title>
<path fill="none" stroke="black" d="M1044.12,-82C1051.63,-82 1060.01,-82 1068.22,-82"/>
<polygon fill="black" stroke="black" points="1068.08,-85.5 1078.08,-82 1068.08,-78.5 1068.08,-85.5"/>
</g>
<!-- 1903630629040 -->
<g id="node8" class="node">
<title>1903630629040</title>
<polygon fill="black" stroke="black" points="684,-146 630,-146 630,-110 684,-110 684,-146"/>
</g>
<!-- 1903630877216 -->
<g id="node14" class="node">
<title>1903630877216</title>
<ellipse fill="white" stroke="black" cx="747" cy="-82" rx="27" ry="27"/>
</g>
<!-- 1903630629040&#45;&gt;1903630877216 -->
<g id="edge23" class="edge">
<title>1903630629040&#45;&gt;1903630877216</title>
<path fill="none" stroke="black" d="M684.4,-114.2C693.23,-109.58 703.19,-104.38 712.49,-99.52"/>
<polygon fill="black" stroke="black" points="714.02,-102.66 721.26,-94.93 710.78,-96.46 714.02,-102.66"/>
</g>
<!-- 1903630877888 -->
<g id="node16" class="node">
<title>1903630877888</title>
<ellipse fill="white" stroke="black" cx="747" cy="-154" rx="27" ry="27"/>
</g>
<!-- 1903630629040&#45;&gt;1903630877888 -->
<g id="edge24" class="edge">
<title>1903630629040&#45;&gt;1903630877888</title>
<path fill="none" stroke="black" d="M684.4,-135.8C692.43,-138.17 701.39,-140.82 709.94,-143.35"/>
<polygon fill="black" stroke="black" points="708.79,-146.66 719.37,-146.13 710.77,-139.94 708.79,-146.66"/>
</g>
<!-- 1903630878992 -->
<g id="node9" class="node">
<title>1903630878992</title>
<polygon fill="white" stroke="black" points="324,-45 270,-45 270,-9 324,-9 324,-45"/>
<text text-anchor="middle" x="297" y="-23.9" font-family="Times New Roman,serif" font-size="12.00">g</text>
</g>
<!-- 1903630878704 -->
<g id="node19" class="node">
<title>1903630878704</title>
<ellipse fill="white" stroke="black" cx="567" cy="-27" rx="27" ry="27"/>
</g>
<!-- 1903630878992&#45;&gt;1903630878704 -->
<g id="edge10" class="edge">
<title>1903630878992&#45;&gt;1903630878704</title>
<path fill="none" stroke="black" d="M324.18,-27C371.92,-27 473.23,-27 528.36,-27"/>
<polygon fill="black" stroke="black" points="528.2,-30.5 538.2,-27 528.2,-23.5 528.2,-30.5"/>
</g>
<!-- 1903630627264 -->
<g id="node10" class="node">
<title>1903630627264</title>
<ellipse fill="white" stroke="black" cx="27" cy="-99" rx="27" ry="27"/>
<text text-anchor="start" x="16" y="-90.3" font-family="Times New Roman,serif" font-size="34.00">â—</text>
</g>
<!-- 1903630627264&#45;&gt;1903630627648 -->
<g id="edge22" class="edge">
<title>1903630627264&#45;&gt;1903630627648</title>
<path fill="none" stroke="black" d="M54.4,-99C61.89,-99 70.18,-99 78.2,-99"/>
<polygon fill="black" stroke="black" points="78.1,-102.5 88.1,-99 78.1,-95.5 78.1,-102.5"/>
</g>
<!-- 1903630629952&#45;&gt;1903630630528 -->
<g id="edge11" class="edge">
<title>1903630629952&#45;&gt;1903630630528</title>
<path fill="none" stroke="black" d="M234.4,-99C241.89,-99 250.18,-99 258.2,-99"/>
<polygon fill="black" stroke="black" points="258.1,-102.5 268.1,-99 258.1,-95.5 258.1,-102.5"/>
</g>
<!-- 1903630630144&#45;&gt;1903630629040 -->
<g id="edge12" class="edge">
<title>1903630630144&#45;&gt;1903630629040</title>
<path fill="none" stroke="black" d="M593.45,-111.65C601.36,-113.72 610.24,-116.04 618.78,-118.27"/>
<polygon fill="black" stroke="black" points="617.66,-121.6 628.22,-120.74 619.43,-114.82 617.66,-121.6"/>
</g>
<!-- 1903630630336&#45;&gt;1903630630816 -->
<g id="edge13" class="edge">
<title>1903630630336&#45;&gt;1903630630816</title>
<path fill="none" stroke="black" d="M414.4,-100.6C421.89,-100.77 430.18,-100.96 438.2,-101.14"/>
<polygon fill="black" stroke="black" points="438.03,-104.64 448.1,-101.37 438.18,-97.64 438.03,-104.64"/>
</g>
<!-- 1903630877216&#45;&gt;1903630877696 -->
<g id="edge14" class="edge">
<title>1903630877216&#45;&gt;1903630877696</title>
<path fill="none" stroke="black" d="M774.4,-82C781.89,-82 790.18,-82 798.2,-82"/>
<polygon fill="black" stroke="black" points="798.1,-85.5 808.1,-82 798.1,-78.5 798.1,-85.5"/>
</g>
<!-- 1903630877408&#45;&gt;1903630628320 -->
<g id="edge15" class="edge">
<title>1903630877408&#45;&gt;1903630628320</title>
<path fill="none" stroke="black" d="M954.4,-82C961.89,-82 970.18,-82 978.2,-82"/>
<polygon fill="black" stroke="black" points="978.1,-85.5 988.1,-82 978.1,-78.5 978.1,-85.5"/>
</g>
<!-- 1903630877888&#45;&gt;1903630878368 -->
<g id="edge16" class="edge">
<title>1903630877888&#45;&gt;1903630878368</title>
<path fill="none" stroke="black" d="M774.4,-154C781.89,-154 790.18,-154 798.2,-154"/>
<polygon fill="black" stroke="black" points="798.1,-157.5 808.1,-154 798.1,-150.5 798.1,-157.5"/>
</g>
<!-- 1903630878080&#45;&gt;1903630628320 -->
<g id="edge17" class="edge">
<title>1903630878080&#45;&gt;1903630628320</title>
<path fill="none" stroke="black" d="M948.41,-137.3C959.17,-128.5 972.61,-117.5 984.66,-107.64"/>
<polygon fill="black" stroke="black" points="986.84,-110.38 992.37,-101.34 982.41,-104.96 986.84,-110.38"/>
</g>
<!-- 1903630877168&#45;&gt;1903630878992 -->
<g id="edge18" class="edge">
<title>1903630877168&#45;&gt;1903630878992</title>
<path fill="none" stroke="black" d="M234.4,-27C241.89,-27 250.18,-27 258.2,-27"/>
<polygon fill="black" stroke="black" points="258.1,-30.5 268.1,-27 258.1,-23.5 258.1,-30.5"/>
</g>
<!-- 1903630878704&#45;&gt;1903630628320 -->
<g id="edge19" class="edge">
<title>1903630878704&#45;&gt;1903630628320</title>
<path fill="none" stroke="black" d="M594.24,-27C628.96,-27 692.07,-27 746,-27 746,-27 746,-27 838,-27 890.24,-27 904.82,-28.37 954,-46 962.75,-49.14 971.66,-53.5 979.91,-58.12"/>
<polygon fill="black" stroke="black" points="977.88,-60.98 988.27,-63.04 981.43,-54.95 977.88,-60.98"/>
</g>
<!-- 1903630629280&#45;&gt;1903630629760 -->
<g id="edge20" class="edge">
<title>1903630629280&#45;&gt;1903630629760</title>
<path fill="none" stroke="black" d="M234.4,-170.7C241.89,-170.61 250.18,-170.52 258.2,-170.43"/>
<polygon fill="black" stroke="black" points="258.14,-173.93 268.1,-170.32 258.06,-166.93 258.14,-173.93"/>
</g>
<!-- 1903630629472&#45;&gt;1903630629040 -->
<g id="edge21" class="edge">
<title>1903630629472&#45;&gt;1903630629040</title>
<path fill="none" stroke="black" d="M503.88,-160.47C534.03,-154.04 584.08,-143.35 618.49,-136.01"/>
<polygon fill="black" stroke="black" points="618.98,-139.48 628.02,-133.97 617.51,-132.64 618.98,-139.48"/>
</g>
</g>
</svg>
