<?xml version="1.0" encoding="UTF-8" standalone="no"?>
<!DOCTYPE svg PUBLIC "-//W3C//DTD SVG 1.1//EN"
 "http://www.w3.org/Graphics/SVG/1.1/DTD/svg11.dtd">
<!-- Generated by graphviz version 3.0.0 (20220226.1711)
 -->
<!-- Title: imported_1729177585.1178958 Pages: 1 -->
<svg width="2532pt" height="362pt"
 viewBox="0.00 0.00 2532.00 362.00" xmlns="http://www.w3.org/2000/svg" xmlns:xlink="http://www.w3.org/1999/xlink">
<g id="graph0" class="graph" transform="scale(1 1) rotate(0) translate(4 358)">
<title>imported_1729177585.1178958</title>
<polygon fill="white" stroke="transparent" points="-4,4 -4,-358 2528,-358 2528,4 -4,4"/>
<!-- 2298837352960 -->
<g id="node1" class="node">
<title>2298837352960</title>
<polygon fill="white" stroke="black" points="638.5,-73 497.5,-73 497.5,-37 638.5,-37 638.5,-73"/>
<text text-anchor="middle" x="568" y="-51.9" font-family="Times New Roman,serif" font-size="12.00">Send Appeal to Prefecture</text>
</g>
<!-- 2298837170992 -->
<g id="node24" class="node">
<title>2298837170992</title>
<ellipse fill="white" stroke="black" cx="883" cy="-55" rx="27" ry="27"/>
</g>
<!-- 2298837352960&#45;&gt;2298837170992 -->
<g id="edge26" class="edge">
<title>2298837352960&#45;&gt;2298837170992</title>
<path fill="none" stroke="black" d="M638.85,-55C702.94,-55 795.33,-55 845.77,-55"/>
<polygon fill="black" stroke="black" points="845.87,-58.5 855.87,-55 845.87,-51.5 845.87,-58.5"/>
</g>
<!-- 2298837353344 -->
<g id="node2" class="node">
<title>2298837353344</title>
<polygon fill="white" stroke="black" points="1342,-179 1277,-179 1277,-143 1342,-143 1342,-179"/>
<text text-anchor="middle" x="1309.5" y="-157.9" font-family="Times New Roman,serif" font-size="12.00">Send Fine</text>
</g>
<!-- 2298837171472 -->
<g id="node29" class="node">
<title>2298837171472</title>
<ellipse fill="white" stroke="black" cx="1405" cy="-146" rx="27" ry="27"/>
</g>
<!-- 2298837353344&#45;&gt;2298837171472 -->
<g id="edge33" class="edge">
<title>2298837353344&#45;&gt;2298837171472</title>
<path fill="none" stroke="black" d="M1342.15,-155.92C1350.52,-154.58 1359.6,-153.12 1368.17,-151.75"/>
<polygon fill="black" stroke="black" points="1368.95,-155.17 1378.27,-150.13 1367.84,-148.26 1368.95,-155.17"/>
</g>
<!-- 2298837352720 -->
<g id="node3" class="node">
<title>2298837352720</title>
<polygon fill="black" stroke="black" points="910,-190 856,-190 856,-154 910,-154 910,-190"/>
</g>
<!-- 2298821158256 -->
<g id="node37" class="node">
<title>2298821158256</title>
<ellipse fill="white" stroke="black" cx="1034" cy="-163" rx="27" ry="27"/>
</g>
<!-- 2298837352720&#45;&gt;2298821158256 -->
<g id="edge24" class="edge">
<title>2298837352720&#45;&gt;2298821158256</title>
<path fill="none" stroke="black" d="M910.3,-170.41C934.34,-168.96 970.12,-166.8 996.85,-165.18"/>
<polygon fill="black" stroke="black" points="997.2,-168.67 1006.97,-164.57 996.77,-161.68 997.2,-168.67"/>
</g>
<!-- 2298837172000 -->
<g id="node4" class="node">
<title>2298837172000</title>
<polygon fill="black" stroke="black" points="1061,-354 1007,-354 1007,-318 1061,-318 1061,-354"/>
</g>
<!-- 2298818783680 -->
<g id="node35" class="node">
<title>2298818783680</title>
<ellipse fill="white" stroke="black" cx="1214" cy="-190" rx="27" ry="27"/>
</g>
<!-- 2298837172000&#45;&gt;2298818783680 -->
<g id="edge17" class="edge">
<title>2298837172000&#45;&gt;2298818783680</title>
<path fill="none" stroke="black" d="M1057.18,-317.8C1089.37,-291.41 1149.02,-242.48 1184.44,-213.42"/>
<polygon fill="black" stroke="black" points="1186.96,-215.89 1192.47,-206.84 1182.52,-210.48 1186.96,-215.89"/>
</g>
<!-- 2298837353632 -->
<g id="node5" class="node">
<title>2298837353632</title>
<polygon fill="white" stroke="black" points="1795,-137 1720,-137 1720,-101 1795,-101 1795,-137"/>
<text text-anchor="middle" x="1757.5" y="-115.9" font-family="Times New Roman,serif" font-size="12.00">Add penalty</text>
</g>
<!-- 2298837171568 -->
<g id="node30" class="node">
<title>2298837171568</title>
<ellipse fill="white" stroke="black" cx="1858" cy="-92" rx="27" ry="27"/>
</g>
<!-- 2298837353632&#45;&gt;2298837171568 -->
<g id="edge37" class="edge">
<title>2298837353632&#45;&gt;2298837171568</title>
<path fill="none" stroke="black" d="M1795.18,-108.95C1803.91,-106.55 1813.2,-104.01 1821.85,-101.63"/>
<polygon fill="black" stroke="black" points="1822.93,-104.97 1831.65,-98.95 1821.08,-98.22 1822.93,-104.97"/>
</g>
<!-- 2298837354016 -->
<g id="node6" class="node">
<title>2298837354016</title>
<polygon fill="white" stroke="black" points="2246,-137 2105,-137 2105,-101 2246,-101 2246,-137"/>
<text text-anchor="middle" x="2175.5" y="-115.9" font-family="Times New Roman,serif" font-size="12.00">Send for Credit Collection</text>
</g>
<!-- 2298837171760 -->
<g id="node32" class="node">
<title>2298837171760</title>
<ellipse fill="white" stroke="black" cx="2309" cy="-92" rx="27" ry="27"/>
</g>
<!-- 2298837354016&#45;&gt;2298837171760 -->
<g id="edge41" class="edge">
<title>2298837354016&#45;&gt;2298837171760</title>
<path fill="none" stroke="black" d="M2246.1,-104.71C2255.2,-102.84 2264.2,-100.99 2272.39,-99.31"/>
<polygon fill="black" stroke="black" points="2273.21,-102.72 2282.3,-97.28 2271.8,-95.86 2273.21,-102.72"/>
</g>
<!-- 2298837354400 -->
<g id="node7" class="node">
<title>2298837354400</title>
<polygon fill="white" stroke="black" points="2426,-110 2372,-110 2372,-74 2426,-74 2426,-110"/>
<text text-anchor="middle" x="2399" y="-88.9" font-family="Times New Roman,serif" font-size="12.00">End</text>
</g>
<!-- 2298828355296 -->
<g id="node40" class="node">
<title>2298828355296</title>
<ellipse fill="white" stroke="black" cx="2493" cy="-92" rx="27" ry="27"/>
<ellipse fill="none" stroke="black" cx="2493" cy="-92" rx="31" ry="31"/>
<text text-anchor="start" x="2476" y="-83.9" font-family="Times New Roman,serif" font-size="32.00">■</text>
</g>
<!-- 2298837354400&#45;&gt;2298828355296 -->
<g id="edge44" class="edge">
<title>2298837354400&#45;&gt;2298828355296</title>
<path fill="none" stroke="black" d="M2426.12,-92C2434.14,-92 2443.15,-92 2451.88,-92"/>
<polygon fill="black" stroke="black" points="2451.92,-95.5 2461.92,-92 2451.92,-88.5 2451.92,-95.5"/>
</g>
<!-- 2298837172144 -->
<g id="node8" class="node">
<title>2298837172144</title>
<polygon fill="black" stroke="black" points="341,-181 287,-181 287,-145 341,-145 341,-181"/>
</g>
<!-- 2298837171088 -->
<g id="node25" class="node">
<title>2298837171088</title>
<ellipse fill="white" stroke="black" cx="404" cy="-274" rx="27" ry="27"/>
</g>
<!-- 2298837172144&#45;&gt;2298837171088 -->
<g id="edge18" class="edge">
<title>2298837172144&#45;&gt;2298837171088</title>
<path fill="none" stroke="black" d="M329.53,-181.33C343.26,-198.65 364.08,-224.9 380.05,-245.05"/>
<polygon fill="black" stroke="black" points="377.39,-247.33 386.34,-252.99 382.87,-242.98 377.39,-247.33"/>
</g>
<!-- 2298837171280 -->
<g id="node27" class="node">
<title>2298837171280</title>
<ellipse fill="white" stroke="black" cx="404" cy="-199" rx="27" ry="27"/>
</g>
<!-- 2298837172144&#45;&gt;2298837171280 -->
<g id="edge19" class="edge">
<title>2298837172144&#45;&gt;2298837171280</title>
<path fill="none" stroke="black" d="M341.4,-173.8C350.2,-177.4 360.11,-181.45 369.37,-185.24"/>
<polygon fill="black" stroke="black" points="368.14,-188.52 378.72,-189.07 370.79,-182.04 368.14,-188.52"/>
</g>
<!-- 2298818774944 -->
<g id="node36" class="node">
<title>2298818774944</title>
<ellipse fill="white" stroke="black" cx="404" cy="-127" rx="27" ry="27"/>
</g>
<!-- 2298837172144&#45;&gt;2298818774944 -->
<g id="edge20" class="edge">
<title>2298837172144&#45;&gt;2298818774944</title>
<path fill="none" stroke="black" d="M341.4,-152.2C350.2,-148.6 360.11,-144.55 369.37,-140.76"/>
<polygon fill="black" stroke="black" points="370.79,-143.96 378.72,-136.93 368.14,-137.48 370.79,-143.96"/>
</g>
<!-- 2298837165184 -->
<g id="node39" class="node">
<title>2298837165184</title>
<ellipse fill="white" stroke="black" cx="404" cy="-55" rx="27" ry="27"/>
</g>
<!-- 2298837172144&#45;&gt;2298837165184 -->
<g id="edge21" class="edge">
<title>2298837172144&#45;&gt;2298837165184</title>
<path fill="none" stroke="black" d="M329.93,-144.68C343.57,-127.93 363.97,-102.9 379.75,-83.54"/>
<polygon fill="black" stroke="black" points="382.59,-85.59 386.19,-75.63 377.16,-81.17 382.59,-85.59"/>
</g>
<!-- 2298837352624 -->
<g id="node9" class="node">
<title>2298837352624</title>
<polygon fill="black" stroke="black" points="1558,-164 1504,-164 1504,-128 1558,-128 1558,-164"/>
</g>
<!-- 2298830146448 -->
<g id="node34" class="node">
<title>2298830146448</title>
<ellipse fill="white" stroke="black" cx="1657" cy="-92" rx="27" ry="27"/>
</g>
<!-- 2298837352624&#45;&gt;2298830146448 -->
<g id="edge34" class="edge">
<title>2298837352624&#45;&gt;2298830146448</title>
<path fill="none" stroke="black" d="M1558.3,-134.55C1576.99,-126.41 1602.26,-115.4 1622.41,-106.63"/>
<polygon fill="black" stroke="black" points="1624.07,-109.72 1631.84,-102.52 1621.28,-103.3 1624.07,-109.72"/>
</g>
<!-- 2298837353776 -->
<g id="node10" class="node">
<title>2298837353776</title>
<polygon fill="black" stroke="black" points="1977,-137 1923,-137 1923,-101 1977,-101 1977,-137"/>
</g>
<!-- 2298837171664 -->
<g id="node31" class="node">
<title>2298837171664</title>
<ellipse fill="white" stroke="black" cx="2042" cy="-92" rx="27" ry="27"/>
</g>
<!-- 2298837353776&#45;&gt;2298837171664 -->
<g id="edge38" class="edge">
<title>2298837353776&#45;&gt;2298837171664</title>
<path fill="none" stroke="black" d="M1977.03,-111.19C1986.12,-108.46 1996.48,-105.36 2006.18,-102.45"/>
<polygon fill="black" stroke="black" points="2007.38,-105.74 2015.96,-99.51 2005.37,-99.03 2007.38,-105.74"/>
</g>
<!-- 2298837171904 -->
<g id="node11" class="node">
<title>2298837171904</title>
<polygon fill="black" stroke="black" points="1151,-208 1097,-208 1097,-172 1151,-172 1151,-208"/>
</g>
<!-- 2298837171904&#45;&gt;2298818783680 -->
<g id="edge22" class="edge">
<title>2298837171904&#45;&gt;2298818783680</title>
<path fill="none" stroke="black" d="M1151.4,-190C1159.39,-190 1168.31,-190 1176.82,-190"/>
<polygon fill="black" stroke="black" points="1176.92,-193.5 1186.92,-190 1176.92,-186.5 1176.92,-193.5"/>
</g>
<!-- 2298837352768 -->
<g id="node12" class="node">
<title>2298837352768</title>
<polygon fill="white" stroke="black" points="971,-136 795,-136 795,-100 971,-100 971,-136"/>
<text text-anchor="middle" x="883" y="-114.9" font-family="Times New Roman,serif" font-size="12.00">Notify Result Appeal to Offender</text>
</g>
<!-- 2298837352768&#45;&gt;2298821158256 -->
<g id="edge25" class="edge">
<title>2298837352768&#45;&gt;2298821158256</title>
<path fill="none" stroke="black" d="M943.75,-136.04C962.25,-141.63 982.02,-147.6 998.24,-152.5"/>
<polygon fill="black" stroke="black" points="997.25,-155.86 1007.83,-155.4 999.27,-149.16 997.25,-155.86"/>
</g>
<!-- 2298837353152 -->
<g id="node13" class="node">
<title>2298837353152</title>
<polygon fill="white" stroke="black" points="615,-241 521,-241 521,-205 615,-205 615,-241"/>
<text text-anchor="middle" x="568" y="-219.9" font-family="Times New Roman,serif" font-size="12.00">Appeal to Judge</text>
</g>
<!-- 2298837171376 -->
<g id="node28" class="node">
<title>2298837171376</title>
<ellipse fill="white" stroke="black" cx="732" cy="-218" rx="27" ry="27"/>
</g>
<!-- 2298837353152&#45;&gt;2298837171376 -->
<g id="edge32" class="edge">
<title>2298837353152&#45;&gt;2298837171376</title>
<path fill="none" stroke="black" d="M615.42,-221.57C640.56,-220.79 671.16,-219.85 694.56,-219.12"/>
<polygon fill="black" stroke="black" points="694.87,-222.62 704.76,-218.81 694.66,-215.62 694.87,-222.62"/>
</g>
<!-- 2298837352528 -->
<g id="node14" class="node">
<title>2298837352528</title>
<polygon fill="white" stroke="black" points="652.5,-133 483.5,-133 483.5,-97 652.5,-97 652.5,-133"/>
<text text-anchor="middle" x="568" y="-111.9" font-family="Times New Roman,serif" font-size="12.00">Insert Date Appeal to Prefecture</text>
</g>
<!-- 2298828246624 -->
<g id="node38" class="node">
<title>2298828246624</title>
<ellipse fill="white" stroke="black" cx="732" cy="-118" rx="27" ry="27"/>
</g>
<!-- 2298837352528&#45;&gt;2298828246624 -->
<g id="edge23" class="edge">
<title>2298837352528&#45;&gt;2298828246624</title>
<path fill="none" stroke="black" d="M652.85,-116.55C667.42,-116.82 681.86,-117.09 694.3,-117.32"/>
<polygon fill="black" stroke="black" points="694.6,-120.83 704.66,-117.51 694.73,-113.83 694.6,-120.83"/>
</g>
<!-- 2298837352912 -->
<g id="node15" class="node">
<title>2298837352912</title>
<polygon fill="black" stroke="black" points="595,-187 541,-187 541,-151 595,-151 595,-187"/>
</g>
<!-- 2298837352912&#45;&gt;2298837171376 -->
<g id="edge28" class="edge">
<title>2298837352912&#45;&gt;2298837171376</title>
<path fill="none" stroke="black" d="M595.06,-175.45C615.33,-180.61 644.11,-188.24 669,-196 678.13,-198.85 687.92,-202.18 696.96,-205.39"/>
<polygon fill="black" stroke="black" points="695.81,-208.7 706.41,-208.78 698.18,-202.11 695.81,-208.7"/>
</g>
<!-- 2298837354064 -->
<g id="node16" class="node">
<title>2298837354064</title>
<polygon fill="white" stroke="black" points="1979,-83 1921,-83 1921,-47 1979,-47 1979,-83"/>
<text text-anchor="middle" x="1950" y="-61.9" font-family="Times New Roman,serif" font-size="12.00">Payment</text>
</g>
<!-- 2298837354064&#45;&gt;2298837171664 -->
<g id="edge39" class="edge">
<title>2298837354064&#45;&gt;2298837171664</title>
<path fill="none" stroke="black" d="M1979.48,-73.54C1988.01,-76.1 1997.46,-78.94 2006.34,-81.6"/>
<polygon fill="black" stroke="black" points="2005.47,-84.99 2016.05,-84.51 2007.48,-78.29 2005.47,-84.99"/>
</g>
<!-- 2298832315616 -->
<g id="node17" class="node">
<title>2298832315616</title>
<polygon fill="black" stroke="black" points="1151,-49 1097,-49 1097,-13 1151,-13 1151,-49"/>
</g>
<!-- 2298832315616&#45;&gt;2298830146448 -->
<g id="edge16" class="edge">
<title>2298832315616&#45;&gt;2298830146448</title>
<path fill="none" stroke="black" d="M1151.12,-32.86C1186.69,-35.22 1252.38,-39 1308.5,-39 1308.5,-39 1308.5,-39 1406,-39 1490.35,-39 1512.8,-42.17 1594,-65 1603.81,-67.76 1614.1,-71.75 1623.42,-75.83"/>
<polygon fill="black" stroke="black" points="1622.16,-79.1 1632.71,-80.05 1625.06,-72.73 1622.16,-79.1"/>
</g>
<!-- 2298837353056 -->
<g id="node18" class="node">
<title>2298837353056</title>
<polygon fill="white" stroke="black" points="669,-295 467,-295 467,-259 669,-259 669,-295"/>
<text text-anchor="middle" x="568" y="-273.9" font-family="Times New Roman,serif" font-size="12.00">Receive Result Appeal from Prefecture</text>
</g>
<!-- 2298837171184 -->
<g id="node26" class="node">
<title>2298837171184</title>
<ellipse fill="white" stroke="black" cx="1034" cy="-273" rx="27" ry="27"/>
</g>
<!-- 2298837353056&#45;&gt;2298837171184 -->
<g id="edge27" class="edge">
<title>2298837353056&#45;&gt;2298837171184</title>
<path fill="none" stroke="black" d="M669.11,-276.14C771.99,-275.25 926.69,-273.92 996.51,-273.31"/>
<polygon fill="black" stroke="black" points="996.61,-276.81 1006.58,-273.23 996.55,-269.81 996.61,-276.81"/>
</g>
<!-- 2298837353440 -->
<g id="node19" class="node">
<title>2298837353440</title>
<polygon fill="white" stroke="black" points="1594,-110 1468,-110 1468,-74 1594,-74 1594,-110"/>
<text text-anchor="middle" x="1531" y="-88.9" font-family="Times New Roman,serif" font-size="12.00">Insert Fine Notification</text>
</g>
<!-- 2298837353440&#45;&gt;2298830146448 -->
<g id="edge35" class="edge">
<title>2298837353440&#45;&gt;2298830146448</title>
<path fill="none" stroke="black" d="M1594.36,-92C1603.09,-92 1611.8,-92 1619.81,-92"/>
<polygon fill="black" stroke="black" points="1619.88,-95.5 1629.88,-92 1619.88,-88.5 1619.88,-95.5"/>
</g>
<!-- 2298837353824 -->
<g id="node20" class="node">
<title>2298837353824</title>
<polygon fill="black" stroke="black" points="2202.5,-83 2148.5,-83 2148.5,-47 2202.5,-47 2202.5,-83"/>
</g>
<!-- 2298837353824&#45;&gt;2298837171760 -->
<g id="edge40" class="edge">
<title>2298837353824&#45;&gt;2298837171760</title>
<path fill="none" stroke="black" d="M2202.79,-70.4C2222.72,-74.49 2250.33,-80.16 2272.26,-84.66"/>
<polygon fill="black" stroke="black" points="2271.7,-88.12 2282.2,-86.7 2273.11,-81.26 2271.7,-88.12"/>
</g>
<!-- 2298837171952 -->
<g id="node21" class="node">
<title>2298837171952</title>
<polygon fill="white" stroke="black" points="161,-181 90,-181 90,-145 161,-145 161,-181"/>
<text text-anchor="middle" x="125.5" y="-159.9" font-family="Times New Roman,serif" font-size="12.00">Create Fine</text>
</g>
<!-- 2298190607376 -->
<g id="node33" class="node">
<title>2298190607376</title>
<ellipse fill="white" stroke="black" cx="224" cy="-163" rx="27" ry="27"/>
</g>
<!-- 2298837171952&#45;&gt;2298190607376 -->
<g id="edge15" class="edge">
<title>2298837171952&#45;&gt;2298190607376</title>
<path fill="none" stroke="black" d="M161.07,-163C169.36,-163 178.23,-163 186.6,-163"/>
<polygon fill="black" stroke="black" points="186.85,-166.5 196.85,-163 186.85,-159.5 186.85,-166.5"/>
</g>
<!-- 2298837353584 -->
<g id="node22" class="node">
<title>2298837353584</title>
<polygon fill="black" stroke="black" points="1784.5,-83 1730.5,-83 1730.5,-47 1784.5,-47 1784.5,-83"/>
</g>
<!-- 2298837353584&#45;&gt;2298837171568 -->
<g id="edge36" class="edge">
<title>2298837353584&#45;&gt;2298837171568</title>
<path fill="none" stroke="black" d="M1784.64,-72.16C1796.04,-75.29 1809.57,-79 1821.83,-82.36"/>
<polygon fill="black" stroke="black" points="1821.19,-85.81 1831.76,-85.08 1823.04,-79.06 1821.19,-85.81"/>
</g>
<!-- 2298828341808 -->
<g id="node23" class="node">
<title>2298828341808</title>
<ellipse fill="white" stroke="black" cx="27" cy="-163" rx="27" ry="27"/>
<text text-anchor="start" x="9.5" y="-154.3" font-family="Times New Roman,serif" font-size="34.00">●</text>
</g>
<!-- 2298828341808&#45;&gt;2298837171952 -->
<g id="edge1" class="edge">
<title>2298828341808&#45;&gt;2298837171952</title>
<path fill="none" stroke="black" d="M54.11,-163C61.98,-163 70.84,-163 79.56,-163"/>
<polygon fill="black" stroke="black" points="79.66,-166.5 89.66,-163 79.66,-159.5 79.66,-166.5"/>
</g>
<!-- 2298837170992&#45;&gt;2298837171904 -->
<g id="edge2" class="edge">
<title>2298837170992&#45;&gt;2298837171904</title>
<path fill="none" stroke="black" d="M909.31,-61.74C945.15,-72.05 1011.79,-94.06 1061,-127 1076.17,-137.15 1090.63,-151.47 1101.76,-163.89"/>
<polygon fill="black" stroke="black" points="1099.36,-166.47 1108.57,-171.72 1104.64,-161.88 1099.36,-166.47"/>
</g>
<!-- 2298837171088&#45;&gt;2298837353056 -->
<g id="edge3" class="edge">
<title>2298837171088&#45;&gt;2298837353056</title>
<path fill="none" stroke="black" d="M431.03,-274.48C438.52,-274.62 447.19,-274.78 456.46,-274.95"/>
<polygon fill="black" stroke="black" points="456.67,-278.46 466.73,-275.14 456.8,-271.46 456.67,-278.46"/>
</g>
<!-- 2298837171184&#45;&gt;2298837171904 -->
<g id="edge4" class="edge">
<title>2298837171184&#45;&gt;2298837171904</title>
<path fill="none" stroke="black" d="M1054.53,-254.58C1066.81,-243 1082.81,-227.91 1096.25,-215.23"/>
<polygon fill="black" stroke="black" points="1098.95,-217.49 1103.83,-208.08 1094.15,-212.4 1098.95,-217.49"/>
</g>
<!-- 2298837171280&#45;&gt;2298837353152 -->
<g id="edge6" class="edge">
<title>2298837171280&#45;&gt;2298837353152</title>
<path fill="none" stroke="black" d="M431.03,-202.86C452.44,-206.03 483.56,-210.64 510.62,-214.65"/>
<polygon fill="black" stroke="black" points="510.37,-218.15 520.77,-216.15 511.39,-211.22 510.37,-218.15"/>
</g>
<!-- 2298837171280&#45;&gt;2298837352912 -->
<g id="edge5" class="edge">
<title>2298837171280&#45;&gt;2298837352912</title>
<path fill="none" stroke="black" d="M430.67,-194.25C457.64,-189.25 500.3,-181.35 530.71,-175.72"/>
<polygon fill="black" stroke="black" points="531.72,-179.09 540.91,-173.83 530.44,-172.21 531.72,-179.09"/>
</g>
<!-- 2298837171376&#45;&gt;2298837171904 -->
<g id="edge7" class="edge">
<title>2298837171376&#45;&gt;2298837171904</title>
<path fill="none" stroke="black" d="M759,-217.26C814.55,-215.5 948.92,-210.36 1061,-199 1069.39,-198.15 1078.38,-196.99 1086.84,-195.79"/>
<polygon fill="black" stroke="black" points="1087.43,-199.24 1096.82,-194.31 1086.41,-192.31 1087.43,-199.24"/>
</g>
<!-- 2298837171472&#45;&gt;2298837352624 -->
<g id="edge8" class="edge">
<title>2298837171472&#45;&gt;2298837352624</title>
<path fill="none" stroke="black" d="M1432.3,-146C1450.13,-146 1473.95,-146 1493.61,-146"/>
<polygon fill="black" stroke="black" points="1493.74,-149.5 1503.74,-146 1493.74,-142.5 1493.74,-149.5"/>
</g>
<!-- 2298837171472&#45;&gt;2298837353440 -->
<g id="edge9" class="edge">
<title>2298837171472&#45;&gt;2298837353440</title>
<path fill="none" stroke="black" d="M1430.2,-135.46C1444.12,-129.4 1462.14,-121.55 1479.04,-114.19"/>
<polygon fill="black" stroke="black" points="1480.5,-117.37 1488.27,-110.17 1477.71,-110.96 1480.5,-117.37"/>
</g>
<!-- 2298837171568&#45;&gt;2298837353776 -->
<g id="edge10" class="edge">
<title>2298837171568&#45;&gt;2298837353776</title>
<path fill="none" stroke="black" d="M1884.07,-99.52C1893.03,-102.21 1903.3,-105.29 1913,-108.2"/>
<polygon fill="black" stroke="black" points="1912.23,-111.62 1922.81,-111.14 1914.24,-104.92 1912.23,-111.62"/>
</g>
<!-- 2298837171568&#45;&gt;2298837354064 -->
<g id="edge11" class="edge">
<title>2298837171568&#45;&gt;2298837354064</title>
<path fill="none" stroke="black" d="M1884.07,-84.48C1892.47,-81.96 1902.04,-79.09 1911.2,-76.34"/>
<polygon fill="black" stroke="black" points="1912.32,-79.66 1920.9,-73.43 1910.31,-72.95 1912.32,-79.66"/>
</g>
<!-- 2298837171664&#45;&gt;2298837354016 -->
<g id="edge13" class="edge">
<title>2298837171664&#45;&gt;2298837354016</title>
<path fill="none" stroke="black" d="M2068.67,-97.27C2076.49,-98.88 2085.53,-100.73 2094.98,-102.67"/>
<polygon fill="black" stroke="black" points="2094.43,-106.13 2104.93,-104.71 2095.83,-99.27 2094.43,-106.13"/>
</g>
<!-- 2298837171664&#45;&gt;2298837353824 -->
<g id="edge12" class="edge">
<title>2298837171664&#45;&gt;2298837353824</title>
<path fill="none" stroke="black" d="M2068.67,-86.73C2088.54,-82.65 2116.31,-76.95 2138.42,-72.41"/>
<polygon fill="black" stroke="black" points="2139.36,-75.79 2148.45,-70.35 2137.95,-68.93 2139.36,-75.79"/>
</g>
<!-- 2298837171760&#45;&gt;2298837354400 -->
<g id="edge14" class="edge">
<title>2298837171760&#45;&gt;2298837354400</title>
<path fill="none" stroke="black" d="M2336.4,-92C2344.39,-92 2353.31,-92 2361.82,-92"/>
<polygon fill="black" stroke="black" points="2361.92,-95.5 2371.92,-92 2361.92,-88.5 2361.92,-95.5"/>
</g>
<!-- 2298190607376&#45;&gt;2298837172000 -->
<g id="edge30" class="edge">
<title>2298190607376&#45;&gt;2298837172000</title>
<path fill="none" stroke="black" d="M236.31,-187.36C260.01,-234.36 319.67,-333 403,-333 403,-333 403,-333 733,-333 828.17,-333 940.32,-334.53 996.73,-335.4"/>
<polygon fill="black" stroke="black" points="996.86,-338.91 1006.92,-335.56 996.97,-331.91 996.86,-338.91"/>
</g>
<!-- 2298190607376&#45;&gt;2298837172144 -->
<g id="edge31" class="edge">
<title>2298190607376&#45;&gt;2298837172144</title>
<path fill="none" stroke="black" d="M251.4,-163C259.39,-163 268.31,-163 276.82,-163"/>
<polygon fill="black" stroke="black" points="276.92,-166.5 286.92,-163 276.92,-159.5 276.92,-166.5"/>
</g>
<!-- 2298190607376&#45;&gt;2298832315616 -->
<g id="edge29" class="edge">
<title>2298190607376&#45;&gt;2298832315616</title>
<path fill="none" stroke="black" d="M236.96,-138.95C261.4,-93.61 321.71,0 403,0 403,0 403,0 884,0 956.55,0 1040.46,-14.22 1087.06,-23.4"/>
<polygon fill="black" stroke="black" points="1086.48,-26.85 1096.97,-25.39 1087.86,-19.99 1086.48,-26.85"/>
</g>
<!-- 2298830146448&#45;&gt;2298837353632 -->
<g id="edge43" class="edge">
<title>2298830146448&#45;&gt;2298837353632</title>
<path fill="none" stroke="black" d="M1683.11,-98.88C1691.31,-101.13 1700.71,-103.71 1709.97,-106.25"/>
<polygon fill="black" stroke="black" points="1709.34,-109.7 1719.91,-108.97 1711.19,-102.95 1709.34,-109.7"/>
</g>
<!-- 2298830146448&#45;&gt;2298837353584 -->
<g id="edge42" class="edge">
<title>2298830146448&#45;&gt;2298837353584</title>
<path fill="none" stroke="black" d="M1683.11,-85.12C1694.53,-81.99 1708.26,-78.22 1720.74,-74.8"/>
<polygon fill="black" stroke="black" points="1721.68,-78.17 1730.4,-72.15 1719.83,-71.42 1721.68,-78.17"/>
</g>
<!-- 2298818783680&#45;&gt;2298837353344 -->
<g id="edge45" class="edge">
<title>2298818783680&#45;&gt;2298837353344</title>
<path fill="none" stroke="black" d="M1240.06,-182.23C1248.32,-179.67 1257.74,-176.74 1266.9,-173.9"/>
<polygon fill="black" stroke="black" points="1268.15,-177.18 1276.67,-170.87 1266.08,-170.49 1268.15,-177.18"/>
</g>
<!-- 2298818774944&#45;&gt;2298837352528 -->
<g id="edge46" class="edge">
<title>2298818774944&#45;&gt;2298837352528</title>
<path fill="none" stroke="black" d="M431.03,-125.07C442.84,-124.2 457.61,-123.1 473.02,-121.96"/>
<polygon fill="black" stroke="black" points="473.5,-125.44 483.21,-121.21 472.98,-118.46 473.5,-125.44"/>
</g>
<!-- 2298821158256&#45;&gt;2298837171904 -->
<g id="edge47" class="edge">
<title>2298821158256&#45;&gt;2298837171904</title>
<path fill="none" stroke="black" d="M1059.98,-170.66C1068.42,-173.25 1078,-176.19 1087.11,-178.99"/>
<polygon fill="black" stroke="black" points="1086.14,-182.35 1096.73,-181.94 1088.19,-175.66 1086.14,-182.35"/>
</g>
<!-- 2298828246624&#45;&gt;2298837352720 -->
<g id="edge48" class="edge">
<title>2298828246624&#45;&gt;2298837352720</title>
<path fill="none" stroke="black" d="M756.89,-129.14C768.31,-134.27 782.23,-140.26 795,-145 811.54,-151.15 830.18,-157.06 845.96,-161.78"/>
<polygon fill="black" stroke="black" points="845.28,-165.23 855.86,-164.7 847.26,-158.52 845.28,-165.23"/>
</g>
<!-- 2298828246624&#45;&gt;2298837352768 -->
<g id="edge49" class="edge">
<title>2298828246624&#45;&gt;2298837352768</title>
<path fill="none" stroke="black" d="M759.3,-118C766.84,-118 775.54,-118 784.76,-118"/>
<polygon fill="black" stroke="black" points="784.93,-121.5 794.93,-118 784.93,-114.5 784.93,-121.5"/>
</g>
<!-- 2298837165184&#45;&gt;2298837352960 -->
<g id="edge50" class="edge">
<title>2298837165184&#45;&gt;2298837352960</title>
<path fill="none" stroke="black" d="M431.03,-55C446.41,-55 466.79,-55 487.09,-55"/>
<polygon fill="black" stroke="black" points="487.34,-58.5 497.34,-55 487.34,-51.5 487.34,-58.5"/>
</g>
</g>
</svg>
