<?xml version="1.0" encoding="UTF-8" standalone="no"?>
<!DOCTYPE svg PUBLIC "-//W3C//DTD SVG 1.1//EN"
 "http://www.w3.org/Graphics/SVG/1.1/DTD/svg11.dtd">
<!-- Generated by graphviz version 3.0.0 (20220226.1711)
 -->
<!-- Title: new_petri_net Pages: 1 -->
<svg width="1330pt" height="206pt"
 viewBox="0.00 0.00 1330.00 206.00" xmlns="http://www.w3.org/2000/svg" xmlns:xlink="http://www.w3.org/1999/xlink">
<g id="graph0" class="graph" transform="scale(1 1) rotate(0) translate(4 202)">
<title>new_petri_net</title>
<polygon fill="white" stroke="transparent" points="-4,4 -4,-202 1326,-202 1326,4 -4,4"/>
<!-- 2333764068480 -->
<g id="node1" class="node">
<title>2333764068480</title>
<polygon fill="white" stroke="black" points="504,-117 450,-117 450,-81 504,-81 504,-117"/>
<text text-anchor="middle" x="477" y="-95.9" font-family="Times New Roman,serif" font-size="12.00">e</text>
</g>
<!-- 2333764066224 -->
<g id="node18" class="node">
<title>2333764066224</title>
<ellipse fill="white" stroke="black" cx="657" cy="-99" rx="27" ry="27"/>
</g>
<!-- 2333764068480&#45;&gt;2333764066224 -->
<g id="edge7" class="edge">
<title>2333764068480&#45;&gt;2333764066224</title>
<path fill="none" stroke="black" d="M504.26,-99C534.85,-99 585.55,-99 619.84,-99"/>
<polygon fill="black" stroke="black" points="619.92,-102.5 629.92,-99 619.92,-95.5 619.92,-102.5"/>
</g>
<!-- 2333764067808 -->
<g id="node2" class="node">
<title>2333764067808</title>
<polygon fill="black" stroke="black" points="1224,-148 1170,-148 1170,-112 1224,-112 1224,-148"/>
</g>
<!-- 2333764066608 -->
<g id="node23" class="node">
<title>2333764066608</title>
<ellipse fill="white" stroke="black" cx="1291" cy="-130" rx="27" ry="27"/>
<ellipse fill="none" stroke="black" cx="1291" cy="-130" rx="31" ry="31"/>
<text text-anchor="start" x="1274" y="-121.9" font-family="Times New Roman,serif" font-size="32.00">â– </text>
</g>
<!-- 2333764067808&#45;&gt;2333764066608 -->
<g id="edge8" class="edge">
<title>2333764067808&#45;&gt;2333764066608</title>
<path fill="none" stroke="black" d="M1224.12,-130C1232.14,-130 1241.15,-130 1249.88,-130"/>
<polygon fill="black" stroke="black" points="1249.92,-133.5 1259.92,-130 1249.92,-126.5 1249.92,-133.5"/>
</g>
<!-- 2333764063008 -->
<g id="node3" class="node">
<title>2333764063008</title>
<polygon fill="white" stroke="black" points="324,-117 270,-117 270,-81 324,-81 324,-117"/>
<text text-anchor="middle" x="297" y="-95.9" font-family="Times New Roman,serif" font-size="12.00">a</text>
</g>
<!-- 2333764063104 -->
<g id="node16" class="node">
<title>2333764063104</title>
<ellipse fill="white" stroke="black" cx="387" cy="-171" rx="27" ry="27"/>
</g>
<!-- 2333764063008&#45;&gt;2333764063104 -->
<g id="edge1" class="edge">
<title>2333764063008&#45;&gt;2333764063104</title>
<path fill="none" stroke="black" d="M320.21,-117.17C331.54,-126.44 345.46,-137.83 357.57,-147.74"/>
<polygon fill="black" stroke="black" points="355.65,-150.69 365.61,-154.32 360.09,-145.28 355.65,-150.69"/>
</g>
<!-- 2333764067184 -->
<g id="node17" class="node">
<title>2333764067184</title>
<ellipse fill="white" stroke="black" cx="387" cy="-99" rx="27" ry="27"/>
</g>
<!-- 2333764063008&#45;&gt;2333764067184 -->
<g id="edge2" class="edge">
<title>2333764063008&#45;&gt;2333764067184</title>
<path fill="none" stroke="black" d="M324.4,-99C332.39,-99 341.31,-99 349.82,-99"/>
<polygon fill="black" stroke="black" points="349.92,-102.5 359.92,-99 349.92,-95.5 349.92,-102.5"/>
</g>
<!-- 2333764064256 -->
<g id="node21" class="node">
<title>2333764064256</title>
<ellipse fill="white" stroke="black" cx="387" cy="-27" rx="27" ry="27"/>
</g>
<!-- 2333764063008&#45;&gt;2333764064256 -->
<g id="edge3" class="edge">
<title>2333764063008&#45;&gt;2333764064256</title>
<path fill="none" stroke="black" d="M320.21,-80.83C331.54,-71.56 345.46,-60.17 357.57,-50.26"/>
<polygon fill="black" stroke="black" points="360.09,-52.72 365.61,-43.68 355.65,-47.31 360.09,-52.72"/>
</g>
<!-- 2333764059552 -->
<g id="node4" class="node">
<title>2333764059552</title>
<polygon fill="white" stroke="black" points="504,-188 450,-188 450,-152 504,-152 504,-188"/>
<text text-anchor="middle" x="477" y="-166.9" font-family="Times New Roman,serif" font-size="12.00">f</text>
</g>
<!-- 2333764063392 -->
<g id="node20" class="node">
<title>2333764063392</title>
<ellipse fill="white" stroke="black" cx="567" cy="-170" rx="27" ry="27"/>
</g>
<!-- 2333764059552&#45;&gt;2333764063392 -->
<g id="edge9" class="edge">
<title>2333764059552&#45;&gt;2333764063392</title>
<path fill="none" stroke="black" d="M504.4,-170C512.39,-170 521.31,-170 529.82,-170"/>
<polygon fill="black" stroke="black" points="529.92,-173.5 539.92,-170 529.92,-166.5 529.92,-173.5"/>
</g>
<!-- 2333764066368 -->
<g id="node5" class="node">
<title>2333764066368</title>
<polygon fill="white" stroke="black" points="864,-117 810,-117 810,-81 864,-81 864,-117"/>
<text text-anchor="middle" x="837" y="-95.9" font-family="Times New Roman,serif" font-size="12.00">d</text>
</g>
<!-- 2333764061904 -->
<g id="node13" class="node">
<title>2333764061904</title>
<ellipse fill="white" stroke="black" cx="927" cy="-103" rx="27" ry="27"/>
</g>
<!-- 2333764066368&#45;&gt;2333764061904 -->
<g id="edge6" class="edge">
<title>2333764066368&#45;&gt;2333764061904</title>
<path fill="none" stroke="black" d="M864.4,-100.2C872.39,-100.56 881.31,-100.97 889.82,-101.36"/>
<polygon fill="black" stroke="black" points="889.77,-104.86 899.92,-101.81 890.09,-97.86 889.77,-104.86"/>
</g>
<!-- 2333764060464 -->
<g id="node6" class="node">
<title>2333764060464</title>
<polygon fill="white" stroke="black" points="504,-47 450,-47 450,-11 504,-11 504,-47"/>
<text text-anchor="middle" x="477" y="-25.9" font-family="Times New Roman,serif" font-size="12.00">b</text>
</g>
<!-- 2333764064160 -->
<g id="node19" class="node">
<title>2333764064160</title>
<ellipse fill="white" stroke="black" cx="567" cy="-33" rx="27" ry="27"/>
</g>
<!-- 2333764060464&#45;&gt;2333764064160 -->
<g id="edge4" class="edge">
<title>2333764060464&#45;&gt;2333764064160</title>
<path fill="none" stroke="black" d="M504.4,-30.2C512.39,-30.56 521.31,-30.97 529.82,-31.36"/>
<polygon fill="black" stroke="black" points="529.77,-34.86 539.92,-31.81 530.09,-27.86 529.77,-34.86"/>
</g>
<!-- 2333764059792 -->
<g id="node7" class="node">
<title>2333764059792</title>
<polygon fill="black" stroke="black" points="144,-117 90,-117 90,-81 144,-81 144,-117"/>
</g>
<!-- 2333764060032 -->
<g id="node14" class="node">
<title>2333764060032</title>
<ellipse fill="white" stroke="black" cx="207" cy="-99" rx="27" ry="27"/>
</g>
<!-- 2333764059792&#45;&gt;2333764060032 -->
<g id="edge24" class="edge">
<title>2333764059792&#45;&gt;2333764060032</title>
<path fill="none" stroke="black" d="M144.4,-99C152.39,-99 161.31,-99 169.82,-99"/>
<polygon fill="black" stroke="black" points="169.92,-102.5 179.92,-99 169.92,-95.5 169.92,-102.5"/>
</g>
<!-- 2333764066032 -->
<g id="node8" class="node">
<title>2333764066032</title>
<polygon fill="white" stroke="black" points="1044,-148 990,-148 990,-112 1044,-112 1044,-148"/>
<text text-anchor="middle" x="1017" y="-126.9" font-family="Times New Roman,serif" font-size="12.00">h</text>
</g>
<!-- 2333764060800 -->
<g id="node15" class="node">
<title>2333764060800</title>
<ellipse fill="white" stroke="black" cx="1107" cy="-130" rx="27" ry="27"/>
</g>
<!-- 2333764066032&#45;&gt;2333764060800 -->
<g id="edge11" class="edge">
<title>2333764066032&#45;&gt;2333764060800</title>
<path fill="none" stroke="black" d="M1044.4,-130C1052.39,-130 1061.31,-130 1069.82,-130"/>
<polygon fill="black" stroke="black" points="1069.92,-133.5 1079.92,-130 1069.92,-126.5 1069.92,-133.5"/>
</g>
<!-- 2333764060080 -->
<g id="node9" class="node">
<title>2333764060080</title>
<polygon fill="white" stroke="black" points="684,-187 630,-187 630,-151 684,-151 684,-187"/>
<text text-anchor="middle" x="657" y="-165.9" font-family="Times New Roman,serif" font-size="12.00">g</text>
</g>
<!-- 2333764069536 -->
<g id="node22" class="node">
<title>2333764069536</title>
<ellipse fill="white" stroke="black" cx="837" cy="-164" rx="27" ry="27"/>
</g>
<!-- 2333764060080&#45;&gt;2333764069536 -->
<g id="edge10" class="edge">
<title>2333764060080&#45;&gt;2333764069536</title>
<path fill="none" stroke="black" d="M684.26,-168.26C714.85,-167.4 765.55,-165.98 799.84,-165.02"/>
<polygon fill="black" stroke="black" points="800.02,-168.51 809.92,-164.73 799.82,-161.51 800.02,-168.51"/>
</g>
<!-- 2333764062288 -->
<g id="node10" class="node">
<title>2333764062288</title>
<polygon fill="white" stroke="black" points="684,-53 630,-53 630,-17 684,-17 684,-53"/>
<text text-anchor="middle" x="657" y="-31.9" font-family="Times New Roman,serif" font-size="12.00">c</text>
</g>
<!-- 2333764063296 -->
<g id="node12" class="node">
<title>2333764063296</title>
<ellipse fill="white" stroke="black" cx="747" cy="-40" rx="27" ry="27"/>
</g>
<!-- 2333764062288&#45;&gt;2333764063296 -->
<g id="edge5" class="edge">
<title>2333764062288&#45;&gt;2333764063296</title>
<path fill="none" stroke="black" d="M684.4,-36.5C692.39,-36.95 701.31,-37.46 709.82,-37.94"/>
<polygon fill="black" stroke="black" points="709.74,-41.45 719.92,-38.52 710.13,-34.46 709.74,-41.45"/>
</g>
<!-- 2333764059936 -->
<g id="node11" class="node">
<title>2333764059936</title>
<ellipse fill="white" stroke="black" cx="27" cy="-99" rx="27" ry="27"/>
<text text-anchor="start" x="9.5" y="-90.3" font-family="Times New Roman,serif" font-size="34.00">â—</text>
</g>
<!-- 2333764059936&#45;&gt;2333764059792 -->
<g id="edge23" class="edge">
<title>2333764059936&#45;&gt;2333764059792</title>
<path fill="none" stroke="black" d="M54.4,-99C62.39,-99 71.31,-99 79.82,-99"/>
<polygon fill="black" stroke="black" points="79.92,-102.5 89.92,-99 79.92,-95.5 79.92,-102.5"/>
</g>
<!-- 2333764063296&#45;&gt;2333764066368 -->
<g id="edge12" class="edge">
<title>2333764063296&#45;&gt;2333764066368</title>
<path fill="none" stroke="black" d="M769.75,-54.58C779.31,-60.99 790.77,-68.68 801.45,-75.84"/>
<polygon fill="black" stroke="black" points="799.54,-78.77 809.8,-81.43 803.44,-72.96 799.54,-78.77"/>
</g>
<!-- 2333764061904&#45;&gt;2333764066032 -->
<g id="edge13" class="edge">
<title>2333764061904&#45;&gt;2333764066032</title>
<path fill="none" stroke="black" d="M952.98,-110.66C961.42,-113.25 971,-116.19 980.11,-118.99"/>
<polygon fill="black" stroke="black" points="979.14,-122.35 989.73,-121.94 981.19,-115.66 979.14,-122.35"/>
</g>
<!-- 2333764060032&#45;&gt;2333764063008 -->
<g id="edge14" class="edge">
<title>2333764060032&#45;&gt;2333764063008</title>
<path fill="none" stroke="black" d="M234.4,-99C242.39,-99 251.31,-99 259.82,-99"/>
<polygon fill="black" stroke="black" points="259.92,-102.5 269.92,-99 259.92,-95.5 259.92,-102.5"/>
</g>
<!-- 2333764060800&#45;&gt;2333764067808 -->
<g id="edge15" class="edge">
<title>2333764060800&#45;&gt;2333764067808</title>
<path fill="none" stroke="black" d="M1134.4,-130C1142.39,-130 1151.31,-130 1159.82,-130"/>
<polygon fill="black" stroke="black" points="1159.92,-133.5 1169.92,-130 1159.92,-126.5 1159.92,-133.5"/>
</g>
<!-- 2333764063104&#45;&gt;2333764059552 -->
<g id="edge16" class="edge">
<title>2333764063104&#45;&gt;2333764059552</title>
<path fill="none" stroke="black" d="M414.4,-170.7C422.39,-170.61 431.31,-170.51 439.82,-170.41"/>
<polygon fill="black" stroke="black" points="439.96,-173.91 449.92,-170.3 439.88,-166.91 439.96,-173.91"/>
</g>
<!-- 2333764067184&#45;&gt;2333764068480 -->
<g id="edge17" class="edge">
<title>2333764067184&#45;&gt;2333764068480</title>
<path fill="none" stroke="black" d="M414.4,-99C422.39,-99 431.31,-99 439.82,-99"/>
<polygon fill="black" stroke="black" points="439.92,-102.5 449.92,-99 439.92,-95.5 439.92,-102.5"/>
</g>
<!-- 2333764066224&#45;&gt;2333764066368 -->
<g id="edge18" class="edge">
<title>2333764066224&#45;&gt;2333764066368</title>
<path fill="none" stroke="black" d="M684.26,-99C714.85,-99 765.55,-99 799.84,-99"/>
<polygon fill="black" stroke="black" points="799.92,-102.5 809.92,-99 799.92,-95.5 799.92,-102.5"/>
</g>
<!-- 2333764064160&#45;&gt;2333764062288 -->
<g id="edge19" class="edge">
<title>2333764064160&#45;&gt;2333764062288</title>
<path fill="none" stroke="black" d="M594.4,-33.6C602.39,-33.78 611.31,-33.98 619.82,-34.18"/>
<polygon fill="black" stroke="black" points="619.84,-37.68 629.92,-34.41 620,-30.68 619.84,-37.68"/>
</g>
<!-- 2333764063392&#45;&gt;2333764060080 -->
<g id="edge20" class="edge">
<title>2333764063392&#45;&gt;2333764060080</title>
<path fill="none" stroke="black" d="M594.4,-169.7C602.39,-169.61 611.31,-169.51 619.82,-169.41"/>
<polygon fill="black" stroke="black" points="619.96,-172.91 629.92,-169.3 619.88,-165.91 619.96,-172.91"/>
</g>
<!-- 2333764064256&#45;&gt;2333764060464 -->
<g id="edge21" class="edge">
<title>2333764064256&#45;&gt;2333764060464</title>
<path fill="none" stroke="black" d="M414.4,-27.6C422.39,-27.78 431.31,-27.98 439.82,-28.18"/>
<polygon fill="black" stroke="black" points="439.84,-31.68 449.92,-28.41 440,-24.68 439.84,-31.68"/>
</g>
<!-- 2333764069536&#45;&gt;2333764066032 -->
<g id="edge22" class="edge">
<title>2333764069536&#45;&gt;2333764066032</title>
<path fill="none" stroke="black" d="M863.88,-159.06C894.38,-153.23 945.25,-143.51 979.68,-136.94"/>
<polygon fill="black" stroke="black" points="980.63,-140.32 989.8,-135.01 979.32,-133.44 980.63,-140.32"/>
</g>
</g>
</svg>
