<?xml version="1.0" encoding="UTF-8" standalone="no"?>
<!DOCTYPE svg PUBLIC "-//W3C//DTD SVG 1.1//EN"
 "http://www.w3.org/Graphics/SVG/1.1/DTD/svg11.dtd">
<!-- Generated by graphviz version 3.0.0 (20220226.1711)
 -->
<!-- Title: new_petri_net Pages: 1 -->
<svg width="1690pt" height="191pt"
 viewBox="0.00 0.00 1690.00 191.00" xmlns="http://www.w3.org/2000/svg" xmlns:xlink="http://www.w3.org/1999/xlink">
<g id="graph0" class="graph" transform="scale(1 1) rotate(0) translate(4 187)">
<title>new_petri_net</title>
<polygon fill="white" stroke="transparent" points="-4,4 -4,-187 1686,-187 1686,4 -4,4"/>
<!-- 2333762267296 -->
<g id="node1" class="node">
<title>2333762267296</title>
<polygon fill="white" stroke="black" points="1044,-119 990,-119 990,-83 1044,-83 1044,-119"/>
<text text-anchor="middle" x="1017" y="-97.9" font-family="Times New Roman,serif" font-size="12.00">f</text>
</g>
<!-- 2333762265088 -->
<g id="node14" class="node">
<title>2333762265088</title>
<ellipse fill="white" stroke="black" cx="1287" cy="-156" rx="27" ry="27"/>
</g>
<!-- 2333762267296&#45;&gt;2333762265088 -->
<g id="edge8" class="edge">
<title>2333762267296&#45;&gt;2333762265088</title>
<path fill="none" stroke="black" d="M1044.02,-116.54C1054.8,-122.3 1067.66,-128.32 1080,-132 1137.61,-149.18 1207.7,-154.16 1249.49,-155.54"/>
<polygon fill="black" stroke="black" points="1249.63,-159.05 1259.73,-155.83 1249.83,-152.05 1249.63,-159.05"/>
</g>
<!-- 2333762264848 -->
<g id="node18" class="node">
<title>2333762264848</title>
<ellipse fill="white" stroke="black" cx="1107" cy="-96" rx="27" ry="27"/>
</g>
<!-- 2333762267296&#45;&gt;2333762264848 -->
<g id="edge9" class="edge">
<title>2333762267296&#45;&gt;2333762264848</title>
<path fill="none" stroke="black" d="M1044.4,-99.5C1052.39,-99.05 1061.31,-98.54 1069.82,-98.06"/>
<polygon fill="black" stroke="black" points="1070.13,-101.54 1079.92,-97.48 1069.74,-94.55 1070.13,-101.54"/>
</g>
<!-- 2333762267872 -->
<g id="node2" class="node">
<title>2333762267872</title>
<polygon fill="white" stroke="black" points="684,-116 630,-116 630,-80 684,-80 684,-116"/>
<text text-anchor="middle" x="657" y="-94.9" font-family="Times New Roman,serif" font-size="12.00">c</text>
</g>
<!-- 2333762259280 -->
<g id="node20" class="node">
<title>2333762259280</title>
<ellipse fill="white" stroke="black" cx="747" cy="-95" rx="27" ry="27"/>
</g>
<!-- 2333762267872&#45;&gt;2333762259280 -->
<g id="edge4" class="edge">
<title>2333762267872&#45;&gt;2333762259280</title>
<path fill="none" stroke="black" d="M684.4,-97.1C692.39,-96.83 701.31,-96.52 709.82,-96.23"/>
<polygon fill="black" stroke="black" points="710.04,-99.73 719.92,-95.89 709.81,-92.73 710.04,-99.73"/>
</g>
<!-- 2333762268544 -->
<g id="node3" class="node">
<title>2333762268544</title>
<polygon fill="black" stroke="black" points="1584,-102 1530,-102 1530,-66 1584,-66 1584,-102"/>
</g>
<!-- 2333762271664 -->
<g id="node26" class="node">
<title>2333762271664</title>
<ellipse fill="white" stroke="black" cx="1651" cy="-84" rx="27" ry="27"/>
<ellipse fill="none" stroke="black" cx="1651" cy="-84" rx="31" ry="31"/>
<text text-anchor="start" x="1634" y="-75.9" font-family="Times New Roman,serif" font-size="32.00">â– </text>
</g>
<!-- 2333762268544&#45;&gt;2333762271664 -->
<g id="edge7" class="edge">
<title>2333762268544&#45;&gt;2333762271664</title>
<path fill="none" stroke="black" d="M1584.12,-84C1592.14,-84 1601.15,-84 1609.88,-84"/>
<polygon fill="black" stroke="black" points="1609.92,-87.5 1619.92,-84 1609.92,-80.5 1609.92,-87.5"/>
</g>
<!-- 2333762270368 -->
<g id="node4" class="node">
<title>2333762270368</title>
<polygon fill="white" stroke="black" points="324,-81 270,-81 270,-45 324,-45 324,-81"/>
<text text-anchor="middle" x="297" y="-59.9" font-family="Times New Roman,serif" font-size="12.00">a</text>
</g>
<!-- 2333762260624 -->
<g id="node21" class="node">
<title>2333762260624</title>
<ellipse fill="white" stroke="black" cx="387" cy="-99" rx="27" ry="27"/>
</g>
<!-- 2333762270368&#45;&gt;2333762260624 -->
<g id="edge1" class="edge">
<title>2333762270368&#45;&gt;2333762260624</title>
<path fill="none" stroke="black" d="M324.4,-73.8C333.2,-77.4 343.11,-81.45 352.37,-85.24"/>
<polygon fill="black" stroke="black" points="351.14,-88.52 361.72,-89.07 353.79,-82.04 351.14,-88.52"/>
</g>
<!-- 2333762261296 -->
<g id="node24" class="node">
<title>2333762261296</title>
<ellipse fill="white" stroke="black" cx="387" cy="-27" rx="27" ry="27"/>
</g>
<!-- 2333762270368&#45;&gt;2333762261296 -->
<g id="edge2" class="edge">
<title>2333762270368&#45;&gt;2333762261296</title>
<path fill="none" stroke="black" d="M324.4,-52.2C333.2,-48.6 343.11,-44.55 352.37,-40.76"/>
<polygon fill="black" stroke="black" points="353.79,-43.96 361.72,-36.93 351.14,-37.48 353.79,-43.96"/>
</g>
<!-- 2333762271472 -->
<g id="node5" class="node">
<title>2333762271472</title>
<polygon fill="black" stroke="black" points="864,-83 810,-83 810,-47 864,-47 864,-83"/>
</g>
<!-- 2333762272192 -->
<g id="node13" class="node">
<title>2333762272192</title>
<ellipse fill="white" stroke="black" cx="927" cy="-101" rx="27" ry="27"/>
</g>
<!-- 2333762271472&#45;&gt;2333762272192 -->
<g id="edge27" class="edge">
<title>2333762271472&#45;&gt;2333762272192</title>
<path fill="none" stroke="black" d="M864.4,-75.8C873.2,-79.4 883.11,-83.45 892.37,-87.24"/>
<polygon fill="black" stroke="black" points="891.14,-90.52 901.72,-91.07 893.79,-84.04 891.14,-90.52"/>
</g>
<!-- 2333762271040 -->
<g id="node19" class="node">
<title>2333762271040</title>
<ellipse fill="white" stroke="black" cx="927" cy="-29" rx="27" ry="27"/>
</g>
<!-- 2333762271472&#45;&gt;2333762271040 -->
<g id="edge28" class="edge">
<title>2333762271472&#45;&gt;2333762271040</title>
<path fill="none" stroke="black" d="M864.4,-54.2C873.2,-50.6 883.11,-46.55 892.37,-42.76"/>
<polygon fill="black" stroke="black" points="893.79,-45.96 901.72,-38.93 891.14,-39.48 893.79,-45.96"/>
</g>
<!-- 2333762270512 -->
<g id="node6" class="node">
<title>2333762270512</title>
<polygon fill="black" stroke="black" points="144,-81 90,-81 90,-45 144,-45 144,-81"/>
</g>
<!-- 2333762270992 -->
<g id="node15" class="node">
<title>2333762270992</title>
<ellipse fill="white" stroke="black" cx="207" cy="-63" rx="27" ry="27"/>
</g>
<!-- 2333762270512&#45;&gt;2333762270992 -->
<g id="edge26" class="edge">
<title>2333762270512&#45;&gt;2333762270992</title>
<path fill="none" stroke="black" d="M144.4,-63C152.39,-63 161.31,-63 169.82,-63"/>
<polygon fill="black" stroke="black" points="169.92,-66.5 179.92,-63 169.92,-59.5 169.92,-66.5"/>
</g>
<!-- 2333762271376 -->
<g id="node7" class="node">
<title>2333762271376</title>
<polygon fill="white" stroke="black" points="504,-116 450,-116 450,-80 504,-80 504,-116"/>
<text text-anchor="middle" x="477" y="-94.9" font-family="Times New Roman,serif" font-size="12.00">b</text>
</g>
<!-- 2333762271760 -->
<g id="node25" class="node">
<title>2333762271760</title>
<ellipse fill="white" stroke="black" cx="567" cy="-98" rx="27" ry="27"/>
</g>
<!-- 2333762271376&#45;&gt;2333762271760 -->
<g id="edge3" class="edge">
<title>2333762271376&#45;&gt;2333762271760</title>
<path fill="none" stroke="black" d="M504.4,-98C512.39,-98 521.31,-98 529.82,-98"/>
<polygon fill="black" stroke="black" points="529.92,-101.5 539.92,-98 529.92,-94.5 529.92,-101.5"/>
</g>
<!-- 2333762270608 -->
<g id="node8" class="node">
<title>2333762270608</title>
<polygon fill="white" stroke="black" points="1404,-102 1350,-102 1350,-66 1404,-66 1404,-102"/>
<text text-anchor="middle" x="1377" y="-80.9" font-family="Times New Roman,serif" font-size="12.00">h</text>
</g>
<!-- 2333762271232 -->
<g id="node16" class="node">
<title>2333762271232</title>
<ellipse fill="white" stroke="black" cx="1467" cy="-84" rx="27" ry="27"/>
</g>
<!-- 2333762270608&#45;&gt;2333762271232 -->
<g id="edge11" class="edge">
<title>2333762270608&#45;&gt;2333762271232</title>
<path fill="none" stroke="black" d="M1404.4,-84C1412.39,-84 1421.31,-84 1429.82,-84"/>
<polygon fill="black" stroke="black" points="1429.92,-87.5 1439.92,-84 1429.92,-80.5 1429.92,-87.5"/>
</g>
<!-- 2333762270416 -->
<g id="node9" class="node">
<title>2333762270416</title>
<polygon fill="white" stroke="black" points="504,-49 450,-49 450,-13 504,-13 504,-49"/>
<text text-anchor="middle" x="477" y="-27.9" font-family="Times New Roman,serif" font-size="12.00">e</text>
</g>
<!-- 2333762271184 -->
<g id="node22" class="node">
<title>2333762271184</title>
<ellipse fill="white" stroke="black" cx="657" cy="-34" rx="27" ry="27"/>
</g>
<!-- 2333762270416&#45;&gt;2333762271184 -->
<g id="edge6" class="edge">
<title>2333762270416&#45;&gt;2333762271184</title>
<path fill="none" stroke="black" d="M504.26,-31.44C534.85,-31.96 585.55,-32.81 619.84,-33.39"/>
<polygon fill="black" stroke="black" points="619.86,-36.89 629.92,-33.56 619.98,-29.89 619.86,-36.89"/>
</g>
<!-- 2333762267248 -->
<g id="node10" class="node">
<title>2333762267248</title>
<polygon fill="white" stroke="black" points="1224,-112 1170,-112 1170,-76 1224,-76 1224,-112"/>
<text text-anchor="middle" x="1197" y="-90.9" font-family="Times New Roman,serif" font-size="12.00">g</text>
</g>
<!-- 2333762262208 -->
<g id="node17" class="node">
<title>2333762262208</title>
<ellipse fill="white" stroke="black" cx="1287" cy="-84" rx="27" ry="27"/>
</g>
<!-- 2333762267248&#45;&gt;2333762262208 -->
<g id="edge10" class="edge">
<title>2333762267248&#45;&gt;2333762262208</title>
<path fill="none" stroke="black" d="M1224.4,-91C1232.39,-90.09 1241.31,-89.08 1249.82,-88.11"/>
<polygon fill="black" stroke="black" points="1250.38,-91.57 1259.92,-86.96 1249.59,-84.62 1250.38,-91.57"/>
</g>
<!-- 2333762270032 -->
<g id="node11" class="node">
<title>2333762270032</title>
<polygon fill="white" stroke="black" points="1044,-47 990,-47 990,-11 1044,-11 1044,-47"/>
<text text-anchor="middle" x="1017" y="-25.9" font-family="Times New Roman,serif" font-size="12.00">d</text>
</g>
<!-- 2333762262736 -->
<g id="node23" class="node">
<title>2333762262736</title>
<ellipse fill="white" stroke="black" cx="1197" cy="-29" rx="27" ry="27"/>
</g>
<!-- 2333762270032&#45;&gt;2333762262736 -->
<g id="edge5" class="edge">
<title>2333762270032&#45;&gt;2333762262736</title>
<path fill="none" stroke="black" d="M1044.26,-29C1074.85,-29 1125.55,-29 1159.84,-29"/>
<polygon fill="black" stroke="black" points="1159.92,-32.5 1169.92,-29 1159.92,-25.5 1159.92,-32.5"/>
</g>
<!-- 2333762271424 -->
<g id="node12" class="node">
<title>2333762271424</title>
<ellipse fill="white" stroke="black" cx="27" cy="-63" rx="27" ry="27"/>
<text text-anchor="start" x="9.5" y="-54.3" font-family="Times New Roman,serif" font-size="34.00">â—</text>
</g>
<!-- 2333762271424&#45;&gt;2333762270512 -->
<g id="edge25" class="edge">
<title>2333762271424&#45;&gt;2333762270512</title>
<path fill="none" stroke="black" d="M54.4,-63C62.39,-63 71.31,-63 79.82,-63"/>
<polygon fill="black" stroke="black" points="79.92,-66.5 89.92,-63 79.92,-59.5 79.92,-66.5"/>
</g>
<!-- 2333762272192&#45;&gt;2333762267296 -->
<g id="edge12" class="edge">
<title>2333762272192&#45;&gt;2333762267296</title>
<path fill="none" stroke="black" d="M954.4,-101C962.39,-101 971.31,-101 979.82,-101"/>
<polygon fill="black" stroke="black" points="979.92,-104.5 989.92,-101 979.92,-97.5 979.92,-104.5"/>
</g>
<!-- 2333762265088&#45;&gt;2333762270608 -->
<g id="edge13" class="edge">
<title>2333762265088&#45;&gt;2333762270608</title>
<path fill="none" stroke="black" d="M1308.41,-139.3C1319.57,-130.17 1333.61,-118.68 1346,-108.55"/>
<polygon fill="black" stroke="black" points="1348.33,-111.16 1353.85,-102.12 1343.89,-105.75 1348.33,-111.16"/>
</g>
<!-- 2333762270992&#45;&gt;2333762270368 -->
<g id="edge14" class="edge">
<title>2333762270992&#45;&gt;2333762270368</title>
<path fill="none" stroke="black" d="M234.4,-63C242.39,-63 251.31,-63 259.82,-63"/>
<polygon fill="black" stroke="black" points="259.92,-66.5 269.92,-63 259.92,-59.5 259.92,-66.5"/>
</g>
<!-- 2333762271232&#45;&gt;2333762268544 -->
<g id="edge15" class="edge">
<title>2333762271232&#45;&gt;2333762268544</title>
<path fill="none" stroke="black" d="M1494.4,-84C1502.39,-84 1511.31,-84 1519.82,-84"/>
<polygon fill="black" stroke="black" points="1519.92,-87.5 1529.92,-84 1519.92,-80.5 1519.92,-87.5"/>
</g>
<!-- 2333762262208&#45;&gt;2333762270608 -->
<g id="edge16" class="edge">
<title>2333762262208&#45;&gt;2333762270608</title>
<path fill="none" stroke="black" d="M1314.4,-84C1322.39,-84 1331.31,-84 1339.82,-84"/>
<polygon fill="black" stroke="black" points="1339.92,-87.5 1349.92,-84 1339.92,-80.5 1339.92,-87.5"/>
</g>
<!-- 2333762264848&#45;&gt;2333762267248 -->
<g id="edge17" class="edge">
<title>2333762264848&#45;&gt;2333762267248</title>
<path fill="none" stroke="black" d="M1134.4,-95.4C1142.39,-95.22 1151.31,-95.02 1159.82,-94.82"/>
<polygon fill="black" stroke="black" points="1160,-98.32 1169.92,-94.59 1159.84,-91.32 1160,-98.32"/>
</g>
<!-- 2333762271040&#45;&gt;2333762270032 -->
<g id="edge18" class="edge">
<title>2333762271040&#45;&gt;2333762270032</title>
<path fill="none" stroke="black" d="M954.4,-29C962.39,-29 971.31,-29 979.82,-29"/>
<polygon fill="black" stroke="black" points="979.92,-32.5 989.92,-29 979.92,-25.5 979.92,-32.5"/>
</g>
<!-- 2333762259280&#45;&gt;2333762271472 -->
<g id="edge19" class="edge">
<title>2333762259280&#45;&gt;2333762271472</title>
<path fill="none" stroke="black" d="M772.98,-86.48C781.42,-83.61 791,-80.34 800.11,-77.23"/>
<polygon fill="black" stroke="black" points="801.39,-80.5 809.73,-73.96 799.13,-73.87 801.39,-80.5"/>
</g>
<!-- 2333762260624&#45;&gt;2333762271376 -->
<g id="edge20" class="edge">
<title>2333762260624&#45;&gt;2333762271376</title>
<path fill="none" stroke="black" d="M414.4,-98.7C422.39,-98.61 431.31,-98.51 439.82,-98.41"/>
<polygon fill="black" stroke="black" points="439.96,-101.91 449.92,-98.3 439.88,-94.91 439.96,-101.91"/>
</g>
<!-- 2333762271184&#45;&gt;2333762271472 -->
<g id="edge21" class="edge">
<title>2333762271184&#45;&gt;2333762271472</title>
<path fill="none" stroke="black" d="M683.88,-38.51C714.38,-43.82 765.25,-52.68 799.68,-58.67"/>
<polygon fill="black" stroke="black" points="799.34,-62.17 809.8,-60.44 800.54,-55.27 799.34,-62.17"/>
</g>
<!-- 2333762262736&#45;&gt;2333762270608 -->
<g id="edge22" class="edge">
<title>2333762262736&#45;&gt;2333762270608</title>
<path fill="none" stroke="black" d="M1224.02,-30.55C1247.98,-32.61 1284.22,-37.33 1314,-48 1323.22,-51.3 1332.63,-55.98 1341.24,-60.87"/>
<polygon fill="black" stroke="black" points="1339.49,-63.9 1349.88,-65.99 1343.06,-57.88 1339.49,-63.9"/>
</g>
<!-- 2333762261296&#45;&gt;2333762270416 -->
<g id="edge23" class="edge">
<title>2333762261296&#45;&gt;2333762270416</title>
<path fill="none" stroke="black" d="M414.4,-28.2C422.39,-28.56 431.31,-28.97 439.82,-29.36"/>
<polygon fill="black" stroke="black" points="439.77,-32.86 449.92,-29.81 440.09,-25.86 439.77,-32.86"/>
</g>
<!-- 2333762271760&#45;&gt;2333762267872 -->
<g id="edge24" class="edge">
<title>2333762271760&#45;&gt;2333762267872</title>
<path fill="none" stroke="black" d="M594.4,-98C602.39,-98 611.31,-98 619.82,-98"/>
<polygon fill="black" stroke="black" points="619.92,-101.5 629.92,-98 619.92,-94.5 619.92,-101.5"/>
</g>
</g>
</svg>
