<?xml version="1.0" encoding="UTF-8" standalone="no"?>
<!DOCTYPE svg PUBLIC "-//W3C//DTD SVG 1.1//EN"
 "http://www.w3.org/Graphics/SVG/1.1/DTD/svg11.dtd">
<!-- Generated by graphviz version 3.0.0 (20220226.1711)
 -->
<!-- Title: new_petri_net Pages: 1 -->
<svg width="1510pt" height="202pt"
 viewBox="0.00 0.00 1510.00 202.00" xmlns="http://www.w3.org/2000/svg" xmlns:xlink="http://www.w3.org/1999/xlink">
<g id="graph0" class="graph" transform="scale(1 1) rotate(0) translate(4 198)">
<title>new_petri_net</title>
<polygon fill="white" stroke="transparent" points="-4,4 -4,-198 1506,-198 1506,4 -4,4"/>
<!-- 2333765894272 -->
<g id="node1" class="node">
<title>2333765894272</title>
<polygon fill="white" stroke="black" points="324,-45 270,-45 270,-9 324,-9 324,-45"/>
<text text-anchor="middle" x="297" y="-23.9" font-family="Times New Roman,serif" font-size="12.00">g</text>
</g>
<!-- 2333765762848 -->
<g id="node25" class="node">
<title>2333765762848</title>
<ellipse fill="white" stroke="black" cx="657" cy="-27" rx="27" ry="27"/>
</g>
<!-- 2333765894272&#45;&gt;2333765762848 -->
<g id="edge9" class="edge">
<title>2333765894272&#45;&gt;2333765762848</title>
<path fill="none" stroke="black" d="M324.03,-27C386.91,-27 547.19,-27 619.56,-27"/>
<polygon fill="black" stroke="black" points="619.58,-30.5 629.58,-27 619.58,-23.5 619.58,-30.5"/>
</g>
<!-- 2333765894368 -->
<g id="node2" class="node">
<title>2333765894368</title>
<polygon fill="white" stroke="black" points="324,-117 270,-117 270,-81 324,-81 324,-117"/>
<text text-anchor="middle" x="297" y="-95.9" font-family="Times New Roman,serif" font-size="12.00">a</text>
</g>
<!-- 2333765762512 -->
<g id="node14" class="node">
<title>2333765762512</title>
<ellipse fill="white" stroke="black" cx="387" cy="-167" rx="27" ry="27"/>
</g>
<!-- 2333765894368&#45;&gt;2333765762512 -->
<g id="edge1" class="edge">
<title>2333765894368&#45;&gt;2333765762512</title>
<path fill="none" stroke="black" d="M321.58,-117.22C332.48,-125.64 345.52,-135.72 357.02,-144.6"/>
<polygon fill="black" stroke="black" points="355,-147.47 365.06,-150.82 359.28,-141.93 355,-147.47"/>
</g>
<!-- 2333765762944 -->
<g id="node23" class="node">
<title>2333765762944</title>
<ellipse fill="white" stroke="black" cx="387" cy="-95" rx="27" ry="27"/>
</g>
<!-- 2333765894368&#45;&gt;2333765762944 -->
<g id="edge2" class="edge">
<title>2333765894368&#45;&gt;2333765762944</title>
<path fill="none" stroke="black" d="M324.4,-97.8C332.39,-97.44 341.31,-97.03 349.82,-96.64"/>
<polygon fill="black" stroke="black" points="350.09,-100.14 359.92,-96.19 349.77,-93.14 350.09,-100.14"/>
</g>
<!-- 2333765894464 -->
<g id="node3" class="node">
<title>2333765894464</title>
<polygon fill="white" stroke="black" points="1044,-172 990,-172 990,-136 1044,-136 1044,-172"/>
<text text-anchor="middle" x="1017" y="-150.9" font-family="Times New Roman,serif" font-size="12.00">d</text>
</g>
<!-- 2333765762416 -->
<g id="node13" class="node">
<title>2333765762416</title>
<ellipse fill="white" stroke="black" cx="1107" cy="-154" rx="27" ry="27"/>
</g>
<!-- 2333765894464&#45;&gt;2333765762416 -->
<g id="edge5" class="edge">
<title>2333765894464&#45;&gt;2333765762416</title>
<path fill="none" stroke="black" d="M1044.4,-154C1052.39,-154 1061.31,-154 1069.82,-154"/>
<polygon fill="black" stroke="black" points="1069.92,-157.5 1079.92,-154 1069.92,-150.5 1069.92,-157.5"/>
</g>
<!-- 2333765894560 -->
<g id="node4" class="node">
<title>2333765894560</title>
<polygon fill="black" stroke="black" points="144,-81 90,-81 90,-45 144,-45 144,-81"/>
</g>
<!-- 2333765762560 -->
<g id="node17" class="node">
<title>2333765762560</title>
<ellipse fill="white" stroke="black" cx="207" cy="-99" rx="27" ry="27"/>
</g>
<!-- 2333765894560&#45;&gt;2333765762560 -->
<g id="edge25" class="edge">
<title>2333765894560&#45;&gt;2333765762560</title>
<path fill="none" stroke="black" d="M144.4,-73.8C153.2,-77.4 163.11,-81.45 172.37,-85.24"/>
<polygon fill="black" stroke="black" points="171.14,-88.52 181.72,-89.07 173.79,-82.04 171.14,-88.52"/>
</g>
<!-- 2333765894224 -->
<g id="node22" class="node">
<title>2333765894224</title>
<ellipse fill="white" stroke="black" cx="207" cy="-27" rx="27" ry="27"/>
</g>
<!-- 2333765894560&#45;&gt;2333765894224 -->
<g id="edge26" class="edge">
<title>2333765894560&#45;&gt;2333765894224</title>
<path fill="none" stroke="black" d="M144.4,-52.2C153.2,-48.6 163.11,-44.55 172.37,-40.76"/>
<polygon fill="black" stroke="black" points="173.79,-43.96 181.72,-36.93 171.14,-37.48 173.79,-43.96"/>
</g>
<!-- 2333765894656 -->
<g id="node5" class="node">
<title>2333765894656</title>
<polygon fill="white" stroke="black" points="684,-113 630,-113 630,-77 684,-77 684,-113"/>
<text text-anchor="middle" x="657" y="-91.9" font-family="Times New Roman,serif" font-size="12.00">c</text>
</g>
<!-- 2333765762656 -->
<g id="node24" class="node">
<title>2333765762656</title>
<ellipse fill="white" stroke="black" cx="747" cy="-95" rx="27" ry="27"/>
</g>
<!-- 2333765894656&#45;&gt;2333765762656 -->
<g id="edge4" class="edge">
<title>2333765894656&#45;&gt;2333765762656</title>
<path fill="none" stroke="black" d="M684.4,-95C692.39,-95 701.31,-95 709.82,-95"/>
<polygon fill="black" stroke="black" points="709.92,-98.5 719.92,-95 709.92,-91.5 709.92,-98.5"/>
</g>
<!-- 2333765894752 -->
<g id="node6" class="node">
<title>2333765894752</title>
<polygon fill="white" stroke="black" points="504,-113 450,-113 450,-77 504,-77 504,-113"/>
<text text-anchor="middle" x="477" y="-91.9" font-family="Times New Roman,serif" font-size="12.00">b</text>
</g>
<!-- 2333765762704 -->
<g id="node21" class="node">
<title>2333765762704</title>
<ellipse fill="white" stroke="black" cx="567" cy="-95" rx="27" ry="27"/>
</g>
<!-- 2333765894752&#45;&gt;2333765762704 -->
<g id="edge3" class="edge">
<title>2333765894752&#45;&gt;2333765762704</title>
<path fill="none" stroke="black" d="M504.4,-95C512.39,-95 521.31,-95 529.82,-95"/>
<polygon fill="black" stroke="black" points="529.92,-98.5 539.92,-95 529.92,-91.5 529.92,-98.5"/>
</g>
<!-- 2333765894416 -->
<g id="node7" class="node">
<title>2333765894416</title>
<polygon fill="black" stroke="black" points="1404,-100 1350,-100 1350,-64 1404,-64 1404,-100"/>
</g>
<!-- 2333765762608 -->
<g id="node26" class="node">
<title>2333765762608</title>
<ellipse fill="white" stroke="black" cx="1471" cy="-82" rx="27" ry="27"/>
<ellipse fill="none" stroke="black" cx="1471" cy="-82" rx="31" ry="31"/>
<text text-anchor="start" x="1454" y="-73.9" font-family="Times New Roman,serif" font-size="32.00">â– </text>
</g>
<!-- 2333765894416&#45;&gt;2333765762608 -->
<g id="edge7" class="edge">
<title>2333765894416&#45;&gt;2333765762608</title>
<path fill="none" stroke="black" d="M1404.12,-82C1412.14,-82 1421.15,-82 1429.88,-82"/>
<polygon fill="black" stroke="black" points="1429.92,-85.5 1439.92,-82 1429.92,-78.5 1429.92,-85.5"/>
</g>
<!-- 2333765894320 -->
<g id="node8" class="node">
<title>2333765894320</title>
<polygon fill="black" stroke="black" points="864,-140 810,-140 810,-104 864,-104 864,-140"/>
</g>
<!-- 2333765763040 -->
<g id="node18" class="node">
<title>2333765763040</title>
<ellipse fill="white" stroke="black" cx="927" cy="-154" rx="27" ry="27"/>
</g>
<!-- 2333765894320&#45;&gt;2333765763040 -->
<g id="edge27" class="edge">
<title>2333765894320&#45;&gt;2333765763040</title>
<path fill="none" stroke="black" d="M864.4,-131.6C873.03,-134.74 882.73,-138.27 891.85,-141.58"/>
<polygon fill="black" stroke="black" points="890.83,-144.93 901.42,-145.06 893.22,-138.36 890.83,-144.93"/>
</g>
<!-- 2333765762896 -->
<g id="node19" class="node">
<title>2333765762896</title>
<ellipse fill="white" stroke="black" cx="927" cy="-82" rx="27" ry="27"/>
</g>
<!-- 2333765894320&#45;&gt;2333765762896 -->
<g id="edge28" class="edge">
<title>2333765894320&#45;&gt;2333765762896</title>
<path fill="none" stroke="black" d="M864.4,-110C873.36,-105.93 883.49,-101.32 892.91,-97.04"/>
<polygon fill="black" stroke="black" points="894.36,-100.23 902.02,-92.9 891.46,-93.85 894.36,-100.23"/>
</g>
<!-- 2333765894512 -->
<g id="node9" class="node">
<title>2333765894512</title>
<polygon fill="white" stroke="black" points="1224,-100 1170,-100 1170,-64 1224,-64 1224,-100"/>
<text text-anchor="middle" x="1197" y="-78.9" font-family="Times New Roman,serif" font-size="12.00">h</text>
</g>
<!-- 2333765762752 -->
<g id="node16" class="node">
<title>2333765762752</title>
<ellipse fill="white" stroke="black" cx="1287" cy="-82" rx="27" ry="27"/>
</g>
<!-- 2333765894512&#45;&gt;2333765762752 -->
<g id="edge10" class="edge">
<title>2333765894512&#45;&gt;2333765762752</title>
<path fill="none" stroke="black" d="M1224.4,-82C1232.39,-82 1241.31,-82 1249.82,-82"/>
<polygon fill="black" stroke="black" points="1249.92,-85.5 1259.92,-82 1249.92,-78.5 1249.92,-85.5"/>
</g>
<!-- 2333765894608 -->
<g id="node10" class="node">
<title>2333765894608</title>
<polygon fill="white" stroke="black" points="504,-185 450,-185 450,-149 504,-149 504,-185"/>
<text text-anchor="middle" x="477" y="-163.9" font-family="Times New Roman,serif" font-size="12.00">e</text>
</g>
<!-- 2333765762464 -->
<g id="node15" class="node">
<title>2333765762464</title>
<ellipse fill="white" stroke="black" cx="747" cy="-167" rx="27" ry="27"/>
</g>
<!-- 2333765894608&#45;&gt;2333765762464 -->
<g id="edge6" class="edge">
<title>2333765894608&#45;&gt;2333765762464</title>
<path fill="none" stroke="black" d="M504.18,-167C552.22,-167 654.51,-167 709.39,-167"/>
<polygon fill="black" stroke="black" points="709.71,-170.5 719.71,-167 709.71,-163.5 709.71,-170.5"/>
</g>
<!-- 2333765894704 -->
<g id="node11" class="node">
<title>2333765894704</title>
<polygon fill="white" stroke="black" points="1044,-100 990,-100 990,-64 1044,-64 1044,-100"/>
<text text-anchor="middle" x="1017" y="-78.9" font-family="Times New Roman,serif" font-size="12.00">f</text>
</g>
<!-- 2333765762800 -->
<g id="node20" class="node">
<title>2333765762800</title>
<ellipse fill="white" stroke="black" cx="1107" cy="-82" rx="27" ry="27"/>
</g>
<!-- 2333765894704&#45;&gt;2333765762800 -->
<g id="edge8" class="edge">
<title>2333765894704&#45;&gt;2333765762800</title>
<path fill="none" stroke="black" d="M1044.4,-82C1052.39,-82 1061.31,-82 1069.82,-82"/>
<polygon fill="black" stroke="black" points="1069.92,-85.5 1079.92,-82 1069.92,-78.5 1069.92,-85.5"/>
</g>
<!-- 2333765762992 -->
<g id="node12" class="node">
<title>2333765762992</title>
<ellipse fill="white" stroke="black" cx="27" cy="-63" rx="27" ry="27"/>
<text text-anchor="start" x="9.5" y="-54.3" font-family="Times New Roman,serif" font-size="34.00">â—</text>
</g>
<!-- 2333765762992&#45;&gt;2333765894560 -->
<g id="edge24" class="edge">
<title>2333765762992&#45;&gt;2333765894560</title>
<path fill="none" stroke="black" d="M54.4,-63C62.39,-63 71.31,-63 79.82,-63"/>
<polygon fill="black" stroke="black" points="79.92,-66.5 89.92,-63 79.92,-59.5 79.92,-66.5"/>
</g>
<!-- 2333765762416&#45;&gt;2333765894512 -->
<g id="edge11" class="edge">
<title>2333765762416&#45;&gt;2333765894512</title>
<path fill="none" stroke="black" d="M1128.41,-137.3C1139.57,-128.17 1153.61,-116.68 1166,-106.55"/>
<polygon fill="black" stroke="black" points="1168.33,-109.16 1173.85,-100.12 1163.89,-103.75 1168.33,-109.16"/>
</g>
<!-- 2333765762512&#45;&gt;2333765894608 -->
<g id="edge12" class="edge">
<title>2333765762512&#45;&gt;2333765894608</title>
<path fill="none" stroke="black" d="M414.4,-167C422.39,-167 431.31,-167 439.82,-167"/>
<polygon fill="black" stroke="black" points="439.92,-170.5 449.92,-167 439.92,-163.5 439.92,-170.5"/>
</g>
<!-- 2333765762464&#45;&gt;2333765894320 -->
<g id="edge13" class="edge">
<title>2333765762464&#45;&gt;2333765894320</title>
<path fill="none" stroke="black" d="M771.58,-154.94C780.53,-150.36 790.93,-145.05 800.73,-140.04"/>
<polygon fill="black" stroke="black" points="802.56,-143.03 809.87,-135.36 799.38,-136.8 802.56,-143.03"/>
</g>
<!-- 2333765762752&#45;&gt;2333765894416 -->
<g id="edge14" class="edge">
<title>2333765762752&#45;&gt;2333765894416</title>
<path fill="none" stroke="black" d="M1314.4,-82C1322.39,-82 1331.31,-82 1339.82,-82"/>
<polygon fill="black" stroke="black" points="1339.92,-85.5 1349.92,-82 1339.92,-78.5 1339.92,-85.5"/>
</g>
<!-- 2333765762560&#45;&gt;2333765894368 -->
<g id="edge15" class="edge">
<title>2333765762560&#45;&gt;2333765894368</title>
<path fill="none" stroke="black" d="M234.4,-99C242.39,-99 251.31,-99 259.82,-99"/>
<polygon fill="black" stroke="black" points="259.92,-102.5 269.92,-99 259.92,-95.5 259.92,-102.5"/>
</g>
<!-- 2333765763040&#45;&gt;2333765894464 -->
<g id="edge16" class="edge">
<title>2333765763040&#45;&gt;2333765894464</title>
<path fill="none" stroke="black" d="M954.4,-154C962.39,-154 971.31,-154 979.82,-154"/>
<polygon fill="black" stroke="black" points="979.92,-157.5 989.92,-154 979.92,-150.5 979.92,-157.5"/>
</g>
<!-- 2333765762896&#45;&gt;2333765894704 -->
<g id="edge17" class="edge">
<title>2333765762896&#45;&gt;2333765894704</title>
<path fill="none" stroke="black" d="M954.4,-82C962.39,-82 971.31,-82 979.82,-82"/>
<polygon fill="black" stroke="black" points="979.92,-85.5 989.92,-82 979.92,-78.5 979.92,-85.5"/>
</g>
<!-- 2333765762800&#45;&gt;2333765894512 -->
<g id="edge18" class="edge">
<title>2333765762800&#45;&gt;2333765894512</title>
<path fill="none" stroke="black" d="M1134.4,-82C1142.39,-82 1151.31,-82 1159.82,-82"/>
<polygon fill="black" stroke="black" points="1159.92,-85.5 1169.92,-82 1159.92,-78.5 1159.92,-85.5"/>
</g>
<!-- 2333765762704&#45;&gt;2333765894656 -->
<g id="edge19" class="edge">
<title>2333765762704&#45;&gt;2333765894656</title>
<path fill="none" stroke="black" d="M594.4,-95C602.39,-95 611.31,-95 619.82,-95"/>
<polygon fill="black" stroke="black" points="619.92,-98.5 629.92,-95 619.92,-91.5 619.92,-98.5"/>
</g>
<!-- 2333765894224&#45;&gt;2333765894272 -->
<g id="edge20" class="edge">
<title>2333765894224&#45;&gt;2333765894272</title>
<path fill="none" stroke="black" d="M234.4,-27C242.39,-27 251.31,-27 259.82,-27"/>
<polygon fill="black" stroke="black" points="259.92,-30.5 269.92,-27 259.92,-23.5 259.92,-30.5"/>
</g>
<!-- 2333765762944&#45;&gt;2333765894752 -->
<g id="edge21" class="edge">
<title>2333765762944&#45;&gt;2333765894752</title>
<path fill="none" stroke="black" d="M414.4,-95C422.39,-95 431.31,-95 439.82,-95"/>
<polygon fill="black" stroke="black" points="439.92,-98.5 449.92,-95 439.92,-91.5 439.92,-98.5"/>
</g>
<!-- 2333765762656&#45;&gt;2333765894320 -->
<g id="edge22" class="edge">
<title>2333765762656&#45;&gt;2333765894320</title>
<path fill="none" stroke="black" d="M772.98,-102.66C781.42,-105.25 791,-108.19 800.11,-110.99"/>
<polygon fill="black" stroke="black" points="799.14,-114.35 809.73,-113.94 801.19,-107.66 799.14,-114.35"/>
</g>
<!-- 2333765762848&#45;&gt;2333765894512 -->
<g id="edge23" class="edge">
<title>2333765762848&#45;&gt;2333765894512</title>
<path fill="none" stroke="black" d="M684.24,-27C718.96,-27 782.07,-27 836,-27 836,-27 836,-27 1018,-27 1070.24,-27 1084.82,-28.37 1134,-46 1143.22,-49.3 1152.63,-53.98 1161.24,-58.87"/>
<polygon fill="black" stroke="black" points="1159.49,-61.9 1169.88,-63.99 1163.06,-55.88 1159.49,-61.9"/>
</g>
</g>
</svg>
