<?xml version="1.0" encoding="UTF-8" standalone="no"?>
<!DOCTYPE svg PUBLIC "-//W3C//DTD SVG 1.1//EN"
 "http://www.w3.org/Graphics/SVG/1.1/DTD/svg11.dtd">
<!-- Generated by graphviz version 3.0.0 (20220226.1711)
 -->
<!-- Title: new_petri_net Pages: 1 -->
<svg width="1330pt" height="238pt"
 viewBox="0.00 0.00 1330.00 238.00" xmlns="http://www.w3.org/2000/svg" xmlns:xlink="http://www.w3.org/1999/xlink">
<g id="graph0" class="graph" transform="scale(1 1) rotate(0) translate(4 234)">
<title>new_petri_net</title>
<polygon fill="white" stroke="transparent" points="-4,4 -4,-234 1326,-234 1326,4 -4,4"/>
<!-- 2333767155104 -->
<g id="node1" class="node">
<title>2333767155104</title>
<polygon fill="white" stroke="black" points="864,-99 810,-99 810,-63 864,-63 864,-99"/>
<text text-anchor="middle" x="837" y="-77.9" font-family="Times New Roman,serif" font-size="12.00">f</text>
</g>
<!-- 2333767145120 -->
<g id="node19" class="node">
<title>2333767145120</title>
<ellipse fill="white" stroke="black" cx="927" cy="-81" rx="27" ry="27"/>
</g>
<!-- 2333767155104&#45;&gt;2333767145120 -->
<g id="edge10" class="edge">
<title>2333767155104&#45;&gt;2333767145120</title>
<path fill="none" stroke="black" d="M864.4,-81C872.39,-81 881.31,-81 889.82,-81"/>
<polygon fill="black" stroke="black" points="889.92,-84.5 899.92,-81 889.92,-77.5 889.92,-84.5"/>
</g>
<!-- 2333767141376 -->
<g id="node2" class="node">
<title>2333767141376</title>
<polygon fill="white" stroke="black" points="504,-56 450,-56 450,-20 504,-20 504,-56"/>
<text text-anchor="middle" x="477" y="-34.9" font-family="Times New Roman,serif" font-size="12.00">e</text>
</g>
<!-- 2333767142144 -->
<g id="node13" class="node">
<title>2333767142144</title>
<ellipse fill="white" stroke="black" cx="657" cy="-27" rx="27" ry="27"/>
</g>
<!-- 2333767141376&#45;&gt;2333767142144 -->
<g id="edge8" class="edge">
<title>2333767141376&#45;&gt;2333767142144</title>
<path fill="none" stroke="black" d="M504.26,-36.38C534.85,-34.49 585.55,-31.35 619.84,-29.23"/>
<polygon fill="black" stroke="black" points="620.15,-32.72 629.92,-28.61 619.72,-25.74 620.15,-32.72"/>
</g>
<!-- 2333767139840 -->
<g id="node3" class="node">
<title>2333767139840</title>
<polygon fill="white" stroke="black" points="684,-148 630,-148 630,-112 684,-112 684,-148"/>
<text text-anchor="middle" x="657" y="-126.9" font-family="Times New Roman,serif" font-size="12.00">c</text>
</g>
<!-- 2333767142912 -->
<g id="node17" class="node">
<title>2333767142912</title>
<ellipse fill="white" stroke="black" cx="747" cy="-153" rx="27" ry="27"/>
</g>
<!-- 2333767139840&#45;&gt;2333767142912 -->
<g id="edge5" class="edge">
<title>2333767139840&#45;&gt;2333767142912</title>
<path fill="none" stroke="black" d="M684.4,-136.9C692.63,-139.05 701.83,-141.46 710.57,-143.74"/>
<polygon fill="black" stroke="black" points="709.96,-147.2 720.52,-146.34 711.73,-140.43 709.96,-147.2"/>
</g>
<!-- 2333767143152 -->
<g id="node18" class="node">
<title>2333767143152</title>
<ellipse fill="white" stroke="black" cx="747" cy="-81" rx="27" ry="27"/>
</g>
<!-- 2333767139840&#45;&gt;2333767143152 -->
<g id="edge6" class="edge">
<title>2333767139840&#45;&gt;2333767143152</title>
<path fill="none" stroke="black" d="M684.4,-115.3C693.69,-110.13 704.22,-104.26 713.92,-98.86"/>
<polygon fill="black" stroke="black" points="715.86,-101.79 722.9,-93.86 712.46,-95.67 715.86,-101.79"/>
</g>
<!-- 2333767154576 -->
<g id="node4" class="node">
<title>2333767154576</title>
<polygon fill="black" stroke="black" points="1224,-171 1170,-171 1170,-135 1224,-135 1224,-171"/>
</g>
<!-- 2333767141328 -->
<g id="node24" class="node">
<title>2333767141328</title>
<ellipse fill="white" stroke="black" cx="1291" cy="-153" rx="27" ry="27"/>
<ellipse fill="none" stroke="black" cx="1291" cy="-153" rx="31" ry="31"/>
<text text-anchor="start" x="1274" y="-144.9" font-family="Times New Roman,serif" font-size="32.00">â– </text>
</g>
<!-- 2333767154576&#45;&gt;2333767141328 -->
<g id="edge9" class="edge">
<title>2333767154576&#45;&gt;2333767141328</title>
<path fill="none" stroke="black" d="M1224.12,-153C1232.14,-153 1241.15,-153 1249.88,-153"/>
<polygon fill="black" stroke="black" points="1249.92,-156.5 1259.92,-153 1249.92,-149.5 1249.92,-156.5"/>
</g>
<!-- 2333767141808 -->
<g id="node5" class="node">
<title>2333767141808</title>
<polygon fill="white" stroke="black" points="504,-220 450,-220 450,-184 504,-184 504,-220"/>
<text text-anchor="middle" x="477" y="-198.9" font-family="Times New Roman,serif" font-size="12.00">g</text>
</g>
<!-- 2333767145840 -->
<g id="node23" class="node">
<title>2333767145840</title>
<ellipse fill="white" stroke="black" cx="567" cy="-203" rx="27" ry="27"/>
</g>
<!-- 2333767141808&#45;&gt;2333767145840 -->
<g id="edge11" class="edge">
<title>2333767141808&#45;&gt;2333767145840</title>
<path fill="none" stroke="black" d="M504.4,-202.3C512.39,-202.39 521.31,-202.49 529.82,-202.59"/>
<polygon fill="black" stroke="black" points="529.88,-206.09 539.92,-202.7 529.96,-199.09 529.88,-206.09"/>
</g>
<!-- 2333767153616 -->
<g id="node6" class="node">
<title>2333767153616</title>
<polygon fill="white" stroke="black" points="504,-148 450,-148 450,-112 504,-112 504,-148"/>
<text text-anchor="middle" x="477" y="-126.9" font-family="Times New Roman,serif" font-size="12.00">b</text>
</g>
<!-- 2333767142432 -->
<g id="node20" class="node">
<title>2333767142432</title>
<ellipse fill="white" stroke="black" cx="567" cy="-130" rx="27" ry="27"/>
</g>
<!-- 2333767153616&#45;&gt;2333767142432 -->
<g id="edge4" class="edge">
<title>2333767153616&#45;&gt;2333767142432</title>
<path fill="none" stroke="black" d="M504.4,-130C512.39,-130 521.31,-130 529.82,-130"/>
<polygon fill="black" stroke="black" points="529.92,-133.5 539.92,-130 529.92,-126.5 529.92,-133.5"/>
</g>
<!-- 2333767151504 -->
<g id="node7" class="node">
<title>2333767151504</title>
<polygon fill="white" stroke="black" points="324,-148 270,-148 270,-112 324,-112 324,-148"/>
<text text-anchor="middle" x="297" y="-126.9" font-family="Times New Roman,serif" font-size="12.00">a</text>
</g>
<!-- 2333767146848 -->
<g id="node12" class="node">
<title>2333767146848</title>
<ellipse fill="white" stroke="black" cx="387" cy="-130" rx="27" ry="27"/>
</g>
<!-- 2333767151504&#45;&gt;2333767146848 -->
<g id="edge1" class="edge">
<title>2333767151504&#45;&gt;2333767146848</title>
<path fill="none" stroke="black" d="M324.4,-130C332.39,-130 341.31,-130 349.82,-130"/>
<polygon fill="black" stroke="black" points="349.92,-133.5 359.92,-130 349.92,-126.5 349.92,-133.5"/>
</g>
<!-- 2333767146512 -->
<g id="node21" class="node">
<title>2333767146512</title>
<ellipse fill="white" stroke="black" cx="387" cy="-202" rx="27" ry="27"/>
</g>
<!-- 2333767151504&#45;&gt;2333767146512 -->
<g id="edge2" class="edge">
<title>2333767151504&#45;&gt;2333767146512</title>
<path fill="none" stroke="black" d="M320.21,-148.17C331.54,-157.44 345.46,-168.83 357.57,-178.74"/>
<polygon fill="black" stroke="black" points="355.65,-181.69 365.61,-185.32 360.09,-176.28 355.65,-181.69"/>
</g>
<!-- 2333767144880 -->
<g id="node22" class="node">
<title>2333767144880</title>
<ellipse fill="white" stroke="black" cx="387" cy="-57" rx="27" ry="27"/>
</g>
<!-- 2333767151504&#45;&gt;2333767144880 -->
<g id="edge3" class="edge">
<title>2333767151504&#45;&gt;2333767144880</title>
<path fill="none" stroke="black" d="M319.75,-111.96C331.28,-102.4 345.56,-90.54 357.91,-80.3"/>
<polygon fill="black" stroke="black" points="360.24,-82.91 365.7,-73.84 355.77,-77.53 360.24,-82.91"/>
</g>
<!-- 2333767152944 -->
<g id="node8" class="node">
<title>2333767152944</title>
<polygon fill="black" stroke="black" points="144,-148 90,-148 90,-112 144,-112 144,-148"/>
</g>
<!-- 2333767147088 -->
<g id="node14" class="node">
<title>2333767147088</title>
<ellipse fill="white" stroke="black" cx="207" cy="-130" rx="27" ry="27"/>
</g>
<!-- 2333767152944&#45;&gt;2333767147088 -->
<g id="edge26" class="edge">
<title>2333767152944&#45;&gt;2333767147088</title>
<path fill="none" stroke="black" d="M144.4,-130C152.39,-130 161.31,-130 169.82,-130"/>
<polygon fill="black" stroke="black" points="169.92,-133.5 179.92,-130 169.92,-126.5 169.92,-133.5"/>
</g>
<!-- 2333767152176 -->
<g id="node9" class="node">
<title>2333767152176</title>
<polygon fill="white" stroke="black" points="1044,-171 990,-171 990,-135 1044,-135 1044,-171"/>
<text text-anchor="middle" x="1017" y="-149.9" font-family="Times New Roman,serif" font-size="12.00">h</text>
</g>
<!-- 2333767152704 -->
<g id="node15" class="node">
<title>2333767152704</title>
<ellipse fill="white" stroke="black" cx="1107" cy="-153" rx="27" ry="27"/>
</g>
<!-- 2333767152176&#45;&gt;2333767152704 -->
<g id="edge12" class="edge">
<title>2333767152176&#45;&gt;2333767152704</title>
<path fill="none" stroke="black" d="M1044.4,-153C1052.39,-153 1061.31,-153 1069.82,-153"/>
<polygon fill="black" stroke="black" points="1069.92,-156.5 1079.92,-153 1069.92,-149.5 1069.92,-156.5"/>
</g>
<!-- 2333767140272 -->
<g id="node10" class="node">
<title>2333767140272</title>
<polygon fill="white" stroke="black" points="864,-171 810,-171 810,-135 864,-135 864,-171"/>
<text text-anchor="middle" x="837" y="-149.9" font-family="Times New Roman,serif" font-size="12.00">d</text>
</g>
<!-- 2333767148192 -->
<g id="node16" class="node">
<title>2333767148192</title>
<ellipse fill="white" stroke="black" cx="927" cy="-153" rx="27" ry="27"/>
</g>
<!-- 2333767140272&#45;&gt;2333767148192 -->
<g id="edge7" class="edge">
<title>2333767140272&#45;&gt;2333767148192</title>
<path fill="none" stroke="black" d="M864.4,-153C872.39,-153 881.31,-153 889.82,-153"/>
<polygon fill="black" stroke="black" points="889.92,-156.5 899.92,-153 889.92,-149.5 889.92,-156.5"/>
</g>
<!-- 2333767142192 -->
<g id="node11" class="node">
<title>2333767142192</title>
<ellipse fill="white" stroke="black" cx="27" cy="-130" rx="27" ry="27"/>
<text text-anchor="start" x="9.5" y="-121.3" font-family="Times New Roman,serif" font-size="34.00">â—</text>
</g>
<!-- 2333767142192&#45;&gt;2333767152944 -->
<g id="edge25" class="edge">
<title>2333767142192&#45;&gt;2333767152944</title>
<path fill="none" stroke="black" d="M54.4,-130C62.39,-130 71.31,-130 79.82,-130"/>
<polygon fill="black" stroke="black" points="79.92,-133.5 89.92,-130 79.92,-126.5 79.92,-133.5"/>
</g>
<!-- 2333767146848&#45;&gt;2333767153616 -->
<g id="edge13" class="edge">
<title>2333767146848&#45;&gt;2333767153616</title>
<path fill="none" stroke="black" d="M414.4,-130C422.39,-130 431.31,-130 439.82,-130"/>
<polygon fill="black" stroke="black" points="439.92,-133.5 449.92,-130 439.92,-126.5 439.92,-133.5"/>
</g>
<!-- 2333767142144&#45;&gt;2333767155104 -->
<g id="edge14" class="edge">
<title>2333767142144&#45;&gt;2333767155104</title>
<path fill="none" stroke="black" d="M684.01,-28.28C707.98,-30.09 744.22,-34.47 774,-45 783.23,-48.27 792.64,-52.92 801.26,-57.81"/>
<polygon fill="black" stroke="black" points="799.51,-60.85 809.9,-62.94 803.08,-54.82 799.51,-60.85"/>
</g>
<!-- 2333767147088&#45;&gt;2333767151504 -->
<g id="edge15" class="edge">
<title>2333767147088&#45;&gt;2333767151504</title>
<path fill="none" stroke="black" d="M234.4,-130C242.39,-130 251.31,-130 259.82,-130"/>
<polygon fill="black" stroke="black" points="259.92,-133.5 269.92,-130 259.92,-126.5 259.92,-133.5"/>
</g>
<!-- 2333767152704&#45;&gt;2333767154576 -->
<g id="edge16" class="edge">
<title>2333767152704&#45;&gt;2333767154576</title>
<path fill="none" stroke="black" d="M1134.4,-153C1142.39,-153 1151.31,-153 1159.82,-153"/>
<polygon fill="black" stroke="black" points="1159.92,-156.5 1169.92,-153 1159.92,-149.5 1159.92,-156.5"/>
</g>
<!-- 2333767148192&#45;&gt;2333767152176 -->
<g id="edge17" class="edge">
<title>2333767148192&#45;&gt;2333767152176</title>
<path fill="none" stroke="black" d="M954.4,-153C962.39,-153 971.31,-153 979.82,-153"/>
<polygon fill="black" stroke="black" points="979.92,-156.5 989.92,-153 979.92,-149.5 979.92,-156.5"/>
</g>
<!-- 2333767142912&#45;&gt;2333767140272 -->
<g id="edge18" class="edge">
<title>2333767142912&#45;&gt;2333767140272</title>
<path fill="none" stroke="black" d="M774.4,-153C782.39,-153 791.31,-153 799.82,-153"/>
<polygon fill="black" stroke="black" points="799.92,-156.5 809.92,-153 799.92,-149.5 799.92,-156.5"/>
</g>
<!-- 2333767143152&#45;&gt;2333767155104 -->
<g id="edge19" class="edge">
<title>2333767143152&#45;&gt;2333767155104</title>
<path fill="none" stroke="black" d="M774.4,-81C782.39,-81 791.31,-81 799.82,-81"/>
<polygon fill="black" stroke="black" points="799.92,-84.5 809.92,-81 799.92,-77.5 799.92,-84.5"/>
</g>
<!-- 2333767145120&#45;&gt;2333767152176 -->
<g id="edge20" class="edge">
<title>2333767145120&#45;&gt;2333767152176</title>
<path fill="none" stroke="black" d="M948.41,-97.7C959.57,-106.83 973.61,-118.32 986,-128.45"/>
<polygon fill="black" stroke="black" points="983.89,-131.25 993.85,-134.88 988.33,-125.84 983.89,-131.25"/>
</g>
<!-- 2333767142432&#45;&gt;2333767139840 -->
<g id="edge21" class="edge">
<title>2333767142432&#45;&gt;2333767139840</title>
<path fill="none" stroke="black" d="M594.4,-130C602.39,-130 611.31,-130 619.82,-130"/>
<polygon fill="black" stroke="black" points="619.92,-133.5 629.92,-130 619.92,-126.5 619.92,-133.5"/>
</g>
<!-- 2333767146512&#45;&gt;2333767141808 -->
<g id="edge22" class="edge">
<title>2333767146512&#45;&gt;2333767141808</title>
<path fill="none" stroke="black" d="M414.4,-202C422.39,-202 431.31,-202 439.82,-202"/>
<polygon fill="black" stroke="black" points="439.92,-205.5 449.92,-202 439.92,-198.5 439.92,-205.5"/>
</g>
<!-- 2333767144880&#45;&gt;2333767141376 -->
<g id="edge23" class="edge">
<title>2333767144880&#45;&gt;2333767141376</title>
<path fill="none" stroke="black" d="M413.45,-51.5C421.79,-49.7 431.21,-47.67 440.16,-45.74"/>
<polygon fill="black" stroke="black" points="440.96,-49.15 449.99,-43.62 439.48,-42.3 440.96,-49.15"/>
</g>
<!-- 2333767145840&#45;&gt;2333767152176 -->
<g id="edge24" class="edge">
<title>2333767145840&#45;&gt;2333767152176</title>
<path fill="none" stroke="black" d="M594.23,-204.2C628.95,-205.68 692.05,-208 746,-208 746,-208 746,-208 838,-208 890.24,-208 904.82,-206.63 954,-189 963.22,-185.7 972.63,-181.02 981.24,-176.13"/>
<polygon fill="black" stroke="black" points="983.06,-179.12 989.88,-171.01 979.49,-173.1 983.06,-179.12"/>
</g>
</g>
</svg>
