<?xml version="1.0" encoding="UTF-8" standalone="no"?>
<!DOCTYPE svg PUBLIC "-//W3C//DTD SVG 1.1//EN"
 "http://www.w3.org/Graphics/SVG/1.1/DTD/svg11.dtd">
<!-- Generated by graphviz version 3.0.0 (20220226.1711)
 -->
<!-- Title: new_petri_net Pages: 1 -->
<svg width="1330pt" height="206pt"
 viewBox="0.00 0.00 1330.00 206.00" xmlns="http://www.w3.org/2000/svg" xmlns:xlink="http://www.w3.org/1999/xlink">
<g id="graph0" class="graph" transform="scale(1 1) rotate(0) translate(4 202)">
<title>new_petri_net</title>
<polygon fill="white" stroke="transparent" points="-4,4 -4,-202 1326,-202 1326,4 -4,4"/>
<!-- 2333767519264 -->
<g id="node1" class="node">
<title>2333767519264</title>
<polygon fill="white" stroke="black" points="504,-188 450,-188 450,-152 504,-152 504,-188"/>
<text text-anchor="middle" x="477" y="-166.9" font-family="Times New Roman,serif" font-size="12.00">b</text>
</g>
<!-- 2333767516624 -->
<g id="node15" class="node">
<title>2333767516624</title>
<ellipse fill="white" stroke="black" cx="567" cy="-169" rx="27" ry="27"/>
</g>
<!-- 2333767519264&#45;&gt;2333767516624 -->
<g id="edge4" class="edge">
<title>2333767519264&#45;&gt;2333767516624</title>
<path fill="none" stroke="black" d="M504.4,-169.7C512.39,-169.61 521.31,-169.51 529.82,-169.41"/>
<polygon fill="black" stroke="black" points="529.96,-172.91 539.92,-169.3 529.88,-165.91 529.96,-172.91"/>
</g>
<!-- 2333767528480 -->
<g id="node2" class="node">
<title>2333767528480</title>
<polygon fill="black" stroke="black" points="144,-117 90,-117 90,-81 144,-81 144,-117"/>
</g>
<!-- 2333767530256 -->
<g id="node16" class="node">
<title>2333767530256</title>
<ellipse fill="white" stroke="black" cx="207" cy="-99" rx="27" ry="27"/>
</g>
<!-- 2333767528480&#45;&gt;2333767530256 -->
<g id="edge26" class="edge">
<title>2333767528480&#45;&gt;2333767530256</title>
<path fill="none" stroke="black" d="M144.4,-99C152.39,-99 161.31,-99 169.82,-99"/>
<polygon fill="black" stroke="black" points="169.92,-102.5 179.92,-99 169.92,-95.5 169.92,-102.5"/>
</g>
<!-- 2333764058816 -->
<g id="node3" class="node">
<title>2333764058816</title>
<polygon fill="white" stroke="black" points="1044,-172 990,-172 990,-136 1044,-136 1044,-172"/>
<text text-anchor="middle" x="1017" y="-150.9" font-family="Times New Roman,serif" font-size="12.00">f</text>
</g>
<!-- 2333767532176 -->
<g id="node24" class="node">
<title>2333767532176</title>
<ellipse fill="white" stroke="black" cx="1107" cy="-154" rx="27" ry="27"/>
</g>
<!-- 2333764058816&#45;&gt;2333767532176 -->
<g id="edge9" class="edge">
<title>2333764058816&#45;&gt;2333767532176</title>
<path fill="none" stroke="black" d="M1044.4,-154C1052.39,-154 1061.31,-154 1069.82,-154"/>
<polygon fill="black" stroke="black" points="1069.92,-157.5 1079.92,-154 1069.92,-150.5 1069.92,-157.5"/>
</g>
<!-- 2333764043264 -->
<g id="node4" class="node">
<title>2333764043264</title>
<polygon fill="white" stroke="black" points="504,-119 450,-119 450,-83 504,-83 504,-119"/>
<text text-anchor="middle" x="477" y="-97.9" font-family="Times New Roman,serif" font-size="12.00">e</text>
</g>
<!-- 2333767531504 -->
<g id="node13" class="node">
<title>2333767531504</title>
<ellipse fill="white" stroke="black" cx="657" cy="-106" rx="27" ry="27"/>
</g>
<!-- 2333764043264&#45;&gt;2333767531504 -->
<g id="edge7" class="edge">
<title>2333764043264&#45;&gt;2333767531504</title>
<path fill="none" stroke="black" d="M504.26,-101.74C534.85,-102.6 585.55,-104.02 619.84,-104.98"/>
<polygon fill="black" stroke="black" points="619.82,-108.49 629.92,-105.27 620.02,-101.49 619.82,-108.49"/>
</g>
<!-- 2333767529104 -->
<g id="node5" class="node">
<title>2333767529104</title>
<polygon fill="black" stroke="black" points="864,-152 810,-152 810,-116 864,-116 864,-152"/>
</g>
<!-- 2333767532272 -->
<g id="node19" class="node">
<title>2333767532272</title>
<ellipse fill="white" stroke="black" cx="927" cy="-154" rx="27" ry="27"/>
</g>
<!-- 2333767529104&#45;&gt;2333767532272 -->
<g id="edge27" class="edge">
<title>2333767529104&#45;&gt;2333767532272</title>
<path fill="none" stroke="black" d="M864.4,-140C872.63,-141.87 881.83,-143.96 890.57,-145.95"/>
<polygon fill="black" stroke="black" points="890,-149.41 900.52,-148.21 891.55,-142.58 890,-149.41"/>
</g>
<!-- 2333767528672 -->
<g id="node21" class="node">
<title>2333767528672</title>
<ellipse fill="white" stroke="black" cx="927" cy="-82" rx="27" ry="27"/>
</g>
<!-- 2333767529104&#45;&gt;2333767528672 -->
<g id="edge28" class="edge">
<title>2333767529104&#45;&gt;2333767528672</title>
<path fill="none" stroke="black" d="M864.4,-118.4C873.94,-112.76 884.79,-106.35 894.71,-100.49"/>
<polygon fill="black" stroke="black" points="896.65,-103.41 903.48,-95.31 893.09,-97.38 896.65,-103.41"/>
</g>
<!-- 2333767530352 -->
<g id="node6" class="node">
<title>2333767530352</title>
<polygon fill="white" stroke="black" points="324,-117 270,-117 270,-81 324,-81 324,-117"/>
<text text-anchor="middle" x="297" y="-95.9" font-family="Times New Roman,serif" font-size="12.00">a</text>
</g>
<!-- 2333767516912 -->
<g id="node14" class="node">
<title>2333767516912</title>
<ellipse fill="white" stroke="black" cx="387" cy="-171" rx="27" ry="27"/>
</g>
<!-- 2333767530352&#45;&gt;2333767516912 -->
<g id="edge1" class="edge">
<title>2333767530352&#45;&gt;2333767516912</title>
<path fill="none" stroke="black" d="M320.21,-117.17C331.54,-126.44 345.46,-137.83 357.57,-147.74"/>
<polygon fill="black" stroke="black" points="355.65,-150.69 365.61,-154.32 360.09,-145.28 355.65,-150.69"/>
</g>
<!-- 2333767528384 -->
<g id="node18" class="node">
<title>2333767528384</title>
<ellipse fill="white" stroke="black" cx="387" cy="-99" rx="27" ry="27"/>
</g>
<!-- 2333767530352&#45;&gt;2333767528384 -->
<g id="edge2" class="edge">
<title>2333767530352&#45;&gt;2333767528384</title>
<path fill="none" stroke="black" d="M324.4,-99C332.39,-99 341.31,-99 349.82,-99"/>
<polygon fill="black" stroke="black" points="349.92,-102.5 359.92,-99 349.92,-95.5 349.92,-102.5"/>
</g>
<!-- 2333767517200 -->
<g id="node22" class="node">
<title>2333767517200</title>
<ellipse fill="white" stroke="black" cx="387" cy="-27" rx="27" ry="27"/>
</g>
<!-- 2333767530352&#45;&gt;2333767517200 -->
<g id="edge3" class="edge">
<title>2333767530352&#45;&gt;2333767517200</title>
<path fill="none" stroke="black" d="M320.21,-80.83C331.54,-71.56 345.46,-60.17 357.57,-50.26"/>
<polygon fill="black" stroke="black" points="360.09,-52.72 365.61,-43.68 355.65,-47.31 360.09,-52.72"/>
</g>
<!-- 2333767529872 -->
<g id="node7" class="node">
<title>2333767529872</title>
<polygon fill="white" stroke="black" points="684,-45 630,-45 630,-9 684,-9 684,-45"/>
<text text-anchor="middle" x="657" y="-23.9" font-family="Times New Roman,serif" font-size="12.00">h</text>
</g>
<!-- 2333767531024 -->
<g id="node20" class="node">
<title>2333767531024</title>
<ellipse fill="white" stroke="black" cx="837" cy="-27" rx="27" ry="27"/>
</g>
<!-- 2333767529872&#45;&gt;2333767531024 -->
<g id="edge11" class="edge">
<title>2333767529872&#45;&gt;2333767531024</title>
<path fill="none" stroke="black" d="M684.26,-27C714.85,-27 765.55,-27 799.84,-27"/>
<polygon fill="black" stroke="black" points="799.92,-30.5 809.92,-27 799.92,-23.5 799.92,-30.5"/>
</g>
<!-- 2333767518832 -->
<g id="node8" class="node">
<title>2333767518832</title>
<polygon fill="white" stroke="black" points="684,-187 630,-187 630,-151 684,-151 684,-187"/>
<text text-anchor="middle" x="657" y="-165.9" font-family="Times New Roman,serif" font-size="12.00">c</text>
</g>
<!-- 2333767530592 -->
<g id="node23" class="node">
<title>2333767530592</title>
<ellipse fill="white" stroke="black" cx="747" cy="-167" rx="27" ry="27"/>
</g>
<!-- 2333767518832&#45;&gt;2333767530592 -->
<g id="edge5" class="edge">
<title>2333767518832&#45;&gt;2333767530592</title>
<path fill="none" stroke="black" d="M684.4,-168.4C692.39,-168.22 701.31,-168.02 709.82,-167.82"/>
<polygon fill="black" stroke="black" points="710,-171.32 719.92,-167.59 709.84,-164.32 710,-171.32"/>
</g>
<!-- 2333764053872 -->
<g id="node9" class="node">
<title>2333764053872</title>
<polygon fill="white" stroke="black" points="1044,-100 990,-100 990,-64 1044,-64 1044,-100"/>
<text text-anchor="middle" x="1017" y="-78.9" font-family="Times New Roman,serif" font-size="12.00">d</text>
</g>
<!-- 2333767531696 -->
<g id="node25" class="node">
<title>2333767531696</title>
<ellipse fill="white" stroke="black" cx="1107" cy="-82" rx="27" ry="27"/>
</g>
<!-- 2333764053872&#45;&gt;2333767531696 -->
<g id="edge6" class="edge">
<title>2333764053872&#45;&gt;2333767531696</title>
<path fill="none" stroke="black" d="M1044.4,-82C1052.39,-82 1061.31,-82 1069.82,-82"/>
<polygon fill="black" stroke="black" points="1069.92,-85.5 1079.92,-82 1069.92,-78.5 1069.92,-85.5"/>
</g>
<!-- 2333764057040 -->
<g id="node10" class="node">
<title>2333764057040</title>
<polygon fill="black" stroke="black" points="1224,-100 1170,-100 1170,-64 1224,-64 1224,-100"/>
</g>
<!-- 2333767528960 -->
<g id="node26" class="node">
<title>2333767528960</title>
<ellipse fill="white" stroke="black" cx="1291" cy="-82" rx="27" ry="27"/>
<ellipse fill="none" stroke="black" cx="1291" cy="-82" rx="31" ry="31"/>
<text text-anchor="start" x="1274" y="-73.9" font-family="Times New Roman,serif" font-size="32.00">â– </text>
</g>
<!-- 2333764057040&#45;&gt;2333767528960 -->
<g id="edge8" class="edge">
<title>2333764057040&#45;&gt;2333767528960</title>
<path fill="none" stroke="black" d="M1224.12,-82C1232.14,-82 1241.15,-82 1249.88,-82"/>
<polygon fill="black" stroke="black" points="1249.92,-85.5 1259.92,-82 1249.92,-78.5 1249.92,-85.5"/>
</g>
<!-- 2333764050896 -->
<g id="node11" class="node">
<title>2333764050896</title>
<polygon fill="white" stroke="black" points="504,-45 450,-45 450,-9 504,-9 504,-45"/>
<text text-anchor="middle" x="477" y="-23.9" font-family="Times New Roman,serif" font-size="12.00">g</text>
</g>
<!-- 2333767532368 -->
<g id="node17" class="node">
<title>2333767532368</title>
<ellipse fill="white" stroke="black" cx="567" cy="-27" rx="27" ry="27"/>
</g>
<!-- 2333764050896&#45;&gt;2333767532368 -->
<g id="edge10" class="edge">
<title>2333764050896&#45;&gt;2333767532368</title>
<path fill="none" stroke="black" d="M504.4,-27C512.39,-27 521.31,-27 529.82,-27"/>
<polygon fill="black" stroke="black" points="529.92,-30.5 539.92,-27 529.92,-23.5 529.92,-30.5"/>
</g>
<!-- 2333767521232 -->
<g id="node12" class="node">
<title>2333767521232</title>
<ellipse fill="white" stroke="black" cx="27" cy="-99" rx="27" ry="27"/>
<text text-anchor="start" x="9.5" y="-90.3" font-family="Times New Roman,serif" font-size="34.00">â—</text>
</g>
<!-- 2333767521232&#45;&gt;2333767528480 -->
<g id="edge25" class="edge">
<title>2333767521232&#45;&gt;2333767528480</title>
<path fill="none" stroke="black" d="M54.4,-99C62.39,-99 71.31,-99 79.82,-99"/>
<polygon fill="black" stroke="black" points="79.92,-102.5 89.92,-99 79.92,-95.5 79.92,-102.5"/>
</g>
<!-- 2333767531504&#45;&gt;2333767529104 -->
<g id="edge12" class="edge">
<title>2333767531504&#45;&gt;2333767529104</title>
<path fill="none" stroke="black" d="M683.88,-110.07C714.38,-114.87 765.25,-122.87 799.68,-128.29"/>
<polygon fill="black" stroke="black" points="799.37,-131.78 809.8,-129.88 800.46,-124.87 799.37,-131.78"/>
</g>
<!-- 2333767516912&#45;&gt;2333767519264 -->
<g id="edge13" class="edge">
<title>2333767516912&#45;&gt;2333767519264</title>
<path fill="none" stroke="black" d="M414.4,-170.7C422.39,-170.61 431.31,-170.51 439.82,-170.41"/>
<polygon fill="black" stroke="black" points="439.96,-173.91 449.92,-170.3 439.88,-166.91 439.96,-173.91"/>
</g>
<!-- 2333767516624&#45;&gt;2333767518832 -->
<g id="edge14" class="edge">
<title>2333767516624&#45;&gt;2333767518832</title>
<path fill="none" stroke="black" d="M594.4,-169C602.39,-169 611.31,-169 619.82,-169"/>
<polygon fill="black" stroke="black" points="619.92,-172.5 629.92,-169 619.92,-165.5 619.92,-172.5"/>
</g>
<!-- 2333767530256&#45;&gt;2333767530352 -->
<g id="edge15" class="edge">
<title>2333767530256&#45;&gt;2333767530352</title>
<path fill="none" stroke="black" d="M234.4,-99C242.39,-99 251.31,-99 259.82,-99"/>
<polygon fill="black" stroke="black" points="259.92,-102.5 269.92,-99 259.92,-95.5 259.92,-102.5"/>
</g>
<!-- 2333767532368&#45;&gt;2333767529872 -->
<g id="edge16" class="edge">
<title>2333767532368&#45;&gt;2333767529872</title>
<path fill="none" stroke="black" d="M594.4,-27C602.39,-27 611.31,-27 619.82,-27"/>
<polygon fill="black" stroke="black" points="619.92,-30.5 629.92,-27 619.92,-23.5 619.92,-30.5"/>
</g>
<!-- 2333767528384&#45;&gt;2333764043264 -->
<g id="edge17" class="edge">
<title>2333767528384&#45;&gt;2333764043264</title>
<path fill="none" stroke="black" d="M414.4,-99.6C422.39,-99.78 431.31,-99.98 439.82,-100.18"/>
<polygon fill="black" stroke="black" points="439.84,-103.68 449.92,-100.41 440,-96.68 439.84,-103.68"/>
</g>
<!-- 2333767532272&#45;&gt;2333764058816 -->
<g id="edge18" class="edge">
<title>2333767532272&#45;&gt;2333764058816</title>
<path fill="none" stroke="black" d="M954.4,-154C962.39,-154 971.31,-154 979.82,-154"/>
<polygon fill="black" stroke="black" points="979.92,-157.5 989.92,-154 979.92,-150.5 979.92,-157.5"/>
</g>
<!-- 2333767531024&#45;&gt;2333764057040 -->
<g id="edge19" class="edge">
<title>2333767531024&#45;&gt;2333764057040</title>
<path fill="none" stroke="black" d="M864.04,-24.75C916.47,-21.06 1037.93,-16.8 1134,-46 1143.63,-48.93 1153.37,-53.6 1162.18,-58.62"/>
<polygon fill="black" stroke="black" points="1160.62,-61.77 1170.99,-63.92 1164.23,-55.77 1160.62,-61.77"/>
</g>
<!-- 2333767528672&#45;&gt;2333764053872 -->
<g id="edge20" class="edge">
<title>2333767528672&#45;&gt;2333764053872</title>
<path fill="none" stroke="black" d="M954.4,-82C962.39,-82 971.31,-82 979.82,-82"/>
<polygon fill="black" stroke="black" points="979.92,-85.5 989.92,-82 979.92,-78.5 979.92,-85.5"/>
</g>
<!-- 2333767517200&#45;&gt;2333764050896 -->
<g id="edge21" class="edge">
<title>2333767517200&#45;&gt;2333764050896</title>
<path fill="none" stroke="black" d="M414.4,-27C422.39,-27 431.31,-27 439.82,-27"/>
<polygon fill="black" stroke="black" points="439.92,-30.5 449.92,-27 439.92,-23.5 439.92,-30.5"/>
</g>
<!-- 2333767530592&#45;&gt;2333767529104 -->
<g id="edge22" class="edge">
<title>2333767530592&#45;&gt;2333767529104</title>
<path fill="none" stroke="black" d="M772.51,-157.81C781.12,-154.58 790.97,-150.89 800.31,-147.39"/>
<polygon fill="black" stroke="black" points="801.64,-150.62 809.77,-143.84 799.18,-144.07 801.64,-150.62"/>
</g>
<!-- 2333767532176&#45;&gt;2333764057040 -->
<g id="edge23" class="edge">
<title>2333767532176&#45;&gt;2333764057040</title>
<path fill="none" stroke="black" d="M1128.41,-137.3C1139.57,-128.17 1153.61,-116.68 1166,-106.55"/>
<polygon fill="black" stroke="black" points="1168.33,-109.16 1173.85,-100.12 1163.89,-103.75 1168.33,-109.16"/>
</g>
<!-- 2333767531696&#45;&gt;2333764057040 -->
<g id="edge24" class="edge">
<title>2333767531696&#45;&gt;2333764057040</title>
<path fill="none" stroke="black" d="M1134.4,-82C1142.39,-82 1151.31,-82 1159.82,-82"/>
<polygon fill="black" stroke="black" points="1159.92,-85.5 1169.92,-82 1159.92,-78.5 1159.92,-85.5"/>
</g>
</g>
</svg>
