<?xml version="1.0" encoding="UTF-8" standalone="no"?>
<!DOCTYPE svg PUBLIC "-//W3C//DTD SVG 1.1//EN"
 "http://www.w3.org/Graphics/SVG/1.1/DTD/svg11.dtd">
<!-- Generated by graphviz version 3.0.0 (20220226.1711)
 -->
<!-- Title: new_petri_net Pages: 1 -->
<svg width="1330pt" height="243pt"
 viewBox="0.00 0.00 1330.00 243.00" xmlns="http://www.w3.org/2000/svg" xmlns:xlink="http://www.w3.org/1999/xlink">
<g id="graph0" class="graph" transform="scale(1 1) rotate(0) translate(4 239)">
<title>new_petri_net</title>
<polygon fill="white" stroke="transparent" points="-4,4 -4,-239 1326,-239 1326,4 -4,4"/>
<!-- 2333767494176 -->
<g id="node1" class="node">
<title>2333767494176</title>
<polygon fill="white" stroke="black" points="1044,-127 990,-127 990,-91 1044,-91 1044,-127"/>
<text text-anchor="middle" x="1017" y="-105.9" font-family="Times New Roman,serif" font-size="12.00">h</text>
</g>
<!-- 2333767498064 -->
<g id="node15" class="node">
<title>2333767498064</title>
<ellipse fill="white" stroke="black" cx="1107" cy="-109" rx="27" ry="27"/>
</g>
<!-- 2333767494176&#45;&gt;2333767498064 -->
<g id="edge12" class="edge">
<title>2333767494176&#45;&gt;2333767498064</title>
<path fill="none" stroke="black" d="M1044.4,-109C1052.39,-109 1061.31,-109 1069.82,-109"/>
<polygon fill="black" stroke="black" points="1069.92,-112.5 1079.92,-109 1069.92,-105.5 1069.92,-112.5"/>
</g>
<!-- 2333767497248 -->
<g id="node2" class="node">
<title>2333767497248</title>
<polygon fill="black" stroke="black" points="144,-117 90,-117 90,-81 144,-81 144,-117"/>
</g>
<!-- 2333767496432 -->
<g id="node14" class="node">
<title>2333767496432</title>
<ellipse fill="white" stroke="black" cx="207" cy="-99" rx="27" ry="27"/>
</g>
<!-- 2333767497248&#45;&gt;2333767496432 -->
<g id="edge26" class="edge">
<title>2333767497248&#45;&gt;2333767496432</title>
<path fill="none" stroke="black" d="M144.4,-99C152.39,-99 161.31,-99 169.82,-99"/>
<polygon fill="black" stroke="black" points="169.92,-102.5 179.92,-99 169.92,-95.5 169.92,-102.5"/>
</g>
<!-- 2333767498112 -->
<g id="node3" class="node">
<title>2333767498112</title>
<polygon fill="white" stroke="black" points="504,-189 450,-189 450,-153 504,-153 504,-189"/>
<text text-anchor="middle" x="477" y="-167.9" font-family="Times New Roman,serif" font-size="12.00">b</text>
</g>
<!-- 2333767497152 -->
<g id="node18" class="node">
<title>2333767497152</title>
<ellipse fill="white" stroke="black" cx="567" cy="-171" rx="27" ry="27"/>
</g>
<!-- 2333767498112&#45;&gt;2333767497152 -->
<g id="edge4" class="edge">
<title>2333767498112&#45;&gt;2333767497152</title>
<path fill="none" stroke="black" d="M504.4,-171C512.39,-171 521.31,-171 529.82,-171"/>
<polygon fill="black" stroke="black" points="529.92,-174.5 539.92,-171 529.92,-167.5 529.92,-174.5"/>
</g>
<!-- 2333767497536 -->
<g id="node4" class="node">
<title>2333767497536</title>
<polygon fill="white" stroke="black" points="864,-127 810,-127 810,-91 864,-91 864,-127"/>
<text text-anchor="middle" x="837" y="-105.9" font-family="Times New Roman,serif" font-size="12.00">f</text>
</g>
<!-- 2333767498016 -->
<g id="node12" class="node">
<title>2333767498016</title>
<ellipse fill="white" stroke="black" cx="927" cy="-109" rx="27" ry="27"/>
</g>
<!-- 2333767497536&#45;&gt;2333767498016 -->
<g id="edge10" class="edge">
<title>2333767497536&#45;&gt;2333767498016</title>
<path fill="none" stroke="black" d="M864.4,-109C872.39,-109 881.31,-109 889.82,-109"/>
<polygon fill="black" stroke="black" points="889.92,-112.5 899.92,-109 889.92,-105.5 889.92,-112.5"/>
</g>
<!-- 2333767497056 -->
<g id="node5" class="node">
<title>2333767497056</title>
<polygon fill="black" stroke="black" points="1224,-127 1170,-127 1170,-91 1224,-91 1224,-127"/>
</g>
<!-- 2333767497200 -->
<g id="node24" class="node">
<title>2333767497200</title>
<ellipse fill="white" stroke="black" cx="1291" cy="-109" rx="27" ry="27"/>
<ellipse fill="none" stroke="black" cx="1291" cy="-109" rx="31" ry="31"/>
<text text-anchor="start" x="1274" y="-100.9" font-family="Times New Roman,serif" font-size="32.00">â– </text>
</g>
<!-- 2333767497056&#45;&gt;2333767497200 -->
<g id="edge9" class="edge">
<title>2333767497056&#45;&gt;2333767497200</title>
<path fill="none" stroke="black" d="M1224.12,-109C1232.14,-109 1241.15,-109 1249.88,-109"/>
<polygon fill="black" stroke="black" points="1249.92,-112.5 1259.92,-109 1249.92,-105.5 1249.92,-112.5"/>
</g>
<!-- 2333767497680 -->
<g id="node6" class="node">
<title>2333767497680</title>
<polygon fill="white" stroke="black" points="684,-189 630,-189 630,-153 684,-153 684,-189"/>
<text text-anchor="middle" x="657" y="-167.9" font-family="Times New Roman,serif" font-size="12.00">c</text>
</g>
<!-- 2333767497776 -->
<g id="node19" class="node">
<title>2333767497776</title>
<ellipse fill="white" stroke="black" cx="747" cy="-208" rx="27" ry="27"/>
</g>
<!-- 2333767497680&#45;&gt;2333767497776 -->
<g id="edge5" class="edge">
<title>2333767497680&#45;&gt;2333767497776</title>
<path fill="none" stroke="black" d="M684.4,-182.1C693.2,-185.8 703.11,-189.97 712.37,-193.86"/>
<polygon fill="black" stroke="black" points="711.14,-197.14 721.72,-197.79 713.86,-190.69 711.14,-197.14"/>
</g>
<!-- 2333767497488 -->
<g id="node20" class="node">
<title>2333767497488</title>
<ellipse fill="white" stroke="black" cx="747" cy="-136" rx="27" ry="27"/>
</g>
<!-- 2333767497680&#45;&gt;2333767497488 -->
<g id="edge6" class="edge">
<title>2333767497680&#45;&gt;2333767497488</title>
<path fill="none" stroke="black" d="M684.4,-160.5C693.2,-157 703.11,-153.06 712.37,-149.37"/>
<polygon fill="black" stroke="black" points="713.72,-152.61 721.72,-145.66 711.13,-146.1 713.72,-152.61"/>
</g>
<!-- 2333767498160 -->
<g id="node7" class="node">
<title>2333767498160</title>
<polygon fill="white" stroke="black" points="504,-47 450,-47 450,-11 504,-11 504,-47"/>
<text text-anchor="middle" x="477" y="-25.9" font-family="Times New Roman,serif" font-size="12.00">g</text>
</g>
<!-- 2333767497440 -->
<g id="node21" class="node">
<title>2333767497440</title>
<ellipse fill="white" stroke="black" cx="567" cy="-33" rx="27" ry="27"/>
</g>
<!-- 2333767498160&#45;&gt;2333767497440 -->
<g id="edge11" class="edge">
<title>2333767498160&#45;&gt;2333767497440</title>
<path fill="none" stroke="black" d="M504.4,-30.2C512.39,-30.56 521.31,-30.97 529.82,-31.36"/>
<polygon fill="black" stroke="black" points="529.77,-34.86 539.92,-31.81 530.09,-27.86 529.77,-34.86"/>
</g>
<!-- 2333767497296 -->
<g id="node8" class="node">
<title>2333767497296</title>
<polygon fill="white" stroke="black" points="324,-117 270,-117 270,-81 324,-81 324,-117"/>
<text text-anchor="middle" x="297" y="-95.9" font-family="Times New Roman,serif" font-size="12.00">a</text>
</g>
<!-- 2333767494272 -->
<g id="node13" class="node">
<title>2333767494272</title>
<ellipse fill="white" stroke="black" cx="387" cy="-171" rx="27" ry="27"/>
</g>
<!-- 2333767497296&#45;&gt;2333767494272 -->
<g id="edge1" class="edge">
<title>2333767497296&#45;&gt;2333767494272</title>
<path fill="none" stroke="black" d="M320.21,-117.17C331.54,-126.44 345.46,-137.83 357.57,-147.74"/>
<polygon fill="black" stroke="black" points="355.65,-150.69 365.61,-154.32 360.09,-145.28 355.65,-150.69"/>
</g>
<!-- 2333767494992 -->
<g id="node17" class="node">
<title>2333767494992</title>
<ellipse fill="white" stroke="black" cx="387" cy="-99" rx="27" ry="27"/>
</g>
<!-- 2333767497296&#45;&gt;2333767494992 -->
<g id="edge2" class="edge">
<title>2333767497296&#45;&gt;2333767494992</title>
<path fill="none" stroke="black" d="M324.4,-99C332.39,-99 341.31,-99 349.82,-99"/>
<polygon fill="black" stroke="black" points="349.92,-102.5 359.92,-99 349.92,-95.5 349.92,-102.5"/>
</g>
<!-- 2333767497632 -->
<g id="node23" class="node">
<title>2333767497632</title>
<ellipse fill="white" stroke="black" cx="387" cy="-27" rx="27" ry="27"/>
</g>
<!-- 2333767497296&#45;&gt;2333767497632 -->
<g id="edge3" class="edge">
<title>2333767497296&#45;&gt;2333767497632</title>
<path fill="none" stroke="black" d="M320.21,-80.83C331.54,-71.56 345.46,-60.17 357.57,-50.26"/>
<polygon fill="black" stroke="black" points="360.09,-52.72 365.61,-43.68 355.65,-47.31 360.09,-52.72"/>
</g>
<!-- 2333767497584 -->
<g id="node9" class="node">
<title>2333767497584</title>
<polygon fill="white" stroke="black" points="864,-213 810,-213 810,-177 864,-177 864,-213"/>
<text text-anchor="middle" x="837" y="-191.9" font-family="Times New Roman,serif" font-size="12.00">d</text>
</g>
<!-- 2333767496528 -->
<g id="node22" class="node">
<title>2333767496528</title>
<ellipse fill="white" stroke="black" cx="927" cy="-190" rx="27" ry="27"/>
</g>
<!-- 2333767497584&#45;&gt;2333767496528 -->
<g id="edge7" class="edge">
<title>2333767497584&#45;&gt;2333767496528</title>
<path fill="none" stroke="black" d="M864.4,-193.5C872.39,-193.05 881.31,-192.54 889.82,-192.06"/>
<polygon fill="black" stroke="black" points="890.13,-195.54 899.92,-191.48 889.74,-188.55 890.13,-195.54"/>
</g>
<!-- 2333767495376 -->
<g id="node10" class="node">
<title>2333767495376</title>
<polygon fill="white" stroke="black" points="504,-109 450,-109 450,-73 504,-73 504,-109"/>
<text text-anchor="middle" x="477" y="-87.9" font-family="Times New Roman,serif" font-size="12.00">e</text>
</g>
<!-- 2333767497728 -->
<g id="node16" class="node">
<title>2333767497728</title>
<ellipse fill="white" stroke="black" cx="657" cy="-90" rx="27" ry="27"/>
</g>
<!-- 2333767495376&#45;&gt;2333767497728 -->
<g id="edge8" class="edge">
<title>2333767495376&#45;&gt;2333767497728</title>
<path fill="none" stroke="black" d="M504.26,-90.85C534.85,-90.68 585.55,-90.4 619.84,-90.2"/>
<polygon fill="black" stroke="black" points="619.94,-93.7 629.92,-90.15 619.9,-86.7 619.94,-93.7"/>
</g>
<!-- 2333767496576 -->
<g id="node11" class="node">
<title>2333767496576</title>
<ellipse fill="white" stroke="black" cx="27" cy="-99" rx="27" ry="27"/>
<text text-anchor="start" x="9.5" y="-90.3" font-family="Times New Roman,serif" font-size="34.00">â—</text>
</g>
<!-- 2333767496576&#45;&gt;2333767497248 -->
<g id="edge25" class="edge">
<title>2333767496576&#45;&gt;2333767497248</title>
<path fill="none" stroke="black" d="M54.4,-99C62.39,-99 71.31,-99 79.82,-99"/>
<polygon fill="black" stroke="black" points="79.92,-102.5 89.92,-99 79.92,-95.5 79.92,-102.5"/>
</g>
<!-- 2333767498016&#45;&gt;2333767494176 -->
<g id="edge13" class="edge">
<title>2333767498016&#45;&gt;2333767494176</title>
<path fill="none" stroke="black" d="M954.4,-109C962.39,-109 971.31,-109 979.82,-109"/>
<polygon fill="black" stroke="black" points="979.92,-112.5 989.92,-109 979.92,-105.5 979.92,-112.5"/>
</g>
<!-- 2333767494272&#45;&gt;2333767498112 -->
<g id="edge14" class="edge">
<title>2333767494272&#45;&gt;2333767498112</title>
<path fill="none" stroke="black" d="M414.4,-171C422.39,-171 431.31,-171 439.82,-171"/>
<polygon fill="black" stroke="black" points="439.92,-174.5 449.92,-171 439.92,-167.5 439.92,-174.5"/>
</g>
<!-- 2333767496432&#45;&gt;2333767497296 -->
<g id="edge15" class="edge">
<title>2333767496432&#45;&gt;2333767497296</title>
<path fill="none" stroke="black" d="M234.4,-99C242.39,-99 251.31,-99 259.82,-99"/>
<polygon fill="black" stroke="black" points="259.92,-102.5 269.92,-99 259.92,-95.5 259.92,-102.5"/>
</g>
<!-- 2333767498064&#45;&gt;2333767497056 -->
<g id="edge16" class="edge">
<title>2333767498064&#45;&gt;2333767497056</title>
<path fill="none" stroke="black" d="M1134.4,-109C1142.39,-109 1151.31,-109 1159.82,-109"/>
<polygon fill="black" stroke="black" points="1159.92,-112.5 1169.92,-109 1159.92,-105.5 1159.92,-112.5"/>
</g>
<!-- 2333767497728&#45;&gt;2333767497536 -->
<g id="edge17" class="edge">
<title>2333767497728&#45;&gt;2333767497536</title>
<path fill="none" stroke="black" d="M684.3,-91.83C707.84,-93.57 743.28,-96.45 774,-100 782.37,-100.97 791.36,-102.17 799.82,-103.39"/>
<polygon fill="black" stroke="black" points="799.4,-106.86 809.8,-104.85 800.41,-99.94 799.4,-106.86"/>
</g>
<!-- 2333767494992&#45;&gt;2333767495376 -->
<g id="edge18" class="edge">
<title>2333767494992&#45;&gt;2333767495376</title>
<path fill="none" stroke="black" d="M413.93,-96.64C422.09,-95.9 431.26,-95.07 439.99,-94.27"/>
<polygon fill="black" stroke="black" points="440.31,-97.76 449.95,-93.37 439.68,-90.79 440.31,-97.76"/>
</g>
<!-- 2333767497152&#45;&gt;2333767497680 -->
<g id="edge19" class="edge">
<title>2333767497152&#45;&gt;2333767497680</title>
<path fill="none" stroke="black" d="M594.4,-171C602.39,-171 611.31,-171 619.82,-171"/>
<polygon fill="black" stroke="black" points="619.92,-174.5 629.92,-171 619.92,-167.5 619.92,-174.5"/>
</g>
<!-- 2333767497776&#45;&gt;2333767497584 -->
<g id="edge20" class="edge">
<title>2333767497776&#45;&gt;2333767497584</title>
<path fill="none" stroke="black" d="M773.93,-204.17C782.09,-202.96 791.26,-201.61 799.99,-200.32"/>
<polygon fill="black" stroke="black" points="800.57,-203.77 809.95,-198.85 799.55,-196.85 800.57,-203.77"/>
</g>
<!-- 2333767497488&#45;&gt;2333767497536 -->
<g id="edge21" class="edge">
<title>2333767497488&#45;&gt;2333767497536</title>
<path fill="none" stroke="black" d="M772.98,-128.34C781.42,-125.75 791,-122.81 800.11,-120.01"/>
<polygon fill="black" stroke="black" points="801.19,-123.34 809.73,-117.06 799.14,-116.65 801.19,-123.34"/>
</g>
<!-- 2333767497440&#45;&gt;2333767494176 -->
<g id="edge22" class="edge">
<title>2333767497440&#45;&gt;2333767494176</title>
<path fill="none" stroke="black" d="M594.24,-33.48C628.96,-34.07 692.07,-35 746,-35 746,-35 746,-35 838,-35 891.3,-35 947.18,-63.64 981.79,-85.29"/>
<polygon fill="black" stroke="black" points="980.24,-88.45 990.55,-90.9 984.02,-82.56 980.24,-88.45"/>
</g>
<!-- 2333767496528&#45;&gt;2333767494176 -->
<g id="edge23" class="edge">
<title>2333767496528&#45;&gt;2333767494176</title>
<path fill="none" stroke="black" d="M947.53,-172.02C959.64,-160.88 975.37,-146.4 988.69,-134.13"/>
<polygon fill="black" stroke="black" points="991.23,-136.55 996.22,-127.21 986.49,-131.4 991.23,-136.55"/>
</g>
<!-- 2333767497632&#45;&gt;2333767498160 -->
<g id="edge24" class="edge">
<title>2333767497632&#45;&gt;2333767498160</title>
<path fill="none" stroke="black" d="M414.4,-27.6C422.39,-27.78 431.31,-27.98 439.82,-28.18"/>
<polygon fill="black" stroke="black" points="439.84,-31.68 449.92,-28.41 440,-24.68 439.84,-31.68"/>
</g>
</g>
</svg>
