<?xml version="1.0" encoding="UTF-8" standalone="no"?>
<!DOCTYPE svg PUBLIC "-//W3C//DTD SVG 1.1//EN"
 "http://www.w3.org/Graphics/SVG/1.1/DTD/svg11.dtd">
<!-- Generated by graphviz version 3.0.0 (20220226.1711)
 -->
<!-- Title: new_petri_net Pages: 1 -->
<svg width="1510pt" height="252pt"
 viewBox="0.00 0.00 1510.00 252.00" xmlns="http://www.w3.org/2000/svg" xmlns:xlink="http://www.w3.org/1999/xlink">
<g id="graph0" class="graph" transform="scale(1 1) rotate(0) translate(4 248)">
<title>new_petri_net</title>
<polygon fill="white" stroke="transparent" points="-4,4 -4,-248 1506,-248 1506,4 -4,4"/>
<!-- 2333767217568 -->
<g id="node1" class="node">
<title>2333767217568</title>
<polygon fill="white" stroke="black" points="324,-135 270,-135 270,-99 324,-99 324,-135"/>
<text text-anchor="middle" x="297" y="-113.9" font-family="Times New Roman,serif" font-size="12.00">a</text>
</g>
<!-- 2333767217424 -->
<g id="node13" class="node">
<title>2333767217424</title>
<ellipse fill="white" stroke="black" cx="387" cy="-217" rx="27" ry="27"/>
</g>
<!-- 2333767217568&#45;&gt;2333767217424 -->
<g id="edge1" class="edge">
<title>2333767217568&#45;&gt;2333767217424</title>
<path fill="none" stroke="black" d="M314.14,-135.34C327.48,-150.5 346.62,-172.25 361.8,-189.49"/>
<polygon fill="black" stroke="black" points="359.22,-191.87 368.45,-197.06 364.47,-187.24 359.22,-191.87"/>
</g>
<!-- 2333767217040 -->
<g id="node18" class="node">
<title>2333767217040</title>
<ellipse fill="white" stroke="black" cx="387" cy="-145" rx="27" ry="27"/>
</g>
<!-- 2333767217568&#45;&gt;2333767217040 -->
<g id="edge2" class="edge">
<title>2333767217568&#45;&gt;2333767217040</title>
<path fill="none" stroke="black" d="M324.4,-125.4C332.86,-128.09 342.36,-131.12 351.32,-133.97"/>
<polygon fill="black" stroke="black" points="350.53,-137.39 361.12,-137.08 352.65,-130.72 350.53,-137.39"/>
</g>
<!-- 2333767217520 -->
<g id="node22" class="node">
<title>2333767217520</title>
<ellipse fill="white" stroke="black" cx="477" cy="-90" rx="27" ry="27"/>
</g>
<!-- 2333767217568&#45;&gt;2333767217520 -->
<g id="edge3" class="edge">
<title>2333767217568&#45;&gt;2333767217520</title>
<path fill="none" stroke="black" d="M324.26,-113.02C354.94,-108.36 405.84,-100.64 440.14,-95.44"/>
<polygon fill="black" stroke="black" points="440.84,-98.87 450.21,-93.91 439.79,-91.95 440.84,-98.87"/>
</g>
<!-- 2333767216896 -->
<g id="node25" class="node">
<title>2333767216896</title>
<ellipse fill="white" stroke="black" cx="387" cy="-31" rx="27" ry="27"/>
</g>
<!-- 2333767217568&#45;&gt;2333767216896 -->
<g id="edge4" class="edge">
<title>2333767217568&#45;&gt;2333767216896</title>
<path fill="none" stroke="black" d="M316.66,-98.76C329.18,-86.53 345.84,-70.25 359.7,-56.71"/>
<polygon fill="black" stroke="black" points="362.36,-59 367.06,-49.51 357.46,-53.99 362.36,-59"/>
</g>
<!-- 2333767217664 -->
<g id="node2" class="node">
<title>2333767217664</title>
<polygon fill="white" stroke="black" points="1224,-180 1170,-180 1170,-144 1224,-144 1224,-180"/>
<text text-anchor="middle" x="1197" y="-158.9" font-family="Times New Roman,serif" font-size="12.00">h</text>
</g>
<!-- 2333767216992 -->
<g id="node16" class="node">
<title>2333767216992</title>
<ellipse fill="white" stroke="black" cx="1287" cy="-162" rx="27" ry="27"/>
</g>
<!-- 2333767217664&#45;&gt;2333767216992 -->
<g id="edge12" class="edge">
<title>2333767217664&#45;&gt;2333767216992</title>
<path fill="none" stroke="black" d="M1224.4,-162C1232.39,-162 1241.31,-162 1249.82,-162"/>
<polygon fill="black" stroke="black" points="1249.92,-165.5 1259.92,-162 1249.92,-158.5 1249.92,-165.5"/>
</g>
<!-- 2333767217760 -->
<g id="node3" class="node">
<title>2333767217760</title>
<polygon fill="white" stroke="black" points="1044,-108 990,-108 990,-72 1044,-72 1044,-108"/>
<text text-anchor="middle" x="1017" y="-86.9" font-family="Times New Roman,serif" font-size="12.00">f</text>
</g>
<!-- 2333767217328 -->
<g id="node14" class="node">
<title>2333767217328</title>
<ellipse fill="white" stroke="black" cx="1107" cy="-90" rx="27" ry="27"/>
</g>
<!-- 2333767217760&#45;&gt;2333767217328 -->
<g id="edge10" class="edge">
<title>2333767217760&#45;&gt;2333767217328</title>
<path fill="none" stroke="black" d="M1044.4,-90C1052.39,-90 1061.31,-90 1069.82,-90"/>
<polygon fill="black" stroke="black" points="1069.92,-93.5 1079.92,-90 1069.92,-86.5 1069.92,-93.5"/>
</g>
<!-- 2333767217856 -->
<g id="node4" class="node">
<title>2333767217856</title>
<polygon fill="black" stroke="black" points="1404,-180 1350,-180 1350,-144 1404,-144 1404,-180"/>
</g>
<!-- 2333767217280 -->
<g id="node27" class="node">
<title>2333767217280</title>
<ellipse fill="white" stroke="black" cx="1471" cy="-162" rx="27" ry="27"/>
<ellipse fill="none" stroke="black" cx="1471" cy="-162" rx="31" ry="31"/>
<text text-anchor="start" x="1454" y="-153.9" font-family="Times New Roman,serif" font-size="32.00">â– </text>
</g>
<!-- 2333767217856&#45;&gt;2333767217280 -->
<g id="edge9" class="edge">
<title>2333767217856&#45;&gt;2333767217280</title>
<path fill="none" stroke="black" d="M1404.12,-162C1412.14,-162 1421.15,-162 1429.88,-162"/>
<polygon fill="black" stroke="black" points="1429.92,-165.5 1439.92,-162 1429.92,-158.5 1429.92,-165.5"/>
</g>
<!-- 2333767217952 -->
<g id="node5" class="node">
<title>2333767217952</title>
<polygon fill="white" stroke="black" points="504,-171 450,-171 450,-135 504,-135 504,-171"/>
<text text-anchor="middle" x="477" y="-149.9" font-family="Times New Roman,serif" font-size="12.00">b</text>
</g>
<!-- 2333767216944 -->
<g id="node17" class="node">
<title>2333767216944</title>
<ellipse fill="white" stroke="black" cx="567" cy="-149" rx="27" ry="27"/>
</g>
<!-- 2333767217952&#45;&gt;2333767216944 -->
<g id="edge5" class="edge">
<title>2333767217952&#45;&gt;2333767216944</title>
<path fill="none" stroke="black" d="M504.4,-151.8C512.39,-151.44 521.31,-151.03 529.82,-150.64"/>
<polygon fill="black" stroke="black" points="530.09,-154.14 539.92,-150.19 529.77,-147.14 530.09,-154.14"/>
</g>
<!-- 2333767218048 -->
<g id="node6" class="node">
<title>2333767218048</title>
<polygon fill="black" stroke="black" points="144,-135 90,-135 90,-99 144,-99 144,-135"/>
</g>
<!-- 2333767216800 -->
<g id="node15" class="node">
<title>2333767216800</title>
<ellipse fill="white" stroke="black" cx="207" cy="-117" rx="27" ry="27"/>
</g>
<!-- 2333767218048&#45;&gt;2333767216800 -->
<g id="edge28" class="edge">
<title>2333767218048&#45;&gt;2333767216800</title>
<path fill="none" stroke="black" d="M144.4,-117C152.39,-117 161.31,-117 169.82,-117"/>
<polygon fill="black" stroke="black" points="169.92,-120.5 179.92,-117 169.92,-113.5 169.92,-120.5"/>
</g>
<!-- 2333767217712 -->
<g id="node7" class="node">
<title>2333767217712</title>
<polygon fill="white" stroke="black" points="504,-235 450,-235 450,-199 504,-199 504,-235"/>
<text text-anchor="middle" x="477" y="-213.9" font-family="Times New Roman,serif" font-size="12.00">g</text>
</g>
<!-- 2333767217136 -->
<g id="node24" class="node">
<title>2333767217136</title>
<ellipse fill="white" stroke="black" cx="747" cy="-217" rx="27" ry="27"/>
</g>
<!-- 2333767217712&#45;&gt;2333767217136 -->
<g id="edge11" class="edge">
<title>2333767217712&#45;&gt;2333767217136</title>
<path fill="none" stroke="black" d="M504.18,-217C552.22,-217 654.51,-217 709.39,-217"/>
<polygon fill="black" stroke="black" points="709.71,-220.5 719.71,-217 709.71,-213.5 709.71,-220.5"/>
</g>
<!-- 2333767217616 -->
<g id="node8" class="node">
<title>2333767217616</title>
<polygon fill="white" stroke="black" points="504,-45 450,-45 450,-9 504,-9 504,-45"/>
<text text-anchor="middle" x="477" y="-23.9" font-family="Times New Roman,serif" font-size="12.00">e</text>
</g>
<!-- 2333767217472 -->
<g id="node26" class="node">
<title>2333767217472</title>
<ellipse fill="white" stroke="black" cx="657" cy="-27" rx="27" ry="27"/>
</g>
<!-- 2333767217616&#45;&gt;2333767217472 -->
<g id="edge8" class="edge">
<title>2333767217616&#45;&gt;2333767217472</title>
<path fill="none" stroke="black" d="M504.26,-27C534.85,-27 585.55,-27 619.84,-27"/>
<polygon fill="black" stroke="black" points="619.92,-30.5 629.92,-27 619.92,-23.5 619.92,-30.5"/>
</g>
<!-- 2333767217808 -->
<g id="node9" class="node">
<title>2333767217808</title>
<polygon fill="white" stroke="black" points="1044,-180 990,-180 990,-144 1044,-144 1044,-180"/>
<text text-anchor="middle" x="1017" y="-158.9" font-family="Times New Roman,serif" font-size="12.00">d</text>
</g>
<!-- 2333767217232 -->
<g id="node23" class="node">
<title>2333767217232</title>
<ellipse fill="white" stroke="black" cx="1107" cy="-162" rx="27" ry="27"/>
</g>
<!-- 2333767217808&#45;&gt;2333767217232 -->
<g id="edge7" class="edge">
<title>2333767217808&#45;&gt;2333767217232</title>
<path fill="none" stroke="black" d="M1044.4,-162C1052.39,-162 1061.31,-162 1069.82,-162"/>
<polygon fill="black" stroke="black" points="1069.92,-165.5 1079.92,-162 1069.92,-158.5 1069.92,-165.5"/>
</g>
<!-- 2333767217904 -->
<g id="node10" class="node">
<title>2333767217904</title>
<polygon fill="white" stroke="black" points="684,-108 630,-108 630,-72 684,-72 684,-108"/>
<text text-anchor="middle" x="657" y="-86.9" font-family="Times New Roman,serif" font-size="12.00">c</text>
</g>
<!-- 2333767217376 -->
<g id="node20" class="node">
<title>2333767217376</title>
<ellipse fill="white" stroke="black" cx="747" cy="-90" rx="27" ry="27"/>
</g>
<!-- 2333767217904&#45;&gt;2333767217376 -->
<g id="edge6" class="edge">
<title>2333767217904&#45;&gt;2333767217376</title>
<path fill="none" stroke="black" d="M684.4,-90C692.39,-90 701.31,-90 709.82,-90"/>
<polygon fill="black" stroke="black" points="709.92,-93.5 719.92,-90 709.92,-86.5 709.92,-93.5"/>
</g>
<!-- 2333767218000 -->
<g id="node11" class="node">
<title>2333767218000</title>
<polygon fill="black" stroke="black" points="864,-108 810,-108 810,-72 864,-72 864,-108"/>
</g>
<!-- 2333767216848 -->
<g id="node19" class="node">
<title>2333767216848</title>
<ellipse fill="white" stroke="black" cx="927" cy="-162" rx="27" ry="27"/>
</g>
<!-- 2333767218000&#45;&gt;2333767216848 -->
<g id="edge29" class="edge">
<title>2333767218000&#45;&gt;2333767216848</title>
<path fill="none" stroke="black" d="M860.21,-108.17C871.54,-117.44 885.46,-128.83 897.57,-138.74"/>
<polygon fill="black" stroke="black" points="895.65,-141.69 905.61,-145.32 900.09,-136.28 895.65,-141.69"/>
</g>
<!-- 2333767217184 -->
<g id="node21" class="node">
<title>2333767217184</title>
<ellipse fill="white" stroke="black" cx="927" cy="-90" rx="27" ry="27"/>
</g>
<!-- 2333767218000&#45;&gt;2333767217184 -->
<g id="edge30" class="edge">
<title>2333767218000&#45;&gt;2333767217184</title>
<path fill="none" stroke="black" d="M864.4,-90C872.39,-90 881.31,-90 889.82,-90"/>
<polygon fill="black" stroke="black" points="889.92,-93.5 899.92,-90 889.92,-86.5 889.92,-93.5"/>
</g>
<!-- 2333767217088 -->
<g id="node12" class="node">
<title>2333767217088</title>
<ellipse fill="white" stroke="black" cx="27" cy="-117" rx="27" ry="27"/>
<text text-anchor="start" x="9.5" y="-108.3" font-family="Times New Roman,serif" font-size="34.00">â—</text>
</g>
<!-- 2333767217088&#45;&gt;2333767218048 -->
<g id="edge27" class="edge">
<title>2333767217088&#45;&gt;2333767218048</title>
<path fill="none" stroke="black" d="M54.4,-117C62.39,-117 71.31,-117 79.82,-117"/>
<polygon fill="black" stroke="black" points="79.92,-120.5 89.92,-117 79.92,-113.5 79.92,-120.5"/>
</g>
<!-- 2333767217424&#45;&gt;2333767217712 -->
<g id="edge13" class="edge">
<title>2333767217424&#45;&gt;2333767217712</title>
<path fill="none" stroke="black" d="M414.4,-217C422.39,-217 431.31,-217 439.82,-217"/>
<polygon fill="black" stroke="black" points="439.92,-220.5 449.92,-217 439.92,-213.5 439.92,-220.5"/>
</g>
<!-- 2333767217328&#45;&gt;2333767217664 -->
<g id="edge14" class="edge">
<title>2333767217328&#45;&gt;2333767217664</title>
<path fill="none" stroke="black" d="M1128.41,-106.7C1139.57,-115.83 1153.61,-127.32 1166,-137.45"/>
<polygon fill="black" stroke="black" points="1163.89,-140.25 1173.85,-143.88 1168.33,-134.84 1163.89,-140.25"/>
</g>
<!-- 2333767216800&#45;&gt;2333767217568 -->
<g id="edge15" class="edge">
<title>2333767216800&#45;&gt;2333767217568</title>
<path fill="none" stroke="black" d="M234.4,-117C242.39,-117 251.31,-117 259.82,-117"/>
<polygon fill="black" stroke="black" points="259.92,-120.5 269.92,-117 259.92,-113.5 259.92,-120.5"/>
</g>
<!-- 2333767216992&#45;&gt;2333767217856 -->
<g id="edge16" class="edge">
<title>2333767216992&#45;&gt;2333767217856</title>
<path fill="none" stroke="black" d="M1314.4,-162C1322.39,-162 1331.31,-162 1339.82,-162"/>
<polygon fill="black" stroke="black" points="1339.92,-165.5 1349.92,-162 1339.92,-158.5 1339.92,-165.5"/>
</g>
<!-- 2333767216944&#45;&gt;2333767217904 -->
<g id="edge17" class="edge">
<title>2333767216944&#45;&gt;2333767217904</title>
<path fill="none" stroke="black" d="M589.75,-134.42C599.31,-128.01 610.77,-120.32 621.45,-113.16"/>
<polygon fill="black" stroke="black" points="623.44,-116.04 629.8,-107.57 619.54,-110.23 623.44,-116.04"/>
</g>
<!-- 2333767217040&#45;&gt;2333767217952 -->
<g id="edge18" class="edge">
<title>2333767217040&#45;&gt;2333767217952</title>
<path fill="none" stroke="black" d="M413.93,-147.36C422.09,-148.1 431.26,-148.93 439.99,-149.73"/>
<polygon fill="black" stroke="black" points="439.68,-153.21 449.95,-150.63 440.31,-146.24 439.68,-153.21"/>
</g>
<!-- 2333767216848&#45;&gt;2333767217808 -->
<g id="edge19" class="edge">
<title>2333767216848&#45;&gt;2333767217808</title>
<path fill="none" stroke="black" d="M954.4,-162C962.39,-162 971.31,-162 979.82,-162"/>
<polygon fill="black" stroke="black" points="979.92,-165.5 989.92,-162 979.92,-158.5 979.92,-165.5"/>
</g>
<!-- 2333767217376&#45;&gt;2333767218000 -->
<g id="edge20" class="edge">
<title>2333767217376&#45;&gt;2333767218000</title>
<path fill="none" stroke="black" d="M774.4,-90C782.39,-90 791.31,-90 799.82,-90"/>
<polygon fill="black" stroke="black" points="799.92,-93.5 809.92,-90 799.92,-86.5 799.92,-93.5"/>
</g>
<!-- 2333767217184&#45;&gt;2333767217760 -->
<g id="edge21" class="edge">
<title>2333767217184&#45;&gt;2333767217760</title>
<path fill="none" stroke="black" d="M954.4,-90C962.39,-90 971.31,-90 979.82,-90"/>
<polygon fill="black" stroke="black" points="979.92,-93.5 989.92,-90 979.92,-86.5 979.92,-93.5"/>
</g>
<!-- 2333767217520&#45;&gt;2333767217904 -->
<g id="edge22" class="edge">
<title>2333767217520&#45;&gt;2333767217904</title>
<path fill="none" stroke="black" d="M504.26,-90C534.85,-90 585.55,-90 619.84,-90"/>
<polygon fill="black" stroke="black" points="619.92,-93.5 629.92,-90 619.92,-86.5 619.92,-93.5"/>
</g>
<!-- 2333767217232&#45;&gt;2333767217664 -->
<g id="edge23" class="edge">
<title>2333767217232&#45;&gt;2333767217664</title>
<path fill="none" stroke="black" d="M1134.4,-162C1142.39,-162 1151.31,-162 1159.82,-162"/>
<polygon fill="black" stroke="black" points="1159.92,-165.5 1169.92,-162 1159.92,-158.5 1159.92,-165.5"/>
</g>
<!-- 2333767217136&#45;&gt;2333767217664 -->
<g id="edge24" class="edge">
<title>2333767217136&#45;&gt;2333767217664</title>
<path fill="none" stroke="black" d="M774.24,-217C808.96,-217 872.07,-217 926,-217 926,-217 926,-217 1018,-217 1070.24,-217 1084.82,-215.63 1134,-198 1143.22,-194.7 1152.63,-190.02 1161.24,-185.13"/>
<polygon fill="black" stroke="black" points="1163.06,-188.12 1169.88,-180.01 1159.49,-182.1 1163.06,-188.12"/>
</g>
<!-- 2333767216896&#45;&gt;2333767217616 -->
<g id="edge25" class="edge">
<title>2333767216896&#45;&gt;2333767217616</title>
<path fill="none" stroke="black" d="M414.4,-29.8C422.39,-29.44 431.31,-29.03 439.82,-28.64"/>
<polygon fill="black" stroke="black" points="440.09,-32.14 449.92,-28.19 439.77,-25.14 440.09,-32.14"/>
</g>
<!-- 2333767217472&#45;&gt;2333767218000 -->
<g id="edge26" class="edge">
<title>2333767217472&#45;&gt;2333767218000</title>
<path fill="none" stroke="black" d="M684.01,-30.78C707.97,-34.78 744.21,-42.19 774,-54 783.1,-57.61 792.47,-62.4 801.07,-67.3"/>
<polygon fill="black" stroke="black" points="799.33,-70.34 809.72,-72.41 802.89,-64.31 799.33,-70.34"/>
</g>
</g>
</svg>
