<?xml version="1.0" encoding="UTF-8" standalone="no"?>
<!DOCTYPE svg PUBLIC "-//W3C//DTD SVG 1.1//EN"
 "http://www.w3.org/Graphics/SVG/1.1/DTD/svg11.dtd">
<!-- Generated by graphviz version 3.0.0 (20220226.1711)
 -->
<!-- Title: new_petri_net Pages: 1 -->
<svg width="1510pt" height="206pt"
 viewBox="0.00 0.00 1510.00 206.00" xmlns="http://www.w3.org/2000/svg" xmlns:xlink="http://www.w3.org/1999/xlink">
<g id="graph0" class="graph" transform="scale(1 1) rotate(0) translate(4 202)">
<title>new_petri_net</title>
<polygon fill="white" stroke="transparent" points="-4,4 -4,-202 1506,-202 1506,4 -4,4"/>
<!-- 2333762071360 -->
<g id="node1" class="node">
<title>2333762071360</title>
<polygon fill="black" stroke="black" points="144,-117 90,-117 90,-81 144,-81 144,-117"/>
</g>
<!-- 2333762065408 -->
<g id="node15" class="node">
<title>2333762065408</title>
<ellipse fill="white" stroke="black" cx="207" cy="-99" rx="27" ry="27"/>
</g>
<!-- 2333762071360&#45;&gt;2333762065408 -->
<g id="edge26" class="edge">
<title>2333762071360&#45;&gt;2333762065408</title>
<path fill="none" stroke="black" d="M144.4,-99C152.39,-99 161.31,-99 169.82,-99"/>
<polygon fill="black" stroke="black" points="169.92,-102.5 179.92,-99 169.92,-95.5 169.92,-102.5"/>
</g>
<!-- 2333762060416 -->
<g id="node2" class="node">
<title>2333762060416</title>
<polygon fill="white" stroke="black" points="504,-117 450,-117 450,-81 504,-81 504,-117"/>
<text text-anchor="middle" x="477" y="-95.9" font-family="Times New Roman,serif" font-size="12.00">e</text>
</g>
<!-- 2333762069920 -->
<g id="node14" class="node">
<title>2333762069920</title>
<ellipse fill="white" stroke="black" cx="747" cy="-99" rx="27" ry="27"/>
</g>
<!-- 2333762060416&#45;&gt;2333762069920 -->
<g id="edge7" class="edge">
<title>2333762060416&#45;&gt;2333762069920</title>
<path fill="none" stroke="black" d="M504.18,-99C552.22,-99 654.51,-99 709.39,-99"/>
<polygon fill="black" stroke="black" points="709.71,-102.5 719.71,-99 709.71,-95.5 709.71,-102.5"/>
</g>
<!-- 2333762068384 -->
<g id="node3" class="node">
<title>2333762068384</title>
<polygon fill="white" stroke="black" points="1224,-134 1170,-134 1170,-98 1224,-98 1224,-134"/>
<text text-anchor="middle" x="1197" y="-112.9" font-family="Times New Roman,serif" font-size="12.00">h</text>
</g>
<!-- 2333762066848 -->
<g id="node16" class="node">
<title>2333762066848</title>
<ellipse fill="white" stroke="black" cx="1287" cy="-116" rx="27" ry="27"/>
</g>
<!-- 2333762068384&#45;&gt;2333762066848 -->
<g id="edge11" class="edge">
<title>2333762068384&#45;&gt;2333762066848</title>
<path fill="none" stroke="black" d="M1224.4,-116C1232.39,-116 1241.31,-116 1249.82,-116"/>
<polygon fill="black" stroke="black" points="1249.92,-119.5 1259.92,-116 1249.92,-112.5 1249.92,-119.5"/>
</g>
<!-- 2333762065024 -->
<g id="node4" class="node">
<title>2333762065024</title>
<polygon fill="black" stroke="black" points="864,-89 810,-89 810,-53 864,-53 864,-89"/>
</g>
<!-- 2333762062048 -->
<g id="node13" class="node">
<title>2333762062048</title>
<ellipse fill="white" stroke="black" cx="927" cy="-116" rx="27" ry="27"/>
</g>
<!-- 2333762065024&#45;&gt;2333762062048 -->
<g id="edge27" class="edge">
<title>2333762065024&#45;&gt;2333762062048</title>
<path fill="none" stroke="black" d="M864.4,-84.5C873.61,-89.21 884.05,-94.55 893.68,-99.47"/>
<polygon fill="black" stroke="black" points="892.11,-102.6 902.61,-104.04 895.3,-96.37 892.11,-102.6"/>
</g>
<!-- 2333762062192 -->
<g id="node20" class="node">
<title>2333762062192</title>
<ellipse fill="white" stroke="black" cx="927" cy="-44" rx="27" ry="27"/>
</g>
<!-- 2333762065024&#45;&gt;2333762062192 -->
<g id="edge28" class="edge">
<title>2333762065024&#45;&gt;2333762062192</title>
<path fill="none" stroke="black" d="M864.4,-62.9C872.79,-60.33 882.2,-57.44 891.09,-54.71"/>
<polygon fill="black" stroke="black" points="892.29,-58 900.82,-51.72 890.24,-51.31 892.29,-58"/>
</g>
<!-- 2333762062144 -->
<g id="node5" class="node">
<title>2333762062144</title>
<polygon fill="white" stroke="black" points="1044,-134 990,-134 990,-98 1044,-98 1044,-134"/>
<text text-anchor="middle" x="1017" y="-112.9" font-family="Times New Roman,serif" font-size="12.00">f</text>
</g>
<!-- 2333762066752 -->
<g id="node22" class="node">
<title>2333762066752</title>
<ellipse fill="white" stroke="black" cx="1107" cy="-116" rx="27" ry="27"/>
</g>
<!-- 2333762062144&#45;&gt;2333762066752 -->
<g id="edge9" class="edge">
<title>2333762062144&#45;&gt;2333762066752</title>
<path fill="none" stroke="black" d="M1044.4,-116C1052.39,-116 1061.31,-116 1069.82,-116"/>
<polygon fill="black" stroke="black" points="1069.92,-119.5 1079.92,-116 1069.92,-112.5 1069.92,-119.5"/>
</g>
<!-- 2333762069872 -->
<g id="node6" class="node">
<title>2333762069872</title>
<polygon fill="white" stroke="black" points="324,-117 270,-117 270,-81 324,-81 324,-117"/>
<text text-anchor="middle" x="297" y="-95.9" font-family="Times New Roman,serif" font-size="12.00">a</text>
</g>
<!-- 2333762070928 -->
<g id="node19" class="node">
<title>2333762070928</title>
<ellipse fill="white" stroke="black" cx="387" cy="-171" rx="27" ry="27"/>
</g>
<!-- 2333762069872&#45;&gt;2333762070928 -->
<g id="edge1" class="edge">
<title>2333762069872&#45;&gt;2333762070928</title>
<path fill="none" stroke="black" d="M320.21,-117.17C331.54,-126.44 345.46,-137.83 357.57,-147.74"/>
<polygon fill="black" stroke="black" points="355.65,-150.69 365.61,-154.32 360.09,-145.28 355.65,-150.69"/>
</g>
<!-- 2333762063344 -->
<g id="node21" class="node">
<title>2333762063344</title>
<ellipse fill="white" stroke="black" cx="387" cy="-99" rx="27" ry="27"/>
</g>
<!-- 2333762069872&#45;&gt;2333762063344 -->
<g id="edge2" class="edge">
<title>2333762069872&#45;&gt;2333762063344</title>
<path fill="none" stroke="black" d="M324.4,-99C332.39,-99 341.31,-99 349.82,-99"/>
<polygon fill="black" stroke="black" points="349.92,-102.5 359.92,-99 349.92,-95.5 349.92,-102.5"/>
</g>
<!-- 2333762064976 -->
<g id="node24" class="node">
<title>2333762064976</title>
<ellipse fill="white" stroke="black" cx="387" cy="-27" rx="27" ry="27"/>
</g>
<!-- 2333762069872&#45;&gt;2333762064976 -->
<g id="edge3" class="edge">
<title>2333762069872&#45;&gt;2333762064976</title>
<path fill="none" stroke="black" d="M320.21,-80.83C331.54,-71.56 345.46,-60.17 357.57,-50.26"/>
<polygon fill="black" stroke="black" points="360.09,-52.72 365.61,-43.68 355.65,-47.31 360.09,-52.72"/>
</g>
<!-- 2333762061424 -->
<g id="node7" class="node">
<title>2333762061424</title>
<polygon fill="white" stroke="black" points="684,-45 630,-45 630,-9 684,-9 684,-45"/>
<text text-anchor="middle" x="657" y="-23.9" font-family="Times New Roman,serif" font-size="12.00">c</text>
</g>
<!-- 2333762060656 -->
<g id="node25" class="node">
<title>2333762060656</title>
<ellipse fill="white" stroke="black" cx="747" cy="-27" rx="27" ry="27"/>
</g>
<!-- 2333762061424&#45;&gt;2333762060656 -->
<g id="edge5" class="edge">
<title>2333762061424&#45;&gt;2333762060656</title>
<path fill="none" stroke="black" d="M684.4,-27C692.39,-27 701.31,-27 709.82,-27"/>
<polygon fill="black" stroke="black" points="709.92,-30.5 719.92,-27 709.92,-23.5 709.92,-30.5"/>
</g>
<!-- 2333762065072 -->
<g id="node8" class="node">
<title>2333762065072</title>
<polygon fill="white" stroke="black" points="504,-45 450,-45 450,-9 504,-9 504,-45"/>
<text text-anchor="middle" x="477" y="-23.9" font-family="Times New Roman,serif" font-size="12.00">b</text>
</g>
<!-- 2333762070880 -->
<g id="node17" class="node">
<title>2333762070880</title>
<ellipse fill="white" stroke="black" cx="567" cy="-27" rx="27" ry="27"/>
</g>
<!-- 2333762065072&#45;&gt;2333762070880 -->
<g id="edge4" class="edge">
<title>2333762065072&#45;&gt;2333762070880</title>
<path fill="none" stroke="black" d="M504.4,-27C512.39,-27 521.31,-27 529.82,-27"/>
<polygon fill="black" stroke="black" points="529.92,-30.5 539.92,-27 529.92,-23.5 529.92,-30.5"/>
</g>
<!-- 2333762068048 -->
<g id="node9" class="node">
<title>2333762068048</title>
<polygon fill="white" stroke="black" points="504,-189 450,-189 450,-153 504,-153 504,-189"/>
<text text-anchor="middle" x="477" y="-167.9" font-family="Times New Roman,serif" font-size="12.00">g</text>
</g>
<!-- 2333762071456 -->
<g id="node18" class="node">
<title>2333762071456</title>
<ellipse fill="white" stroke="black" cx="657" cy="-171" rx="27" ry="27"/>
</g>
<!-- 2333762068048&#45;&gt;2333762071456 -->
<g id="edge10" class="edge">
<title>2333762068048&#45;&gt;2333762071456</title>
<path fill="none" stroke="black" d="M504.26,-171C534.85,-171 585.55,-171 619.84,-171"/>
<polygon fill="black" stroke="black" points="619.92,-174.5 629.92,-171 619.92,-167.5 619.92,-174.5"/>
</g>
<!-- 2333762066512 -->
<g id="node10" class="node">
<title>2333762066512</title>
<polygon fill="black" stroke="black" points="1404,-134 1350,-134 1350,-98 1404,-98 1404,-134"/>
</g>
<!-- 2333762063104 -->
<g id="node26" class="node">
<title>2333762063104</title>
<ellipse fill="white" stroke="black" cx="1471" cy="-116" rx="27" ry="27"/>
<ellipse fill="none" stroke="black" cx="1471" cy="-116" rx="31" ry="31"/>
<text text-anchor="start" x="1454" y="-107.9" font-family="Times New Roman,serif" font-size="32.00">â– </text>
</g>
<!-- 2333762066512&#45;&gt;2333762063104 -->
<g id="edge8" class="edge">
<title>2333762066512&#45;&gt;2333762063104</title>
<path fill="none" stroke="black" d="M1404.12,-116C1412.14,-116 1421.15,-116 1429.88,-116"/>
<polygon fill="black" stroke="black" points="1429.92,-119.5 1439.92,-116 1429.92,-112.5 1429.92,-119.5"/>
</g>
<!-- 2333762075440 -->
<g id="node11" class="node">
<title>2333762075440</title>
<polygon fill="white" stroke="black" points="1044,-62 990,-62 990,-26 1044,-26 1044,-62"/>
<text text-anchor="middle" x="1017" y="-40.9" font-family="Times New Roman,serif" font-size="12.00">d</text>
</g>
<!-- 2333762063248 -->
<g id="node23" class="node">
<title>2333762063248</title>
<ellipse fill="white" stroke="black" cx="1107" cy="-44" rx="27" ry="27"/>
</g>
<!-- 2333762075440&#45;&gt;2333762063248 -->
<g id="edge6" class="edge">
<title>2333762075440&#45;&gt;2333762063248</title>
<path fill="none" stroke="black" d="M1044.4,-44C1052.39,-44 1061.31,-44 1069.82,-44"/>
<polygon fill="black" stroke="black" points="1069.92,-47.5 1079.92,-44 1069.92,-40.5 1069.92,-47.5"/>
</g>
<!-- 2333762065120 -->
<g id="node12" class="node">
<title>2333762065120</title>
<ellipse fill="white" stroke="black" cx="27" cy="-99" rx="27" ry="27"/>
<text text-anchor="start" x="9.5" y="-90.3" font-family="Times New Roman,serif" font-size="34.00">â—</text>
</g>
<!-- 2333762065120&#45;&gt;2333762071360 -->
<g id="edge25" class="edge">
<title>2333762065120&#45;&gt;2333762071360</title>
<path fill="none" stroke="black" d="M54.4,-99C62.39,-99 71.31,-99 79.82,-99"/>
<polygon fill="black" stroke="black" points="79.92,-102.5 89.92,-99 79.92,-95.5 79.92,-102.5"/>
</g>
<!-- 2333762062048&#45;&gt;2333762062144 -->
<g id="edge12" class="edge">
<title>2333762062048&#45;&gt;2333762062144</title>
<path fill="none" stroke="black" d="M954.4,-116C962.39,-116 971.31,-116 979.82,-116"/>
<polygon fill="black" stroke="black" points="979.92,-119.5 989.92,-116 979.92,-112.5 979.92,-119.5"/>
</g>
<!-- 2333762069920&#45;&gt;2333762065024 -->
<g id="edge13" class="edge">
<title>2333762069920&#45;&gt;2333762065024</title>
<path fill="none" stroke="black" d="M772.98,-91.05C781.42,-88.37 791,-85.32 800.11,-82.42"/>
<polygon fill="black" stroke="black" points="801.26,-85.73 809.73,-79.36 799.14,-79.06 801.26,-85.73"/>
</g>
<!-- 2333762065408&#45;&gt;2333762069872 -->
<g id="edge14" class="edge">
<title>2333762065408&#45;&gt;2333762069872</title>
<path fill="none" stroke="black" d="M234.4,-99C242.39,-99 251.31,-99 259.82,-99"/>
<polygon fill="black" stroke="black" points="259.92,-102.5 269.92,-99 259.92,-95.5 259.92,-102.5"/>
</g>
<!-- 2333762066848&#45;&gt;2333762066512 -->
<g id="edge15" class="edge">
<title>2333762066848&#45;&gt;2333762066512</title>
<path fill="none" stroke="black" d="M1314.4,-116C1322.39,-116 1331.31,-116 1339.82,-116"/>
<polygon fill="black" stroke="black" points="1339.92,-119.5 1349.92,-116 1339.92,-112.5 1339.92,-119.5"/>
</g>
<!-- 2333762070880&#45;&gt;2333762061424 -->
<g id="edge16" class="edge">
<title>2333762070880&#45;&gt;2333762061424</title>
<path fill="none" stroke="black" d="M594.4,-27C602.39,-27 611.31,-27 619.82,-27"/>
<polygon fill="black" stroke="black" points="619.92,-30.5 629.92,-27 619.92,-23.5 619.92,-30.5"/>
</g>
<!-- 2333762071456&#45;&gt;2333762068384 -->
<g id="edge17" class="edge">
<title>2333762071456&#45;&gt;2333762068384</title>
<path fill="none" stroke="black" d="M684.24,-171C718.96,-171 782.07,-171 836,-171 836,-171 836,-171 1018,-171 1070.24,-171 1084.82,-169.63 1134,-152 1143.22,-148.7 1152.63,-144.02 1161.24,-139.13"/>
<polygon fill="black" stroke="black" points="1163.06,-142.12 1169.88,-134.01 1159.49,-136.1 1163.06,-142.12"/>
</g>
<!-- 2333762070928&#45;&gt;2333762068048 -->
<g id="edge18" class="edge">
<title>2333762070928&#45;&gt;2333762068048</title>
<path fill="none" stroke="black" d="M414.4,-171C422.39,-171 431.31,-171 439.82,-171"/>
<polygon fill="black" stroke="black" points="439.92,-174.5 449.92,-171 439.92,-167.5 439.92,-174.5"/>
</g>
<!-- 2333762062192&#45;&gt;2333762075440 -->
<g id="edge19" class="edge">
<title>2333762062192&#45;&gt;2333762075440</title>
<path fill="none" stroke="black" d="M954.4,-44C962.39,-44 971.31,-44 979.82,-44"/>
<polygon fill="black" stroke="black" points="979.92,-47.5 989.92,-44 979.92,-40.5 979.92,-47.5"/>
</g>
<!-- 2333762063344&#45;&gt;2333762060416 -->
<g id="edge20" class="edge">
<title>2333762063344&#45;&gt;2333762060416</title>
<path fill="none" stroke="black" d="M414.4,-99C422.39,-99 431.31,-99 439.82,-99"/>
<polygon fill="black" stroke="black" points="439.92,-102.5 449.92,-99 439.92,-95.5 439.92,-102.5"/>
</g>
<!-- 2333762066752&#45;&gt;2333762068384 -->
<g id="edge21" class="edge">
<title>2333762066752&#45;&gt;2333762068384</title>
<path fill="none" stroke="black" d="M1134.4,-116C1142.39,-116 1151.31,-116 1159.82,-116"/>
<polygon fill="black" stroke="black" points="1159.92,-119.5 1169.92,-116 1159.92,-112.5 1159.92,-119.5"/>
</g>
<!-- 2333762063248&#45;&gt;2333762068384 -->
<g id="edge22" class="edge">
<title>2333762063248&#45;&gt;2333762068384</title>
<path fill="none" stroke="black" d="M1128.41,-60.7C1139.57,-69.83 1153.61,-81.32 1166,-91.45"/>
<polygon fill="black" stroke="black" points="1163.89,-94.25 1173.85,-97.88 1168.33,-88.84 1163.89,-94.25"/>
</g>
<!-- 2333762064976&#45;&gt;2333762065072 -->
<g id="edge23" class="edge">
<title>2333762064976&#45;&gt;2333762065072</title>
<path fill="none" stroke="black" d="M414.4,-27C422.39,-27 431.31,-27 439.82,-27"/>
<polygon fill="black" stroke="black" points="439.92,-30.5 449.92,-27 439.92,-23.5 439.92,-30.5"/>
</g>
<!-- 2333762060656&#45;&gt;2333762065024 -->
<g id="edge24" class="edge">
<title>2333762060656&#45;&gt;2333762065024</title>
<path fill="none" stroke="black" d="M771.58,-38.79C780.53,-43.27 790.93,-48.47 800.73,-53.37"/>
<polygon fill="black" stroke="black" points="799.36,-56.59 809.87,-57.94 802.49,-50.33 799.36,-56.59"/>
</g>
</g>
</svg>
